%TF.GenerationSoftware,KiCad,Pcbnew,8.0.2*%
%TF.CreationDate,2024-08-26T11:56:27+09:00*%
%TF.ProjectId,FPGA_Board_v1,46504741-5f42-46f6-9172-645f76312e6b,rev?*%
%TF.SameCoordinates,Original*%
%TF.FileFunction,Legend,Top*%
%TF.FilePolarity,Positive*%
%FSLAX46Y46*%
G04 Gerber Fmt 4.6, Leading zero omitted, Abs format (unit mm)*
G04 Created by KiCad (PCBNEW 8.0.2) date 2024-08-26 11:56:27*
%MOMM*%
%LPD*%
G01*
G04 APERTURE LIST*
%ADD10C,0.100000*%
%ADD11C,0.150000*%
%ADD12C,0.120000*%
G04 APERTURE END LIST*
D10*
X103031027Y-102327419D02*
X103602455Y-102327419D01*
X103316741Y-103327419D02*
X103316741Y-102327419D01*
X103840551Y-102327419D02*
X104507217Y-103327419D01*
X104507217Y-102327419D02*
X103840551Y-103327419D01*
X104888170Y-103327419D02*
X104888170Y-102327419D01*
X104888170Y-102327419D02*
X105126265Y-102327419D01*
X105126265Y-102327419D02*
X105269122Y-102375038D01*
X105269122Y-102375038D02*
X105364360Y-102470276D01*
X105364360Y-102470276D02*
X105411979Y-102565514D01*
X105411979Y-102565514D02*
X105459598Y-102755990D01*
X105459598Y-102755990D02*
X105459598Y-102898847D01*
X105459598Y-102898847D02*
X105411979Y-103089323D01*
X105411979Y-103089323D02*
X105364360Y-103184561D01*
X105364360Y-103184561D02*
X105269122Y-103279800D01*
X105269122Y-103279800D02*
X105126265Y-103327419D01*
X105126265Y-103327419D02*
X104888170Y-103327419D01*
X145200476Y-76927419D02*
X145867142Y-76927419D01*
X145867142Y-76927419D02*
X145438571Y-77927419D01*
X146676666Y-76927419D02*
X146486190Y-76927419D01*
X146486190Y-76927419D02*
X146390952Y-76975038D01*
X146390952Y-76975038D02*
X146343333Y-77022657D01*
X146343333Y-77022657D02*
X146248095Y-77165514D01*
X146248095Y-77165514D02*
X146200476Y-77355990D01*
X146200476Y-77355990D02*
X146200476Y-77736942D01*
X146200476Y-77736942D02*
X146248095Y-77832180D01*
X146248095Y-77832180D02*
X146295714Y-77879800D01*
X146295714Y-77879800D02*
X146390952Y-77927419D01*
X146390952Y-77927419D02*
X146581428Y-77927419D01*
X146581428Y-77927419D02*
X146676666Y-77879800D01*
X146676666Y-77879800D02*
X146724285Y-77832180D01*
X146724285Y-77832180D02*
X146771904Y-77736942D01*
X146771904Y-77736942D02*
X146771904Y-77498847D01*
X146771904Y-77498847D02*
X146724285Y-77403609D01*
X146724285Y-77403609D02*
X146676666Y-77355990D01*
X146676666Y-77355990D02*
X146581428Y-77308371D01*
X146581428Y-77308371D02*
X146390952Y-77308371D01*
X146390952Y-77308371D02*
X146295714Y-77355990D01*
X146295714Y-77355990D02*
X146248095Y-77403609D01*
X146248095Y-77403609D02*
X146200476Y-77498847D01*
X107036904Y-94707419D02*
X106560714Y-94707419D01*
X106560714Y-94707419D02*
X106513095Y-95183609D01*
X106513095Y-95183609D02*
X106560714Y-95135990D01*
X106560714Y-95135990D02*
X106655952Y-95088371D01*
X106655952Y-95088371D02*
X106894047Y-95088371D01*
X106894047Y-95088371D02*
X106989285Y-95135990D01*
X106989285Y-95135990D02*
X107036904Y-95183609D01*
X107036904Y-95183609D02*
X107084523Y-95278847D01*
X107084523Y-95278847D02*
X107084523Y-95516942D01*
X107084523Y-95516942D02*
X107036904Y-95612180D01*
X107036904Y-95612180D02*
X106989285Y-95659800D01*
X106989285Y-95659800D02*
X106894047Y-95707419D01*
X106894047Y-95707419D02*
X106655952Y-95707419D01*
X106655952Y-95707419D02*
X106560714Y-95659800D01*
X106560714Y-95659800D02*
X106513095Y-95612180D01*
X107417857Y-94707419D02*
X108036904Y-94707419D01*
X108036904Y-94707419D02*
X107703571Y-95088371D01*
X107703571Y-95088371D02*
X107846428Y-95088371D01*
X107846428Y-95088371D02*
X107941666Y-95135990D01*
X107941666Y-95135990D02*
X107989285Y-95183609D01*
X107989285Y-95183609D02*
X108036904Y-95278847D01*
X108036904Y-95278847D02*
X108036904Y-95516942D01*
X108036904Y-95516942D02*
X107989285Y-95612180D01*
X107989285Y-95612180D02*
X107941666Y-95659800D01*
X107941666Y-95659800D02*
X107846428Y-95707419D01*
X107846428Y-95707419D02*
X107560714Y-95707419D01*
X107560714Y-95707419D02*
X107465476Y-95659800D01*
X107465476Y-95659800D02*
X107417857Y-95612180D01*
X106989285Y-87420752D02*
X106989285Y-88087419D01*
X106751190Y-87039800D02*
X106513095Y-87754085D01*
X106513095Y-87754085D02*
X107132142Y-87754085D01*
X108036904Y-88087419D02*
X107465476Y-88087419D01*
X107751190Y-88087419D02*
X107751190Y-87087419D01*
X107751190Y-87087419D02*
X107655952Y-87230276D01*
X107655952Y-87230276D02*
X107560714Y-87325514D01*
X107560714Y-87325514D02*
X107465476Y-87373133D01*
X148383333Y-85452180D02*
X148335714Y-85499800D01*
X148335714Y-85499800D02*
X148192857Y-85547419D01*
X148192857Y-85547419D02*
X148097619Y-85547419D01*
X148097619Y-85547419D02*
X147954762Y-85499800D01*
X147954762Y-85499800D02*
X147859524Y-85404561D01*
X147859524Y-85404561D02*
X147811905Y-85309323D01*
X147811905Y-85309323D02*
X147764286Y-85118847D01*
X147764286Y-85118847D02*
X147764286Y-84975990D01*
X147764286Y-84975990D02*
X147811905Y-84785514D01*
X147811905Y-84785514D02*
X147859524Y-84690276D01*
X147859524Y-84690276D02*
X147954762Y-84595038D01*
X147954762Y-84595038D02*
X148097619Y-84547419D01*
X148097619Y-84547419D02*
X148192857Y-84547419D01*
X148192857Y-84547419D02*
X148335714Y-84595038D01*
X148335714Y-84595038D02*
X148383333Y-84642657D01*
X149240476Y-84880752D02*
X149240476Y-85547419D01*
X149002381Y-84499800D02*
X148764286Y-85214085D01*
X148764286Y-85214085D02*
X149383333Y-85214085D01*
X147811905Y-57607419D02*
X147811905Y-56607419D01*
X147811905Y-56607419D02*
X148050000Y-56607419D01*
X148050000Y-56607419D02*
X148192857Y-56655038D01*
X148192857Y-56655038D02*
X148288095Y-56750276D01*
X148288095Y-56750276D02*
X148335714Y-56845514D01*
X148335714Y-56845514D02*
X148383333Y-57035990D01*
X148383333Y-57035990D02*
X148383333Y-57178847D01*
X148383333Y-57178847D02*
X148335714Y-57369323D01*
X148335714Y-57369323D02*
X148288095Y-57464561D01*
X148288095Y-57464561D02*
X148192857Y-57559800D01*
X148192857Y-57559800D02*
X148050000Y-57607419D01*
X148050000Y-57607419D02*
X147811905Y-57607419D01*
X148764286Y-56702657D02*
X148811905Y-56655038D01*
X148811905Y-56655038D02*
X148907143Y-56607419D01*
X148907143Y-56607419D02*
X149145238Y-56607419D01*
X149145238Y-56607419D02*
X149240476Y-56655038D01*
X149240476Y-56655038D02*
X149288095Y-56702657D01*
X149288095Y-56702657D02*
X149335714Y-56797895D01*
X149335714Y-56797895D02*
X149335714Y-56893133D01*
X149335714Y-56893133D02*
X149288095Y-57035990D01*
X149288095Y-57035990D02*
X148716667Y-57607419D01*
X148716667Y-57607419D02*
X149335714Y-57607419D01*
X145438571Y-59575990D02*
X145343333Y-59528371D01*
X145343333Y-59528371D02*
X145295714Y-59480752D01*
X145295714Y-59480752D02*
X145248095Y-59385514D01*
X145248095Y-59385514D02*
X145248095Y-59337895D01*
X145248095Y-59337895D02*
X145295714Y-59242657D01*
X145295714Y-59242657D02*
X145343333Y-59195038D01*
X145343333Y-59195038D02*
X145438571Y-59147419D01*
X145438571Y-59147419D02*
X145629047Y-59147419D01*
X145629047Y-59147419D02*
X145724285Y-59195038D01*
X145724285Y-59195038D02*
X145771904Y-59242657D01*
X145771904Y-59242657D02*
X145819523Y-59337895D01*
X145819523Y-59337895D02*
X145819523Y-59385514D01*
X145819523Y-59385514D02*
X145771904Y-59480752D01*
X145771904Y-59480752D02*
X145724285Y-59528371D01*
X145724285Y-59528371D02*
X145629047Y-59575990D01*
X145629047Y-59575990D02*
X145438571Y-59575990D01*
X145438571Y-59575990D02*
X145343333Y-59623609D01*
X145343333Y-59623609D02*
X145295714Y-59671228D01*
X145295714Y-59671228D02*
X145248095Y-59766466D01*
X145248095Y-59766466D02*
X145248095Y-59956942D01*
X145248095Y-59956942D02*
X145295714Y-60052180D01*
X145295714Y-60052180D02*
X145343333Y-60099800D01*
X145343333Y-60099800D02*
X145438571Y-60147419D01*
X145438571Y-60147419D02*
X145629047Y-60147419D01*
X145629047Y-60147419D02*
X145724285Y-60099800D01*
X145724285Y-60099800D02*
X145771904Y-60052180D01*
X145771904Y-60052180D02*
X145819523Y-59956942D01*
X145819523Y-59956942D02*
X145819523Y-59766466D01*
X145819523Y-59766466D02*
X145771904Y-59671228D01*
X145771904Y-59671228D02*
X145724285Y-59623609D01*
X145724285Y-59623609D02*
X145629047Y-59575990D01*
X146676666Y-59480752D02*
X146676666Y-60147419D01*
X146438571Y-59099800D02*
X146200476Y-59814085D01*
X146200476Y-59814085D02*
X146819523Y-59814085D01*
X106465476Y-79467419D02*
X107084523Y-79467419D01*
X107084523Y-79467419D02*
X106751190Y-79848371D01*
X106751190Y-79848371D02*
X106894047Y-79848371D01*
X106894047Y-79848371D02*
X106989285Y-79895990D01*
X106989285Y-79895990D02*
X107036904Y-79943609D01*
X107036904Y-79943609D02*
X107084523Y-80038847D01*
X107084523Y-80038847D02*
X107084523Y-80276942D01*
X107084523Y-80276942D02*
X107036904Y-80372180D01*
X107036904Y-80372180D02*
X106989285Y-80419800D01*
X106989285Y-80419800D02*
X106894047Y-80467419D01*
X106894047Y-80467419D02*
X106608333Y-80467419D01*
X106608333Y-80467419D02*
X106513095Y-80419800D01*
X106513095Y-80419800D02*
X106465476Y-80372180D01*
X107941666Y-79800752D02*
X107941666Y-80467419D01*
X107703571Y-79419800D02*
X107465476Y-80134085D01*
X107465476Y-80134085D02*
X108084523Y-80134085D01*
X163702419Y-128902782D02*
X163226228Y-129236115D01*
X163702419Y-129474210D02*
X162702419Y-129474210D01*
X162702419Y-129474210D02*
X162702419Y-129093258D01*
X162702419Y-129093258D02*
X162750038Y-128998020D01*
X162750038Y-128998020D02*
X162797657Y-128950401D01*
X162797657Y-128950401D02*
X162892895Y-128902782D01*
X162892895Y-128902782D02*
X163035752Y-128902782D01*
X163035752Y-128902782D02*
X163130990Y-128950401D01*
X163130990Y-128950401D02*
X163178609Y-128998020D01*
X163178609Y-128998020D02*
X163226228Y-129093258D01*
X163226228Y-129093258D02*
X163226228Y-129474210D01*
X162702419Y-128569448D02*
X163702419Y-127902782D01*
X162702419Y-127902782D02*
X163702419Y-128569448D01*
X163702419Y-127521829D02*
X162702419Y-127521829D01*
X162702419Y-127521829D02*
X162702419Y-127283734D01*
X162702419Y-127283734D02*
X162750038Y-127140877D01*
X162750038Y-127140877D02*
X162845276Y-127045639D01*
X162845276Y-127045639D02*
X162940514Y-126998020D01*
X162940514Y-126998020D02*
X163130990Y-126950401D01*
X163130990Y-126950401D02*
X163273847Y-126950401D01*
X163273847Y-126950401D02*
X163464323Y-126998020D01*
X163464323Y-126998020D02*
X163559561Y-127045639D01*
X163559561Y-127045639D02*
X163654800Y-127140877D01*
X163654800Y-127140877D02*
X163702419Y-127283734D01*
X163702419Y-127283734D02*
X163702419Y-127521829D01*
X106989285Y-109947419D02*
X106798809Y-109947419D01*
X106798809Y-109947419D02*
X106703571Y-109995038D01*
X106703571Y-109995038D02*
X106655952Y-110042657D01*
X106655952Y-110042657D02*
X106560714Y-110185514D01*
X106560714Y-110185514D02*
X106513095Y-110375990D01*
X106513095Y-110375990D02*
X106513095Y-110756942D01*
X106513095Y-110756942D02*
X106560714Y-110852180D01*
X106560714Y-110852180D02*
X106608333Y-110899800D01*
X106608333Y-110899800D02*
X106703571Y-110947419D01*
X106703571Y-110947419D02*
X106894047Y-110947419D01*
X106894047Y-110947419D02*
X106989285Y-110899800D01*
X106989285Y-110899800D02*
X107036904Y-110852180D01*
X107036904Y-110852180D02*
X107084523Y-110756942D01*
X107084523Y-110756942D02*
X107084523Y-110518847D01*
X107084523Y-110518847D02*
X107036904Y-110423609D01*
X107036904Y-110423609D02*
X106989285Y-110375990D01*
X106989285Y-110375990D02*
X106894047Y-110328371D01*
X106894047Y-110328371D02*
X106703571Y-110328371D01*
X106703571Y-110328371D02*
X106608333Y-110375990D01*
X106608333Y-110375990D02*
X106560714Y-110423609D01*
X106560714Y-110423609D02*
X106513095Y-110518847D01*
X107560714Y-110947419D02*
X107751190Y-110947419D01*
X107751190Y-110947419D02*
X107846428Y-110899800D01*
X107846428Y-110899800D02*
X107894047Y-110852180D01*
X107894047Y-110852180D02*
X107989285Y-110709323D01*
X107989285Y-110709323D02*
X108036904Y-110518847D01*
X108036904Y-110518847D02*
X108036904Y-110137895D01*
X108036904Y-110137895D02*
X107989285Y-110042657D01*
X107989285Y-110042657D02*
X107941666Y-109995038D01*
X107941666Y-109995038D02*
X107846428Y-109947419D01*
X107846428Y-109947419D02*
X107655952Y-109947419D01*
X107655952Y-109947419D02*
X107560714Y-109995038D01*
X107560714Y-109995038D02*
X107513095Y-110042657D01*
X107513095Y-110042657D02*
X107465476Y-110137895D01*
X107465476Y-110137895D02*
X107465476Y-110375990D01*
X107465476Y-110375990D02*
X107513095Y-110471228D01*
X107513095Y-110471228D02*
X107560714Y-110518847D01*
X107560714Y-110518847D02*
X107655952Y-110566466D01*
X107655952Y-110566466D02*
X107846428Y-110566466D01*
X107846428Y-110566466D02*
X107941666Y-110518847D01*
X107941666Y-110518847D02*
X107989285Y-110471228D01*
X107989285Y-110471228D02*
X108036904Y-110375990D01*
X102766667Y-55019800D02*
X102909524Y-55067419D01*
X102909524Y-55067419D02*
X103147619Y-55067419D01*
X103147619Y-55067419D02*
X103242857Y-55019800D01*
X103242857Y-55019800D02*
X103290476Y-54972180D01*
X103290476Y-54972180D02*
X103338095Y-54876942D01*
X103338095Y-54876942D02*
X103338095Y-54781704D01*
X103338095Y-54781704D02*
X103290476Y-54686466D01*
X103290476Y-54686466D02*
X103242857Y-54638847D01*
X103242857Y-54638847D02*
X103147619Y-54591228D01*
X103147619Y-54591228D02*
X102957143Y-54543609D01*
X102957143Y-54543609D02*
X102861905Y-54495990D01*
X102861905Y-54495990D02*
X102814286Y-54448371D01*
X102814286Y-54448371D02*
X102766667Y-54353133D01*
X102766667Y-54353133D02*
X102766667Y-54257895D01*
X102766667Y-54257895D02*
X102814286Y-54162657D01*
X102814286Y-54162657D02*
X102861905Y-54115038D01*
X102861905Y-54115038D02*
X102957143Y-54067419D01*
X102957143Y-54067419D02*
X103195238Y-54067419D01*
X103195238Y-54067419D02*
X103338095Y-54115038D01*
X103671429Y-54067419D02*
X103909524Y-55067419D01*
X103909524Y-55067419D02*
X104100000Y-54353133D01*
X104100000Y-54353133D02*
X104290476Y-55067419D01*
X104290476Y-55067419D02*
X104528572Y-54067419D01*
X104814286Y-54067419D02*
X105433333Y-54067419D01*
X105433333Y-54067419D02*
X105100000Y-54448371D01*
X105100000Y-54448371D02*
X105242857Y-54448371D01*
X105242857Y-54448371D02*
X105338095Y-54495990D01*
X105338095Y-54495990D02*
X105385714Y-54543609D01*
X105385714Y-54543609D02*
X105433333Y-54638847D01*
X105433333Y-54638847D02*
X105433333Y-54876942D01*
X105433333Y-54876942D02*
X105385714Y-54972180D01*
X105385714Y-54972180D02*
X105338095Y-55019800D01*
X105338095Y-55019800D02*
X105242857Y-55067419D01*
X105242857Y-55067419D02*
X104957143Y-55067419D01*
X104957143Y-55067419D02*
X104861905Y-55019800D01*
X104861905Y-55019800D02*
X104814286Y-54972180D01*
X148383333Y-90532180D02*
X148335714Y-90579800D01*
X148335714Y-90579800D02*
X148192857Y-90627419D01*
X148192857Y-90627419D02*
X148097619Y-90627419D01*
X148097619Y-90627419D02*
X147954762Y-90579800D01*
X147954762Y-90579800D02*
X147859524Y-90484561D01*
X147859524Y-90484561D02*
X147811905Y-90389323D01*
X147811905Y-90389323D02*
X147764286Y-90198847D01*
X147764286Y-90198847D02*
X147764286Y-90055990D01*
X147764286Y-90055990D02*
X147811905Y-89865514D01*
X147811905Y-89865514D02*
X147859524Y-89770276D01*
X147859524Y-89770276D02*
X147954762Y-89675038D01*
X147954762Y-89675038D02*
X148097619Y-89627419D01*
X148097619Y-89627419D02*
X148192857Y-89627419D01*
X148192857Y-89627419D02*
X148335714Y-89675038D01*
X148335714Y-89675038D02*
X148383333Y-89722657D01*
X148764286Y-89722657D02*
X148811905Y-89675038D01*
X148811905Y-89675038D02*
X148907143Y-89627419D01*
X148907143Y-89627419D02*
X149145238Y-89627419D01*
X149145238Y-89627419D02*
X149240476Y-89675038D01*
X149240476Y-89675038D02*
X149288095Y-89722657D01*
X149288095Y-89722657D02*
X149335714Y-89817895D01*
X149335714Y-89817895D02*
X149335714Y-89913133D01*
X149335714Y-89913133D02*
X149288095Y-90055990D01*
X149288095Y-90055990D02*
X148716667Y-90627419D01*
X148716667Y-90627419D02*
X149335714Y-90627419D01*
X147811905Y-70307419D02*
X147811905Y-69307419D01*
X147811905Y-69307419D02*
X148050000Y-69307419D01*
X148050000Y-69307419D02*
X148192857Y-69355038D01*
X148192857Y-69355038D02*
X148288095Y-69450276D01*
X148288095Y-69450276D02*
X148335714Y-69545514D01*
X148335714Y-69545514D02*
X148383333Y-69735990D01*
X148383333Y-69735990D02*
X148383333Y-69878847D01*
X148383333Y-69878847D02*
X148335714Y-70069323D01*
X148335714Y-70069323D02*
X148288095Y-70164561D01*
X148288095Y-70164561D02*
X148192857Y-70259800D01*
X148192857Y-70259800D02*
X148050000Y-70307419D01*
X148050000Y-70307419D02*
X147811905Y-70307419D01*
X148716667Y-69307419D02*
X149383333Y-69307419D01*
X149383333Y-69307419D02*
X148954762Y-70307419D01*
X160162419Y-129617067D02*
X160162419Y-129045639D01*
X161162419Y-129331353D02*
X160162419Y-129331353D01*
X160162419Y-128807543D02*
X161162419Y-128140877D01*
X160162419Y-128140877D02*
X161162419Y-128807543D01*
X161162419Y-127759924D02*
X160162419Y-127759924D01*
X160162419Y-127759924D02*
X160162419Y-127521829D01*
X160162419Y-127521829D02*
X160210038Y-127378972D01*
X160210038Y-127378972D02*
X160305276Y-127283734D01*
X160305276Y-127283734D02*
X160400514Y-127236115D01*
X160400514Y-127236115D02*
X160590990Y-127188496D01*
X160590990Y-127188496D02*
X160733847Y-127188496D01*
X160733847Y-127188496D02*
X160924323Y-127236115D01*
X160924323Y-127236115D02*
X161019561Y-127283734D01*
X161019561Y-127283734D02*
X161114800Y-127378972D01*
X161114800Y-127378972D02*
X161162419Y-127521829D01*
X161162419Y-127521829D02*
X161162419Y-127759924D01*
X106465476Y-51527419D02*
X107084523Y-51527419D01*
X107084523Y-51527419D02*
X106751190Y-51908371D01*
X106751190Y-51908371D02*
X106894047Y-51908371D01*
X106894047Y-51908371D02*
X106989285Y-51955990D01*
X106989285Y-51955990D02*
X107036904Y-52003609D01*
X107036904Y-52003609D02*
X107084523Y-52098847D01*
X107084523Y-52098847D02*
X107084523Y-52336942D01*
X107084523Y-52336942D02*
X107036904Y-52432180D01*
X107036904Y-52432180D02*
X106989285Y-52479800D01*
X106989285Y-52479800D02*
X106894047Y-52527419D01*
X106894047Y-52527419D02*
X106608333Y-52527419D01*
X106608333Y-52527419D02*
X106513095Y-52479800D01*
X106513095Y-52479800D02*
X106465476Y-52432180D01*
X107655952Y-51955990D02*
X107560714Y-51908371D01*
X107560714Y-51908371D02*
X107513095Y-51860752D01*
X107513095Y-51860752D02*
X107465476Y-51765514D01*
X107465476Y-51765514D02*
X107465476Y-51717895D01*
X107465476Y-51717895D02*
X107513095Y-51622657D01*
X107513095Y-51622657D02*
X107560714Y-51575038D01*
X107560714Y-51575038D02*
X107655952Y-51527419D01*
X107655952Y-51527419D02*
X107846428Y-51527419D01*
X107846428Y-51527419D02*
X107941666Y-51575038D01*
X107941666Y-51575038D02*
X107989285Y-51622657D01*
X107989285Y-51622657D02*
X108036904Y-51717895D01*
X108036904Y-51717895D02*
X108036904Y-51765514D01*
X108036904Y-51765514D02*
X107989285Y-51860752D01*
X107989285Y-51860752D02*
X107941666Y-51908371D01*
X107941666Y-51908371D02*
X107846428Y-51955990D01*
X107846428Y-51955990D02*
X107655952Y-51955990D01*
X107655952Y-51955990D02*
X107560714Y-52003609D01*
X107560714Y-52003609D02*
X107513095Y-52051228D01*
X107513095Y-52051228D02*
X107465476Y-52146466D01*
X107465476Y-52146466D02*
X107465476Y-52336942D01*
X107465476Y-52336942D02*
X107513095Y-52432180D01*
X107513095Y-52432180D02*
X107560714Y-52479800D01*
X107560714Y-52479800D02*
X107655952Y-52527419D01*
X107655952Y-52527419D02*
X107846428Y-52527419D01*
X107846428Y-52527419D02*
X107941666Y-52479800D01*
X107941666Y-52479800D02*
X107989285Y-52432180D01*
X107989285Y-52432180D02*
X108036904Y-52336942D01*
X108036904Y-52336942D02*
X108036904Y-52146466D01*
X108036904Y-52146466D02*
X107989285Y-52051228D01*
X107989285Y-52051228D02*
X107941666Y-52003609D01*
X107941666Y-52003609D02*
X107846428Y-51955990D01*
X145200476Y-92167419D02*
X145867142Y-92167419D01*
X145867142Y-92167419D02*
X145438571Y-93167419D01*
X146438571Y-92167419D02*
X146533809Y-92167419D01*
X146533809Y-92167419D02*
X146629047Y-92215038D01*
X146629047Y-92215038D02*
X146676666Y-92262657D01*
X146676666Y-92262657D02*
X146724285Y-92357895D01*
X146724285Y-92357895D02*
X146771904Y-92548371D01*
X146771904Y-92548371D02*
X146771904Y-92786466D01*
X146771904Y-92786466D02*
X146724285Y-92976942D01*
X146724285Y-92976942D02*
X146676666Y-93072180D01*
X146676666Y-93072180D02*
X146629047Y-93119800D01*
X146629047Y-93119800D02*
X146533809Y-93167419D01*
X146533809Y-93167419D02*
X146438571Y-93167419D01*
X146438571Y-93167419D02*
X146343333Y-93119800D01*
X146343333Y-93119800D02*
X146295714Y-93072180D01*
X146295714Y-93072180D02*
X146248095Y-92976942D01*
X146248095Y-92976942D02*
X146200476Y-92786466D01*
X146200476Y-92786466D02*
X146200476Y-92548371D01*
X146200476Y-92548371D02*
X146248095Y-92357895D01*
X146248095Y-92357895D02*
X146295714Y-92262657D01*
X146295714Y-92262657D02*
X146343333Y-92215038D01*
X146343333Y-92215038D02*
X146438571Y-92167419D01*
G36*
X143558360Y-131594371D02*
G01*
X144977288Y-131594371D01*
X144977288Y-131946081D01*
X144501381Y-131946081D01*
X144501381Y-133095000D01*
X144034633Y-133095000D01*
X144034633Y-131946081D01*
X143558360Y-131946081D01*
X143558360Y-131594371D01*
G37*
G36*
X145672501Y-131970545D02*
G01*
X145754057Y-131974197D01*
X145834695Y-131981481D01*
X145896496Y-131990778D01*
X145970788Y-132010841D01*
X146041465Y-132045171D01*
X146087372Y-132079438D01*
X146135183Y-132135766D01*
X146169690Y-132206375D01*
X146171636Y-132211695D01*
X146192924Y-132284915D01*
X146202503Y-132360097D01*
X146202777Y-132374727D01*
X146202777Y-132860893D01*
X146205791Y-132937606D01*
X146212302Y-132982526D01*
X146236813Y-133054578D01*
X146255167Y-133095000D01*
X145861692Y-133095000D01*
X145830551Y-133029787D01*
X145816263Y-132959078D01*
X145759720Y-133008411D01*
X145698334Y-133050082D01*
X145652498Y-133073018D01*
X145579382Y-133096974D01*
X145499254Y-133112058D01*
X145421144Y-133118048D01*
X145393845Y-133118447D01*
X145312615Y-133114274D01*
X145230859Y-133099288D01*
X145160918Y-133073402D01*
X145096357Y-133031252D01*
X145042840Y-132972748D01*
X145009145Y-132906230D01*
X144995270Y-132831698D01*
X144994874Y-132815830D01*
X144998606Y-132782491D01*
X145415460Y-132782491D01*
X145443744Y-132850264D01*
X145449898Y-132855764D01*
X145519897Y-132882211D01*
X145551381Y-132883974D01*
X145626974Y-132874236D01*
X145681441Y-132853199D01*
X145743265Y-132809579D01*
X145767170Y-132778461D01*
X145789980Y-132704866D01*
X145792449Y-132663056D01*
X145792449Y-132602606D01*
X145720989Y-132624201D01*
X145647111Y-132643740D01*
X145612198Y-132652065D01*
X145535419Y-132673093D01*
X145466581Y-132701348D01*
X145450631Y-132712515D01*
X145415597Y-132777624D01*
X145415460Y-132782491D01*
X144998606Y-132782491D01*
X145003532Y-132738488D01*
X145032727Y-132665570D01*
X145068147Y-132618726D01*
X145132946Y-132570256D01*
X145207794Y-132537553D01*
X145279594Y-132516446D01*
X145338157Y-132503688D01*
X145420800Y-132487480D01*
X145502467Y-132471014D01*
X145576352Y-132455414D01*
X145644071Y-132439574D01*
X145716154Y-132418416D01*
X145787557Y-132393424D01*
X145792449Y-132391580D01*
X145782364Y-132318628D01*
X145760575Y-132282404D01*
X145689585Y-132253388D01*
X145648101Y-132250896D01*
X145572921Y-132256822D01*
X145500153Y-132282452D01*
X145493496Y-132286800D01*
X145447552Y-132344487D01*
X145428649Y-132391580D01*
X145027847Y-132344685D01*
X145045801Y-132270225D01*
X145073047Y-132197407D01*
X145093060Y-132160771D01*
X145141537Y-132101598D01*
X145201743Y-132053633D01*
X145216524Y-132044267D01*
X145284943Y-132012485D01*
X145356584Y-131992731D01*
X145375160Y-131988946D01*
X145453264Y-131977113D01*
X145528843Y-131971064D01*
X145593513Y-131969528D01*
X145672501Y-131970545D01*
G37*
G36*
X146446043Y-131992976D02*
G01*
X146836587Y-131992976D01*
X146836587Y-132171762D01*
X146885985Y-132115482D01*
X146941212Y-132064506D01*
X147002374Y-132022482D01*
X147013541Y-132016423D01*
X147086373Y-131987847D01*
X147162821Y-131973238D01*
X147232260Y-131969528D01*
X147314532Y-131976054D01*
X147387324Y-131995632D01*
X147457884Y-132033258D01*
X147504469Y-132073942D01*
X147552109Y-132141453D01*
X147581367Y-132216546D01*
X147596862Y-132293898D01*
X147602636Y-132368851D01*
X147603021Y-132395610D01*
X147603021Y-133095000D01*
X147181702Y-133095000D01*
X147181702Y-132487934D01*
X147175414Y-132413493D01*
X147145944Y-132343761D01*
X147143600Y-132341022D01*
X147080338Y-132302899D01*
X147036622Y-132297791D01*
X146963720Y-132314231D01*
X146912791Y-132356043D01*
X146880484Y-132424685D01*
X146867791Y-132503411D01*
X146865530Y-132564870D01*
X146865530Y-133095000D01*
X146446043Y-133095000D01*
X146446043Y-131992976D01*
G37*
G36*
X148316547Y-131973464D02*
G01*
X148389315Y-131986884D01*
X148451521Y-132009829D01*
X148517278Y-132050982D01*
X148574757Y-132104425D01*
X148606859Y-132142452D01*
X148606859Y-131992976D01*
X148999602Y-131992976D01*
X148999602Y-133032718D01*
X149000701Y-133081444D01*
X148994518Y-133157814D01*
X148975971Y-133231401D01*
X148956737Y-133278914D01*
X148919918Y-133344207D01*
X148870727Y-133403546D01*
X148840233Y-133430589D01*
X148774825Y-133472538D01*
X148702963Y-133501706D01*
X148655952Y-133514487D01*
X148582930Y-133528204D01*
X148503539Y-133536841D01*
X148426642Y-133540270D01*
X148399863Y-133540498D01*
X148320660Y-133538941D01*
X148230736Y-133532616D01*
X148150902Y-133521425D01*
X148068418Y-133501572D01*
X147990550Y-133469555D01*
X147947037Y-133440847D01*
X147893182Y-133386969D01*
X147850987Y-133316229D01*
X147829829Y-133244347D01*
X147823939Y-133174501D01*
X147826137Y-133118447D01*
X148232801Y-133165341D01*
X148274231Y-133228321D01*
X148280062Y-133232020D01*
X148351229Y-133255927D01*
X148396566Y-133259131D01*
X148471603Y-133248988D01*
X148532121Y-133212969D01*
X148567282Y-133144380D01*
X148577008Y-133065557D01*
X148577184Y-133051402D01*
X148577184Y-132893133D01*
X148523008Y-132948461D01*
X148461092Y-132993318D01*
X148453353Y-132997547D01*
X148384996Y-133026331D01*
X148312916Y-133043168D01*
X148244159Y-133048105D01*
X148164839Y-133041343D01*
X148091471Y-133021057D01*
X148024052Y-132987247D01*
X147962585Y-132939913D01*
X147907068Y-132879055D01*
X147889884Y-132855764D01*
X147852483Y-132791788D01*
X147824268Y-132719432D01*
X147805239Y-132638696D01*
X147796240Y-132562824D01*
X147794718Y-132518709D01*
X148212285Y-132518709D01*
X148218259Y-132597691D01*
X148240724Y-132671276D01*
X148262843Y-132705921D01*
X148321370Y-132751533D01*
X148395833Y-132766737D01*
X148467641Y-132750983D01*
X148526992Y-132703722D01*
X148563306Y-132636062D01*
X148578247Y-132558645D01*
X148580115Y-132513213D01*
X148574676Y-132439396D01*
X148553794Y-132366307D01*
X148524427Y-132318307D01*
X148466827Y-132269921D01*
X148393497Y-132250962D01*
X148388506Y-132250896D01*
X148316332Y-132266467D01*
X148260279Y-132313178D01*
X148227470Y-132382992D01*
X148214581Y-132459786D01*
X148212285Y-132518709D01*
X147794718Y-132518709D01*
X147793897Y-132494895D01*
X147796911Y-132417731D01*
X147808486Y-132332998D01*
X147828742Y-132256843D01*
X147857679Y-132189266D01*
X147902411Y-132121268D01*
X147917362Y-132103984D01*
X147975184Y-132051594D01*
X148040300Y-132012071D01*
X148112708Y-131985416D01*
X148192410Y-131971629D01*
X148241228Y-131969528D01*
X148316547Y-131973464D01*
G37*
G36*
X149976329Y-131594371D02*
G01*
X150412302Y-131594371D01*
X150981266Y-132439940D01*
X150981266Y-131594371D01*
X151420903Y-131594371D01*
X151420903Y-133095000D01*
X150981266Y-133095000D01*
X150415233Y-132253827D01*
X150415233Y-133095000D01*
X149976329Y-133095000D01*
X149976329Y-131594371D01*
G37*
G36*
X152319814Y-131970545D02*
G01*
X152401370Y-131974197D01*
X152482009Y-131981481D01*
X152543810Y-131990778D01*
X152618101Y-132010841D01*
X152688778Y-132045171D01*
X152734685Y-132079438D01*
X152782496Y-132135766D01*
X152817004Y-132206375D01*
X152818949Y-132211695D01*
X152840237Y-132284915D01*
X152849817Y-132360097D01*
X152850090Y-132374727D01*
X152850090Y-132860893D01*
X152853104Y-132937606D01*
X152859616Y-132982526D01*
X152884126Y-133054578D01*
X152902480Y-133095000D01*
X152509005Y-133095000D01*
X152477864Y-133029787D01*
X152463576Y-132959078D01*
X152407034Y-133008411D01*
X152345648Y-133050082D01*
X152299811Y-133073018D01*
X152226696Y-133096974D01*
X152146568Y-133112058D01*
X152068457Y-133118048D01*
X152041158Y-133118447D01*
X151959929Y-133114274D01*
X151878172Y-133099288D01*
X151808231Y-133073402D01*
X151743670Y-133031252D01*
X151690154Y-132972748D01*
X151656458Y-132906230D01*
X151642584Y-132831698D01*
X151642187Y-132815830D01*
X151645919Y-132782491D01*
X152062773Y-132782491D01*
X152091057Y-132850264D01*
X152097212Y-132855764D01*
X152167210Y-132882211D01*
X152198695Y-132883974D01*
X152274287Y-132874236D01*
X152328754Y-132853199D01*
X152390578Y-132809579D01*
X152414483Y-132778461D01*
X152437294Y-132704866D01*
X152439762Y-132663056D01*
X152439762Y-132602606D01*
X152368303Y-132624201D01*
X152294424Y-132643740D01*
X152259511Y-132652065D01*
X152182732Y-132673093D01*
X152113894Y-132701348D01*
X152097944Y-132712515D01*
X152062911Y-132777624D01*
X152062773Y-132782491D01*
X151645919Y-132782491D01*
X151650845Y-132738488D01*
X151680040Y-132665570D01*
X151715460Y-132618726D01*
X151780259Y-132570256D01*
X151855108Y-132537553D01*
X151926908Y-132516446D01*
X151985471Y-132503688D01*
X152068113Y-132487480D01*
X152149780Y-132471014D01*
X152223666Y-132455414D01*
X152291385Y-132439574D01*
X152363467Y-132418416D01*
X152434870Y-132393424D01*
X152439762Y-132391580D01*
X152429677Y-132318628D01*
X152407889Y-132282404D01*
X152336898Y-132253388D01*
X152295415Y-132250896D01*
X152220234Y-132256822D01*
X152147467Y-132282452D01*
X152140809Y-132286800D01*
X152094865Y-132344487D01*
X152075963Y-132391580D01*
X151675160Y-132344685D01*
X151693114Y-132270225D01*
X151720360Y-132197407D01*
X151740373Y-132160771D01*
X151788850Y-132101598D01*
X151849057Y-132053633D01*
X151863838Y-132044267D01*
X151932256Y-132012485D01*
X152003897Y-131992731D01*
X152022473Y-131988946D01*
X152100578Y-131977113D01*
X152176156Y-131971064D01*
X152240826Y-131969528D01*
X152319814Y-131970545D01*
G37*
G36*
X153093356Y-131992976D02*
G01*
X153483900Y-131992976D01*
X153483900Y-132171762D01*
X153533298Y-132115482D01*
X153588525Y-132064506D01*
X153649687Y-132022482D01*
X153660854Y-132016423D01*
X153733686Y-131987847D01*
X153810135Y-131973238D01*
X153879574Y-131969528D01*
X153961845Y-131976054D01*
X154034637Y-131995632D01*
X154105197Y-132033258D01*
X154151782Y-132073942D01*
X154199422Y-132141453D01*
X154228680Y-132216546D01*
X154244175Y-132293898D01*
X154249949Y-132368851D01*
X154250334Y-132395610D01*
X154250334Y-133095000D01*
X153829016Y-133095000D01*
X153829016Y-132487934D01*
X153822727Y-132413493D01*
X153793258Y-132343761D01*
X153790914Y-132341022D01*
X153727651Y-132302899D01*
X153683935Y-132297791D01*
X153611034Y-132314231D01*
X153560104Y-132356043D01*
X153527797Y-132424685D01*
X153515105Y-132503411D01*
X153512843Y-132564870D01*
X153512843Y-133095000D01*
X153093356Y-133095000D01*
X153093356Y-131992976D01*
G37*
G36*
X155146605Y-131972522D02*
G01*
X155221223Y-131981504D01*
X155307427Y-132001151D01*
X155385779Y-132030155D01*
X155456277Y-132068514D01*
X155518922Y-132116229D01*
X155563384Y-132161137D01*
X155609327Y-132221488D01*
X155645764Y-132286863D01*
X155672697Y-132357261D01*
X155690123Y-132432682D01*
X155698044Y-132513126D01*
X155698572Y-132541057D01*
X155694485Y-132618047D01*
X155682222Y-132690565D01*
X155656715Y-132771683D01*
X155619436Y-132846361D01*
X155570385Y-132914599D01*
X155531144Y-132956514D01*
X155463837Y-133011546D01*
X155387489Y-133055192D01*
X155316959Y-133082866D01*
X155240149Y-133102633D01*
X155157061Y-133114493D01*
X155067693Y-133118447D01*
X154987730Y-133115164D01*
X154912704Y-133105316D01*
X154829190Y-133084833D01*
X154752786Y-133054895D01*
X154683492Y-133015504D01*
X154641245Y-132983991D01*
X154583618Y-132929367D01*
X154535758Y-132869681D01*
X154497665Y-132804932D01*
X154469340Y-132735121D01*
X154450782Y-132660247D01*
X154441992Y-132580311D01*
X154441210Y-132546919D01*
X154441388Y-132543621D01*
X154861796Y-132543621D01*
X154866462Y-132621735D01*
X154882591Y-132694049D01*
X154917152Y-132760707D01*
X154920781Y-132765272D01*
X154978534Y-132814359D01*
X155053329Y-132836448D01*
X155069891Y-132837079D01*
X155142901Y-132823545D01*
X155207430Y-132779007D01*
X155218635Y-132766371D01*
X155254132Y-132701284D01*
X155271198Y-132628626D01*
X155276830Y-132548919D01*
X155276887Y-132539225D01*
X155272221Y-132463117D01*
X155253846Y-132386153D01*
X155217903Y-132322337D01*
X155161282Y-132273501D01*
X155088789Y-132251524D01*
X155072822Y-132250896D01*
X154998781Y-132264781D01*
X154936941Y-132306435D01*
X154921514Y-132323436D01*
X154885124Y-132388231D01*
X154866520Y-132466364D01*
X154861796Y-132543621D01*
X154441388Y-132543621D01*
X154445334Y-132470535D01*
X154461167Y-132384565D01*
X154488877Y-132304804D01*
X154528461Y-132231250D01*
X154579921Y-132163905D01*
X154610104Y-132132561D01*
X154677737Y-132077155D01*
X154753690Y-132033213D01*
X154823341Y-132005351D01*
X154898769Y-131985450D01*
X154979976Y-131973509D01*
X155066960Y-131969528D01*
X155146605Y-131972522D01*
G37*
G36*
X157201220Y-131573642D02*
G01*
X157276795Y-131581795D01*
X157356990Y-131598176D01*
X157428595Y-131621956D01*
X157483133Y-131648227D01*
X157548185Y-131692374D01*
X157606323Y-131747878D01*
X157651520Y-131805761D01*
X157691424Y-131872339D01*
X157701852Y-131892958D01*
X157733829Y-131971540D01*
X157754987Y-132047129D01*
X157770374Y-132130316D01*
X157778789Y-132205444D01*
X157783197Y-132285849D01*
X157783918Y-132336625D01*
X157782404Y-132410694D01*
X157775678Y-132503522D01*
X157763571Y-132589571D01*
X157746083Y-132668843D01*
X157723214Y-132741338D01*
X157687060Y-132822424D01*
X157642499Y-132892921D01*
X157611727Y-132930136D01*
X157554776Y-132984385D01*
X157491313Y-133029440D01*
X157421339Y-133065300D01*
X157344853Y-133091966D01*
X157261856Y-133109436D01*
X157172347Y-133117711D01*
X157134720Y-133118447D01*
X157059507Y-133116396D01*
X156982479Y-133109028D01*
X156907208Y-133094335D01*
X156850422Y-133075582D01*
X156783002Y-133041185D01*
X156723807Y-132997438D01*
X156677131Y-132949553D01*
X156633545Y-132887737D01*
X156597492Y-132816138D01*
X156571252Y-132742557D01*
X156988541Y-132696395D01*
X157012468Y-132765708D01*
X157044228Y-132805572D01*
X157112716Y-132835110D01*
X157139849Y-132837079D01*
X157214630Y-132820270D01*
X157274657Y-132769843D01*
X157297386Y-132735230D01*
X157323380Y-132663768D01*
X157339186Y-132586889D01*
X157350874Y-132502414D01*
X157359302Y-132417226D01*
X157307148Y-132469624D01*
X157249068Y-132514738D01*
X157204696Y-132540324D01*
X157130685Y-132566871D01*
X157053420Y-132578210D01*
X157021514Y-132579159D01*
X156947630Y-132574213D01*
X156867064Y-132555940D01*
X156792565Y-132524204D01*
X156724131Y-132479004D01*
X156678963Y-132438475D01*
X156624574Y-132373367D01*
X156583544Y-132301141D01*
X156555872Y-132221798D01*
X156542786Y-132148124D01*
X156539378Y-132082735D01*
X156540196Y-132071011D01*
X156937983Y-132071011D01*
X156946020Y-132146402D01*
X156975713Y-132215865D01*
X156995136Y-132239539D01*
X157059433Y-132283228D01*
X157132687Y-132297734D01*
X157138018Y-132297791D01*
X157214273Y-132285394D01*
X157277487Y-132248203D01*
X157284930Y-132241371D01*
X157327267Y-132177770D01*
X157342993Y-132105329D01*
X157343914Y-132079804D01*
X157335207Y-132006337D01*
X157303040Y-131937034D01*
X157281999Y-131912742D01*
X157218339Y-131869353D01*
X157142766Y-131852528D01*
X157131789Y-131852292D01*
X157055311Y-131865939D01*
X156992937Y-131906880D01*
X156953492Y-131970132D01*
X156938841Y-132044484D01*
X156937983Y-132071011D01*
X156540196Y-132071011D01*
X156545001Y-132002184D01*
X156561867Y-131925805D01*
X156589977Y-131853600D01*
X156610453Y-131815289D01*
X156654664Y-131751977D01*
X156707336Y-131698055D01*
X156768471Y-131653523D01*
X156806092Y-131632840D01*
X156881378Y-131602910D01*
X156956718Y-131584529D01*
X157039980Y-131573887D01*
X157119333Y-131570924D01*
X157201220Y-131573642D01*
G37*
G36*
X158022421Y-131594371D02*
G01*
X158489169Y-131594371D01*
X158489169Y-132161503D01*
X158978632Y-131594371D01*
X159598886Y-131594371D01*
X159048607Y-132160404D01*
X159623433Y-133095000D01*
X159048607Y-133095000D01*
X158730237Y-132477676D01*
X158489169Y-132728635D01*
X158489169Y-133095000D01*
X158022421Y-133095000D01*
X158022421Y-131594371D01*
G37*
G36*
X161422194Y-131598004D02*
G01*
X161504543Y-131611422D01*
X161577179Y-131634729D01*
X161648300Y-131673472D01*
X161679103Y-131697686D01*
X161730233Y-131752412D01*
X161770293Y-131821313D01*
X161791864Y-131897982D01*
X161795973Y-131953408D01*
X161787816Y-132029780D01*
X161763344Y-132099067D01*
X161722557Y-132161270D01*
X161712442Y-132172861D01*
X161653898Y-132221236D01*
X161588090Y-132254999D01*
X161549776Y-132269214D01*
X161625888Y-132292959D01*
X161698596Y-132328267D01*
X161757625Y-132372674D01*
X161789378Y-132407334D01*
X161829950Y-132473408D01*
X161855496Y-132549357D01*
X161865639Y-132626154D01*
X161866315Y-132653531D01*
X161859865Y-132733540D01*
X161840513Y-132807836D01*
X161811727Y-132870418D01*
X161769435Y-132931899D01*
X161717620Y-132983857D01*
X161662250Y-133022826D01*
X161594093Y-133051532D01*
X161520557Y-133068353D01*
X161484930Y-133073750D01*
X161404691Y-133084022D01*
X161329368Y-133092011D01*
X161275736Y-133095000D01*
X160470101Y-133095000D01*
X160470101Y-132743290D01*
X160940879Y-132743290D01*
X161179016Y-132743290D01*
X161253484Y-132738268D01*
X161323969Y-132717351D01*
X161349009Y-132700792D01*
X161390305Y-132639686D01*
X161398468Y-132586120D01*
X161379291Y-132513076D01*
X161349375Y-132479141D01*
X161282147Y-132448641D01*
X161207443Y-132439110D01*
X161177916Y-132438475D01*
X160940879Y-132438475D01*
X160940879Y-132743290D01*
X160470101Y-132743290D01*
X160470101Y-132157107D01*
X160940879Y-132157107D01*
X161143845Y-132157107D01*
X161221606Y-132151544D01*
X161293142Y-132125475D01*
X161295886Y-132123401D01*
X161335360Y-132058903D01*
X161338750Y-132025216D01*
X161316606Y-131953337D01*
X161295886Y-131932526D01*
X161227725Y-131905568D01*
X161153698Y-131899219D01*
X161147142Y-131899187D01*
X160940879Y-131899187D01*
X160940879Y-132157107D01*
X160470101Y-132157107D01*
X160470101Y-131594371D01*
X161343879Y-131594371D01*
X161422194Y-131598004D01*
G37*
G36*
X162727414Y-131972522D02*
G01*
X162802032Y-131981504D01*
X162888237Y-132001151D01*
X162966588Y-132030155D01*
X163037087Y-132068514D01*
X163099732Y-132116229D01*
X163144193Y-132161137D01*
X163190136Y-132221488D01*
X163226574Y-132286863D01*
X163253506Y-132357261D01*
X163270933Y-132432682D01*
X163278854Y-132513126D01*
X163279382Y-132541057D01*
X163275294Y-132618047D01*
X163263031Y-132690565D01*
X163237525Y-132771683D01*
X163200246Y-132846361D01*
X163151194Y-132914599D01*
X163111953Y-132956514D01*
X163044647Y-133011546D01*
X162968299Y-133055192D01*
X162897768Y-133082866D01*
X162820959Y-133102633D01*
X162737870Y-133114493D01*
X162648503Y-133118447D01*
X162568539Y-133115164D01*
X162493513Y-133105316D01*
X162410000Y-133084833D01*
X162333595Y-133054895D01*
X162264301Y-133015504D01*
X162222055Y-132983991D01*
X162164427Y-132929367D01*
X162116567Y-132869681D01*
X162078475Y-132804932D01*
X162050150Y-132735121D01*
X162031592Y-132660247D01*
X162022801Y-132580311D01*
X162022020Y-132546919D01*
X162022198Y-132543621D01*
X162442606Y-132543621D01*
X162447272Y-132621735D01*
X162463400Y-132694049D01*
X162497962Y-132760707D01*
X162501591Y-132765272D01*
X162559343Y-132814359D01*
X162634138Y-132836448D01*
X162650701Y-132837079D01*
X162723710Y-132823545D01*
X162788239Y-132779007D01*
X162799445Y-132766371D01*
X162834942Y-132701284D01*
X162852008Y-132628626D01*
X162857640Y-132548919D01*
X162857697Y-132539225D01*
X162853031Y-132463117D01*
X162834656Y-132386153D01*
X162798712Y-132322337D01*
X162742092Y-132273501D01*
X162669599Y-132251524D01*
X162653632Y-132250896D01*
X162579590Y-132264781D01*
X162517751Y-132306435D01*
X162502323Y-132323436D01*
X162465933Y-132388231D01*
X162447330Y-132466364D01*
X162442606Y-132543621D01*
X162022198Y-132543621D01*
X162026143Y-132470535D01*
X162041977Y-132384565D01*
X162069686Y-132304804D01*
X162109271Y-132231250D01*
X162160730Y-132163905D01*
X162190914Y-132132561D01*
X162258547Y-132077155D01*
X162334500Y-132033213D01*
X162404150Y-132005351D01*
X162479579Y-131985450D01*
X162560785Y-131973509D01*
X162647770Y-131969528D01*
X162727414Y-131972522D01*
G37*
G36*
X164099158Y-131970545D02*
G01*
X164180714Y-131974197D01*
X164261353Y-131981481D01*
X164323154Y-131990778D01*
X164397445Y-132010841D01*
X164468122Y-132045171D01*
X164514030Y-132079438D01*
X164561840Y-132135766D01*
X164596348Y-132206375D01*
X164598293Y-132211695D01*
X164619581Y-132284915D01*
X164629161Y-132360097D01*
X164629434Y-132374727D01*
X164629434Y-132860893D01*
X164632448Y-132937606D01*
X164638960Y-132982526D01*
X164663470Y-133054578D01*
X164681824Y-133095000D01*
X164288349Y-133095000D01*
X164257208Y-133029787D01*
X164242920Y-132959078D01*
X164186378Y-133008411D01*
X164124992Y-133050082D01*
X164079155Y-133073018D01*
X164006040Y-133096974D01*
X163925912Y-133112058D01*
X163847801Y-133118048D01*
X163820502Y-133118447D01*
X163739273Y-133114274D01*
X163657516Y-133099288D01*
X163587575Y-133073402D01*
X163523014Y-133031252D01*
X163469498Y-132972748D01*
X163435802Y-132906230D01*
X163421928Y-132831698D01*
X163421531Y-132815830D01*
X163425263Y-132782491D01*
X163842117Y-132782491D01*
X163870401Y-132850264D01*
X163876556Y-132855764D01*
X163946554Y-132882211D01*
X163978039Y-132883974D01*
X164053631Y-132874236D01*
X164108098Y-132853199D01*
X164169922Y-132809579D01*
X164193827Y-132778461D01*
X164216638Y-132704866D01*
X164219106Y-132663056D01*
X164219106Y-132602606D01*
X164147647Y-132624201D01*
X164073768Y-132643740D01*
X164038855Y-132652065D01*
X163962076Y-132673093D01*
X163893238Y-132701348D01*
X163877288Y-132712515D01*
X163842255Y-132777624D01*
X163842117Y-132782491D01*
X163425263Y-132782491D01*
X163430189Y-132738488D01*
X163459384Y-132665570D01*
X163494804Y-132618726D01*
X163559603Y-132570256D01*
X163634452Y-132537553D01*
X163706252Y-132516446D01*
X163764815Y-132503688D01*
X163847457Y-132487480D01*
X163929124Y-132471014D01*
X164003010Y-132455414D01*
X164070729Y-132439574D01*
X164142811Y-132418416D01*
X164214214Y-132393424D01*
X164219106Y-132391580D01*
X164209021Y-132318628D01*
X164187233Y-132282404D01*
X164116242Y-132253388D01*
X164074759Y-132250896D01*
X163999578Y-132256822D01*
X163926811Y-132282452D01*
X163920153Y-132286800D01*
X163874209Y-132344487D01*
X163855307Y-132391580D01*
X163454504Y-132344685D01*
X163472458Y-132270225D01*
X163499704Y-132197407D01*
X163519717Y-132160771D01*
X163568194Y-132101598D01*
X163628401Y-132053633D01*
X163643182Y-132044267D01*
X163711600Y-132012485D01*
X163783241Y-131992731D01*
X163801817Y-131988946D01*
X163879922Y-131977113D01*
X163955500Y-131971064D01*
X164020170Y-131969528D01*
X164099158Y-131970545D01*
G37*
G36*
X164876730Y-131992976D02*
G01*
X165269473Y-131992976D01*
X165269473Y-132174692D01*
X165305286Y-132108575D01*
X165349112Y-132048125D01*
X165386343Y-132013492D01*
X165453571Y-131980519D01*
X165529573Y-131969571D01*
X165535087Y-131969528D01*
X165613300Y-131978900D01*
X165684014Y-132001471D01*
X165738053Y-132026315D01*
X165608360Y-132328932D01*
X165538414Y-132304633D01*
X165491123Y-132297791D01*
X165417942Y-132314918D01*
X165363262Y-132366301D01*
X165331915Y-132433596D01*
X165312664Y-132515747D01*
X165303545Y-132591155D01*
X165298985Y-132678387D01*
X165298415Y-132726437D01*
X165298415Y-133095000D01*
X164876730Y-133095000D01*
X164876730Y-131992976D01*
G37*
G36*
X167007871Y-133095000D02*
G01*
X166615495Y-133095000D01*
X166615495Y-132947355D01*
X166560511Y-133005066D01*
X166499884Y-133054516D01*
X166464919Y-133074849D01*
X166394114Y-133101417D01*
X166317435Y-133115722D01*
X166263053Y-133118447D01*
X166182956Y-133112445D01*
X166110279Y-133094439D01*
X166034865Y-133058259D01*
X165969549Y-133005741D01*
X165921601Y-132947721D01*
X165881510Y-132881110D01*
X165849713Y-132809321D01*
X165826212Y-132732355D01*
X165811005Y-132650210D01*
X165804093Y-132562888D01*
X165803855Y-132547285D01*
X166222752Y-132547285D01*
X166226781Y-132625431D01*
X166240705Y-132697373D01*
X166273677Y-132767470D01*
X166330922Y-132819677D01*
X166400073Y-132837079D01*
X166473620Y-132819494D01*
X166530427Y-132771065D01*
X166533796Y-132766737D01*
X166568665Y-132694891D01*
X166583391Y-132619629D01*
X166587651Y-132537027D01*
X166583333Y-132461656D01*
X166566328Y-132385358D01*
X166533063Y-132321971D01*
X166475527Y-132270955D01*
X166400136Y-132250966D01*
X166394944Y-132250896D01*
X166323812Y-132270128D01*
X166272212Y-132319040D01*
X166240189Y-132389583D01*
X166226665Y-132464502D01*
X166222752Y-132547285D01*
X165803855Y-132547285D01*
X165803632Y-132532630D01*
X165806807Y-132450361D01*
X165816333Y-132374371D01*
X165836147Y-132291471D01*
X165865105Y-132217613D01*
X165903208Y-132152796D01*
X165933691Y-132114609D01*
X165994118Y-132058078D01*
X166061277Y-132015433D01*
X166135169Y-131986672D01*
X166215792Y-131971795D01*
X166264884Y-131969528D01*
X166341576Y-131974426D01*
X166417271Y-131990655D01*
X166442571Y-131999204D01*
X166509019Y-132030600D01*
X166568595Y-132073496D01*
X166584354Y-132087864D01*
X166584354Y-131594371D01*
X167007871Y-131594371D01*
X167007871Y-133095000D01*
G37*
G36*
X167978736Y-131594371D02*
G01*
X168592763Y-131594371D01*
X168829801Y-132503688D01*
X169065739Y-131594371D01*
X169677934Y-131594371D01*
X169677934Y-133095000D01*
X169296549Y-133095000D01*
X169296549Y-131943150D01*
X169000893Y-133095000D01*
X168655778Y-133095000D01*
X168360854Y-131943150D01*
X168360854Y-133095000D01*
X167978736Y-133095000D01*
X167978736Y-131594371D01*
G37*
G36*
X170563289Y-131970545D02*
G01*
X170644845Y-131974197D01*
X170725484Y-131981481D01*
X170787285Y-131990778D01*
X170861576Y-132010841D01*
X170932253Y-132045171D01*
X170978161Y-132079438D01*
X171025971Y-132135766D01*
X171060479Y-132206375D01*
X171062424Y-132211695D01*
X171083712Y-132284915D01*
X171093292Y-132360097D01*
X171093565Y-132374727D01*
X171093565Y-132860893D01*
X171096579Y-132937606D01*
X171103091Y-132982526D01*
X171127602Y-133054578D01*
X171145956Y-133095000D01*
X170752480Y-133095000D01*
X170721339Y-133029787D01*
X170707051Y-132959078D01*
X170650509Y-133008411D01*
X170589123Y-133050082D01*
X170543286Y-133073018D01*
X170470171Y-133096974D01*
X170390043Y-133112058D01*
X170311932Y-133118048D01*
X170284633Y-133118447D01*
X170203404Y-133114274D01*
X170121648Y-133099288D01*
X170051706Y-133073402D01*
X169987145Y-133031252D01*
X169933629Y-132972748D01*
X169899933Y-132906230D01*
X169886059Y-132831698D01*
X169885662Y-132815830D01*
X169889395Y-132782491D01*
X170306249Y-132782491D01*
X170334532Y-132850264D01*
X170340687Y-132855764D01*
X170410685Y-132882211D01*
X170442170Y-132883974D01*
X170517762Y-132874236D01*
X170572229Y-132853199D01*
X170634053Y-132809579D01*
X170657958Y-132778461D01*
X170680769Y-132704866D01*
X170683237Y-132663056D01*
X170683237Y-132602606D01*
X170611778Y-132624201D01*
X170537900Y-132643740D01*
X170502986Y-132652065D01*
X170426208Y-132673093D01*
X170357369Y-132701348D01*
X170341420Y-132712515D01*
X170306386Y-132777624D01*
X170306249Y-132782491D01*
X169889395Y-132782491D01*
X169894321Y-132738488D01*
X169923515Y-132665570D01*
X169958935Y-132618726D01*
X170023734Y-132570256D01*
X170098583Y-132537553D01*
X170170383Y-132516446D01*
X170228946Y-132503688D01*
X170311588Y-132487480D01*
X170393255Y-132471014D01*
X170467141Y-132455414D01*
X170534860Y-132439574D01*
X170606942Y-132418416D01*
X170678346Y-132393424D01*
X170683237Y-132391580D01*
X170673152Y-132318628D01*
X170651364Y-132282404D01*
X170580373Y-132253388D01*
X170538890Y-132250896D01*
X170463709Y-132256822D01*
X170390942Y-132282452D01*
X170384284Y-132286800D01*
X170338340Y-132344487D01*
X170319438Y-132391580D01*
X169918635Y-132344685D01*
X169936589Y-132270225D01*
X169963835Y-132197407D01*
X169983848Y-132160771D01*
X170032325Y-132101598D01*
X170092532Y-132053633D01*
X170107313Y-132044267D01*
X170175731Y-132012485D01*
X170247372Y-131992731D01*
X170265949Y-131988946D01*
X170344053Y-131977113D01*
X170419631Y-131971064D01*
X170484302Y-131969528D01*
X170563289Y-131970545D01*
G37*
G36*
X172488681Y-133095000D02*
G01*
X172096304Y-133095000D01*
X172096304Y-132947355D01*
X172041321Y-133005066D01*
X171980694Y-133054516D01*
X171945729Y-133074849D01*
X171874923Y-133101417D01*
X171798244Y-133115722D01*
X171743862Y-133118447D01*
X171663766Y-133112445D01*
X171591088Y-133094439D01*
X171515674Y-133058259D01*
X171450358Y-133005741D01*
X171402411Y-132947721D01*
X171362319Y-132881110D01*
X171330523Y-132809321D01*
X171307021Y-132732355D01*
X171291814Y-132650210D01*
X171284902Y-132562888D01*
X171284664Y-132547285D01*
X171703562Y-132547285D01*
X171707590Y-132625431D01*
X171721515Y-132697373D01*
X171754487Y-132767470D01*
X171811731Y-132819677D01*
X171880882Y-132837079D01*
X171954430Y-132819494D01*
X172011236Y-132771065D01*
X172014605Y-132766737D01*
X172049475Y-132694891D01*
X172064201Y-132619629D01*
X172068461Y-132537027D01*
X172064143Y-132461656D01*
X172047137Y-132385358D01*
X172013872Y-132321971D01*
X171956336Y-132270955D01*
X171880946Y-132250966D01*
X171875753Y-132250896D01*
X171804622Y-132270128D01*
X171753021Y-132319040D01*
X171720998Y-132389583D01*
X171707474Y-132464502D01*
X171703562Y-132547285D01*
X171284664Y-132547285D01*
X171284441Y-132532630D01*
X171287617Y-132450361D01*
X171297142Y-132374371D01*
X171316956Y-132291471D01*
X171345915Y-132217613D01*
X171384018Y-132152796D01*
X171414501Y-132114609D01*
X171474928Y-132058078D01*
X171542087Y-132015433D01*
X171615978Y-131986672D01*
X171696601Y-131971795D01*
X171745694Y-131969528D01*
X171822386Y-131974426D01*
X171898080Y-131990655D01*
X171923381Y-131999204D01*
X171989828Y-132030600D01*
X172049404Y-132073496D01*
X172065163Y-132087864D01*
X172065163Y-131594371D01*
X172488681Y-131594371D01*
X172488681Y-133095000D01*
G37*
G36*
X173386596Y-131971963D02*
G01*
X173464228Y-131979266D01*
X173546009Y-131993939D01*
X173618322Y-132015240D01*
X173672770Y-132038771D01*
X173736838Y-132077102D01*
X173799171Y-132129530D01*
X173851186Y-132191811D01*
X173880132Y-132238806D01*
X173911227Y-132309308D01*
X173933438Y-132389657D01*
X173945585Y-132468038D01*
X173950582Y-132541222D01*
X173951207Y-132579891D01*
X173951207Y-132626053D01*
X173110401Y-132626053D01*
X173126439Y-132700896D01*
X173162318Y-132766322D01*
X173164989Y-132769302D01*
X173225286Y-132815634D01*
X173299748Y-132836020D01*
X173323625Y-132837079D01*
X173398443Y-132825773D01*
X173440861Y-132808136D01*
X173499614Y-132759746D01*
X173514134Y-132743290D01*
X173927393Y-132790184D01*
X173884004Y-132862227D01*
X173836862Y-132924803D01*
X173785970Y-132977912D01*
X173723213Y-133027017D01*
X173698415Y-133042243D01*
X173624272Y-133075582D01*
X173547451Y-133096940D01*
X173472730Y-133109442D01*
X173389817Y-133116586D01*
X173314466Y-133118447D01*
X173236241Y-133116283D01*
X173153184Y-133108289D01*
X173078962Y-133094404D01*
X173004957Y-133071323D01*
X172972281Y-133056898D01*
X172905576Y-133016538D01*
X172845594Y-132964703D01*
X172797921Y-132908992D01*
X172765652Y-132861259D01*
X172729909Y-132791284D01*
X172704378Y-132715446D01*
X172689059Y-132633747D01*
X172684033Y-132557452D01*
X172683953Y-132546186D01*
X172687960Y-132467992D01*
X172696636Y-132415027D01*
X173111500Y-132415027D01*
X173524759Y-132415027D01*
X173504145Y-132343543D01*
X173459180Y-132288998D01*
X173389048Y-132258189D01*
X173319595Y-132250896D01*
X173244982Y-132260389D01*
X173175419Y-132294934D01*
X173159860Y-132308415D01*
X173120630Y-132374234D01*
X173111500Y-132415027D01*
X172696636Y-132415027D01*
X172699981Y-132394610D01*
X172724986Y-132312903D01*
X172761530Y-132238126D01*
X172809616Y-132170279D01*
X172848084Y-132128897D01*
X172914163Y-132074737D01*
X172989025Y-132031782D01*
X173058121Y-132004546D01*
X173133317Y-131985092D01*
X173214613Y-131973419D01*
X173302009Y-131969528D01*
X173386596Y-131971963D01*
G37*
G36*
X175262058Y-132087864D02*
G01*
X175320171Y-132041682D01*
X175384876Y-132007001D01*
X175404574Y-131999204D01*
X175477754Y-131978918D01*
X175551609Y-131970253D01*
X175581528Y-131969528D01*
X175665587Y-131976436D01*
X175743054Y-131997157D01*
X175813930Y-132031694D01*
X175878214Y-132080045D01*
X175911988Y-132113876D01*
X175956437Y-132172437D01*
X175991690Y-132239859D01*
X176017746Y-132316143D01*
X176034606Y-132401289D01*
X176041631Y-132479012D01*
X176042780Y-132528600D01*
X176039923Y-132605266D01*
X176029659Y-132687904D01*
X176011930Y-132765230D01*
X175986737Y-132837244D01*
X175983063Y-132845872D01*
X175945821Y-132917468D01*
X175901275Y-132978111D01*
X175843215Y-133032643D01*
X175817466Y-133050669D01*
X175749267Y-133086411D01*
X175676559Y-133108916D01*
X175599344Y-133118182D01*
X175583360Y-133118447D01*
X175509753Y-133113295D01*
X175434491Y-133095924D01*
X175381493Y-133074849D01*
X175318591Y-133033676D01*
X175260992Y-132980302D01*
X175230917Y-132947355D01*
X175230917Y-133095000D01*
X174838541Y-133095000D01*
X174838541Y-132537027D01*
X175258761Y-132537027D01*
X175262081Y-132610712D01*
X175275569Y-132687491D01*
X175305451Y-132757146D01*
X175311884Y-132766371D01*
X175367885Y-132817123D01*
X175441284Y-132837010D01*
X175446339Y-132837079D01*
X175519314Y-132817433D01*
X175572369Y-132767470D01*
X175605578Y-132694954D01*
X175619602Y-132617860D01*
X175623610Y-132542842D01*
X175623660Y-132532630D01*
X175619689Y-132456931D01*
X175604053Y-132381019D01*
X175573468Y-132319040D01*
X175518330Y-132267932D01*
X175452568Y-132250896D01*
X175379119Y-132266513D01*
X175319517Y-132313364D01*
X175312616Y-132321971D01*
X175277747Y-132391575D01*
X175262127Y-132469455D01*
X175258761Y-132537027D01*
X174838541Y-132537027D01*
X174838541Y-131594371D01*
X175262058Y-131594371D01*
X175262058Y-132087864D01*
G37*
G36*
X176114221Y-131992976D02*
G01*
X176557156Y-131992976D01*
X176782836Y-132726803D01*
X176992030Y-131992976D01*
X177405289Y-131992976D01*
X176971514Y-133170471D01*
X176943534Y-133241049D01*
X176910663Y-133311832D01*
X176872796Y-133377485D01*
X176825011Y-133436690D01*
X176820205Y-133441214D01*
X176758313Y-133484651D01*
X176682178Y-133515677D01*
X176603876Y-133532645D01*
X176528082Y-133539626D01*
X176487180Y-133540498D01*
X176413235Y-133537641D01*
X176335282Y-133531053D01*
X176252804Y-133521986D01*
X176206912Y-133516318D01*
X176173939Y-133228722D01*
X176250910Y-133248411D01*
X176328078Y-133257676D01*
X176375806Y-133259131D01*
X176450432Y-133248234D01*
X176495973Y-133224692D01*
X176545447Y-133164553D01*
X176573642Y-133101228D01*
X176114221Y-131992976D01*
G37*
G36*
X179199654Y-131598004D02*
G01*
X179282003Y-131611422D01*
X179354639Y-131634729D01*
X179425759Y-131673472D01*
X179456563Y-131697686D01*
X179507693Y-131752412D01*
X179547753Y-131821313D01*
X179569324Y-131897982D01*
X179573433Y-131953408D01*
X179565276Y-132029780D01*
X179540804Y-132099067D01*
X179500017Y-132161270D01*
X179489902Y-132172861D01*
X179431358Y-132221236D01*
X179365550Y-132254999D01*
X179327236Y-132269214D01*
X179403348Y-132292959D01*
X179476056Y-132328267D01*
X179535085Y-132372674D01*
X179566838Y-132407334D01*
X179607410Y-132473408D01*
X179632956Y-132549357D01*
X179643099Y-132626154D01*
X179643775Y-132653531D01*
X179637324Y-132733540D01*
X179617973Y-132807836D01*
X179589187Y-132870418D01*
X179546895Y-132931899D01*
X179495080Y-132983857D01*
X179439710Y-133022826D01*
X179371553Y-133051532D01*
X179298017Y-133068353D01*
X179262390Y-133073750D01*
X179182150Y-133084022D01*
X179106828Y-133092011D01*
X179053196Y-133095000D01*
X178247561Y-133095000D01*
X178247561Y-132743290D01*
X178718339Y-132743290D01*
X178956475Y-132743290D01*
X179030944Y-132738268D01*
X179101429Y-132717351D01*
X179126468Y-132700792D01*
X179167765Y-132639686D01*
X179175928Y-132586120D01*
X179156751Y-132513076D01*
X179126835Y-132479141D01*
X179059607Y-132448641D01*
X178984903Y-132439110D01*
X178955376Y-132438475D01*
X178718339Y-132438475D01*
X178718339Y-132743290D01*
X178247561Y-132743290D01*
X178247561Y-132157107D01*
X178718339Y-132157107D01*
X178921304Y-132157107D01*
X178999066Y-132151544D01*
X179070602Y-132125475D01*
X179073346Y-132123401D01*
X179112820Y-132058903D01*
X179116210Y-132025216D01*
X179094066Y-131953337D01*
X179073346Y-131932526D01*
X179005185Y-131905568D01*
X178931158Y-131899219D01*
X178924602Y-131899187D01*
X178718339Y-131899187D01*
X178718339Y-132157107D01*
X178247561Y-132157107D01*
X178247561Y-131594371D01*
X179121339Y-131594371D01*
X179199654Y-131598004D01*
G37*
G36*
X179881179Y-131594371D02*
G01*
X181035226Y-131594371D01*
X181035226Y-131946081D01*
X180349759Y-131946081D01*
X180349759Y-132180554D01*
X180935209Y-132180554D01*
X180935209Y-132485369D01*
X180349759Y-132485369D01*
X180349759Y-133095000D01*
X179881179Y-133095000D01*
X179881179Y-131594371D01*
G37*
G36*
X182128367Y-131597278D02*
G01*
X182211486Y-131608441D01*
X182285640Y-131627976D01*
X182360824Y-131661347D01*
X182423806Y-131706114D01*
X182431807Y-131713440D01*
X182481057Y-131770336D01*
X182518210Y-131836839D01*
X182543267Y-131912949D01*
X182555117Y-131985832D01*
X182558203Y-132051960D01*
X182553360Y-132133250D01*
X182538831Y-132207585D01*
X182509639Y-132285518D01*
X182467264Y-132353985D01*
X182420450Y-132405136D01*
X182353401Y-132454671D01*
X182284879Y-132487446D01*
X182206157Y-132511283D01*
X182132762Y-132524318D01*
X182052284Y-132531147D01*
X182000596Y-132532264D01*
X181745240Y-132532264D01*
X181745240Y-133095000D01*
X181276294Y-133095000D01*
X181276294Y-132227449D01*
X181745240Y-132227449D01*
X181859546Y-132227449D01*
X181936168Y-132223012D01*
X182012241Y-132203980D01*
X182049323Y-132182020D01*
X182093462Y-132122385D01*
X182103911Y-132064783D01*
X182087120Y-131990048D01*
X182056284Y-131947547D01*
X181988140Y-131911277D01*
X181909623Y-131899942D01*
X181878230Y-131899187D01*
X181745240Y-131899187D01*
X181745240Y-132227449D01*
X181276294Y-132227449D01*
X181276294Y-131594371D01*
X182052254Y-131594371D01*
X182128367Y-131597278D01*
G37*
G36*
X183388018Y-131594371D02*
G01*
X184806946Y-131594371D01*
X184806946Y-131946081D01*
X184331039Y-131946081D01*
X184331039Y-133095000D01*
X183864291Y-133095000D01*
X183864291Y-131946081D01*
X183388018Y-131946081D01*
X183388018Y-131594371D01*
G37*
G36*
X185505927Y-131971963D02*
G01*
X185583559Y-131979266D01*
X185665339Y-131993939D01*
X185737652Y-132015240D01*
X185792100Y-132038771D01*
X185856168Y-132077102D01*
X185918501Y-132129530D01*
X185970517Y-132191811D01*
X185999462Y-132238806D01*
X186030557Y-132309308D01*
X186052768Y-132389657D01*
X186064915Y-132468038D01*
X186069912Y-132541222D01*
X186070537Y-132579891D01*
X186070537Y-132626053D01*
X185229731Y-132626053D01*
X185245769Y-132700896D01*
X185281648Y-132766322D01*
X185284319Y-132769302D01*
X185344616Y-132815634D01*
X185419078Y-132836020D01*
X185442955Y-132837079D01*
X185517773Y-132825773D01*
X185560191Y-132808136D01*
X185618944Y-132759746D01*
X185633464Y-132743290D01*
X186046723Y-132790184D01*
X186003334Y-132862227D01*
X185956193Y-132924803D01*
X185905300Y-132977912D01*
X185842543Y-133027017D01*
X185817745Y-133042243D01*
X185743603Y-133075582D01*
X185666781Y-133096940D01*
X185592060Y-133109442D01*
X185509147Y-133116586D01*
X185433796Y-133118447D01*
X185355571Y-133116283D01*
X185272514Y-133108289D01*
X185198292Y-133094404D01*
X185124287Y-133071323D01*
X185091612Y-133056898D01*
X185024906Y-133016538D01*
X184964924Y-132964703D01*
X184917251Y-132908992D01*
X184884982Y-132861259D01*
X184849239Y-132791284D01*
X184823708Y-132715446D01*
X184808389Y-132633747D01*
X184803363Y-132557452D01*
X184803283Y-132546186D01*
X184807290Y-132467992D01*
X184815966Y-132415027D01*
X185230830Y-132415027D01*
X185644089Y-132415027D01*
X185623475Y-132343543D01*
X185578510Y-132288998D01*
X185508378Y-132258189D01*
X185438925Y-132250896D01*
X185364312Y-132260389D01*
X185294749Y-132294934D01*
X185279190Y-132308415D01*
X185239960Y-132374234D01*
X185230830Y-132415027D01*
X184815966Y-132415027D01*
X184819311Y-132394610D01*
X184844316Y-132312903D01*
X184880860Y-132238126D01*
X184928946Y-132170279D01*
X184967414Y-132128897D01*
X185033493Y-132074737D01*
X185108355Y-132031782D01*
X185177451Y-132004546D01*
X185252647Y-131985092D01*
X185333943Y-131973419D01*
X185421339Y-131969528D01*
X185505927Y-131971963D01*
G37*
G36*
X186881154Y-131970545D02*
G01*
X186962710Y-131974197D01*
X187043348Y-131981481D01*
X187105150Y-131990778D01*
X187179441Y-132010841D01*
X187250118Y-132045171D01*
X187296025Y-132079438D01*
X187343836Y-132135766D01*
X187378344Y-132206375D01*
X187380289Y-132211695D01*
X187401577Y-132284915D01*
X187411156Y-132360097D01*
X187411430Y-132374727D01*
X187411430Y-132860893D01*
X187414444Y-132937606D01*
X187420956Y-132982526D01*
X187445466Y-133054578D01*
X187463820Y-133095000D01*
X187070345Y-133095000D01*
X187039204Y-133029787D01*
X187024916Y-132959078D01*
X186968374Y-133008411D01*
X186906988Y-133050082D01*
X186861151Y-133073018D01*
X186788035Y-133096974D01*
X186707908Y-133112058D01*
X186629797Y-133118048D01*
X186602498Y-133118447D01*
X186521269Y-133114274D01*
X186439512Y-133099288D01*
X186369571Y-133073402D01*
X186305010Y-133031252D01*
X186251494Y-132972748D01*
X186217798Y-132906230D01*
X186203923Y-132831698D01*
X186203527Y-132815830D01*
X186207259Y-132782491D01*
X186624113Y-132782491D01*
X186652397Y-132850264D01*
X186658551Y-132855764D01*
X186728550Y-132882211D01*
X186760034Y-132883974D01*
X186835627Y-132874236D01*
X186890094Y-132853199D01*
X186951918Y-132809579D01*
X186975823Y-132778461D01*
X186998633Y-132704866D01*
X187001102Y-132663056D01*
X187001102Y-132602606D01*
X186929642Y-132624201D01*
X186855764Y-132643740D01*
X186820851Y-132652065D01*
X186744072Y-132673093D01*
X186675234Y-132701348D01*
X186659284Y-132712515D01*
X186624251Y-132777624D01*
X186624113Y-132782491D01*
X186207259Y-132782491D01*
X186212185Y-132738488D01*
X186241380Y-132665570D01*
X186276800Y-132618726D01*
X186341599Y-132570256D01*
X186416448Y-132537553D01*
X186488248Y-132516446D01*
X186546810Y-132503688D01*
X186629453Y-132487480D01*
X186711120Y-132471014D01*
X186785005Y-132455414D01*
X186852725Y-132439574D01*
X186924807Y-132418416D01*
X186996210Y-132393424D01*
X187001102Y-132391580D01*
X186991017Y-132318628D01*
X186969228Y-132282404D01*
X186898238Y-132253388D01*
X186856755Y-132250896D01*
X186781574Y-132256822D01*
X186708806Y-132282452D01*
X186702149Y-132286800D01*
X186656205Y-132344487D01*
X186637302Y-132391580D01*
X186236500Y-132344685D01*
X186254454Y-132270225D01*
X186281700Y-132197407D01*
X186301713Y-132160771D01*
X186350190Y-132101598D01*
X186410397Y-132053633D01*
X186425177Y-132044267D01*
X186493596Y-132012485D01*
X186565237Y-131992731D01*
X186583813Y-131988946D01*
X186661917Y-131977113D01*
X186737496Y-131971064D01*
X186802166Y-131969528D01*
X186881154Y-131970545D01*
G37*
G36*
X187657627Y-131992976D02*
G01*
X188049270Y-131992976D01*
X188049270Y-132154909D01*
X188102271Y-132097822D01*
X188160821Y-132048084D01*
X188219630Y-132012027D01*
X188289199Y-131986129D01*
X188361751Y-131972890D01*
X188427358Y-131969528D01*
X188503966Y-131974072D01*
X188575837Y-131989567D01*
X188634720Y-132016057D01*
X188696069Y-132065535D01*
X188743492Y-132127176D01*
X188759284Y-132154909D01*
X188813535Y-132099770D01*
X188870550Y-132051284D01*
X188934435Y-132010857D01*
X188939535Y-132008363D01*
X189012144Y-131983219D01*
X189090222Y-131971387D01*
X189140669Y-131969528D01*
X189214067Y-131974560D01*
X189288891Y-131992632D01*
X189361518Y-132028673D01*
X189415809Y-132074675D01*
X189459086Y-132134667D01*
X189489998Y-132209497D01*
X189506903Y-132287145D01*
X189513858Y-132362742D01*
X189514727Y-132403670D01*
X189514727Y-133095000D01*
X189094141Y-133095000D01*
X189094141Y-132466318D01*
X189083938Y-132390822D01*
X189065198Y-132354944D01*
X189007805Y-132307223D01*
X188960052Y-132297791D01*
X188885837Y-132314947D01*
X188840617Y-132352013D01*
X188806545Y-132422263D01*
X188795898Y-132496469D01*
X188795188Y-132525303D01*
X188795188Y-133095000D01*
X188374968Y-133095000D01*
X188374968Y-132488667D01*
X188371497Y-132413496D01*
X188366908Y-132390115D01*
X188326392Y-132328318D01*
X188320380Y-132323436D01*
X188251289Y-132298016D01*
X188243077Y-132297791D01*
X188169996Y-132315179D01*
X188124375Y-132352745D01*
X188091241Y-132419721D01*
X188079340Y-132495559D01*
X188078213Y-132532997D01*
X188078213Y-133095000D01*
X187657627Y-133095000D01*
X187657627Y-131992976D01*
G37*
X103425714Y-95421704D02*
X103901904Y-95421704D01*
X103330476Y-95707419D02*
X103663809Y-94707419D01*
X103663809Y-94707419D02*
X103997142Y-95707419D01*
X104282857Y-94802657D02*
X104330476Y-94755038D01*
X104330476Y-94755038D02*
X104425714Y-94707419D01*
X104425714Y-94707419D02*
X104663809Y-94707419D01*
X104663809Y-94707419D02*
X104759047Y-94755038D01*
X104759047Y-94755038D02*
X104806666Y-94802657D01*
X104806666Y-94802657D02*
X104854285Y-94897895D01*
X104854285Y-94897895D02*
X104854285Y-94993133D01*
X104854285Y-94993133D02*
X104806666Y-95135990D01*
X104806666Y-95135990D02*
X104235238Y-95707419D01*
X104235238Y-95707419D02*
X104854285Y-95707419D01*
X103425714Y-90341704D02*
X103901904Y-90341704D01*
X103330476Y-90627419D02*
X103663809Y-89627419D01*
X103663809Y-89627419D02*
X103997142Y-90627419D01*
X104520952Y-89627419D02*
X104616190Y-89627419D01*
X104616190Y-89627419D02*
X104711428Y-89675038D01*
X104711428Y-89675038D02*
X104759047Y-89722657D01*
X104759047Y-89722657D02*
X104806666Y-89817895D01*
X104806666Y-89817895D02*
X104854285Y-90008371D01*
X104854285Y-90008371D02*
X104854285Y-90246466D01*
X104854285Y-90246466D02*
X104806666Y-90436942D01*
X104806666Y-90436942D02*
X104759047Y-90532180D01*
X104759047Y-90532180D02*
X104711428Y-90579800D01*
X104711428Y-90579800D02*
X104616190Y-90627419D01*
X104616190Y-90627419D02*
X104520952Y-90627419D01*
X104520952Y-90627419D02*
X104425714Y-90579800D01*
X104425714Y-90579800D02*
X104378095Y-90532180D01*
X104378095Y-90532180D02*
X104330476Y-90436942D01*
X104330476Y-90436942D02*
X104282857Y-90246466D01*
X104282857Y-90246466D02*
X104282857Y-90008371D01*
X104282857Y-90008371D02*
X104330476Y-89817895D01*
X104330476Y-89817895D02*
X104378095Y-89722657D01*
X104378095Y-89722657D02*
X104425714Y-89675038D01*
X104425714Y-89675038D02*
X104520952Y-89627419D01*
X152590038Y-128950401D02*
X152542419Y-129045639D01*
X152542419Y-129045639D02*
X152542419Y-129188496D01*
X152542419Y-129188496D02*
X152590038Y-129331353D01*
X152590038Y-129331353D02*
X152685276Y-129426591D01*
X152685276Y-129426591D02*
X152780514Y-129474210D01*
X152780514Y-129474210D02*
X152970990Y-129521829D01*
X152970990Y-129521829D02*
X153113847Y-129521829D01*
X153113847Y-129521829D02*
X153304323Y-129474210D01*
X153304323Y-129474210D02*
X153399561Y-129426591D01*
X153399561Y-129426591D02*
X153494800Y-129331353D01*
X153494800Y-129331353D02*
X153542419Y-129188496D01*
X153542419Y-129188496D02*
X153542419Y-129093258D01*
X153542419Y-129093258D02*
X153494800Y-128950401D01*
X153494800Y-128950401D02*
X153447180Y-128902782D01*
X153447180Y-128902782D02*
X153113847Y-128902782D01*
X153113847Y-128902782D02*
X153113847Y-129093258D01*
X153542419Y-128474210D02*
X152542419Y-128474210D01*
X152542419Y-128474210D02*
X153542419Y-127902782D01*
X153542419Y-127902782D02*
X152542419Y-127902782D01*
X153542419Y-127426591D02*
X152542419Y-127426591D01*
X152542419Y-127426591D02*
X152542419Y-127188496D01*
X152542419Y-127188496D02*
X152590038Y-127045639D01*
X152590038Y-127045639D02*
X152685276Y-126950401D01*
X152685276Y-126950401D02*
X152780514Y-126902782D01*
X152780514Y-126902782D02*
X152970990Y-126855163D01*
X152970990Y-126855163D02*
X153113847Y-126855163D01*
X153113847Y-126855163D02*
X153304323Y-126902782D01*
X153304323Y-126902782D02*
X153399561Y-126950401D01*
X153399561Y-126950401D02*
X153494800Y-127045639D01*
X153494800Y-127045639D02*
X153542419Y-127188496D01*
X153542419Y-127188496D02*
X153542419Y-127426591D01*
X106989285Y-89960752D02*
X106989285Y-90627419D01*
X106751190Y-89579800D02*
X106513095Y-90294085D01*
X106513095Y-90294085D02*
X107132142Y-90294085D01*
X107465476Y-89722657D02*
X107513095Y-89675038D01*
X107513095Y-89675038D02*
X107608333Y-89627419D01*
X107608333Y-89627419D02*
X107846428Y-89627419D01*
X107846428Y-89627419D02*
X107941666Y-89675038D01*
X107941666Y-89675038D02*
X107989285Y-89722657D01*
X107989285Y-89722657D02*
X108036904Y-89817895D01*
X108036904Y-89817895D02*
X108036904Y-89913133D01*
X108036904Y-89913133D02*
X107989285Y-90055990D01*
X107989285Y-90055990D02*
X107417857Y-90627419D01*
X107417857Y-90627419D02*
X108036904Y-90627419D01*
X107036904Y-104867419D02*
X106560714Y-104867419D01*
X106560714Y-104867419D02*
X106513095Y-105343609D01*
X106513095Y-105343609D02*
X106560714Y-105295990D01*
X106560714Y-105295990D02*
X106655952Y-105248371D01*
X106655952Y-105248371D02*
X106894047Y-105248371D01*
X106894047Y-105248371D02*
X106989285Y-105295990D01*
X106989285Y-105295990D02*
X107036904Y-105343609D01*
X107036904Y-105343609D02*
X107084523Y-105438847D01*
X107084523Y-105438847D02*
X107084523Y-105676942D01*
X107084523Y-105676942D02*
X107036904Y-105772180D01*
X107036904Y-105772180D02*
X106989285Y-105819800D01*
X106989285Y-105819800D02*
X106894047Y-105867419D01*
X106894047Y-105867419D02*
X106655952Y-105867419D01*
X106655952Y-105867419D02*
X106560714Y-105819800D01*
X106560714Y-105819800D02*
X106513095Y-105772180D01*
X107417857Y-104867419D02*
X108084523Y-104867419D01*
X108084523Y-104867419D02*
X107655952Y-105867419D01*
X106465476Y-59147419D02*
X107084523Y-59147419D01*
X107084523Y-59147419D02*
X106751190Y-59528371D01*
X106751190Y-59528371D02*
X106894047Y-59528371D01*
X106894047Y-59528371D02*
X106989285Y-59575990D01*
X106989285Y-59575990D02*
X107036904Y-59623609D01*
X107036904Y-59623609D02*
X107084523Y-59718847D01*
X107084523Y-59718847D02*
X107084523Y-59956942D01*
X107084523Y-59956942D02*
X107036904Y-60052180D01*
X107036904Y-60052180D02*
X106989285Y-60099800D01*
X106989285Y-60099800D02*
X106894047Y-60147419D01*
X106894047Y-60147419D02*
X106608333Y-60147419D01*
X106608333Y-60147419D02*
X106513095Y-60099800D01*
X106513095Y-60099800D02*
X106465476Y-60052180D01*
X107560714Y-60147419D02*
X107751190Y-60147419D01*
X107751190Y-60147419D02*
X107846428Y-60099800D01*
X107846428Y-60099800D02*
X107894047Y-60052180D01*
X107894047Y-60052180D02*
X107989285Y-59909323D01*
X107989285Y-59909323D02*
X108036904Y-59718847D01*
X108036904Y-59718847D02*
X108036904Y-59337895D01*
X108036904Y-59337895D02*
X107989285Y-59242657D01*
X107989285Y-59242657D02*
X107941666Y-59195038D01*
X107941666Y-59195038D02*
X107846428Y-59147419D01*
X107846428Y-59147419D02*
X107655952Y-59147419D01*
X107655952Y-59147419D02*
X107560714Y-59195038D01*
X107560714Y-59195038D02*
X107513095Y-59242657D01*
X107513095Y-59242657D02*
X107465476Y-59337895D01*
X107465476Y-59337895D02*
X107465476Y-59575990D01*
X107465476Y-59575990D02*
X107513095Y-59671228D01*
X107513095Y-59671228D02*
X107560714Y-59718847D01*
X107560714Y-59718847D02*
X107655952Y-59766466D01*
X107655952Y-59766466D02*
X107846428Y-59766466D01*
X107846428Y-59766466D02*
X107941666Y-59718847D01*
X107941666Y-59718847D02*
X107989285Y-59671228D01*
X107989285Y-59671228D02*
X108036904Y-59575990D01*
X106465476Y-54067419D02*
X107084523Y-54067419D01*
X107084523Y-54067419D02*
X106751190Y-54448371D01*
X106751190Y-54448371D02*
X106894047Y-54448371D01*
X106894047Y-54448371D02*
X106989285Y-54495990D01*
X106989285Y-54495990D02*
X107036904Y-54543609D01*
X107036904Y-54543609D02*
X107084523Y-54638847D01*
X107084523Y-54638847D02*
X107084523Y-54876942D01*
X107084523Y-54876942D02*
X107036904Y-54972180D01*
X107036904Y-54972180D02*
X106989285Y-55019800D01*
X106989285Y-55019800D02*
X106894047Y-55067419D01*
X106894047Y-55067419D02*
X106608333Y-55067419D01*
X106608333Y-55067419D02*
X106513095Y-55019800D01*
X106513095Y-55019800D02*
X106465476Y-54972180D01*
X107417857Y-54067419D02*
X108084523Y-54067419D01*
X108084523Y-54067419D02*
X107655952Y-55067419D01*
X145438571Y-67195990D02*
X145343333Y-67148371D01*
X145343333Y-67148371D02*
X145295714Y-67100752D01*
X145295714Y-67100752D02*
X145248095Y-67005514D01*
X145248095Y-67005514D02*
X145248095Y-66957895D01*
X145248095Y-66957895D02*
X145295714Y-66862657D01*
X145295714Y-66862657D02*
X145343333Y-66815038D01*
X145343333Y-66815038D02*
X145438571Y-66767419D01*
X145438571Y-66767419D02*
X145629047Y-66767419D01*
X145629047Y-66767419D02*
X145724285Y-66815038D01*
X145724285Y-66815038D02*
X145771904Y-66862657D01*
X145771904Y-66862657D02*
X145819523Y-66957895D01*
X145819523Y-66957895D02*
X145819523Y-67005514D01*
X145819523Y-67005514D02*
X145771904Y-67100752D01*
X145771904Y-67100752D02*
X145724285Y-67148371D01*
X145724285Y-67148371D02*
X145629047Y-67195990D01*
X145629047Y-67195990D02*
X145438571Y-67195990D01*
X145438571Y-67195990D02*
X145343333Y-67243609D01*
X145343333Y-67243609D02*
X145295714Y-67291228D01*
X145295714Y-67291228D02*
X145248095Y-67386466D01*
X145248095Y-67386466D02*
X145248095Y-67576942D01*
X145248095Y-67576942D02*
X145295714Y-67672180D01*
X145295714Y-67672180D02*
X145343333Y-67719800D01*
X145343333Y-67719800D02*
X145438571Y-67767419D01*
X145438571Y-67767419D02*
X145629047Y-67767419D01*
X145629047Y-67767419D02*
X145724285Y-67719800D01*
X145724285Y-67719800D02*
X145771904Y-67672180D01*
X145771904Y-67672180D02*
X145819523Y-67576942D01*
X145819523Y-67576942D02*
X145819523Y-67386466D01*
X145819523Y-67386466D02*
X145771904Y-67291228D01*
X145771904Y-67291228D02*
X145724285Y-67243609D01*
X145724285Y-67243609D02*
X145629047Y-67195990D01*
X146771904Y-67767419D02*
X146200476Y-67767419D01*
X146486190Y-67767419D02*
X146486190Y-66767419D01*
X146486190Y-66767419D02*
X146390952Y-66910276D01*
X146390952Y-66910276D02*
X146295714Y-67005514D01*
X146295714Y-67005514D02*
X146200476Y-67053133D01*
X145438571Y-57035990D02*
X145343333Y-56988371D01*
X145343333Y-56988371D02*
X145295714Y-56940752D01*
X145295714Y-56940752D02*
X145248095Y-56845514D01*
X145248095Y-56845514D02*
X145248095Y-56797895D01*
X145248095Y-56797895D02*
X145295714Y-56702657D01*
X145295714Y-56702657D02*
X145343333Y-56655038D01*
X145343333Y-56655038D02*
X145438571Y-56607419D01*
X145438571Y-56607419D02*
X145629047Y-56607419D01*
X145629047Y-56607419D02*
X145724285Y-56655038D01*
X145724285Y-56655038D02*
X145771904Y-56702657D01*
X145771904Y-56702657D02*
X145819523Y-56797895D01*
X145819523Y-56797895D02*
X145819523Y-56845514D01*
X145819523Y-56845514D02*
X145771904Y-56940752D01*
X145771904Y-56940752D02*
X145724285Y-56988371D01*
X145724285Y-56988371D02*
X145629047Y-57035990D01*
X145629047Y-57035990D02*
X145438571Y-57035990D01*
X145438571Y-57035990D02*
X145343333Y-57083609D01*
X145343333Y-57083609D02*
X145295714Y-57131228D01*
X145295714Y-57131228D02*
X145248095Y-57226466D01*
X145248095Y-57226466D02*
X145248095Y-57416942D01*
X145248095Y-57416942D02*
X145295714Y-57512180D01*
X145295714Y-57512180D02*
X145343333Y-57559800D01*
X145343333Y-57559800D02*
X145438571Y-57607419D01*
X145438571Y-57607419D02*
X145629047Y-57607419D01*
X145629047Y-57607419D02*
X145724285Y-57559800D01*
X145724285Y-57559800D02*
X145771904Y-57512180D01*
X145771904Y-57512180D02*
X145819523Y-57416942D01*
X145819523Y-57416942D02*
X145819523Y-57226466D01*
X145819523Y-57226466D02*
X145771904Y-57131228D01*
X145771904Y-57131228D02*
X145724285Y-57083609D01*
X145724285Y-57083609D02*
X145629047Y-57035990D01*
X146724285Y-56607419D02*
X146248095Y-56607419D01*
X146248095Y-56607419D02*
X146200476Y-57083609D01*
X146200476Y-57083609D02*
X146248095Y-57035990D01*
X146248095Y-57035990D02*
X146343333Y-56988371D01*
X146343333Y-56988371D02*
X146581428Y-56988371D01*
X146581428Y-56988371D02*
X146676666Y-57035990D01*
X146676666Y-57035990D02*
X146724285Y-57083609D01*
X146724285Y-57083609D02*
X146771904Y-57178847D01*
X146771904Y-57178847D02*
X146771904Y-57416942D01*
X146771904Y-57416942D02*
X146724285Y-57512180D01*
X146724285Y-57512180D02*
X146676666Y-57559800D01*
X146676666Y-57559800D02*
X146581428Y-57607419D01*
X146581428Y-57607419D02*
X146343333Y-57607419D01*
X146343333Y-57607419D02*
X146248095Y-57559800D01*
X146248095Y-57559800D02*
X146200476Y-57512180D01*
X107036904Y-92167419D02*
X106560714Y-92167419D01*
X106560714Y-92167419D02*
X106513095Y-92643609D01*
X106513095Y-92643609D02*
X106560714Y-92595990D01*
X106560714Y-92595990D02*
X106655952Y-92548371D01*
X106655952Y-92548371D02*
X106894047Y-92548371D01*
X106894047Y-92548371D02*
X106989285Y-92595990D01*
X106989285Y-92595990D02*
X107036904Y-92643609D01*
X107036904Y-92643609D02*
X107084523Y-92738847D01*
X107084523Y-92738847D02*
X107084523Y-92976942D01*
X107084523Y-92976942D02*
X107036904Y-93072180D01*
X107036904Y-93072180D02*
X106989285Y-93119800D01*
X106989285Y-93119800D02*
X106894047Y-93167419D01*
X106894047Y-93167419D02*
X106655952Y-93167419D01*
X106655952Y-93167419D02*
X106560714Y-93119800D01*
X106560714Y-93119800D02*
X106513095Y-93072180D01*
X108036904Y-93167419D02*
X107465476Y-93167419D01*
X107751190Y-93167419D02*
X107751190Y-92167419D01*
X107751190Y-92167419D02*
X107655952Y-92310276D01*
X107655952Y-92310276D02*
X107560714Y-92405514D01*
X107560714Y-92405514D02*
X107465476Y-92453133D01*
X145200476Y-84547419D02*
X145867142Y-84547419D01*
X145867142Y-84547419D02*
X145438571Y-85547419D01*
X146152857Y-84547419D02*
X146771904Y-84547419D01*
X146771904Y-84547419D02*
X146438571Y-84928371D01*
X146438571Y-84928371D02*
X146581428Y-84928371D01*
X146581428Y-84928371D02*
X146676666Y-84975990D01*
X146676666Y-84975990D02*
X146724285Y-85023609D01*
X146724285Y-85023609D02*
X146771904Y-85118847D01*
X146771904Y-85118847D02*
X146771904Y-85356942D01*
X146771904Y-85356942D02*
X146724285Y-85452180D01*
X146724285Y-85452180D02*
X146676666Y-85499800D01*
X146676666Y-85499800D02*
X146581428Y-85547419D01*
X146581428Y-85547419D02*
X146295714Y-85547419D01*
X146295714Y-85547419D02*
X146200476Y-85499800D01*
X146200476Y-85499800D02*
X146152857Y-85452180D01*
X106465476Y-84547419D02*
X107084523Y-84547419D01*
X107084523Y-84547419D02*
X106751190Y-84928371D01*
X106751190Y-84928371D02*
X106894047Y-84928371D01*
X106894047Y-84928371D02*
X106989285Y-84975990D01*
X106989285Y-84975990D02*
X107036904Y-85023609D01*
X107036904Y-85023609D02*
X107084523Y-85118847D01*
X107084523Y-85118847D02*
X107084523Y-85356942D01*
X107084523Y-85356942D02*
X107036904Y-85452180D01*
X107036904Y-85452180D02*
X106989285Y-85499800D01*
X106989285Y-85499800D02*
X106894047Y-85547419D01*
X106894047Y-85547419D02*
X106608333Y-85547419D01*
X106608333Y-85547419D02*
X106513095Y-85499800D01*
X106513095Y-85499800D02*
X106465476Y-85452180D01*
X107989285Y-84547419D02*
X107513095Y-84547419D01*
X107513095Y-84547419D02*
X107465476Y-85023609D01*
X107465476Y-85023609D02*
X107513095Y-84975990D01*
X107513095Y-84975990D02*
X107608333Y-84928371D01*
X107608333Y-84928371D02*
X107846428Y-84928371D01*
X107846428Y-84928371D02*
X107941666Y-84975990D01*
X107941666Y-84975990D02*
X107989285Y-85023609D01*
X107989285Y-85023609D02*
X108036904Y-85118847D01*
X108036904Y-85118847D02*
X108036904Y-85356942D01*
X108036904Y-85356942D02*
X107989285Y-85452180D01*
X107989285Y-85452180D02*
X107941666Y-85499800D01*
X107941666Y-85499800D02*
X107846428Y-85547419D01*
X107846428Y-85547419D02*
X107608333Y-85547419D01*
X107608333Y-85547419D02*
X107513095Y-85499800D01*
X107513095Y-85499800D02*
X107465476Y-85452180D01*
X103745312Y-105772180D02*
X103697693Y-105819800D01*
X103697693Y-105819800D02*
X103554836Y-105867419D01*
X103554836Y-105867419D02*
X103459598Y-105867419D01*
X103459598Y-105867419D02*
X103316741Y-105819800D01*
X103316741Y-105819800D02*
X103221503Y-105724561D01*
X103221503Y-105724561D02*
X103173884Y-105629323D01*
X103173884Y-105629323D02*
X103126265Y-105438847D01*
X103126265Y-105438847D02*
X103126265Y-105295990D01*
X103126265Y-105295990D02*
X103173884Y-105105514D01*
X103173884Y-105105514D02*
X103221503Y-105010276D01*
X103221503Y-105010276D02*
X103316741Y-104915038D01*
X103316741Y-104915038D02*
X103459598Y-104867419D01*
X103459598Y-104867419D02*
X103554836Y-104867419D01*
X103554836Y-104867419D02*
X103697693Y-104915038D01*
X103697693Y-104915038D02*
X103745312Y-104962657D01*
X104031027Y-104867419D02*
X104602455Y-104867419D01*
X104316741Y-105867419D02*
X104316741Y-104867419D01*
X104888170Y-105819800D02*
X105031027Y-105867419D01*
X105031027Y-105867419D02*
X105269122Y-105867419D01*
X105269122Y-105867419D02*
X105364360Y-105819800D01*
X105364360Y-105819800D02*
X105411979Y-105772180D01*
X105411979Y-105772180D02*
X105459598Y-105676942D01*
X105459598Y-105676942D02*
X105459598Y-105581704D01*
X105459598Y-105581704D02*
X105411979Y-105486466D01*
X105411979Y-105486466D02*
X105364360Y-105438847D01*
X105364360Y-105438847D02*
X105269122Y-105391228D01*
X105269122Y-105391228D02*
X105078646Y-105343609D01*
X105078646Y-105343609D02*
X104983408Y-105295990D01*
X104983408Y-105295990D02*
X104935789Y-105248371D01*
X104935789Y-105248371D02*
X104888170Y-105153133D01*
X104888170Y-105153133D02*
X104888170Y-105057895D01*
X104888170Y-105057895D02*
X104935789Y-104962657D01*
X104935789Y-104962657D02*
X104983408Y-104915038D01*
X104983408Y-104915038D02*
X105078646Y-104867419D01*
X105078646Y-104867419D02*
X105316741Y-104867419D01*
X105316741Y-104867419D02*
X105459598Y-104915038D01*
X145200476Y-89627419D02*
X145867142Y-89627419D01*
X145867142Y-89627419D02*
X145438571Y-90627419D01*
X146771904Y-90627419D02*
X146200476Y-90627419D01*
X146486190Y-90627419D02*
X146486190Y-89627419D01*
X146486190Y-89627419D02*
X146390952Y-89770276D01*
X146390952Y-89770276D02*
X146295714Y-89865514D01*
X146295714Y-89865514D02*
X146200476Y-89913133D01*
X148383333Y-80372180D02*
X148335714Y-80419800D01*
X148335714Y-80419800D02*
X148192857Y-80467419D01*
X148192857Y-80467419D02*
X148097619Y-80467419D01*
X148097619Y-80467419D02*
X147954762Y-80419800D01*
X147954762Y-80419800D02*
X147859524Y-80324561D01*
X147859524Y-80324561D02*
X147811905Y-80229323D01*
X147811905Y-80229323D02*
X147764286Y-80038847D01*
X147764286Y-80038847D02*
X147764286Y-79895990D01*
X147764286Y-79895990D02*
X147811905Y-79705514D01*
X147811905Y-79705514D02*
X147859524Y-79610276D01*
X147859524Y-79610276D02*
X147954762Y-79515038D01*
X147954762Y-79515038D02*
X148097619Y-79467419D01*
X148097619Y-79467419D02*
X148192857Y-79467419D01*
X148192857Y-79467419D02*
X148335714Y-79515038D01*
X148335714Y-79515038D02*
X148383333Y-79562657D01*
X149240476Y-79467419D02*
X149050000Y-79467419D01*
X149050000Y-79467419D02*
X148954762Y-79515038D01*
X148954762Y-79515038D02*
X148907143Y-79562657D01*
X148907143Y-79562657D02*
X148811905Y-79705514D01*
X148811905Y-79705514D02*
X148764286Y-79895990D01*
X148764286Y-79895990D02*
X148764286Y-80276942D01*
X148764286Y-80276942D02*
X148811905Y-80372180D01*
X148811905Y-80372180D02*
X148859524Y-80419800D01*
X148859524Y-80419800D02*
X148954762Y-80467419D01*
X148954762Y-80467419D02*
X149145238Y-80467419D01*
X149145238Y-80467419D02*
X149240476Y-80419800D01*
X149240476Y-80419800D02*
X149288095Y-80372180D01*
X149288095Y-80372180D02*
X149335714Y-80276942D01*
X149335714Y-80276942D02*
X149335714Y-80038847D01*
X149335714Y-80038847D02*
X149288095Y-79943609D01*
X149288095Y-79943609D02*
X149240476Y-79895990D01*
X149240476Y-79895990D02*
X149145238Y-79848371D01*
X149145238Y-79848371D02*
X148954762Y-79848371D01*
X148954762Y-79848371D02*
X148859524Y-79895990D01*
X148859524Y-79895990D02*
X148811905Y-79943609D01*
X148811905Y-79943609D02*
X148764286Y-80038847D01*
X107036904Y-97247419D02*
X106560714Y-97247419D01*
X106560714Y-97247419D02*
X106513095Y-97723609D01*
X106513095Y-97723609D02*
X106560714Y-97675990D01*
X106560714Y-97675990D02*
X106655952Y-97628371D01*
X106655952Y-97628371D02*
X106894047Y-97628371D01*
X106894047Y-97628371D02*
X106989285Y-97675990D01*
X106989285Y-97675990D02*
X107036904Y-97723609D01*
X107036904Y-97723609D02*
X107084523Y-97818847D01*
X107084523Y-97818847D02*
X107084523Y-98056942D01*
X107084523Y-98056942D02*
X107036904Y-98152180D01*
X107036904Y-98152180D02*
X106989285Y-98199800D01*
X106989285Y-98199800D02*
X106894047Y-98247419D01*
X106894047Y-98247419D02*
X106655952Y-98247419D01*
X106655952Y-98247419D02*
X106560714Y-98199800D01*
X106560714Y-98199800D02*
X106513095Y-98152180D01*
X107941666Y-97580752D02*
X107941666Y-98247419D01*
X107703571Y-97199800D02*
X107465476Y-97914085D01*
X107465476Y-97914085D02*
X108084523Y-97914085D01*
X106465476Y-76927419D02*
X107084523Y-76927419D01*
X107084523Y-76927419D02*
X106751190Y-77308371D01*
X106751190Y-77308371D02*
X106894047Y-77308371D01*
X106894047Y-77308371D02*
X106989285Y-77355990D01*
X106989285Y-77355990D02*
X107036904Y-77403609D01*
X107036904Y-77403609D02*
X107084523Y-77498847D01*
X107084523Y-77498847D02*
X107084523Y-77736942D01*
X107084523Y-77736942D02*
X107036904Y-77832180D01*
X107036904Y-77832180D02*
X106989285Y-77879800D01*
X106989285Y-77879800D02*
X106894047Y-77927419D01*
X106894047Y-77927419D02*
X106608333Y-77927419D01*
X106608333Y-77927419D02*
X106513095Y-77879800D01*
X106513095Y-77879800D02*
X106465476Y-77832180D01*
X107417857Y-76927419D02*
X108036904Y-76927419D01*
X108036904Y-76927419D02*
X107703571Y-77308371D01*
X107703571Y-77308371D02*
X107846428Y-77308371D01*
X107846428Y-77308371D02*
X107941666Y-77355990D01*
X107941666Y-77355990D02*
X107989285Y-77403609D01*
X107989285Y-77403609D02*
X108036904Y-77498847D01*
X108036904Y-77498847D02*
X108036904Y-77736942D01*
X108036904Y-77736942D02*
X107989285Y-77832180D01*
X107989285Y-77832180D02*
X107941666Y-77879800D01*
X107941666Y-77879800D02*
X107846428Y-77927419D01*
X107846428Y-77927419D02*
X107560714Y-77927419D01*
X107560714Y-77927419D02*
X107465476Y-77879800D01*
X107465476Y-77879800D02*
X107417857Y-77832180D01*
X147811905Y-60147419D02*
X147811905Y-59147419D01*
X147811905Y-59147419D02*
X148050000Y-59147419D01*
X148050000Y-59147419D02*
X148192857Y-59195038D01*
X148192857Y-59195038D02*
X148288095Y-59290276D01*
X148288095Y-59290276D02*
X148335714Y-59385514D01*
X148335714Y-59385514D02*
X148383333Y-59575990D01*
X148383333Y-59575990D02*
X148383333Y-59718847D01*
X148383333Y-59718847D02*
X148335714Y-59909323D01*
X148335714Y-59909323D02*
X148288095Y-60004561D01*
X148288095Y-60004561D02*
X148192857Y-60099800D01*
X148192857Y-60099800D02*
X148050000Y-60147419D01*
X148050000Y-60147419D02*
X147811905Y-60147419D01*
X148716667Y-59147419D02*
X149335714Y-59147419D01*
X149335714Y-59147419D02*
X149002381Y-59528371D01*
X149002381Y-59528371D02*
X149145238Y-59528371D01*
X149145238Y-59528371D02*
X149240476Y-59575990D01*
X149240476Y-59575990D02*
X149288095Y-59623609D01*
X149288095Y-59623609D02*
X149335714Y-59718847D01*
X149335714Y-59718847D02*
X149335714Y-59956942D01*
X149335714Y-59956942D02*
X149288095Y-60052180D01*
X149288095Y-60052180D02*
X149240476Y-60099800D01*
X149240476Y-60099800D02*
X149145238Y-60147419D01*
X149145238Y-60147419D02*
X148859524Y-60147419D01*
X148859524Y-60147419D02*
X148764286Y-60099800D01*
X148764286Y-60099800D02*
X148716667Y-60052180D01*
X103425714Y-92881704D02*
X103901904Y-92881704D01*
X103330476Y-93167419D02*
X103663809Y-92167419D01*
X103663809Y-92167419D02*
X103997142Y-93167419D01*
X104854285Y-93167419D02*
X104282857Y-93167419D01*
X104568571Y-93167419D02*
X104568571Y-92167419D01*
X104568571Y-92167419D02*
X104473333Y-92310276D01*
X104473333Y-92310276D02*
X104378095Y-92405514D01*
X104378095Y-92405514D02*
X104282857Y-92453133D01*
X145200476Y-87087419D02*
X145867142Y-87087419D01*
X145867142Y-87087419D02*
X145438571Y-88087419D01*
X146200476Y-87182657D02*
X146248095Y-87135038D01*
X146248095Y-87135038D02*
X146343333Y-87087419D01*
X146343333Y-87087419D02*
X146581428Y-87087419D01*
X146581428Y-87087419D02*
X146676666Y-87135038D01*
X146676666Y-87135038D02*
X146724285Y-87182657D01*
X146724285Y-87182657D02*
X146771904Y-87277895D01*
X146771904Y-87277895D02*
X146771904Y-87373133D01*
X146771904Y-87373133D02*
X146724285Y-87515990D01*
X146724285Y-87515990D02*
X146152857Y-88087419D01*
X146152857Y-88087419D02*
X146771904Y-88087419D01*
X155987180Y-128902782D02*
X156034800Y-128950401D01*
X156034800Y-128950401D02*
X156082419Y-129093258D01*
X156082419Y-129093258D02*
X156082419Y-129188496D01*
X156082419Y-129188496D02*
X156034800Y-129331353D01*
X156034800Y-129331353D02*
X155939561Y-129426591D01*
X155939561Y-129426591D02*
X155844323Y-129474210D01*
X155844323Y-129474210D02*
X155653847Y-129521829D01*
X155653847Y-129521829D02*
X155510990Y-129521829D01*
X155510990Y-129521829D02*
X155320514Y-129474210D01*
X155320514Y-129474210D02*
X155225276Y-129426591D01*
X155225276Y-129426591D02*
X155130038Y-129331353D01*
X155130038Y-129331353D02*
X155082419Y-129188496D01*
X155082419Y-129188496D02*
X155082419Y-129093258D01*
X155082419Y-129093258D02*
X155130038Y-128950401D01*
X155130038Y-128950401D02*
X155177657Y-128902782D01*
X155082419Y-128617067D02*
X155082419Y-128045639D01*
X156082419Y-128331353D02*
X155082419Y-128331353D01*
X156034800Y-127759924D02*
X156082419Y-127617067D01*
X156082419Y-127617067D02*
X156082419Y-127378972D01*
X156082419Y-127378972D02*
X156034800Y-127283734D01*
X156034800Y-127283734D02*
X155987180Y-127236115D01*
X155987180Y-127236115D02*
X155891942Y-127188496D01*
X155891942Y-127188496D02*
X155796704Y-127188496D01*
X155796704Y-127188496D02*
X155701466Y-127236115D01*
X155701466Y-127236115D02*
X155653847Y-127283734D01*
X155653847Y-127283734D02*
X155606228Y-127378972D01*
X155606228Y-127378972D02*
X155558609Y-127569448D01*
X155558609Y-127569448D02*
X155510990Y-127664686D01*
X155510990Y-127664686D02*
X155463371Y-127712305D01*
X155463371Y-127712305D02*
X155368133Y-127759924D01*
X155368133Y-127759924D02*
X155272895Y-127759924D01*
X155272895Y-127759924D02*
X155177657Y-127712305D01*
X155177657Y-127712305D02*
X155130038Y-127664686D01*
X155130038Y-127664686D02*
X155082419Y-127569448D01*
X155082419Y-127569448D02*
X155082419Y-127331353D01*
X155082419Y-127331353D02*
X155130038Y-127188496D01*
X106513095Y-66862657D02*
X106560714Y-66815038D01*
X106560714Y-66815038D02*
X106655952Y-66767419D01*
X106655952Y-66767419D02*
X106894047Y-66767419D01*
X106894047Y-66767419D02*
X106989285Y-66815038D01*
X106989285Y-66815038D02*
X107036904Y-66862657D01*
X107036904Y-66862657D02*
X107084523Y-66957895D01*
X107084523Y-66957895D02*
X107084523Y-67053133D01*
X107084523Y-67053133D02*
X107036904Y-67195990D01*
X107036904Y-67195990D02*
X106465476Y-67767419D01*
X106465476Y-67767419D02*
X107084523Y-67767419D01*
X107417857Y-66767419D02*
X108084523Y-66767419D01*
X108084523Y-66767419D02*
X107655952Y-67767419D01*
X145819523Y-94707419D02*
X145343333Y-94707419D01*
X145343333Y-94707419D02*
X145295714Y-95183609D01*
X145295714Y-95183609D02*
X145343333Y-95135990D01*
X145343333Y-95135990D02*
X145438571Y-95088371D01*
X145438571Y-95088371D02*
X145676666Y-95088371D01*
X145676666Y-95088371D02*
X145771904Y-95135990D01*
X145771904Y-95135990D02*
X145819523Y-95183609D01*
X145819523Y-95183609D02*
X145867142Y-95278847D01*
X145867142Y-95278847D02*
X145867142Y-95516942D01*
X145867142Y-95516942D02*
X145819523Y-95612180D01*
X145819523Y-95612180D02*
X145771904Y-95659800D01*
X145771904Y-95659800D02*
X145676666Y-95707419D01*
X145676666Y-95707419D02*
X145438571Y-95707419D01*
X145438571Y-95707419D02*
X145343333Y-95659800D01*
X145343333Y-95659800D02*
X145295714Y-95612180D01*
X146152857Y-94707419D02*
X146486190Y-95707419D01*
X146486190Y-95707419D02*
X146819523Y-94707419D01*
X106513095Y-69402657D02*
X106560714Y-69355038D01*
X106560714Y-69355038D02*
X106655952Y-69307419D01*
X106655952Y-69307419D02*
X106894047Y-69307419D01*
X106894047Y-69307419D02*
X106989285Y-69355038D01*
X106989285Y-69355038D02*
X107036904Y-69402657D01*
X107036904Y-69402657D02*
X107084523Y-69497895D01*
X107084523Y-69497895D02*
X107084523Y-69593133D01*
X107084523Y-69593133D02*
X107036904Y-69735990D01*
X107036904Y-69735990D02*
X106465476Y-70307419D01*
X106465476Y-70307419D02*
X107084523Y-70307419D01*
X107655952Y-69735990D02*
X107560714Y-69688371D01*
X107560714Y-69688371D02*
X107513095Y-69640752D01*
X107513095Y-69640752D02*
X107465476Y-69545514D01*
X107465476Y-69545514D02*
X107465476Y-69497895D01*
X107465476Y-69497895D02*
X107513095Y-69402657D01*
X107513095Y-69402657D02*
X107560714Y-69355038D01*
X107560714Y-69355038D02*
X107655952Y-69307419D01*
X107655952Y-69307419D02*
X107846428Y-69307419D01*
X107846428Y-69307419D02*
X107941666Y-69355038D01*
X107941666Y-69355038D02*
X107989285Y-69402657D01*
X107989285Y-69402657D02*
X108036904Y-69497895D01*
X108036904Y-69497895D02*
X108036904Y-69545514D01*
X108036904Y-69545514D02*
X107989285Y-69640752D01*
X107989285Y-69640752D02*
X107941666Y-69688371D01*
X107941666Y-69688371D02*
X107846428Y-69735990D01*
X107846428Y-69735990D02*
X107655952Y-69735990D01*
X107655952Y-69735990D02*
X107560714Y-69783609D01*
X107560714Y-69783609D02*
X107513095Y-69831228D01*
X107513095Y-69831228D02*
X107465476Y-69926466D01*
X107465476Y-69926466D02*
X107465476Y-70116942D01*
X107465476Y-70116942D02*
X107513095Y-70212180D01*
X107513095Y-70212180D02*
X107560714Y-70259800D01*
X107560714Y-70259800D02*
X107655952Y-70307419D01*
X107655952Y-70307419D02*
X107846428Y-70307419D01*
X107846428Y-70307419D02*
X107941666Y-70259800D01*
X107941666Y-70259800D02*
X107989285Y-70212180D01*
X107989285Y-70212180D02*
X108036904Y-70116942D01*
X108036904Y-70116942D02*
X108036904Y-69926466D01*
X108036904Y-69926466D02*
X107989285Y-69831228D01*
X107989285Y-69831228D02*
X107941666Y-69783609D01*
X107941666Y-69783609D02*
X107846428Y-69735990D01*
X106513095Y-71942657D02*
X106560714Y-71895038D01*
X106560714Y-71895038D02*
X106655952Y-71847419D01*
X106655952Y-71847419D02*
X106894047Y-71847419D01*
X106894047Y-71847419D02*
X106989285Y-71895038D01*
X106989285Y-71895038D02*
X107036904Y-71942657D01*
X107036904Y-71942657D02*
X107084523Y-72037895D01*
X107084523Y-72037895D02*
X107084523Y-72133133D01*
X107084523Y-72133133D02*
X107036904Y-72275990D01*
X107036904Y-72275990D02*
X106465476Y-72847419D01*
X106465476Y-72847419D02*
X107084523Y-72847419D01*
X107560714Y-72847419D02*
X107751190Y-72847419D01*
X107751190Y-72847419D02*
X107846428Y-72799800D01*
X107846428Y-72799800D02*
X107894047Y-72752180D01*
X107894047Y-72752180D02*
X107989285Y-72609323D01*
X107989285Y-72609323D02*
X108036904Y-72418847D01*
X108036904Y-72418847D02*
X108036904Y-72037895D01*
X108036904Y-72037895D02*
X107989285Y-71942657D01*
X107989285Y-71942657D02*
X107941666Y-71895038D01*
X107941666Y-71895038D02*
X107846428Y-71847419D01*
X107846428Y-71847419D02*
X107655952Y-71847419D01*
X107655952Y-71847419D02*
X107560714Y-71895038D01*
X107560714Y-71895038D02*
X107513095Y-71942657D01*
X107513095Y-71942657D02*
X107465476Y-72037895D01*
X107465476Y-72037895D02*
X107465476Y-72275990D01*
X107465476Y-72275990D02*
X107513095Y-72371228D01*
X107513095Y-72371228D02*
X107560714Y-72418847D01*
X107560714Y-72418847D02*
X107655952Y-72466466D01*
X107655952Y-72466466D02*
X107846428Y-72466466D01*
X107846428Y-72466466D02*
X107941666Y-72418847D01*
X107941666Y-72418847D02*
X107989285Y-72371228D01*
X107989285Y-72371228D02*
X108036904Y-72275990D01*
X103745312Y-100787419D02*
X103411979Y-100311228D01*
X103173884Y-100787419D02*
X103173884Y-99787419D01*
X103173884Y-99787419D02*
X103554836Y-99787419D01*
X103554836Y-99787419D02*
X103650074Y-99835038D01*
X103650074Y-99835038D02*
X103697693Y-99882657D01*
X103697693Y-99882657D02*
X103745312Y-99977895D01*
X103745312Y-99977895D02*
X103745312Y-100120752D01*
X103745312Y-100120752D02*
X103697693Y-100215990D01*
X103697693Y-100215990D02*
X103650074Y-100263609D01*
X103650074Y-100263609D02*
X103554836Y-100311228D01*
X103554836Y-100311228D02*
X103173884Y-100311228D01*
X104078646Y-99787419D02*
X104745312Y-100787419D01*
X104745312Y-99787419D02*
X104078646Y-100787419D01*
X105126265Y-100787419D02*
X105126265Y-99787419D01*
X105126265Y-99787419D02*
X105364360Y-99787419D01*
X105364360Y-99787419D02*
X105507217Y-99835038D01*
X105507217Y-99835038D02*
X105602455Y-99930276D01*
X105602455Y-99930276D02*
X105650074Y-100025514D01*
X105650074Y-100025514D02*
X105697693Y-100215990D01*
X105697693Y-100215990D02*
X105697693Y-100358847D01*
X105697693Y-100358847D02*
X105650074Y-100549323D01*
X105650074Y-100549323D02*
X105602455Y-100644561D01*
X105602455Y-100644561D02*
X105507217Y-100739800D01*
X105507217Y-100739800D02*
X105364360Y-100787419D01*
X105364360Y-100787419D02*
X105126265Y-100787419D01*
X145724285Y-51527419D02*
X145533809Y-51527419D01*
X145533809Y-51527419D02*
X145438571Y-51575038D01*
X145438571Y-51575038D02*
X145390952Y-51622657D01*
X145390952Y-51622657D02*
X145295714Y-51765514D01*
X145295714Y-51765514D02*
X145248095Y-51955990D01*
X145248095Y-51955990D02*
X145248095Y-52336942D01*
X145248095Y-52336942D02*
X145295714Y-52432180D01*
X145295714Y-52432180D02*
X145343333Y-52479800D01*
X145343333Y-52479800D02*
X145438571Y-52527419D01*
X145438571Y-52527419D02*
X145629047Y-52527419D01*
X145629047Y-52527419D02*
X145724285Y-52479800D01*
X145724285Y-52479800D02*
X145771904Y-52432180D01*
X145771904Y-52432180D02*
X145819523Y-52336942D01*
X145819523Y-52336942D02*
X145819523Y-52098847D01*
X145819523Y-52098847D02*
X145771904Y-52003609D01*
X145771904Y-52003609D02*
X145724285Y-51955990D01*
X145724285Y-51955990D02*
X145629047Y-51908371D01*
X145629047Y-51908371D02*
X145438571Y-51908371D01*
X145438571Y-51908371D02*
X145343333Y-51955990D01*
X145343333Y-51955990D02*
X145295714Y-52003609D01*
X145295714Y-52003609D02*
X145248095Y-52098847D01*
X146152857Y-51527419D02*
X146771904Y-51527419D01*
X146771904Y-51527419D02*
X146438571Y-51908371D01*
X146438571Y-51908371D02*
X146581428Y-51908371D01*
X146581428Y-51908371D02*
X146676666Y-51955990D01*
X146676666Y-51955990D02*
X146724285Y-52003609D01*
X146724285Y-52003609D02*
X146771904Y-52098847D01*
X146771904Y-52098847D02*
X146771904Y-52336942D01*
X146771904Y-52336942D02*
X146724285Y-52432180D01*
X146724285Y-52432180D02*
X146676666Y-52479800D01*
X146676666Y-52479800D02*
X146581428Y-52527419D01*
X146581428Y-52527419D02*
X146295714Y-52527419D01*
X146295714Y-52527419D02*
X146200476Y-52479800D01*
X146200476Y-52479800D02*
X146152857Y-52432180D01*
X157622419Y-129617067D02*
X158622419Y-129283734D01*
X158622419Y-129283734D02*
X157622419Y-128950401D01*
X158527180Y-128045639D02*
X158574800Y-128093258D01*
X158574800Y-128093258D02*
X158622419Y-128236115D01*
X158622419Y-128236115D02*
X158622419Y-128331353D01*
X158622419Y-128331353D02*
X158574800Y-128474210D01*
X158574800Y-128474210D02*
X158479561Y-128569448D01*
X158479561Y-128569448D02*
X158384323Y-128617067D01*
X158384323Y-128617067D02*
X158193847Y-128664686D01*
X158193847Y-128664686D02*
X158050990Y-128664686D01*
X158050990Y-128664686D02*
X157860514Y-128617067D01*
X157860514Y-128617067D02*
X157765276Y-128569448D01*
X157765276Y-128569448D02*
X157670038Y-128474210D01*
X157670038Y-128474210D02*
X157622419Y-128331353D01*
X157622419Y-128331353D02*
X157622419Y-128236115D01*
X157622419Y-128236115D02*
X157670038Y-128093258D01*
X157670038Y-128093258D02*
X157717657Y-128045639D01*
X158527180Y-127045639D02*
X158574800Y-127093258D01*
X158574800Y-127093258D02*
X158622419Y-127236115D01*
X158622419Y-127236115D02*
X158622419Y-127331353D01*
X158622419Y-127331353D02*
X158574800Y-127474210D01*
X158574800Y-127474210D02*
X158479561Y-127569448D01*
X158479561Y-127569448D02*
X158384323Y-127617067D01*
X158384323Y-127617067D02*
X158193847Y-127664686D01*
X158193847Y-127664686D02*
X158050990Y-127664686D01*
X158050990Y-127664686D02*
X157860514Y-127617067D01*
X157860514Y-127617067D02*
X157765276Y-127569448D01*
X157765276Y-127569448D02*
X157670038Y-127474210D01*
X157670038Y-127474210D02*
X157622419Y-127331353D01*
X157622419Y-127331353D02*
X157622419Y-127236115D01*
X157622419Y-127236115D02*
X157670038Y-127093258D01*
X157670038Y-127093258D02*
X157717657Y-127045639D01*
X148383333Y-82912180D02*
X148335714Y-82959800D01*
X148335714Y-82959800D02*
X148192857Y-83007419D01*
X148192857Y-83007419D02*
X148097619Y-83007419D01*
X148097619Y-83007419D02*
X147954762Y-82959800D01*
X147954762Y-82959800D02*
X147859524Y-82864561D01*
X147859524Y-82864561D02*
X147811905Y-82769323D01*
X147811905Y-82769323D02*
X147764286Y-82578847D01*
X147764286Y-82578847D02*
X147764286Y-82435990D01*
X147764286Y-82435990D02*
X147811905Y-82245514D01*
X147811905Y-82245514D02*
X147859524Y-82150276D01*
X147859524Y-82150276D02*
X147954762Y-82055038D01*
X147954762Y-82055038D02*
X148097619Y-82007419D01*
X148097619Y-82007419D02*
X148192857Y-82007419D01*
X148192857Y-82007419D02*
X148335714Y-82055038D01*
X148335714Y-82055038D02*
X148383333Y-82102657D01*
X149288095Y-82007419D02*
X148811905Y-82007419D01*
X148811905Y-82007419D02*
X148764286Y-82483609D01*
X148764286Y-82483609D02*
X148811905Y-82435990D01*
X148811905Y-82435990D02*
X148907143Y-82388371D01*
X148907143Y-82388371D02*
X149145238Y-82388371D01*
X149145238Y-82388371D02*
X149240476Y-82435990D01*
X149240476Y-82435990D02*
X149288095Y-82483609D01*
X149288095Y-82483609D02*
X149335714Y-82578847D01*
X149335714Y-82578847D02*
X149335714Y-82816942D01*
X149335714Y-82816942D02*
X149288095Y-82912180D01*
X149288095Y-82912180D02*
X149240476Y-82959800D01*
X149240476Y-82959800D02*
X149145238Y-83007419D01*
X149145238Y-83007419D02*
X148907143Y-83007419D01*
X148907143Y-83007419D02*
X148811905Y-82959800D01*
X148811905Y-82959800D02*
X148764286Y-82912180D01*
X102766667Y-57559800D02*
X102909524Y-57607419D01*
X102909524Y-57607419D02*
X103147619Y-57607419D01*
X103147619Y-57607419D02*
X103242857Y-57559800D01*
X103242857Y-57559800D02*
X103290476Y-57512180D01*
X103290476Y-57512180D02*
X103338095Y-57416942D01*
X103338095Y-57416942D02*
X103338095Y-57321704D01*
X103338095Y-57321704D02*
X103290476Y-57226466D01*
X103290476Y-57226466D02*
X103242857Y-57178847D01*
X103242857Y-57178847D02*
X103147619Y-57131228D01*
X103147619Y-57131228D02*
X102957143Y-57083609D01*
X102957143Y-57083609D02*
X102861905Y-57035990D01*
X102861905Y-57035990D02*
X102814286Y-56988371D01*
X102814286Y-56988371D02*
X102766667Y-56893133D01*
X102766667Y-56893133D02*
X102766667Y-56797895D01*
X102766667Y-56797895D02*
X102814286Y-56702657D01*
X102814286Y-56702657D02*
X102861905Y-56655038D01*
X102861905Y-56655038D02*
X102957143Y-56607419D01*
X102957143Y-56607419D02*
X103195238Y-56607419D01*
X103195238Y-56607419D02*
X103338095Y-56655038D01*
X103671429Y-56607419D02*
X103909524Y-57607419D01*
X103909524Y-57607419D02*
X104100000Y-56893133D01*
X104100000Y-56893133D02*
X104290476Y-57607419D01*
X104290476Y-57607419D02*
X104528572Y-56607419D01*
X104861905Y-56702657D02*
X104909524Y-56655038D01*
X104909524Y-56655038D02*
X105004762Y-56607419D01*
X105004762Y-56607419D02*
X105242857Y-56607419D01*
X105242857Y-56607419D02*
X105338095Y-56655038D01*
X105338095Y-56655038D02*
X105385714Y-56702657D01*
X105385714Y-56702657D02*
X105433333Y-56797895D01*
X105433333Y-56797895D02*
X105433333Y-56893133D01*
X105433333Y-56893133D02*
X105385714Y-57035990D01*
X105385714Y-57035990D02*
X104814286Y-57607419D01*
X104814286Y-57607419D02*
X105433333Y-57607419D01*
X145438571Y-54495990D02*
X145343333Y-54448371D01*
X145343333Y-54448371D02*
X145295714Y-54400752D01*
X145295714Y-54400752D02*
X145248095Y-54305514D01*
X145248095Y-54305514D02*
X145248095Y-54257895D01*
X145248095Y-54257895D02*
X145295714Y-54162657D01*
X145295714Y-54162657D02*
X145343333Y-54115038D01*
X145343333Y-54115038D02*
X145438571Y-54067419D01*
X145438571Y-54067419D02*
X145629047Y-54067419D01*
X145629047Y-54067419D02*
X145724285Y-54115038D01*
X145724285Y-54115038D02*
X145771904Y-54162657D01*
X145771904Y-54162657D02*
X145819523Y-54257895D01*
X145819523Y-54257895D02*
X145819523Y-54305514D01*
X145819523Y-54305514D02*
X145771904Y-54400752D01*
X145771904Y-54400752D02*
X145724285Y-54448371D01*
X145724285Y-54448371D02*
X145629047Y-54495990D01*
X145629047Y-54495990D02*
X145438571Y-54495990D01*
X145438571Y-54495990D02*
X145343333Y-54543609D01*
X145343333Y-54543609D02*
X145295714Y-54591228D01*
X145295714Y-54591228D02*
X145248095Y-54686466D01*
X145248095Y-54686466D02*
X145248095Y-54876942D01*
X145248095Y-54876942D02*
X145295714Y-54972180D01*
X145295714Y-54972180D02*
X145343333Y-55019800D01*
X145343333Y-55019800D02*
X145438571Y-55067419D01*
X145438571Y-55067419D02*
X145629047Y-55067419D01*
X145629047Y-55067419D02*
X145724285Y-55019800D01*
X145724285Y-55019800D02*
X145771904Y-54972180D01*
X145771904Y-54972180D02*
X145819523Y-54876942D01*
X145819523Y-54876942D02*
X145819523Y-54686466D01*
X145819523Y-54686466D02*
X145771904Y-54591228D01*
X145771904Y-54591228D02*
X145724285Y-54543609D01*
X145724285Y-54543609D02*
X145629047Y-54495990D01*
X146676666Y-54067419D02*
X146486190Y-54067419D01*
X146486190Y-54067419D02*
X146390952Y-54115038D01*
X146390952Y-54115038D02*
X146343333Y-54162657D01*
X146343333Y-54162657D02*
X146248095Y-54305514D01*
X146248095Y-54305514D02*
X146200476Y-54495990D01*
X146200476Y-54495990D02*
X146200476Y-54876942D01*
X146200476Y-54876942D02*
X146248095Y-54972180D01*
X146248095Y-54972180D02*
X146295714Y-55019800D01*
X146295714Y-55019800D02*
X146390952Y-55067419D01*
X146390952Y-55067419D02*
X146581428Y-55067419D01*
X146581428Y-55067419D02*
X146676666Y-55019800D01*
X146676666Y-55019800D02*
X146724285Y-54972180D01*
X146724285Y-54972180D02*
X146771904Y-54876942D01*
X146771904Y-54876942D02*
X146771904Y-54638847D01*
X146771904Y-54638847D02*
X146724285Y-54543609D01*
X146724285Y-54543609D02*
X146676666Y-54495990D01*
X146676666Y-54495990D02*
X146581428Y-54448371D01*
X146581428Y-54448371D02*
X146390952Y-54448371D01*
X146390952Y-54448371D02*
X146295714Y-54495990D01*
X146295714Y-54495990D02*
X146248095Y-54543609D01*
X146248095Y-54543609D02*
X146200476Y-54638847D01*
X145200476Y-74387419D02*
X145867142Y-74387419D01*
X145867142Y-74387419D02*
X145438571Y-75387419D01*
X146152857Y-74387419D02*
X146819523Y-74387419D01*
X146819523Y-74387419D02*
X146390952Y-75387419D01*
X145724285Y-97580752D02*
X145724285Y-98247419D01*
X145486190Y-97199800D02*
X145248095Y-97914085D01*
X145248095Y-97914085D02*
X145867142Y-97914085D01*
X146390952Y-97675990D02*
X146295714Y-97628371D01*
X146295714Y-97628371D02*
X146248095Y-97580752D01*
X146248095Y-97580752D02*
X146200476Y-97485514D01*
X146200476Y-97485514D02*
X146200476Y-97437895D01*
X146200476Y-97437895D02*
X146248095Y-97342657D01*
X146248095Y-97342657D02*
X146295714Y-97295038D01*
X146295714Y-97295038D02*
X146390952Y-97247419D01*
X146390952Y-97247419D02*
X146581428Y-97247419D01*
X146581428Y-97247419D02*
X146676666Y-97295038D01*
X146676666Y-97295038D02*
X146724285Y-97342657D01*
X146724285Y-97342657D02*
X146771904Y-97437895D01*
X146771904Y-97437895D02*
X146771904Y-97485514D01*
X146771904Y-97485514D02*
X146724285Y-97580752D01*
X146724285Y-97580752D02*
X146676666Y-97628371D01*
X146676666Y-97628371D02*
X146581428Y-97675990D01*
X146581428Y-97675990D02*
X146390952Y-97675990D01*
X146390952Y-97675990D02*
X146295714Y-97723609D01*
X146295714Y-97723609D02*
X146248095Y-97771228D01*
X146248095Y-97771228D02*
X146200476Y-97866466D01*
X146200476Y-97866466D02*
X146200476Y-98056942D01*
X146200476Y-98056942D02*
X146248095Y-98152180D01*
X146248095Y-98152180D02*
X146295714Y-98199800D01*
X146295714Y-98199800D02*
X146390952Y-98247419D01*
X146390952Y-98247419D02*
X146581428Y-98247419D01*
X146581428Y-98247419D02*
X146676666Y-98199800D01*
X146676666Y-98199800D02*
X146724285Y-98152180D01*
X146724285Y-98152180D02*
X146771904Y-98056942D01*
X146771904Y-98056942D02*
X146771904Y-97866466D01*
X146771904Y-97866466D02*
X146724285Y-97771228D01*
X146724285Y-97771228D02*
X146676666Y-97723609D01*
X146676666Y-97723609D02*
X146581428Y-97675990D01*
X106465476Y-56607419D02*
X107084523Y-56607419D01*
X107084523Y-56607419D02*
X106751190Y-56988371D01*
X106751190Y-56988371D02*
X106894047Y-56988371D01*
X106894047Y-56988371D02*
X106989285Y-57035990D01*
X106989285Y-57035990D02*
X107036904Y-57083609D01*
X107036904Y-57083609D02*
X107084523Y-57178847D01*
X107084523Y-57178847D02*
X107084523Y-57416942D01*
X107084523Y-57416942D02*
X107036904Y-57512180D01*
X107036904Y-57512180D02*
X106989285Y-57559800D01*
X106989285Y-57559800D02*
X106894047Y-57607419D01*
X106894047Y-57607419D02*
X106608333Y-57607419D01*
X106608333Y-57607419D02*
X106513095Y-57559800D01*
X106513095Y-57559800D02*
X106465476Y-57512180D01*
X107941666Y-56607419D02*
X107751190Y-56607419D01*
X107751190Y-56607419D02*
X107655952Y-56655038D01*
X107655952Y-56655038D02*
X107608333Y-56702657D01*
X107608333Y-56702657D02*
X107513095Y-56845514D01*
X107513095Y-56845514D02*
X107465476Y-57035990D01*
X107465476Y-57035990D02*
X107465476Y-57416942D01*
X107465476Y-57416942D02*
X107513095Y-57512180D01*
X107513095Y-57512180D02*
X107560714Y-57559800D01*
X107560714Y-57559800D02*
X107655952Y-57607419D01*
X107655952Y-57607419D02*
X107846428Y-57607419D01*
X107846428Y-57607419D02*
X107941666Y-57559800D01*
X107941666Y-57559800D02*
X107989285Y-57512180D01*
X107989285Y-57512180D02*
X108036904Y-57416942D01*
X108036904Y-57416942D02*
X108036904Y-57178847D01*
X108036904Y-57178847D02*
X107989285Y-57083609D01*
X107989285Y-57083609D02*
X107941666Y-57035990D01*
X107941666Y-57035990D02*
X107846428Y-56988371D01*
X107846428Y-56988371D02*
X107655952Y-56988371D01*
X107655952Y-56988371D02*
X107560714Y-57035990D01*
X107560714Y-57035990D02*
X107513095Y-57083609D01*
X107513095Y-57083609D02*
X107465476Y-57178847D01*
X145724285Y-100120752D02*
X145724285Y-100787419D01*
X145486190Y-99739800D02*
X145248095Y-100454085D01*
X145248095Y-100454085D02*
X145867142Y-100454085D01*
X146295714Y-100787419D02*
X146486190Y-100787419D01*
X146486190Y-100787419D02*
X146581428Y-100739800D01*
X146581428Y-100739800D02*
X146629047Y-100692180D01*
X146629047Y-100692180D02*
X146724285Y-100549323D01*
X146724285Y-100549323D02*
X146771904Y-100358847D01*
X146771904Y-100358847D02*
X146771904Y-99977895D01*
X146771904Y-99977895D02*
X146724285Y-99882657D01*
X146724285Y-99882657D02*
X146676666Y-99835038D01*
X146676666Y-99835038D02*
X146581428Y-99787419D01*
X146581428Y-99787419D02*
X146390952Y-99787419D01*
X146390952Y-99787419D02*
X146295714Y-99835038D01*
X146295714Y-99835038D02*
X146248095Y-99882657D01*
X146248095Y-99882657D02*
X146200476Y-99977895D01*
X146200476Y-99977895D02*
X146200476Y-100215990D01*
X146200476Y-100215990D02*
X146248095Y-100311228D01*
X146248095Y-100311228D02*
X146295714Y-100358847D01*
X146295714Y-100358847D02*
X146390952Y-100406466D01*
X146390952Y-100406466D02*
X146581428Y-100406466D01*
X146581428Y-100406466D02*
X146676666Y-100358847D01*
X146676666Y-100358847D02*
X146724285Y-100311228D01*
X146724285Y-100311228D02*
X146771904Y-100215990D01*
X147811905Y-55067419D02*
X147811905Y-54067419D01*
X147811905Y-54067419D02*
X148050000Y-54067419D01*
X148050000Y-54067419D02*
X148192857Y-54115038D01*
X148192857Y-54115038D02*
X148288095Y-54210276D01*
X148288095Y-54210276D02*
X148335714Y-54305514D01*
X148335714Y-54305514D02*
X148383333Y-54495990D01*
X148383333Y-54495990D02*
X148383333Y-54638847D01*
X148383333Y-54638847D02*
X148335714Y-54829323D01*
X148335714Y-54829323D02*
X148288095Y-54924561D01*
X148288095Y-54924561D02*
X148192857Y-55019800D01*
X148192857Y-55019800D02*
X148050000Y-55067419D01*
X148050000Y-55067419D02*
X147811905Y-55067419D01*
X149335714Y-55067419D02*
X148764286Y-55067419D01*
X149050000Y-55067419D02*
X149050000Y-54067419D01*
X149050000Y-54067419D02*
X148954762Y-54210276D01*
X148954762Y-54210276D02*
X148859524Y-54305514D01*
X148859524Y-54305514D02*
X148764286Y-54353133D01*
X107036904Y-99787419D02*
X106560714Y-99787419D01*
X106560714Y-99787419D02*
X106513095Y-100263609D01*
X106513095Y-100263609D02*
X106560714Y-100215990D01*
X106560714Y-100215990D02*
X106655952Y-100168371D01*
X106655952Y-100168371D02*
X106894047Y-100168371D01*
X106894047Y-100168371D02*
X106989285Y-100215990D01*
X106989285Y-100215990D02*
X107036904Y-100263609D01*
X107036904Y-100263609D02*
X107084523Y-100358847D01*
X107084523Y-100358847D02*
X107084523Y-100596942D01*
X107084523Y-100596942D02*
X107036904Y-100692180D01*
X107036904Y-100692180D02*
X106989285Y-100739800D01*
X106989285Y-100739800D02*
X106894047Y-100787419D01*
X106894047Y-100787419D02*
X106655952Y-100787419D01*
X106655952Y-100787419D02*
X106560714Y-100739800D01*
X106560714Y-100739800D02*
X106513095Y-100692180D01*
X107989285Y-99787419D02*
X107513095Y-99787419D01*
X107513095Y-99787419D02*
X107465476Y-100263609D01*
X107465476Y-100263609D02*
X107513095Y-100215990D01*
X107513095Y-100215990D02*
X107608333Y-100168371D01*
X107608333Y-100168371D02*
X107846428Y-100168371D01*
X107846428Y-100168371D02*
X107941666Y-100215990D01*
X107941666Y-100215990D02*
X107989285Y-100263609D01*
X107989285Y-100263609D02*
X108036904Y-100358847D01*
X108036904Y-100358847D02*
X108036904Y-100596942D01*
X108036904Y-100596942D02*
X107989285Y-100692180D01*
X107989285Y-100692180D02*
X107941666Y-100739800D01*
X107941666Y-100739800D02*
X107846428Y-100787419D01*
X107846428Y-100787419D02*
X107608333Y-100787419D01*
X107608333Y-100787419D02*
X107513095Y-100739800D01*
X107513095Y-100739800D02*
X107465476Y-100692180D01*
X148383333Y-93072180D02*
X148335714Y-93119800D01*
X148335714Y-93119800D02*
X148192857Y-93167419D01*
X148192857Y-93167419D02*
X148097619Y-93167419D01*
X148097619Y-93167419D02*
X147954762Y-93119800D01*
X147954762Y-93119800D02*
X147859524Y-93024561D01*
X147859524Y-93024561D02*
X147811905Y-92929323D01*
X147811905Y-92929323D02*
X147764286Y-92738847D01*
X147764286Y-92738847D02*
X147764286Y-92595990D01*
X147764286Y-92595990D02*
X147811905Y-92405514D01*
X147811905Y-92405514D02*
X147859524Y-92310276D01*
X147859524Y-92310276D02*
X147954762Y-92215038D01*
X147954762Y-92215038D02*
X148097619Y-92167419D01*
X148097619Y-92167419D02*
X148192857Y-92167419D01*
X148192857Y-92167419D02*
X148335714Y-92215038D01*
X148335714Y-92215038D02*
X148383333Y-92262657D01*
X149335714Y-93167419D02*
X148764286Y-93167419D01*
X149050000Y-93167419D02*
X149050000Y-92167419D01*
X149050000Y-92167419D02*
X148954762Y-92310276D01*
X148954762Y-92310276D02*
X148859524Y-92405514D01*
X148859524Y-92405514D02*
X148764286Y-92453133D01*
X147811905Y-65227419D02*
X147811905Y-64227419D01*
X147811905Y-64227419D02*
X148050000Y-64227419D01*
X148050000Y-64227419D02*
X148192857Y-64275038D01*
X148192857Y-64275038D02*
X148288095Y-64370276D01*
X148288095Y-64370276D02*
X148335714Y-64465514D01*
X148335714Y-64465514D02*
X148383333Y-64655990D01*
X148383333Y-64655990D02*
X148383333Y-64798847D01*
X148383333Y-64798847D02*
X148335714Y-64989323D01*
X148335714Y-64989323D02*
X148288095Y-65084561D01*
X148288095Y-65084561D02*
X148192857Y-65179800D01*
X148192857Y-65179800D02*
X148050000Y-65227419D01*
X148050000Y-65227419D02*
X147811905Y-65227419D01*
X149288095Y-64227419D02*
X148811905Y-64227419D01*
X148811905Y-64227419D02*
X148764286Y-64703609D01*
X148764286Y-64703609D02*
X148811905Y-64655990D01*
X148811905Y-64655990D02*
X148907143Y-64608371D01*
X148907143Y-64608371D02*
X149145238Y-64608371D01*
X149145238Y-64608371D02*
X149240476Y-64655990D01*
X149240476Y-64655990D02*
X149288095Y-64703609D01*
X149288095Y-64703609D02*
X149335714Y-64798847D01*
X149335714Y-64798847D02*
X149335714Y-65036942D01*
X149335714Y-65036942D02*
X149288095Y-65132180D01*
X149288095Y-65132180D02*
X149240476Y-65179800D01*
X149240476Y-65179800D02*
X149145238Y-65227419D01*
X149145238Y-65227419D02*
X148907143Y-65227419D01*
X148907143Y-65227419D02*
X148811905Y-65179800D01*
X148811905Y-65179800D02*
X148764286Y-65132180D01*
X145438571Y-69735990D02*
X145343333Y-69688371D01*
X145343333Y-69688371D02*
X145295714Y-69640752D01*
X145295714Y-69640752D02*
X145248095Y-69545514D01*
X145248095Y-69545514D02*
X145248095Y-69497895D01*
X145248095Y-69497895D02*
X145295714Y-69402657D01*
X145295714Y-69402657D02*
X145343333Y-69355038D01*
X145343333Y-69355038D02*
X145438571Y-69307419D01*
X145438571Y-69307419D02*
X145629047Y-69307419D01*
X145629047Y-69307419D02*
X145724285Y-69355038D01*
X145724285Y-69355038D02*
X145771904Y-69402657D01*
X145771904Y-69402657D02*
X145819523Y-69497895D01*
X145819523Y-69497895D02*
X145819523Y-69545514D01*
X145819523Y-69545514D02*
X145771904Y-69640752D01*
X145771904Y-69640752D02*
X145724285Y-69688371D01*
X145724285Y-69688371D02*
X145629047Y-69735990D01*
X145629047Y-69735990D02*
X145438571Y-69735990D01*
X145438571Y-69735990D02*
X145343333Y-69783609D01*
X145343333Y-69783609D02*
X145295714Y-69831228D01*
X145295714Y-69831228D02*
X145248095Y-69926466D01*
X145248095Y-69926466D02*
X145248095Y-70116942D01*
X145248095Y-70116942D02*
X145295714Y-70212180D01*
X145295714Y-70212180D02*
X145343333Y-70259800D01*
X145343333Y-70259800D02*
X145438571Y-70307419D01*
X145438571Y-70307419D02*
X145629047Y-70307419D01*
X145629047Y-70307419D02*
X145724285Y-70259800D01*
X145724285Y-70259800D02*
X145771904Y-70212180D01*
X145771904Y-70212180D02*
X145819523Y-70116942D01*
X145819523Y-70116942D02*
X145819523Y-69926466D01*
X145819523Y-69926466D02*
X145771904Y-69831228D01*
X145771904Y-69831228D02*
X145724285Y-69783609D01*
X145724285Y-69783609D02*
X145629047Y-69735990D01*
X146438571Y-69307419D02*
X146533809Y-69307419D01*
X146533809Y-69307419D02*
X146629047Y-69355038D01*
X146629047Y-69355038D02*
X146676666Y-69402657D01*
X146676666Y-69402657D02*
X146724285Y-69497895D01*
X146724285Y-69497895D02*
X146771904Y-69688371D01*
X146771904Y-69688371D02*
X146771904Y-69926466D01*
X146771904Y-69926466D02*
X146724285Y-70116942D01*
X146724285Y-70116942D02*
X146676666Y-70212180D01*
X146676666Y-70212180D02*
X146629047Y-70259800D01*
X146629047Y-70259800D02*
X146533809Y-70307419D01*
X146533809Y-70307419D02*
X146438571Y-70307419D01*
X146438571Y-70307419D02*
X146343333Y-70259800D01*
X146343333Y-70259800D02*
X146295714Y-70212180D01*
X146295714Y-70212180D02*
X146248095Y-70116942D01*
X146248095Y-70116942D02*
X146200476Y-69926466D01*
X146200476Y-69926466D02*
X146200476Y-69688371D01*
X146200476Y-69688371D02*
X146248095Y-69497895D01*
X146248095Y-69497895D02*
X146295714Y-69402657D01*
X146295714Y-69402657D02*
X146343333Y-69355038D01*
X146343333Y-69355038D02*
X146438571Y-69307419D01*
X145200476Y-71847419D02*
X145867142Y-71847419D01*
X145867142Y-71847419D02*
X145438571Y-72847419D01*
X146295714Y-72847419D02*
X146486190Y-72847419D01*
X146486190Y-72847419D02*
X146581428Y-72799800D01*
X146581428Y-72799800D02*
X146629047Y-72752180D01*
X146629047Y-72752180D02*
X146724285Y-72609323D01*
X146724285Y-72609323D02*
X146771904Y-72418847D01*
X146771904Y-72418847D02*
X146771904Y-72037895D01*
X146771904Y-72037895D02*
X146724285Y-71942657D01*
X146724285Y-71942657D02*
X146676666Y-71895038D01*
X146676666Y-71895038D02*
X146581428Y-71847419D01*
X146581428Y-71847419D02*
X146390952Y-71847419D01*
X146390952Y-71847419D02*
X146295714Y-71895038D01*
X146295714Y-71895038D02*
X146248095Y-71942657D01*
X146248095Y-71942657D02*
X146200476Y-72037895D01*
X146200476Y-72037895D02*
X146200476Y-72275990D01*
X146200476Y-72275990D02*
X146248095Y-72371228D01*
X146248095Y-72371228D02*
X146295714Y-72418847D01*
X146295714Y-72418847D02*
X146390952Y-72466466D01*
X146390952Y-72466466D02*
X146581428Y-72466466D01*
X146581428Y-72466466D02*
X146676666Y-72418847D01*
X146676666Y-72418847D02*
X146724285Y-72371228D01*
X146724285Y-72371228D02*
X146771904Y-72275990D01*
X147811905Y-62687419D02*
X147811905Y-61687419D01*
X147811905Y-61687419D02*
X148050000Y-61687419D01*
X148050000Y-61687419D02*
X148192857Y-61735038D01*
X148192857Y-61735038D02*
X148288095Y-61830276D01*
X148288095Y-61830276D02*
X148335714Y-61925514D01*
X148335714Y-61925514D02*
X148383333Y-62115990D01*
X148383333Y-62115990D02*
X148383333Y-62258847D01*
X148383333Y-62258847D02*
X148335714Y-62449323D01*
X148335714Y-62449323D02*
X148288095Y-62544561D01*
X148288095Y-62544561D02*
X148192857Y-62639800D01*
X148192857Y-62639800D02*
X148050000Y-62687419D01*
X148050000Y-62687419D02*
X147811905Y-62687419D01*
X149240476Y-62020752D02*
X149240476Y-62687419D01*
X149002381Y-61639800D02*
X148764286Y-62354085D01*
X148764286Y-62354085D02*
X149383333Y-62354085D01*
X148383333Y-75292180D02*
X148335714Y-75339800D01*
X148335714Y-75339800D02*
X148192857Y-75387419D01*
X148192857Y-75387419D02*
X148097619Y-75387419D01*
X148097619Y-75387419D02*
X147954762Y-75339800D01*
X147954762Y-75339800D02*
X147859524Y-75244561D01*
X147859524Y-75244561D02*
X147811905Y-75149323D01*
X147811905Y-75149323D02*
X147764286Y-74958847D01*
X147764286Y-74958847D02*
X147764286Y-74815990D01*
X147764286Y-74815990D02*
X147811905Y-74625514D01*
X147811905Y-74625514D02*
X147859524Y-74530276D01*
X147859524Y-74530276D02*
X147954762Y-74435038D01*
X147954762Y-74435038D02*
X148097619Y-74387419D01*
X148097619Y-74387419D02*
X148192857Y-74387419D01*
X148192857Y-74387419D02*
X148335714Y-74435038D01*
X148335714Y-74435038D02*
X148383333Y-74482657D01*
X148954762Y-74815990D02*
X148859524Y-74768371D01*
X148859524Y-74768371D02*
X148811905Y-74720752D01*
X148811905Y-74720752D02*
X148764286Y-74625514D01*
X148764286Y-74625514D02*
X148764286Y-74577895D01*
X148764286Y-74577895D02*
X148811905Y-74482657D01*
X148811905Y-74482657D02*
X148859524Y-74435038D01*
X148859524Y-74435038D02*
X148954762Y-74387419D01*
X148954762Y-74387419D02*
X149145238Y-74387419D01*
X149145238Y-74387419D02*
X149240476Y-74435038D01*
X149240476Y-74435038D02*
X149288095Y-74482657D01*
X149288095Y-74482657D02*
X149335714Y-74577895D01*
X149335714Y-74577895D02*
X149335714Y-74625514D01*
X149335714Y-74625514D02*
X149288095Y-74720752D01*
X149288095Y-74720752D02*
X149240476Y-74768371D01*
X149240476Y-74768371D02*
X149145238Y-74815990D01*
X149145238Y-74815990D02*
X148954762Y-74815990D01*
X148954762Y-74815990D02*
X148859524Y-74863609D01*
X148859524Y-74863609D02*
X148811905Y-74911228D01*
X148811905Y-74911228D02*
X148764286Y-75006466D01*
X148764286Y-75006466D02*
X148764286Y-75196942D01*
X148764286Y-75196942D02*
X148811905Y-75292180D01*
X148811905Y-75292180D02*
X148859524Y-75339800D01*
X148859524Y-75339800D02*
X148954762Y-75387419D01*
X148954762Y-75387419D02*
X149145238Y-75387419D01*
X149145238Y-75387419D02*
X149240476Y-75339800D01*
X149240476Y-75339800D02*
X149288095Y-75292180D01*
X149288095Y-75292180D02*
X149335714Y-75196942D01*
X149335714Y-75196942D02*
X149335714Y-75006466D01*
X149335714Y-75006466D02*
X149288095Y-74911228D01*
X149288095Y-74911228D02*
X149240476Y-74863609D01*
X149240476Y-74863609D02*
X149145238Y-74815990D01*
X103745312Y-98247419D02*
X103411979Y-97771228D01*
X103173884Y-98247419D02*
X103173884Y-97247419D01*
X103173884Y-97247419D02*
X103554836Y-97247419D01*
X103554836Y-97247419D02*
X103650074Y-97295038D01*
X103650074Y-97295038D02*
X103697693Y-97342657D01*
X103697693Y-97342657D02*
X103745312Y-97437895D01*
X103745312Y-97437895D02*
X103745312Y-97580752D01*
X103745312Y-97580752D02*
X103697693Y-97675990D01*
X103697693Y-97675990D02*
X103650074Y-97723609D01*
X103650074Y-97723609D02*
X103554836Y-97771228D01*
X103554836Y-97771228D02*
X103173884Y-97771228D01*
X104031027Y-97247419D02*
X104602455Y-97247419D01*
X104316741Y-98247419D02*
X104316741Y-97247419D01*
X104888170Y-98199800D02*
X105031027Y-98247419D01*
X105031027Y-98247419D02*
X105269122Y-98247419D01*
X105269122Y-98247419D02*
X105364360Y-98199800D01*
X105364360Y-98199800D02*
X105411979Y-98152180D01*
X105411979Y-98152180D02*
X105459598Y-98056942D01*
X105459598Y-98056942D02*
X105459598Y-97961704D01*
X105459598Y-97961704D02*
X105411979Y-97866466D01*
X105411979Y-97866466D02*
X105364360Y-97818847D01*
X105364360Y-97818847D02*
X105269122Y-97771228D01*
X105269122Y-97771228D02*
X105078646Y-97723609D01*
X105078646Y-97723609D02*
X104983408Y-97675990D01*
X104983408Y-97675990D02*
X104935789Y-97628371D01*
X104935789Y-97628371D02*
X104888170Y-97533133D01*
X104888170Y-97533133D02*
X104888170Y-97437895D01*
X104888170Y-97437895D02*
X104935789Y-97342657D01*
X104935789Y-97342657D02*
X104983408Y-97295038D01*
X104983408Y-97295038D02*
X105078646Y-97247419D01*
X105078646Y-97247419D02*
X105316741Y-97247419D01*
X105316741Y-97247419D02*
X105459598Y-97295038D01*
X106989285Y-82340752D02*
X106989285Y-83007419D01*
X106751190Y-81959800D02*
X106513095Y-82674085D01*
X106513095Y-82674085D02*
X107132142Y-82674085D01*
X107703571Y-82007419D02*
X107798809Y-82007419D01*
X107798809Y-82007419D02*
X107894047Y-82055038D01*
X107894047Y-82055038D02*
X107941666Y-82102657D01*
X107941666Y-82102657D02*
X107989285Y-82197895D01*
X107989285Y-82197895D02*
X108036904Y-82388371D01*
X108036904Y-82388371D02*
X108036904Y-82626466D01*
X108036904Y-82626466D02*
X107989285Y-82816942D01*
X107989285Y-82816942D02*
X107941666Y-82912180D01*
X107941666Y-82912180D02*
X107894047Y-82959800D01*
X107894047Y-82959800D02*
X107798809Y-83007419D01*
X107798809Y-83007419D02*
X107703571Y-83007419D01*
X107703571Y-83007419D02*
X107608333Y-82959800D01*
X107608333Y-82959800D02*
X107560714Y-82912180D01*
X107560714Y-82912180D02*
X107513095Y-82816942D01*
X107513095Y-82816942D02*
X107465476Y-82626466D01*
X107465476Y-82626466D02*
X107465476Y-82388371D01*
X107465476Y-82388371D02*
X107513095Y-82197895D01*
X107513095Y-82197895D02*
X107560714Y-82102657D01*
X107560714Y-82102657D02*
X107608333Y-82055038D01*
X107608333Y-82055038D02*
X107703571Y-82007419D01*
X166192419Y-128918571D02*
X165716228Y-129251904D01*
X166192419Y-129489999D02*
X165192419Y-129489999D01*
X165192419Y-129489999D02*
X165192419Y-129109047D01*
X165192419Y-129109047D02*
X165240038Y-129013809D01*
X165240038Y-129013809D02*
X165287657Y-128966190D01*
X165287657Y-128966190D02*
X165382895Y-128918571D01*
X165382895Y-128918571D02*
X165525752Y-128918571D01*
X165525752Y-128918571D02*
X165620990Y-128966190D01*
X165620990Y-128966190D02*
X165668609Y-129013809D01*
X165668609Y-129013809D02*
X165716228Y-129109047D01*
X165716228Y-129109047D02*
X165716228Y-129489999D01*
X165192419Y-128632856D02*
X165192419Y-128061428D01*
X166192419Y-128347142D02*
X165192419Y-128347142D01*
X166144800Y-127775713D02*
X166192419Y-127632856D01*
X166192419Y-127632856D02*
X166192419Y-127394761D01*
X166192419Y-127394761D02*
X166144800Y-127299523D01*
X166144800Y-127299523D02*
X166097180Y-127251904D01*
X166097180Y-127251904D02*
X166001942Y-127204285D01*
X166001942Y-127204285D02*
X165906704Y-127204285D01*
X165906704Y-127204285D02*
X165811466Y-127251904D01*
X165811466Y-127251904D02*
X165763847Y-127299523D01*
X165763847Y-127299523D02*
X165716228Y-127394761D01*
X165716228Y-127394761D02*
X165668609Y-127585237D01*
X165668609Y-127585237D02*
X165620990Y-127680475D01*
X165620990Y-127680475D02*
X165573371Y-127728094D01*
X165573371Y-127728094D02*
X165478133Y-127775713D01*
X165478133Y-127775713D02*
X165382895Y-127775713D01*
X165382895Y-127775713D02*
X165287657Y-127728094D01*
X165287657Y-127728094D02*
X165240038Y-127680475D01*
X165240038Y-127680475D02*
X165192419Y-127585237D01*
X165192419Y-127585237D02*
X165192419Y-127347142D01*
X165192419Y-127347142D02*
X165240038Y-127204285D01*
X145200476Y-102327419D02*
X145819523Y-102327419D01*
X145819523Y-102327419D02*
X145486190Y-102708371D01*
X145486190Y-102708371D02*
X145629047Y-102708371D01*
X145629047Y-102708371D02*
X145724285Y-102755990D01*
X145724285Y-102755990D02*
X145771904Y-102803609D01*
X145771904Y-102803609D02*
X145819523Y-102898847D01*
X145819523Y-102898847D02*
X145819523Y-103136942D01*
X145819523Y-103136942D02*
X145771904Y-103232180D01*
X145771904Y-103232180D02*
X145724285Y-103279800D01*
X145724285Y-103279800D02*
X145629047Y-103327419D01*
X145629047Y-103327419D02*
X145343333Y-103327419D01*
X145343333Y-103327419D02*
X145248095Y-103279800D01*
X145248095Y-103279800D02*
X145200476Y-103232180D01*
X146771904Y-103327419D02*
X146200476Y-103327419D01*
X146486190Y-103327419D02*
X146486190Y-102327419D01*
X146486190Y-102327419D02*
X146390952Y-102470276D01*
X146390952Y-102470276D02*
X146295714Y-102565514D01*
X146295714Y-102565514D02*
X146200476Y-102613133D01*
X145200476Y-82007419D02*
X145867142Y-82007419D01*
X145867142Y-82007419D02*
X145438571Y-83007419D01*
X146676666Y-82340752D02*
X146676666Y-83007419D01*
X146438571Y-81959800D02*
X146200476Y-82674085D01*
X146200476Y-82674085D02*
X146819523Y-82674085D01*
X106513095Y-61782657D02*
X106560714Y-61735038D01*
X106560714Y-61735038D02*
X106655952Y-61687419D01*
X106655952Y-61687419D02*
X106894047Y-61687419D01*
X106894047Y-61687419D02*
X106989285Y-61735038D01*
X106989285Y-61735038D02*
X107036904Y-61782657D01*
X107036904Y-61782657D02*
X107084523Y-61877895D01*
X107084523Y-61877895D02*
X107084523Y-61973133D01*
X107084523Y-61973133D02*
X107036904Y-62115990D01*
X107036904Y-62115990D02*
X106465476Y-62687419D01*
X106465476Y-62687419D02*
X107084523Y-62687419D01*
X107989285Y-61687419D02*
X107513095Y-61687419D01*
X107513095Y-61687419D02*
X107465476Y-62163609D01*
X107465476Y-62163609D02*
X107513095Y-62115990D01*
X107513095Y-62115990D02*
X107608333Y-62068371D01*
X107608333Y-62068371D02*
X107846428Y-62068371D01*
X107846428Y-62068371D02*
X107941666Y-62115990D01*
X107941666Y-62115990D02*
X107989285Y-62163609D01*
X107989285Y-62163609D02*
X108036904Y-62258847D01*
X108036904Y-62258847D02*
X108036904Y-62496942D01*
X108036904Y-62496942D02*
X107989285Y-62592180D01*
X107989285Y-62592180D02*
X107941666Y-62639800D01*
X107941666Y-62639800D02*
X107846428Y-62687419D01*
X107846428Y-62687419D02*
X107608333Y-62687419D01*
X107608333Y-62687419D02*
X107513095Y-62639800D01*
X107513095Y-62639800D02*
X107465476Y-62592180D01*
X145200476Y-79467419D02*
X145867142Y-79467419D01*
X145867142Y-79467419D02*
X145438571Y-80467419D01*
X146724285Y-79467419D02*
X146248095Y-79467419D01*
X146248095Y-79467419D02*
X146200476Y-79943609D01*
X146200476Y-79943609D02*
X146248095Y-79895990D01*
X146248095Y-79895990D02*
X146343333Y-79848371D01*
X146343333Y-79848371D02*
X146581428Y-79848371D01*
X146581428Y-79848371D02*
X146676666Y-79895990D01*
X146676666Y-79895990D02*
X146724285Y-79943609D01*
X146724285Y-79943609D02*
X146771904Y-80038847D01*
X146771904Y-80038847D02*
X146771904Y-80276942D01*
X146771904Y-80276942D02*
X146724285Y-80372180D01*
X146724285Y-80372180D02*
X146676666Y-80419800D01*
X146676666Y-80419800D02*
X146581428Y-80467419D01*
X146581428Y-80467419D02*
X146343333Y-80467419D01*
X146343333Y-80467419D02*
X146248095Y-80419800D01*
X146248095Y-80419800D02*
X146200476Y-80372180D01*
X106513095Y-64322657D02*
X106560714Y-64275038D01*
X106560714Y-64275038D02*
X106655952Y-64227419D01*
X106655952Y-64227419D02*
X106894047Y-64227419D01*
X106894047Y-64227419D02*
X106989285Y-64275038D01*
X106989285Y-64275038D02*
X107036904Y-64322657D01*
X107036904Y-64322657D02*
X107084523Y-64417895D01*
X107084523Y-64417895D02*
X107084523Y-64513133D01*
X107084523Y-64513133D02*
X107036904Y-64655990D01*
X107036904Y-64655990D02*
X106465476Y-65227419D01*
X106465476Y-65227419D02*
X107084523Y-65227419D01*
X107941666Y-64227419D02*
X107751190Y-64227419D01*
X107751190Y-64227419D02*
X107655952Y-64275038D01*
X107655952Y-64275038D02*
X107608333Y-64322657D01*
X107608333Y-64322657D02*
X107513095Y-64465514D01*
X107513095Y-64465514D02*
X107465476Y-64655990D01*
X107465476Y-64655990D02*
X107465476Y-65036942D01*
X107465476Y-65036942D02*
X107513095Y-65132180D01*
X107513095Y-65132180D02*
X107560714Y-65179800D01*
X107560714Y-65179800D02*
X107655952Y-65227419D01*
X107655952Y-65227419D02*
X107846428Y-65227419D01*
X107846428Y-65227419D02*
X107941666Y-65179800D01*
X107941666Y-65179800D02*
X107989285Y-65132180D01*
X107989285Y-65132180D02*
X108036904Y-65036942D01*
X108036904Y-65036942D02*
X108036904Y-64798847D01*
X108036904Y-64798847D02*
X107989285Y-64703609D01*
X107989285Y-64703609D02*
X107941666Y-64655990D01*
X107941666Y-64655990D02*
X107846428Y-64608371D01*
X107846428Y-64608371D02*
X107655952Y-64608371D01*
X107655952Y-64608371D02*
X107560714Y-64655990D01*
X107560714Y-64655990D02*
X107513095Y-64703609D01*
X107513095Y-64703609D02*
X107465476Y-64798847D01*
X102766667Y-52479800D02*
X102909524Y-52527419D01*
X102909524Y-52527419D02*
X103147619Y-52527419D01*
X103147619Y-52527419D02*
X103242857Y-52479800D01*
X103242857Y-52479800D02*
X103290476Y-52432180D01*
X103290476Y-52432180D02*
X103338095Y-52336942D01*
X103338095Y-52336942D02*
X103338095Y-52241704D01*
X103338095Y-52241704D02*
X103290476Y-52146466D01*
X103290476Y-52146466D02*
X103242857Y-52098847D01*
X103242857Y-52098847D02*
X103147619Y-52051228D01*
X103147619Y-52051228D02*
X102957143Y-52003609D01*
X102957143Y-52003609D02*
X102861905Y-51955990D01*
X102861905Y-51955990D02*
X102814286Y-51908371D01*
X102814286Y-51908371D02*
X102766667Y-51813133D01*
X102766667Y-51813133D02*
X102766667Y-51717895D01*
X102766667Y-51717895D02*
X102814286Y-51622657D01*
X102814286Y-51622657D02*
X102861905Y-51575038D01*
X102861905Y-51575038D02*
X102957143Y-51527419D01*
X102957143Y-51527419D02*
X103195238Y-51527419D01*
X103195238Y-51527419D02*
X103338095Y-51575038D01*
X103671429Y-51527419D02*
X103909524Y-52527419D01*
X103909524Y-52527419D02*
X104100000Y-51813133D01*
X104100000Y-51813133D02*
X104290476Y-52527419D01*
X104290476Y-52527419D02*
X104528572Y-51527419D01*
X105338095Y-51860752D02*
X105338095Y-52527419D01*
X105100000Y-51479800D02*
X104861905Y-52194085D01*
X104861905Y-52194085D02*
X105480952Y-52194085D01*
X107036904Y-102327419D02*
X106560714Y-102327419D01*
X106560714Y-102327419D02*
X106513095Y-102803609D01*
X106513095Y-102803609D02*
X106560714Y-102755990D01*
X106560714Y-102755990D02*
X106655952Y-102708371D01*
X106655952Y-102708371D02*
X106894047Y-102708371D01*
X106894047Y-102708371D02*
X106989285Y-102755990D01*
X106989285Y-102755990D02*
X107036904Y-102803609D01*
X107036904Y-102803609D02*
X107084523Y-102898847D01*
X107084523Y-102898847D02*
X107084523Y-103136942D01*
X107084523Y-103136942D02*
X107036904Y-103232180D01*
X107036904Y-103232180D02*
X106989285Y-103279800D01*
X106989285Y-103279800D02*
X106894047Y-103327419D01*
X106894047Y-103327419D02*
X106655952Y-103327419D01*
X106655952Y-103327419D02*
X106560714Y-103279800D01*
X106560714Y-103279800D02*
X106513095Y-103232180D01*
X107941666Y-102327419D02*
X107751190Y-102327419D01*
X107751190Y-102327419D02*
X107655952Y-102375038D01*
X107655952Y-102375038D02*
X107608333Y-102422657D01*
X107608333Y-102422657D02*
X107513095Y-102565514D01*
X107513095Y-102565514D02*
X107465476Y-102755990D01*
X107465476Y-102755990D02*
X107465476Y-103136942D01*
X107465476Y-103136942D02*
X107513095Y-103232180D01*
X107513095Y-103232180D02*
X107560714Y-103279800D01*
X107560714Y-103279800D02*
X107655952Y-103327419D01*
X107655952Y-103327419D02*
X107846428Y-103327419D01*
X107846428Y-103327419D02*
X107941666Y-103279800D01*
X107941666Y-103279800D02*
X107989285Y-103232180D01*
X107989285Y-103232180D02*
X108036904Y-103136942D01*
X108036904Y-103136942D02*
X108036904Y-102898847D01*
X108036904Y-102898847D02*
X107989285Y-102803609D01*
X107989285Y-102803609D02*
X107941666Y-102755990D01*
X107941666Y-102755990D02*
X107846428Y-102708371D01*
X107846428Y-102708371D02*
X107655952Y-102708371D01*
X107655952Y-102708371D02*
X107560714Y-102755990D01*
X107560714Y-102755990D02*
X107513095Y-102803609D01*
X107513095Y-102803609D02*
X107465476Y-102898847D01*
X144771905Y-109947419D02*
X145390952Y-109947419D01*
X145390952Y-109947419D02*
X145057619Y-110328371D01*
X145057619Y-110328371D02*
X145200476Y-110328371D01*
X145200476Y-110328371D02*
X145295714Y-110375990D01*
X145295714Y-110375990D02*
X145343333Y-110423609D01*
X145343333Y-110423609D02*
X145390952Y-110518847D01*
X145390952Y-110518847D02*
X145390952Y-110756942D01*
X145390952Y-110756942D02*
X145343333Y-110852180D01*
X145343333Y-110852180D02*
X145295714Y-110899800D01*
X145295714Y-110899800D02*
X145200476Y-110947419D01*
X145200476Y-110947419D02*
X144914762Y-110947419D01*
X144914762Y-110947419D02*
X144819524Y-110899800D01*
X144819524Y-110899800D02*
X144771905Y-110852180D01*
X145676667Y-109947419D02*
X146010000Y-110947419D01*
X146010000Y-110947419D02*
X146343333Y-109947419D01*
X146581429Y-109947419D02*
X147200476Y-109947419D01*
X147200476Y-109947419D02*
X146867143Y-110328371D01*
X146867143Y-110328371D02*
X147010000Y-110328371D01*
X147010000Y-110328371D02*
X147105238Y-110375990D01*
X147105238Y-110375990D02*
X147152857Y-110423609D01*
X147152857Y-110423609D02*
X147200476Y-110518847D01*
X147200476Y-110518847D02*
X147200476Y-110756942D01*
X147200476Y-110756942D02*
X147152857Y-110852180D01*
X147152857Y-110852180D02*
X147105238Y-110899800D01*
X147105238Y-110899800D02*
X147010000Y-110947419D01*
X147010000Y-110947419D02*
X146724286Y-110947419D01*
X146724286Y-110947419D02*
X146629048Y-110899800D01*
X146629048Y-110899800D02*
X146581429Y-110852180D01*
X145438571Y-62115990D02*
X145343333Y-62068371D01*
X145343333Y-62068371D02*
X145295714Y-62020752D01*
X145295714Y-62020752D02*
X145248095Y-61925514D01*
X145248095Y-61925514D02*
X145248095Y-61877895D01*
X145248095Y-61877895D02*
X145295714Y-61782657D01*
X145295714Y-61782657D02*
X145343333Y-61735038D01*
X145343333Y-61735038D02*
X145438571Y-61687419D01*
X145438571Y-61687419D02*
X145629047Y-61687419D01*
X145629047Y-61687419D02*
X145724285Y-61735038D01*
X145724285Y-61735038D02*
X145771904Y-61782657D01*
X145771904Y-61782657D02*
X145819523Y-61877895D01*
X145819523Y-61877895D02*
X145819523Y-61925514D01*
X145819523Y-61925514D02*
X145771904Y-62020752D01*
X145771904Y-62020752D02*
X145724285Y-62068371D01*
X145724285Y-62068371D02*
X145629047Y-62115990D01*
X145629047Y-62115990D02*
X145438571Y-62115990D01*
X145438571Y-62115990D02*
X145343333Y-62163609D01*
X145343333Y-62163609D02*
X145295714Y-62211228D01*
X145295714Y-62211228D02*
X145248095Y-62306466D01*
X145248095Y-62306466D02*
X145248095Y-62496942D01*
X145248095Y-62496942D02*
X145295714Y-62592180D01*
X145295714Y-62592180D02*
X145343333Y-62639800D01*
X145343333Y-62639800D02*
X145438571Y-62687419D01*
X145438571Y-62687419D02*
X145629047Y-62687419D01*
X145629047Y-62687419D02*
X145724285Y-62639800D01*
X145724285Y-62639800D02*
X145771904Y-62592180D01*
X145771904Y-62592180D02*
X145819523Y-62496942D01*
X145819523Y-62496942D02*
X145819523Y-62306466D01*
X145819523Y-62306466D02*
X145771904Y-62211228D01*
X145771904Y-62211228D02*
X145724285Y-62163609D01*
X145724285Y-62163609D02*
X145629047Y-62115990D01*
X146152857Y-61687419D02*
X146771904Y-61687419D01*
X146771904Y-61687419D02*
X146438571Y-62068371D01*
X146438571Y-62068371D02*
X146581428Y-62068371D01*
X146581428Y-62068371D02*
X146676666Y-62115990D01*
X146676666Y-62115990D02*
X146724285Y-62163609D01*
X146724285Y-62163609D02*
X146771904Y-62258847D01*
X146771904Y-62258847D02*
X146771904Y-62496942D01*
X146771904Y-62496942D02*
X146724285Y-62592180D01*
X146724285Y-62592180D02*
X146676666Y-62639800D01*
X146676666Y-62639800D02*
X146581428Y-62687419D01*
X146581428Y-62687419D02*
X146295714Y-62687419D01*
X146295714Y-62687419D02*
X146200476Y-62639800D01*
X146200476Y-62639800D02*
X146152857Y-62592180D01*
X106465476Y-74387419D02*
X107084523Y-74387419D01*
X107084523Y-74387419D02*
X106751190Y-74768371D01*
X106751190Y-74768371D02*
X106894047Y-74768371D01*
X106894047Y-74768371D02*
X106989285Y-74815990D01*
X106989285Y-74815990D02*
X107036904Y-74863609D01*
X107036904Y-74863609D02*
X107084523Y-74958847D01*
X107084523Y-74958847D02*
X107084523Y-75196942D01*
X107084523Y-75196942D02*
X107036904Y-75292180D01*
X107036904Y-75292180D02*
X106989285Y-75339800D01*
X106989285Y-75339800D02*
X106894047Y-75387419D01*
X106894047Y-75387419D02*
X106608333Y-75387419D01*
X106608333Y-75387419D02*
X106513095Y-75339800D01*
X106513095Y-75339800D02*
X106465476Y-75292180D01*
X107703571Y-74387419D02*
X107798809Y-74387419D01*
X107798809Y-74387419D02*
X107894047Y-74435038D01*
X107894047Y-74435038D02*
X107941666Y-74482657D01*
X107941666Y-74482657D02*
X107989285Y-74577895D01*
X107989285Y-74577895D02*
X108036904Y-74768371D01*
X108036904Y-74768371D02*
X108036904Y-75006466D01*
X108036904Y-75006466D02*
X107989285Y-75196942D01*
X107989285Y-75196942D02*
X107941666Y-75292180D01*
X107941666Y-75292180D02*
X107894047Y-75339800D01*
X107894047Y-75339800D02*
X107798809Y-75387419D01*
X107798809Y-75387419D02*
X107703571Y-75387419D01*
X107703571Y-75387419D02*
X107608333Y-75339800D01*
X107608333Y-75339800D02*
X107560714Y-75292180D01*
X107560714Y-75292180D02*
X107513095Y-75196942D01*
X107513095Y-75196942D02*
X107465476Y-75006466D01*
X107465476Y-75006466D02*
X107465476Y-74768371D01*
X107465476Y-74768371D02*
X107513095Y-74577895D01*
X107513095Y-74577895D02*
X107560714Y-74482657D01*
X107560714Y-74482657D02*
X107608333Y-74435038D01*
X107608333Y-74435038D02*
X107703571Y-74387419D01*
X145200476Y-104867419D02*
X145819523Y-104867419D01*
X145819523Y-104867419D02*
X145486190Y-105248371D01*
X145486190Y-105248371D02*
X145629047Y-105248371D01*
X145629047Y-105248371D02*
X145724285Y-105295990D01*
X145724285Y-105295990D02*
X145771904Y-105343609D01*
X145771904Y-105343609D02*
X145819523Y-105438847D01*
X145819523Y-105438847D02*
X145819523Y-105676942D01*
X145819523Y-105676942D02*
X145771904Y-105772180D01*
X145771904Y-105772180D02*
X145724285Y-105819800D01*
X145724285Y-105819800D02*
X145629047Y-105867419D01*
X145629047Y-105867419D02*
X145343333Y-105867419D01*
X145343333Y-105867419D02*
X145248095Y-105819800D01*
X145248095Y-105819800D02*
X145200476Y-105772180D01*
X146200476Y-104962657D02*
X146248095Y-104915038D01*
X146248095Y-104915038D02*
X146343333Y-104867419D01*
X146343333Y-104867419D02*
X146581428Y-104867419D01*
X146581428Y-104867419D02*
X146676666Y-104915038D01*
X146676666Y-104915038D02*
X146724285Y-104962657D01*
X146724285Y-104962657D02*
X146771904Y-105057895D01*
X146771904Y-105057895D02*
X146771904Y-105153133D01*
X146771904Y-105153133D02*
X146724285Y-105295990D01*
X146724285Y-105295990D02*
X146152857Y-105867419D01*
X146152857Y-105867419D02*
X146771904Y-105867419D01*
X148383333Y-77832180D02*
X148335714Y-77879800D01*
X148335714Y-77879800D02*
X148192857Y-77927419D01*
X148192857Y-77927419D02*
X148097619Y-77927419D01*
X148097619Y-77927419D02*
X147954762Y-77879800D01*
X147954762Y-77879800D02*
X147859524Y-77784561D01*
X147859524Y-77784561D02*
X147811905Y-77689323D01*
X147811905Y-77689323D02*
X147764286Y-77498847D01*
X147764286Y-77498847D02*
X147764286Y-77355990D01*
X147764286Y-77355990D02*
X147811905Y-77165514D01*
X147811905Y-77165514D02*
X147859524Y-77070276D01*
X147859524Y-77070276D02*
X147954762Y-76975038D01*
X147954762Y-76975038D02*
X148097619Y-76927419D01*
X148097619Y-76927419D02*
X148192857Y-76927419D01*
X148192857Y-76927419D02*
X148335714Y-76975038D01*
X148335714Y-76975038D02*
X148383333Y-77022657D01*
X148716667Y-76927419D02*
X149383333Y-76927419D01*
X149383333Y-76927419D02*
X148954762Y-77927419D01*
X147811905Y-67767419D02*
X147811905Y-66767419D01*
X147811905Y-66767419D02*
X148050000Y-66767419D01*
X148050000Y-66767419D02*
X148192857Y-66815038D01*
X148192857Y-66815038D02*
X148288095Y-66910276D01*
X148288095Y-66910276D02*
X148335714Y-67005514D01*
X148335714Y-67005514D02*
X148383333Y-67195990D01*
X148383333Y-67195990D02*
X148383333Y-67338847D01*
X148383333Y-67338847D02*
X148335714Y-67529323D01*
X148335714Y-67529323D02*
X148288095Y-67624561D01*
X148288095Y-67624561D02*
X148192857Y-67719800D01*
X148192857Y-67719800D02*
X148050000Y-67767419D01*
X148050000Y-67767419D02*
X147811905Y-67767419D01*
X149240476Y-66767419D02*
X149050000Y-66767419D01*
X149050000Y-66767419D02*
X148954762Y-66815038D01*
X148954762Y-66815038D02*
X148907143Y-66862657D01*
X148907143Y-66862657D02*
X148811905Y-67005514D01*
X148811905Y-67005514D02*
X148764286Y-67195990D01*
X148764286Y-67195990D02*
X148764286Y-67576942D01*
X148764286Y-67576942D02*
X148811905Y-67672180D01*
X148811905Y-67672180D02*
X148859524Y-67719800D01*
X148859524Y-67719800D02*
X148954762Y-67767419D01*
X148954762Y-67767419D02*
X149145238Y-67767419D01*
X149145238Y-67767419D02*
X149240476Y-67719800D01*
X149240476Y-67719800D02*
X149288095Y-67672180D01*
X149288095Y-67672180D02*
X149335714Y-67576942D01*
X149335714Y-67576942D02*
X149335714Y-67338847D01*
X149335714Y-67338847D02*
X149288095Y-67243609D01*
X149288095Y-67243609D02*
X149240476Y-67195990D01*
X149240476Y-67195990D02*
X149145238Y-67148371D01*
X149145238Y-67148371D02*
X148954762Y-67148371D01*
X148954762Y-67148371D02*
X148859524Y-67195990D01*
X148859524Y-67195990D02*
X148811905Y-67243609D01*
X148811905Y-67243609D02*
X148764286Y-67338847D01*
X147811905Y-72847419D02*
X147811905Y-71847419D01*
X147811905Y-71847419D02*
X148050000Y-71847419D01*
X148050000Y-71847419D02*
X148192857Y-71895038D01*
X148192857Y-71895038D02*
X148288095Y-71990276D01*
X148288095Y-71990276D02*
X148335714Y-72085514D01*
X148335714Y-72085514D02*
X148383333Y-72275990D01*
X148383333Y-72275990D02*
X148383333Y-72418847D01*
X148383333Y-72418847D02*
X148335714Y-72609323D01*
X148335714Y-72609323D02*
X148288095Y-72704561D01*
X148288095Y-72704561D02*
X148192857Y-72799800D01*
X148192857Y-72799800D02*
X148050000Y-72847419D01*
X148050000Y-72847419D02*
X147811905Y-72847419D01*
X148954762Y-72275990D02*
X148859524Y-72228371D01*
X148859524Y-72228371D02*
X148811905Y-72180752D01*
X148811905Y-72180752D02*
X148764286Y-72085514D01*
X148764286Y-72085514D02*
X148764286Y-72037895D01*
X148764286Y-72037895D02*
X148811905Y-71942657D01*
X148811905Y-71942657D02*
X148859524Y-71895038D01*
X148859524Y-71895038D02*
X148954762Y-71847419D01*
X148954762Y-71847419D02*
X149145238Y-71847419D01*
X149145238Y-71847419D02*
X149240476Y-71895038D01*
X149240476Y-71895038D02*
X149288095Y-71942657D01*
X149288095Y-71942657D02*
X149335714Y-72037895D01*
X149335714Y-72037895D02*
X149335714Y-72085514D01*
X149335714Y-72085514D02*
X149288095Y-72180752D01*
X149288095Y-72180752D02*
X149240476Y-72228371D01*
X149240476Y-72228371D02*
X149145238Y-72275990D01*
X149145238Y-72275990D02*
X148954762Y-72275990D01*
X148954762Y-72275990D02*
X148859524Y-72323609D01*
X148859524Y-72323609D02*
X148811905Y-72371228D01*
X148811905Y-72371228D02*
X148764286Y-72466466D01*
X148764286Y-72466466D02*
X148764286Y-72656942D01*
X148764286Y-72656942D02*
X148811905Y-72752180D01*
X148811905Y-72752180D02*
X148859524Y-72799800D01*
X148859524Y-72799800D02*
X148954762Y-72847419D01*
X148954762Y-72847419D02*
X149145238Y-72847419D01*
X149145238Y-72847419D02*
X149240476Y-72799800D01*
X149240476Y-72799800D02*
X149288095Y-72752180D01*
X149288095Y-72752180D02*
X149335714Y-72656942D01*
X149335714Y-72656942D02*
X149335714Y-72466466D01*
X149335714Y-72466466D02*
X149288095Y-72371228D01*
X149288095Y-72371228D02*
X149240476Y-72323609D01*
X149240476Y-72323609D02*
X149145238Y-72275990D01*
X148383333Y-87992180D02*
X148335714Y-88039800D01*
X148335714Y-88039800D02*
X148192857Y-88087419D01*
X148192857Y-88087419D02*
X148097619Y-88087419D01*
X148097619Y-88087419D02*
X147954762Y-88039800D01*
X147954762Y-88039800D02*
X147859524Y-87944561D01*
X147859524Y-87944561D02*
X147811905Y-87849323D01*
X147811905Y-87849323D02*
X147764286Y-87658847D01*
X147764286Y-87658847D02*
X147764286Y-87515990D01*
X147764286Y-87515990D02*
X147811905Y-87325514D01*
X147811905Y-87325514D02*
X147859524Y-87230276D01*
X147859524Y-87230276D02*
X147954762Y-87135038D01*
X147954762Y-87135038D02*
X148097619Y-87087419D01*
X148097619Y-87087419D02*
X148192857Y-87087419D01*
X148192857Y-87087419D02*
X148335714Y-87135038D01*
X148335714Y-87135038D02*
X148383333Y-87182657D01*
X148716667Y-87087419D02*
X149335714Y-87087419D01*
X149335714Y-87087419D02*
X149002381Y-87468371D01*
X149002381Y-87468371D02*
X149145238Y-87468371D01*
X149145238Y-87468371D02*
X149240476Y-87515990D01*
X149240476Y-87515990D02*
X149288095Y-87563609D01*
X149288095Y-87563609D02*
X149335714Y-87658847D01*
X149335714Y-87658847D02*
X149335714Y-87896942D01*
X149335714Y-87896942D02*
X149288095Y-87992180D01*
X149288095Y-87992180D02*
X149240476Y-88039800D01*
X149240476Y-88039800D02*
X149145238Y-88087419D01*
X149145238Y-88087419D02*
X148859524Y-88087419D01*
X148859524Y-88087419D02*
X148764286Y-88039800D01*
X148764286Y-88039800D02*
X148716667Y-87992180D01*
X145438571Y-64655990D02*
X145343333Y-64608371D01*
X145343333Y-64608371D02*
X145295714Y-64560752D01*
X145295714Y-64560752D02*
X145248095Y-64465514D01*
X145248095Y-64465514D02*
X145248095Y-64417895D01*
X145248095Y-64417895D02*
X145295714Y-64322657D01*
X145295714Y-64322657D02*
X145343333Y-64275038D01*
X145343333Y-64275038D02*
X145438571Y-64227419D01*
X145438571Y-64227419D02*
X145629047Y-64227419D01*
X145629047Y-64227419D02*
X145724285Y-64275038D01*
X145724285Y-64275038D02*
X145771904Y-64322657D01*
X145771904Y-64322657D02*
X145819523Y-64417895D01*
X145819523Y-64417895D02*
X145819523Y-64465514D01*
X145819523Y-64465514D02*
X145771904Y-64560752D01*
X145771904Y-64560752D02*
X145724285Y-64608371D01*
X145724285Y-64608371D02*
X145629047Y-64655990D01*
X145629047Y-64655990D02*
X145438571Y-64655990D01*
X145438571Y-64655990D02*
X145343333Y-64703609D01*
X145343333Y-64703609D02*
X145295714Y-64751228D01*
X145295714Y-64751228D02*
X145248095Y-64846466D01*
X145248095Y-64846466D02*
X145248095Y-65036942D01*
X145248095Y-65036942D02*
X145295714Y-65132180D01*
X145295714Y-65132180D02*
X145343333Y-65179800D01*
X145343333Y-65179800D02*
X145438571Y-65227419D01*
X145438571Y-65227419D02*
X145629047Y-65227419D01*
X145629047Y-65227419D02*
X145724285Y-65179800D01*
X145724285Y-65179800D02*
X145771904Y-65132180D01*
X145771904Y-65132180D02*
X145819523Y-65036942D01*
X145819523Y-65036942D02*
X145819523Y-64846466D01*
X145819523Y-64846466D02*
X145771904Y-64751228D01*
X145771904Y-64751228D02*
X145724285Y-64703609D01*
X145724285Y-64703609D02*
X145629047Y-64655990D01*
X146200476Y-64322657D02*
X146248095Y-64275038D01*
X146248095Y-64275038D02*
X146343333Y-64227419D01*
X146343333Y-64227419D02*
X146581428Y-64227419D01*
X146581428Y-64227419D02*
X146676666Y-64275038D01*
X146676666Y-64275038D02*
X146724285Y-64322657D01*
X146724285Y-64322657D02*
X146771904Y-64417895D01*
X146771904Y-64417895D02*
X146771904Y-64513133D01*
X146771904Y-64513133D02*
X146724285Y-64655990D01*
X146724285Y-64655990D02*
X146152857Y-65227419D01*
X146152857Y-65227419D02*
X146771904Y-65227419D01*
X145248095Y-107455038D02*
X145152857Y-107407419D01*
X145152857Y-107407419D02*
X145010000Y-107407419D01*
X145010000Y-107407419D02*
X144867143Y-107455038D01*
X144867143Y-107455038D02*
X144771905Y-107550276D01*
X144771905Y-107550276D02*
X144724286Y-107645514D01*
X144724286Y-107645514D02*
X144676667Y-107835990D01*
X144676667Y-107835990D02*
X144676667Y-107978847D01*
X144676667Y-107978847D02*
X144724286Y-108169323D01*
X144724286Y-108169323D02*
X144771905Y-108264561D01*
X144771905Y-108264561D02*
X144867143Y-108359800D01*
X144867143Y-108359800D02*
X145010000Y-108407419D01*
X145010000Y-108407419D02*
X145105238Y-108407419D01*
X145105238Y-108407419D02*
X145248095Y-108359800D01*
X145248095Y-108359800D02*
X145295714Y-108312180D01*
X145295714Y-108312180D02*
X145295714Y-107978847D01*
X145295714Y-107978847D02*
X145105238Y-107978847D01*
X145724286Y-108407419D02*
X145724286Y-107407419D01*
X145724286Y-107407419D02*
X146295714Y-108407419D01*
X146295714Y-108407419D02*
X146295714Y-107407419D01*
X146771905Y-108407419D02*
X146771905Y-107407419D01*
X146771905Y-107407419D02*
X147010000Y-107407419D01*
X147010000Y-107407419D02*
X147152857Y-107455038D01*
X147152857Y-107455038D02*
X147248095Y-107550276D01*
X147248095Y-107550276D02*
X147295714Y-107645514D01*
X147295714Y-107645514D02*
X147343333Y-107835990D01*
X147343333Y-107835990D02*
X147343333Y-107978847D01*
X147343333Y-107978847D02*
X147295714Y-108169323D01*
X147295714Y-108169323D02*
X147248095Y-108264561D01*
X147248095Y-108264561D02*
X147152857Y-108359800D01*
X147152857Y-108359800D02*
X147010000Y-108407419D01*
X147010000Y-108407419D02*
X146771905Y-108407419D01*
X106989285Y-107407419D02*
X106798809Y-107407419D01*
X106798809Y-107407419D02*
X106703571Y-107455038D01*
X106703571Y-107455038D02*
X106655952Y-107502657D01*
X106655952Y-107502657D02*
X106560714Y-107645514D01*
X106560714Y-107645514D02*
X106513095Y-107835990D01*
X106513095Y-107835990D02*
X106513095Y-108216942D01*
X106513095Y-108216942D02*
X106560714Y-108312180D01*
X106560714Y-108312180D02*
X106608333Y-108359800D01*
X106608333Y-108359800D02*
X106703571Y-108407419D01*
X106703571Y-108407419D02*
X106894047Y-108407419D01*
X106894047Y-108407419D02*
X106989285Y-108359800D01*
X106989285Y-108359800D02*
X107036904Y-108312180D01*
X107036904Y-108312180D02*
X107084523Y-108216942D01*
X107084523Y-108216942D02*
X107084523Y-107978847D01*
X107084523Y-107978847D02*
X107036904Y-107883609D01*
X107036904Y-107883609D02*
X106989285Y-107835990D01*
X106989285Y-107835990D02*
X106894047Y-107788371D01*
X106894047Y-107788371D02*
X106703571Y-107788371D01*
X106703571Y-107788371D02*
X106608333Y-107835990D01*
X106608333Y-107835990D02*
X106560714Y-107883609D01*
X106560714Y-107883609D02*
X106513095Y-107978847D01*
X107655952Y-107835990D02*
X107560714Y-107788371D01*
X107560714Y-107788371D02*
X107513095Y-107740752D01*
X107513095Y-107740752D02*
X107465476Y-107645514D01*
X107465476Y-107645514D02*
X107465476Y-107597895D01*
X107465476Y-107597895D02*
X107513095Y-107502657D01*
X107513095Y-107502657D02*
X107560714Y-107455038D01*
X107560714Y-107455038D02*
X107655952Y-107407419D01*
X107655952Y-107407419D02*
X107846428Y-107407419D01*
X107846428Y-107407419D02*
X107941666Y-107455038D01*
X107941666Y-107455038D02*
X107989285Y-107502657D01*
X107989285Y-107502657D02*
X108036904Y-107597895D01*
X108036904Y-107597895D02*
X108036904Y-107645514D01*
X108036904Y-107645514D02*
X107989285Y-107740752D01*
X107989285Y-107740752D02*
X107941666Y-107788371D01*
X107941666Y-107788371D02*
X107846428Y-107835990D01*
X107846428Y-107835990D02*
X107655952Y-107835990D01*
X107655952Y-107835990D02*
X107560714Y-107883609D01*
X107560714Y-107883609D02*
X107513095Y-107931228D01*
X107513095Y-107931228D02*
X107465476Y-108026466D01*
X107465476Y-108026466D02*
X107465476Y-108216942D01*
X107465476Y-108216942D02*
X107513095Y-108312180D01*
X107513095Y-108312180D02*
X107560714Y-108359800D01*
X107560714Y-108359800D02*
X107655952Y-108407419D01*
X107655952Y-108407419D02*
X107846428Y-108407419D01*
X107846428Y-108407419D02*
X107941666Y-108359800D01*
X107941666Y-108359800D02*
X107989285Y-108312180D01*
X107989285Y-108312180D02*
X108036904Y-108216942D01*
X108036904Y-108216942D02*
X108036904Y-108026466D01*
X108036904Y-108026466D02*
X107989285Y-107931228D01*
X107989285Y-107931228D02*
X107941666Y-107883609D01*
X107941666Y-107883609D02*
X107846428Y-107835990D01*
D11*
X145094819Y-116538333D02*
X145809104Y-116538333D01*
X145809104Y-116538333D02*
X145951961Y-116585952D01*
X145951961Y-116585952D02*
X146047200Y-116681190D01*
X146047200Y-116681190D02*
X146094819Y-116824047D01*
X146094819Y-116824047D02*
X146094819Y-116919285D01*
X145094819Y-116157380D02*
X145094819Y-115538333D01*
X145094819Y-115538333D02*
X145475771Y-115871666D01*
X145475771Y-115871666D02*
X145475771Y-115728809D01*
X145475771Y-115728809D02*
X145523390Y-115633571D01*
X145523390Y-115633571D02*
X145571009Y-115585952D01*
X145571009Y-115585952D02*
X145666247Y-115538333D01*
X145666247Y-115538333D02*
X145904342Y-115538333D01*
X145904342Y-115538333D02*
X145999580Y-115585952D01*
X145999580Y-115585952D02*
X146047200Y-115633571D01*
X146047200Y-115633571D02*
X146094819Y-115728809D01*
X146094819Y-115728809D02*
X146094819Y-116014523D01*
X146094819Y-116014523D02*
X146047200Y-116109761D01*
X146047200Y-116109761D02*
X145999580Y-116157380D01*
X156003333Y-83864819D02*
X155670000Y-83388628D01*
X155431905Y-83864819D02*
X155431905Y-82864819D01*
X155431905Y-82864819D02*
X155812857Y-82864819D01*
X155812857Y-82864819D02*
X155908095Y-82912438D01*
X155908095Y-82912438D02*
X155955714Y-82960057D01*
X155955714Y-82960057D02*
X156003333Y-83055295D01*
X156003333Y-83055295D02*
X156003333Y-83198152D01*
X156003333Y-83198152D02*
X155955714Y-83293390D01*
X155955714Y-83293390D02*
X155908095Y-83341009D01*
X155908095Y-83341009D02*
X155812857Y-83388628D01*
X155812857Y-83388628D02*
X155431905Y-83388628D01*
X156860476Y-82864819D02*
X156670000Y-82864819D01*
X156670000Y-82864819D02*
X156574762Y-82912438D01*
X156574762Y-82912438D02*
X156527143Y-82960057D01*
X156527143Y-82960057D02*
X156431905Y-83102914D01*
X156431905Y-83102914D02*
X156384286Y-83293390D01*
X156384286Y-83293390D02*
X156384286Y-83674342D01*
X156384286Y-83674342D02*
X156431905Y-83769580D01*
X156431905Y-83769580D02*
X156479524Y-83817200D01*
X156479524Y-83817200D02*
X156574762Y-83864819D01*
X156574762Y-83864819D02*
X156765238Y-83864819D01*
X156765238Y-83864819D02*
X156860476Y-83817200D01*
X156860476Y-83817200D02*
X156908095Y-83769580D01*
X156908095Y-83769580D02*
X156955714Y-83674342D01*
X156955714Y-83674342D02*
X156955714Y-83436247D01*
X156955714Y-83436247D02*
X156908095Y-83341009D01*
X156908095Y-83341009D02*
X156860476Y-83293390D01*
X156860476Y-83293390D02*
X156765238Y-83245771D01*
X156765238Y-83245771D02*
X156574762Y-83245771D01*
X156574762Y-83245771D02*
X156479524Y-83293390D01*
X156479524Y-83293390D02*
X156431905Y-83341009D01*
X156431905Y-83341009D02*
X156384286Y-83436247D01*
X182707200Y-52133332D02*
X182754819Y-51990475D01*
X182754819Y-51990475D02*
X182754819Y-51752380D01*
X182754819Y-51752380D02*
X182707200Y-51657142D01*
X182707200Y-51657142D02*
X182659580Y-51609523D01*
X182659580Y-51609523D02*
X182564342Y-51561904D01*
X182564342Y-51561904D02*
X182469104Y-51561904D01*
X182469104Y-51561904D02*
X182373866Y-51609523D01*
X182373866Y-51609523D02*
X182326247Y-51657142D01*
X182326247Y-51657142D02*
X182278628Y-51752380D01*
X182278628Y-51752380D02*
X182231009Y-51942856D01*
X182231009Y-51942856D02*
X182183390Y-52038094D01*
X182183390Y-52038094D02*
X182135771Y-52085713D01*
X182135771Y-52085713D02*
X182040533Y-52133332D01*
X182040533Y-52133332D02*
X181945295Y-52133332D01*
X181945295Y-52133332D02*
X181850057Y-52085713D01*
X181850057Y-52085713D02*
X181802438Y-52038094D01*
X181802438Y-52038094D02*
X181754819Y-51942856D01*
X181754819Y-51942856D02*
X181754819Y-51704761D01*
X181754819Y-51704761D02*
X181802438Y-51561904D01*
X181754819Y-51228570D02*
X182754819Y-50990475D01*
X182754819Y-50990475D02*
X182040533Y-50799999D01*
X182040533Y-50799999D02*
X182754819Y-50609523D01*
X182754819Y-50609523D02*
X181754819Y-50371428D01*
X181754819Y-50085713D02*
X181754819Y-49466666D01*
X181754819Y-49466666D02*
X182135771Y-49799999D01*
X182135771Y-49799999D02*
X182135771Y-49657142D01*
X182135771Y-49657142D02*
X182183390Y-49561904D01*
X182183390Y-49561904D02*
X182231009Y-49514285D01*
X182231009Y-49514285D02*
X182326247Y-49466666D01*
X182326247Y-49466666D02*
X182564342Y-49466666D01*
X182564342Y-49466666D02*
X182659580Y-49514285D01*
X182659580Y-49514285D02*
X182707200Y-49561904D01*
X182707200Y-49561904D02*
X182754819Y-49657142D01*
X182754819Y-49657142D02*
X182754819Y-49942856D01*
X182754819Y-49942856D02*
X182707200Y-50038094D01*
X182707200Y-50038094D02*
X182659580Y-50085713D01*
X174934819Y-108711904D02*
X175744342Y-108711904D01*
X175744342Y-108711904D02*
X175839580Y-108664285D01*
X175839580Y-108664285D02*
X175887200Y-108616666D01*
X175887200Y-108616666D02*
X175934819Y-108521428D01*
X175934819Y-108521428D02*
X175934819Y-108330952D01*
X175934819Y-108330952D02*
X175887200Y-108235714D01*
X175887200Y-108235714D02*
X175839580Y-108188095D01*
X175839580Y-108188095D02*
X175744342Y-108140476D01*
X175744342Y-108140476D02*
X174934819Y-108140476D01*
X174934819Y-107759523D02*
X174934819Y-107140476D01*
X174934819Y-107140476D02*
X175315771Y-107473809D01*
X175315771Y-107473809D02*
X175315771Y-107330952D01*
X175315771Y-107330952D02*
X175363390Y-107235714D01*
X175363390Y-107235714D02*
X175411009Y-107188095D01*
X175411009Y-107188095D02*
X175506247Y-107140476D01*
X175506247Y-107140476D02*
X175744342Y-107140476D01*
X175744342Y-107140476D02*
X175839580Y-107188095D01*
X175839580Y-107188095D02*
X175887200Y-107235714D01*
X175887200Y-107235714D02*
X175934819Y-107330952D01*
X175934819Y-107330952D02*
X175934819Y-107616666D01*
X175934819Y-107616666D02*
X175887200Y-107711904D01*
X175887200Y-107711904D02*
X175839580Y-107759523D01*
X192867200Y-52133332D02*
X192914819Y-51990475D01*
X192914819Y-51990475D02*
X192914819Y-51752380D01*
X192914819Y-51752380D02*
X192867200Y-51657142D01*
X192867200Y-51657142D02*
X192819580Y-51609523D01*
X192819580Y-51609523D02*
X192724342Y-51561904D01*
X192724342Y-51561904D02*
X192629104Y-51561904D01*
X192629104Y-51561904D02*
X192533866Y-51609523D01*
X192533866Y-51609523D02*
X192486247Y-51657142D01*
X192486247Y-51657142D02*
X192438628Y-51752380D01*
X192438628Y-51752380D02*
X192391009Y-51942856D01*
X192391009Y-51942856D02*
X192343390Y-52038094D01*
X192343390Y-52038094D02*
X192295771Y-52085713D01*
X192295771Y-52085713D02*
X192200533Y-52133332D01*
X192200533Y-52133332D02*
X192105295Y-52133332D01*
X192105295Y-52133332D02*
X192010057Y-52085713D01*
X192010057Y-52085713D02*
X191962438Y-52038094D01*
X191962438Y-52038094D02*
X191914819Y-51942856D01*
X191914819Y-51942856D02*
X191914819Y-51704761D01*
X191914819Y-51704761D02*
X191962438Y-51561904D01*
X191914819Y-51228570D02*
X192914819Y-50990475D01*
X192914819Y-50990475D02*
X192200533Y-50799999D01*
X192200533Y-50799999D02*
X192914819Y-50609523D01*
X192914819Y-50609523D02*
X191914819Y-50371428D01*
X192010057Y-50038094D02*
X191962438Y-49990475D01*
X191962438Y-49990475D02*
X191914819Y-49895237D01*
X191914819Y-49895237D02*
X191914819Y-49657142D01*
X191914819Y-49657142D02*
X191962438Y-49561904D01*
X191962438Y-49561904D02*
X192010057Y-49514285D01*
X192010057Y-49514285D02*
X192105295Y-49466666D01*
X192105295Y-49466666D02*
X192200533Y-49466666D01*
X192200533Y-49466666D02*
X192343390Y-49514285D01*
X192343390Y-49514285D02*
X192914819Y-50085713D01*
X192914819Y-50085713D02*
X192914819Y-49466666D01*
D10*
X181483095Y-61052419D02*
X181483095Y-61861942D01*
X181483095Y-61861942D02*
X181530714Y-61957180D01*
X181530714Y-61957180D02*
X181578333Y-62004800D01*
X181578333Y-62004800D02*
X181673571Y-62052419D01*
X181673571Y-62052419D02*
X181864047Y-62052419D01*
X181864047Y-62052419D02*
X181959285Y-62004800D01*
X181959285Y-62004800D02*
X182006904Y-61957180D01*
X182006904Y-61957180D02*
X182054523Y-61861942D01*
X182054523Y-61861942D02*
X182054523Y-61052419D01*
X182483095Y-61147657D02*
X182530714Y-61100038D01*
X182530714Y-61100038D02*
X182625952Y-61052419D01*
X182625952Y-61052419D02*
X182864047Y-61052419D01*
X182864047Y-61052419D02*
X182959285Y-61100038D01*
X182959285Y-61100038D02*
X183006904Y-61147657D01*
X183006904Y-61147657D02*
X183054523Y-61242895D01*
X183054523Y-61242895D02*
X183054523Y-61338133D01*
X183054523Y-61338133D02*
X183006904Y-61480990D01*
X183006904Y-61480990D02*
X182435476Y-62052419D01*
X182435476Y-62052419D02*
X183054523Y-62052419D01*
D11*
X142501666Y-48984819D02*
X142501666Y-49699104D01*
X142501666Y-49699104D02*
X142454047Y-49841961D01*
X142454047Y-49841961D02*
X142358809Y-49937200D01*
X142358809Y-49937200D02*
X142215952Y-49984819D01*
X142215952Y-49984819D02*
X142120714Y-49984819D01*
X142930238Y-49080057D02*
X142977857Y-49032438D01*
X142977857Y-49032438D02*
X143073095Y-48984819D01*
X143073095Y-48984819D02*
X143311190Y-48984819D01*
X143311190Y-48984819D02*
X143406428Y-49032438D01*
X143406428Y-49032438D02*
X143454047Y-49080057D01*
X143454047Y-49080057D02*
X143501666Y-49175295D01*
X143501666Y-49175295D02*
X143501666Y-49270533D01*
X143501666Y-49270533D02*
X143454047Y-49413390D01*
X143454047Y-49413390D02*
X142882619Y-49984819D01*
X142882619Y-49984819D02*
X143501666Y-49984819D01*
X154876667Y-41427200D02*
X155019524Y-41474819D01*
X155019524Y-41474819D02*
X155257619Y-41474819D01*
X155257619Y-41474819D02*
X155352857Y-41427200D01*
X155352857Y-41427200D02*
X155400476Y-41379580D01*
X155400476Y-41379580D02*
X155448095Y-41284342D01*
X155448095Y-41284342D02*
X155448095Y-41189104D01*
X155448095Y-41189104D02*
X155400476Y-41093866D01*
X155400476Y-41093866D02*
X155352857Y-41046247D01*
X155352857Y-41046247D02*
X155257619Y-40998628D01*
X155257619Y-40998628D02*
X155067143Y-40951009D01*
X155067143Y-40951009D02*
X154971905Y-40903390D01*
X154971905Y-40903390D02*
X154924286Y-40855771D01*
X154924286Y-40855771D02*
X154876667Y-40760533D01*
X154876667Y-40760533D02*
X154876667Y-40665295D01*
X154876667Y-40665295D02*
X154924286Y-40570057D01*
X154924286Y-40570057D02*
X154971905Y-40522438D01*
X154971905Y-40522438D02*
X155067143Y-40474819D01*
X155067143Y-40474819D02*
X155305238Y-40474819D01*
X155305238Y-40474819D02*
X155448095Y-40522438D01*
X155781429Y-40474819D02*
X156019524Y-41474819D01*
X156019524Y-41474819D02*
X156210000Y-40760533D01*
X156210000Y-40760533D02*
X156400476Y-41474819D01*
X156400476Y-41474819D02*
X156638572Y-40474819D01*
X157543333Y-41474819D02*
X156971905Y-41474819D01*
X157257619Y-41474819D02*
X157257619Y-40474819D01*
X157257619Y-40474819D02*
X157162381Y-40617676D01*
X157162381Y-40617676D02*
X157067143Y-40712914D01*
X157067143Y-40712914D02*
X156971905Y-40760533D01*
X156003333Y-104184819D02*
X155670000Y-103708628D01*
X155431905Y-104184819D02*
X155431905Y-103184819D01*
X155431905Y-103184819D02*
X155812857Y-103184819D01*
X155812857Y-103184819D02*
X155908095Y-103232438D01*
X155908095Y-103232438D02*
X155955714Y-103280057D01*
X155955714Y-103280057D02*
X156003333Y-103375295D01*
X156003333Y-103375295D02*
X156003333Y-103518152D01*
X156003333Y-103518152D02*
X155955714Y-103613390D01*
X155955714Y-103613390D02*
X155908095Y-103661009D01*
X155908095Y-103661009D02*
X155812857Y-103708628D01*
X155812857Y-103708628D02*
X155431905Y-103708628D01*
X156384286Y-103280057D02*
X156431905Y-103232438D01*
X156431905Y-103232438D02*
X156527143Y-103184819D01*
X156527143Y-103184819D02*
X156765238Y-103184819D01*
X156765238Y-103184819D02*
X156860476Y-103232438D01*
X156860476Y-103232438D02*
X156908095Y-103280057D01*
X156908095Y-103280057D02*
X156955714Y-103375295D01*
X156955714Y-103375295D02*
X156955714Y-103470533D01*
X156955714Y-103470533D02*
X156908095Y-103613390D01*
X156908095Y-103613390D02*
X156336667Y-104184819D01*
X156336667Y-104184819D02*
X156955714Y-104184819D01*
X156003333Y-109264819D02*
X155670000Y-108788628D01*
X155431905Y-109264819D02*
X155431905Y-108264819D01*
X155431905Y-108264819D02*
X155812857Y-108264819D01*
X155812857Y-108264819D02*
X155908095Y-108312438D01*
X155908095Y-108312438D02*
X155955714Y-108360057D01*
X155955714Y-108360057D02*
X156003333Y-108455295D01*
X156003333Y-108455295D02*
X156003333Y-108598152D01*
X156003333Y-108598152D02*
X155955714Y-108693390D01*
X155955714Y-108693390D02*
X155908095Y-108741009D01*
X155908095Y-108741009D02*
X155812857Y-108788628D01*
X155812857Y-108788628D02*
X155431905Y-108788628D01*
X156955714Y-109264819D02*
X156384286Y-109264819D01*
X156670000Y-109264819D02*
X156670000Y-108264819D01*
X156670000Y-108264819D02*
X156574762Y-108407676D01*
X156574762Y-108407676D02*
X156479524Y-108502914D01*
X156479524Y-108502914D02*
X156384286Y-108550533D01*
X136826666Y-122219819D02*
X136826666Y-122934104D01*
X136826666Y-122934104D02*
X136779047Y-123076961D01*
X136779047Y-123076961D02*
X136683809Y-123172200D01*
X136683809Y-123172200D02*
X136540952Y-123219819D01*
X136540952Y-123219819D02*
X136445714Y-123219819D01*
X137731428Y-122553152D02*
X137731428Y-123219819D01*
X137493333Y-122172200D02*
X137255238Y-122886485D01*
X137255238Y-122886485D02*
X137874285Y-122886485D01*
X117141666Y-122219819D02*
X117141666Y-122934104D01*
X117141666Y-122934104D02*
X117094047Y-123076961D01*
X117094047Y-123076961D02*
X116998809Y-123172200D01*
X116998809Y-123172200D02*
X116855952Y-123219819D01*
X116855952Y-123219819D02*
X116760714Y-123219819D01*
X118094047Y-122219819D02*
X117617857Y-122219819D01*
X117617857Y-122219819D02*
X117570238Y-122696009D01*
X117570238Y-122696009D02*
X117617857Y-122648390D01*
X117617857Y-122648390D02*
X117713095Y-122600771D01*
X117713095Y-122600771D02*
X117951190Y-122600771D01*
X117951190Y-122600771D02*
X118046428Y-122648390D01*
X118046428Y-122648390D02*
X118094047Y-122696009D01*
X118094047Y-122696009D02*
X118141666Y-122791247D01*
X118141666Y-122791247D02*
X118141666Y-123029342D01*
X118141666Y-123029342D02*
X118094047Y-123124580D01*
X118094047Y-123124580D02*
X118046428Y-123172200D01*
X118046428Y-123172200D02*
X117951190Y-123219819D01*
X117951190Y-123219819D02*
X117713095Y-123219819D01*
X117713095Y-123219819D02*
X117617857Y-123172200D01*
X117617857Y-123172200D02*
X117570238Y-123124580D01*
X156003333Y-78784819D02*
X155670000Y-78308628D01*
X155431905Y-78784819D02*
X155431905Y-77784819D01*
X155431905Y-77784819D02*
X155812857Y-77784819D01*
X155812857Y-77784819D02*
X155908095Y-77832438D01*
X155908095Y-77832438D02*
X155955714Y-77880057D01*
X155955714Y-77880057D02*
X156003333Y-77975295D01*
X156003333Y-77975295D02*
X156003333Y-78118152D01*
X156003333Y-78118152D02*
X155955714Y-78213390D01*
X155955714Y-78213390D02*
X155908095Y-78261009D01*
X155908095Y-78261009D02*
X155812857Y-78308628D01*
X155812857Y-78308628D02*
X155431905Y-78308628D01*
X156336667Y-77784819D02*
X157003333Y-77784819D01*
X157003333Y-77784819D02*
X156574762Y-78784819D01*
X156003333Y-88954819D02*
X155670000Y-88478628D01*
X155431905Y-88954819D02*
X155431905Y-87954819D01*
X155431905Y-87954819D02*
X155812857Y-87954819D01*
X155812857Y-87954819D02*
X155908095Y-88002438D01*
X155908095Y-88002438D02*
X155955714Y-88050057D01*
X155955714Y-88050057D02*
X156003333Y-88145295D01*
X156003333Y-88145295D02*
X156003333Y-88288152D01*
X156003333Y-88288152D02*
X155955714Y-88383390D01*
X155955714Y-88383390D02*
X155908095Y-88431009D01*
X155908095Y-88431009D02*
X155812857Y-88478628D01*
X155812857Y-88478628D02*
X155431905Y-88478628D01*
X156908095Y-87954819D02*
X156431905Y-87954819D01*
X156431905Y-87954819D02*
X156384286Y-88431009D01*
X156384286Y-88431009D02*
X156431905Y-88383390D01*
X156431905Y-88383390D02*
X156527143Y-88335771D01*
X156527143Y-88335771D02*
X156765238Y-88335771D01*
X156765238Y-88335771D02*
X156860476Y-88383390D01*
X156860476Y-88383390D02*
X156908095Y-88431009D01*
X156908095Y-88431009D02*
X156955714Y-88526247D01*
X156955714Y-88526247D02*
X156955714Y-88764342D01*
X156955714Y-88764342D02*
X156908095Y-88859580D01*
X156908095Y-88859580D02*
X156860476Y-88907200D01*
X156860476Y-88907200D02*
X156765238Y-88954819D01*
X156765238Y-88954819D02*
X156527143Y-88954819D01*
X156527143Y-88954819D02*
X156431905Y-88907200D01*
X156431905Y-88907200D02*
X156384286Y-88859580D01*
X172462200Y-52133332D02*
X172509819Y-51990475D01*
X172509819Y-51990475D02*
X172509819Y-51752380D01*
X172509819Y-51752380D02*
X172462200Y-51657142D01*
X172462200Y-51657142D02*
X172414580Y-51609523D01*
X172414580Y-51609523D02*
X172319342Y-51561904D01*
X172319342Y-51561904D02*
X172224104Y-51561904D01*
X172224104Y-51561904D02*
X172128866Y-51609523D01*
X172128866Y-51609523D02*
X172081247Y-51657142D01*
X172081247Y-51657142D02*
X172033628Y-51752380D01*
X172033628Y-51752380D02*
X171986009Y-51942856D01*
X171986009Y-51942856D02*
X171938390Y-52038094D01*
X171938390Y-52038094D02*
X171890771Y-52085713D01*
X171890771Y-52085713D02*
X171795533Y-52133332D01*
X171795533Y-52133332D02*
X171700295Y-52133332D01*
X171700295Y-52133332D02*
X171605057Y-52085713D01*
X171605057Y-52085713D02*
X171557438Y-52038094D01*
X171557438Y-52038094D02*
X171509819Y-51942856D01*
X171509819Y-51942856D02*
X171509819Y-51704761D01*
X171509819Y-51704761D02*
X171557438Y-51561904D01*
X171509819Y-51228570D02*
X172509819Y-50990475D01*
X172509819Y-50990475D02*
X171795533Y-50799999D01*
X171795533Y-50799999D02*
X172509819Y-50609523D01*
X172509819Y-50609523D02*
X171509819Y-50371428D01*
X171843152Y-49561904D02*
X172509819Y-49561904D01*
X171462200Y-49799999D02*
X172176485Y-50038094D01*
X172176485Y-50038094D02*
X172176485Y-49419047D01*
X156003333Y-73704819D02*
X155670000Y-73228628D01*
X155431905Y-73704819D02*
X155431905Y-72704819D01*
X155431905Y-72704819D02*
X155812857Y-72704819D01*
X155812857Y-72704819D02*
X155908095Y-72752438D01*
X155908095Y-72752438D02*
X155955714Y-72800057D01*
X155955714Y-72800057D02*
X156003333Y-72895295D01*
X156003333Y-72895295D02*
X156003333Y-73038152D01*
X156003333Y-73038152D02*
X155955714Y-73133390D01*
X155955714Y-73133390D02*
X155908095Y-73181009D01*
X155908095Y-73181009D02*
X155812857Y-73228628D01*
X155812857Y-73228628D02*
X155431905Y-73228628D01*
X156574762Y-73133390D02*
X156479524Y-73085771D01*
X156479524Y-73085771D02*
X156431905Y-73038152D01*
X156431905Y-73038152D02*
X156384286Y-72942914D01*
X156384286Y-72942914D02*
X156384286Y-72895295D01*
X156384286Y-72895295D02*
X156431905Y-72800057D01*
X156431905Y-72800057D02*
X156479524Y-72752438D01*
X156479524Y-72752438D02*
X156574762Y-72704819D01*
X156574762Y-72704819D02*
X156765238Y-72704819D01*
X156765238Y-72704819D02*
X156860476Y-72752438D01*
X156860476Y-72752438D02*
X156908095Y-72800057D01*
X156908095Y-72800057D02*
X156955714Y-72895295D01*
X156955714Y-72895295D02*
X156955714Y-72942914D01*
X156955714Y-72942914D02*
X156908095Y-73038152D01*
X156908095Y-73038152D02*
X156860476Y-73085771D01*
X156860476Y-73085771D02*
X156765238Y-73133390D01*
X156765238Y-73133390D02*
X156574762Y-73133390D01*
X156574762Y-73133390D02*
X156479524Y-73181009D01*
X156479524Y-73181009D02*
X156431905Y-73228628D01*
X156431905Y-73228628D02*
X156384286Y-73323866D01*
X156384286Y-73323866D02*
X156384286Y-73514342D01*
X156384286Y-73514342D02*
X156431905Y-73609580D01*
X156431905Y-73609580D02*
X156479524Y-73657200D01*
X156479524Y-73657200D02*
X156574762Y-73704819D01*
X156574762Y-73704819D02*
X156765238Y-73704819D01*
X156765238Y-73704819D02*
X156860476Y-73657200D01*
X156860476Y-73657200D02*
X156908095Y-73609580D01*
X156908095Y-73609580D02*
X156955714Y-73514342D01*
X156955714Y-73514342D02*
X156955714Y-73323866D01*
X156955714Y-73323866D02*
X156908095Y-73228628D01*
X156908095Y-73228628D02*
X156860476Y-73181009D01*
X156860476Y-73181009D02*
X156765238Y-73133390D01*
X156003333Y-99104819D02*
X155670000Y-98628628D01*
X155431905Y-99104819D02*
X155431905Y-98104819D01*
X155431905Y-98104819D02*
X155812857Y-98104819D01*
X155812857Y-98104819D02*
X155908095Y-98152438D01*
X155908095Y-98152438D02*
X155955714Y-98200057D01*
X155955714Y-98200057D02*
X156003333Y-98295295D01*
X156003333Y-98295295D02*
X156003333Y-98438152D01*
X156003333Y-98438152D02*
X155955714Y-98533390D01*
X155955714Y-98533390D02*
X155908095Y-98581009D01*
X155908095Y-98581009D02*
X155812857Y-98628628D01*
X155812857Y-98628628D02*
X155431905Y-98628628D01*
X156336667Y-98104819D02*
X156955714Y-98104819D01*
X156955714Y-98104819D02*
X156622381Y-98485771D01*
X156622381Y-98485771D02*
X156765238Y-98485771D01*
X156765238Y-98485771D02*
X156860476Y-98533390D01*
X156860476Y-98533390D02*
X156908095Y-98581009D01*
X156908095Y-98581009D02*
X156955714Y-98676247D01*
X156955714Y-98676247D02*
X156955714Y-98914342D01*
X156955714Y-98914342D02*
X156908095Y-99009580D01*
X156908095Y-99009580D02*
X156860476Y-99057200D01*
X156860476Y-99057200D02*
X156765238Y-99104819D01*
X156765238Y-99104819D02*
X156479524Y-99104819D01*
X156479524Y-99104819D02*
X156384286Y-99057200D01*
X156384286Y-99057200D02*
X156336667Y-99009580D01*
X110791666Y-113329819D02*
X110791666Y-114044104D01*
X110791666Y-114044104D02*
X110744047Y-114186961D01*
X110744047Y-114186961D02*
X110648809Y-114282200D01*
X110648809Y-114282200D02*
X110505952Y-114329819D01*
X110505952Y-114329819D02*
X110410714Y-114329819D01*
X111696428Y-113329819D02*
X111505952Y-113329819D01*
X111505952Y-113329819D02*
X111410714Y-113377438D01*
X111410714Y-113377438D02*
X111363095Y-113425057D01*
X111363095Y-113425057D02*
X111267857Y-113567914D01*
X111267857Y-113567914D02*
X111220238Y-113758390D01*
X111220238Y-113758390D02*
X111220238Y-114139342D01*
X111220238Y-114139342D02*
X111267857Y-114234580D01*
X111267857Y-114234580D02*
X111315476Y-114282200D01*
X111315476Y-114282200D02*
X111410714Y-114329819D01*
X111410714Y-114329819D02*
X111601190Y-114329819D01*
X111601190Y-114329819D02*
X111696428Y-114282200D01*
X111696428Y-114282200D02*
X111744047Y-114234580D01*
X111744047Y-114234580D02*
X111791666Y-114139342D01*
X111791666Y-114139342D02*
X111791666Y-113901247D01*
X111791666Y-113901247D02*
X111744047Y-113806009D01*
X111744047Y-113806009D02*
X111696428Y-113758390D01*
X111696428Y-113758390D02*
X111601190Y-113710771D01*
X111601190Y-113710771D02*
X111410714Y-113710771D01*
X111410714Y-113710771D02*
X111315476Y-113758390D01*
X111315476Y-113758390D02*
X111267857Y-113806009D01*
X111267857Y-113806009D02*
X111220238Y-113901247D01*
X149949819Y-124793333D02*
X150664104Y-124793333D01*
X150664104Y-124793333D02*
X150806961Y-124840952D01*
X150806961Y-124840952D02*
X150902200Y-124936190D01*
X150902200Y-124936190D02*
X150949819Y-125079047D01*
X150949819Y-125079047D02*
X150949819Y-125174285D01*
X150378390Y-124174285D02*
X150330771Y-124269523D01*
X150330771Y-124269523D02*
X150283152Y-124317142D01*
X150283152Y-124317142D02*
X150187914Y-124364761D01*
X150187914Y-124364761D02*
X150140295Y-124364761D01*
X150140295Y-124364761D02*
X150045057Y-124317142D01*
X150045057Y-124317142D02*
X149997438Y-124269523D01*
X149997438Y-124269523D02*
X149949819Y-124174285D01*
X149949819Y-124174285D02*
X149949819Y-123983809D01*
X149949819Y-123983809D02*
X149997438Y-123888571D01*
X149997438Y-123888571D02*
X150045057Y-123840952D01*
X150045057Y-123840952D02*
X150140295Y-123793333D01*
X150140295Y-123793333D02*
X150187914Y-123793333D01*
X150187914Y-123793333D02*
X150283152Y-123840952D01*
X150283152Y-123840952D02*
X150330771Y-123888571D01*
X150330771Y-123888571D02*
X150378390Y-123983809D01*
X150378390Y-123983809D02*
X150378390Y-124174285D01*
X150378390Y-124174285D02*
X150426009Y-124269523D01*
X150426009Y-124269523D02*
X150473628Y-124317142D01*
X150473628Y-124317142D02*
X150568866Y-124364761D01*
X150568866Y-124364761D02*
X150759342Y-124364761D01*
X150759342Y-124364761D02*
X150854580Y-124317142D01*
X150854580Y-124317142D02*
X150902200Y-124269523D01*
X150902200Y-124269523D02*
X150949819Y-124174285D01*
X150949819Y-124174285D02*
X150949819Y-123983809D01*
X150949819Y-123983809D02*
X150902200Y-123888571D01*
X150902200Y-123888571D02*
X150854580Y-123840952D01*
X150854580Y-123840952D02*
X150759342Y-123793333D01*
X150759342Y-123793333D02*
X150568866Y-123793333D01*
X150568866Y-123793333D02*
X150473628Y-123840952D01*
X150473628Y-123840952D02*
X150426009Y-123888571D01*
X150426009Y-123888571D02*
X150378390Y-123983809D01*
X173079580Y-113831666D02*
X173127200Y-113879285D01*
X173127200Y-113879285D02*
X173174819Y-114022142D01*
X173174819Y-114022142D02*
X173174819Y-114117380D01*
X173174819Y-114117380D02*
X173127200Y-114260237D01*
X173127200Y-114260237D02*
X173031961Y-114355475D01*
X173031961Y-114355475D02*
X172936723Y-114403094D01*
X172936723Y-114403094D02*
X172746247Y-114450713D01*
X172746247Y-114450713D02*
X172603390Y-114450713D01*
X172603390Y-114450713D02*
X172412914Y-114403094D01*
X172412914Y-114403094D02*
X172317676Y-114355475D01*
X172317676Y-114355475D02*
X172222438Y-114260237D01*
X172222438Y-114260237D02*
X172174819Y-114117380D01*
X172174819Y-114117380D02*
X172174819Y-114022142D01*
X172174819Y-114022142D02*
X172222438Y-113879285D01*
X172222438Y-113879285D02*
X172270057Y-113831666D01*
X173174819Y-112879285D02*
X173174819Y-113450713D01*
X173174819Y-113164999D02*
X172174819Y-113164999D01*
X172174819Y-113164999D02*
X172317676Y-113260237D01*
X172317676Y-113260237D02*
X172412914Y-113355475D01*
X172412914Y-113355475D02*
X172460533Y-113450713D01*
X172384819Y-125221904D02*
X173194342Y-125221904D01*
X173194342Y-125221904D02*
X173289580Y-125174285D01*
X173289580Y-125174285D02*
X173337200Y-125126666D01*
X173337200Y-125126666D02*
X173384819Y-125031428D01*
X173384819Y-125031428D02*
X173384819Y-124840952D01*
X173384819Y-124840952D02*
X173337200Y-124745714D01*
X173337200Y-124745714D02*
X173289580Y-124698095D01*
X173289580Y-124698095D02*
X173194342Y-124650476D01*
X173194342Y-124650476D02*
X172384819Y-124650476D01*
X172718152Y-123745714D02*
X173384819Y-123745714D01*
X172337200Y-123983809D02*
X173051485Y-124221904D01*
X173051485Y-124221904D02*
X173051485Y-123602857D01*
X156003333Y-94024819D02*
X155670000Y-93548628D01*
X155431905Y-94024819D02*
X155431905Y-93024819D01*
X155431905Y-93024819D02*
X155812857Y-93024819D01*
X155812857Y-93024819D02*
X155908095Y-93072438D01*
X155908095Y-93072438D02*
X155955714Y-93120057D01*
X155955714Y-93120057D02*
X156003333Y-93215295D01*
X156003333Y-93215295D02*
X156003333Y-93358152D01*
X156003333Y-93358152D02*
X155955714Y-93453390D01*
X155955714Y-93453390D02*
X155908095Y-93501009D01*
X155908095Y-93501009D02*
X155812857Y-93548628D01*
X155812857Y-93548628D02*
X155431905Y-93548628D01*
X156860476Y-93358152D02*
X156860476Y-94024819D01*
X156622381Y-92977200D02*
X156384286Y-93691485D01*
X156384286Y-93691485D02*
X157003333Y-93691485D01*
X110116666Y-49194819D02*
X110116666Y-49909104D01*
X110116666Y-49909104D02*
X110069047Y-50051961D01*
X110069047Y-50051961D02*
X109973809Y-50147200D01*
X109973809Y-50147200D02*
X109830952Y-50194819D01*
X109830952Y-50194819D02*
X109735714Y-50194819D01*
X111116666Y-50194819D02*
X110545238Y-50194819D01*
X110830952Y-50194819D02*
X110830952Y-49194819D01*
X110830952Y-49194819D02*
X110735714Y-49337676D01*
X110735714Y-49337676D02*
X110640476Y-49432914D01*
X110640476Y-49432914D02*
X110545238Y-49480533D01*
X105711666Y-113329819D02*
X105711666Y-114044104D01*
X105711666Y-114044104D02*
X105664047Y-114186961D01*
X105664047Y-114186961D02*
X105568809Y-114282200D01*
X105568809Y-114282200D02*
X105425952Y-114329819D01*
X105425952Y-114329819D02*
X105330714Y-114329819D01*
X106092619Y-113329819D02*
X106759285Y-113329819D01*
X106759285Y-113329819D02*
X106330714Y-114329819D01*
D10*
X126218095Y-82487419D02*
X126218095Y-83296942D01*
X126218095Y-83296942D02*
X126265714Y-83392180D01*
X126265714Y-83392180D02*
X126313333Y-83439800D01*
X126313333Y-83439800D02*
X126408571Y-83487419D01*
X126408571Y-83487419D02*
X126599047Y-83487419D01*
X126599047Y-83487419D02*
X126694285Y-83439800D01*
X126694285Y-83439800D02*
X126741904Y-83392180D01*
X126741904Y-83392180D02*
X126789523Y-83296942D01*
X126789523Y-83296942D02*
X126789523Y-82487419D01*
X127789523Y-83487419D02*
X127218095Y-83487419D01*
X127503809Y-83487419D02*
X127503809Y-82487419D01*
X127503809Y-82487419D02*
X127408571Y-82630276D01*
X127408571Y-82630276D02*
X127313333Y-82725514D01*
X127313333Y-82725514D02*
X127218095Y-82773133D01*
D12*
%TO.C,J3*%
X146640000Y-117535000D02*
X146640000Y-116205000D01*
X147970000Y-117535000D02*
X146640000Y-117535000D01*
X149240000Y-114875000D02*
X167080000Y-114875000D01*
X149240000Y-117535000D02*
X149240000Y-114875000D01*
X149240000Y-117535000D02*
X167080000Y-117535000D01*
X167080000Y-117535000D02*
X167080000Y-114875000D01*
%TO.C,R6*%
X152900000Y-79670000D02*
X152900000Y-80000000D01*
X152900000Y-82410000D02*
X152900000Y-82080000D01*
X159440000Y-79670000D02*
X152900000Y-79670000D01*
X159440000Y-80000000D02*
X159440000Y-79670000D01*
X159440000Y-82080000D02*
X159440000Y-82410000D01*
X159440000Y-82410000D02*
X152900000Y-82410000D01*
%TO.C,SW3*%
X175950000Y-53150000D02*
X175950000Y-48450000D01*
X177525000Y-48350000D02*
X178075000Y-48350000D01*
X177525000Y-53250000D02*
X178075000Y-53250000D01*
X179650000Y-49375000D02*
X179650000Y-48450000D01*
X179650000Y-53150000D02*
X179650000Y-52225000D01*
%TO.C,U3*%
X176480000Y-105300000D02*
X176480000Y-106950000D01*
X176480000Y-108950000D02*
X176480000Y-110600000D01*
X176480000Y-110600000D02*
X199460000Y-110600000D01*
X199460000Y-105300000D02*
X176480000Y-105300000D01*
X199460000Y-110600000D02*
X199460000Y-105300000D01*
X176480000Y-106950000D02*
G75*
G02*
X176480000Y-108950000I0J-1000000D01*
G01*
%TO.C,SW2*%
X186110000Y-53150000D02*
X186110000Y-48450000D01*
X187685000Y-48350000D02*
X188235000Y-48350000D01*
X187685000Y-53250000D02*
X188235000Y-53250000D01*
X189810000Y-49375000D02*
X189810000Y-48450000D01*
X189810000Y-53150000D02*
X189810000Y-52225000D01*
%TO.C,U2*%
D10*
X163340000Y-63370000D02*
X201240000Y-63370000D01*
X201240000Y-101270000D01*
X163340000Y-101270000D01*
X163340000Y-63370000D01*
D12*
%TO.C,J2*%
X141485000Y-50740000D02*
X142815000Y-50740000D01*
X141485000Y-52070000D02*
X141485000Y-50740000D01*
X141485000Y-53340000D02*
X141485000Y-111820000D01*
X141485000Y-53340000D02*
X144145000Y-53340000D01*
X141485000Y-111820000D02*
X144145000Y-111820000D01*
X144145000Y-53340000D02*
X144145000Y-111820000D01*
%TO.C,SW1*%
X151020000Y-41780000D02*
X151020000Y-43163000D01*
X151020000Y-41780000D02*
X152404000Y-41780000D01*
X151260000Y-42020000D02*
X151260000Y-64641000D01*
X151260000Y-42020000D02*
X161160000Y-42020000D01*
X151260000Y-64641000D02*
X161160000Y-64641000D01*
X154180000Y-43805000D02*
X154180000Y-45075000D01*
X154180000Y-43925000D02*
X155533333Y-43925000D01*
X154180000Y-44045000D02*
X155533333Y-44045000D01*
X154180000Y-44165000D02*
X155533333Y-44165000D01*
X154180000Y-44285000D02*
X155533333Y-44285000D01*
X154180000Y-44405000D02*
X155533333Y-44405000D01*
X154180000Y-44525000D02*
X155533333Y-44525000D01*
X154180000Y-44645000D02*
X155533333Y-44645000D01*
X154180000Y-44765000D02*
X155533333Y-44765000D01*
X154180000Y-44885000D02*
X155533333Y-44885000D01*
X154180000Y-45005000D02*
X155533333Y-45005000D01*
X154180000Y-45075000D02*
X158240000Y-45075000D01*
X154180000Y-46345000D02*
X154180000Y-47615000D01*
X154180000Y-46465000D02*
X155533333Y-46465000D01*
X154180000Y-46585000D02*
X155533333Y-46585000D01*
X154180000Y-46705000D02*
X155533333Y-46705000D01*
X154180000Y-46825000D02*
X155533333Y-46825000D01*
X154180000Y-46945000D02*
X155533333Y-46945000D01*
X154180000Y-47065000D02*
X155533333Y-47065000D01*
X154180000Y-47185000D02*
X155533333Y-47185000D01*
X154180000Y-47305000D02*
X155533333Y-47305000D01*
X154180000Y-47425000D02*
X155533333Y-47425000D01*
X154180000Y-47545000D02*
X155533333Y-47545000D01*
X154180000Y-47615000D02*
X158240000Y-47615000D01*
X154180000Y-48885000D02*
X154180000Y-50155000D01*
X154180000Y-49005000D02*
X155533333Y-49005000D01*
X154180000Y-49125000D02*
X155533333Y-49125000D01*
X154180000Y-49245000D02*
X155533333Y-49245000D01*
X154180000Y-49365000D02*
X155533333Y-49365000D01*
X154180000Y-49485000D02*
X155533333Y-49485000D01*
X154180000Y-49605000D02*
X155533333Y-49605000D01*
X154180000Y-49725000D02*
X155533333Y-49725000D01*
X154180000Y-49845000D02*
X155533333Y-49845000D01*
X154180000Y-49965000D02*
X155533333Y-49965000D01*
X154180000Y-50085000D02*
X155533333Y-50085000D01*
X154180000Y-50155000D02*
X158240000Y-50155000D01*
X154180000Y-51425000D02*
X154180000Y-52695000D01*
X154180000Y-51545000D02*
X155533333Y-51545000D01*
X154180000Y-51665000D02*
X155533333Y-51665000D01*
X154180000Y-51785000D02*
X155533333Y-51785000D01*
X154180000Y-51905000D02*
X155533333Y-51905000D01*
X154180000Y-52025000D02*
X155533333Y-52025000D01*
X154180000Y-52145000D02*
X155533333Y-52145000D01*
X154180000Y-52265000D02*
X155533333Y-52265000D01*
X154180000Y-52385000D02*
X155533333Y-52385000D01*
X154180000Y-52505000D02*
X155533333Y-52505000D01*
X154180000Y-52625000D02*
X155533333Y-52625000D01*
X154180000Y-52695000D02*
X158240000Y-52695000D01*
X154180000Y-53965000D02*
X154180000Y-55235000D01*
X154180000Y-54085000D02*
X155533333Y-54085000D01*
X154180000Y-54205000D02*
X155533333Y-54205000D01*
X154180000Y-54325000D02*
X155533333Y-54325000D01*
X154180000Y-54445000D02*
X155533333Y-54445000D01*
X154180000Y-54565000D02*
X155533333Y-54565000D01*
X154180000Y-54685000D02*
X155533333Y-54685000D01*
X154180000Y-54805000D02*
X155533333Y-54805000D01*
X154180000Y-54925000D02*
X155533333Y-54925000D01*
X154180000Y-55045000D02*
X155533333Y-55045000D01*
X154180000Y-55165000D02*
X155533333Y-55165000D01*
X154180000Y-55235000D02*
X158240000Y-55235000D01*
X154180000Y-56505000D02*
X154180000Y-57775000D01*
X154180000Y-56625000D02*
X155533333Y-56625000D01*
X154180000Y-56745000D02*
X155533333Y-56745000D01*
X154180000Y-56865000D02*
X155533333Y-56865000D01*
X154180000Y-56985000D02*
X155533333Y-56985000D01*
X154180000Y-57105000D02*
X155533333Y-57105000D01*
X154180000Y-57225000D02*
X155533333Y-57225000D01*
X154180000Y-57345000D02*
X155533333Y-57345000D01*
X154180000Y-57465000D02*
X155533333Y-57465000D01*
X154180000Y-57585000D02*
X155533333Y-57585000D01*
X154180000Y-57705000D02*
X155533333Y-57705000D01*
X154180000Y-57775000D02*
X158240000Y-57775000D01*
X154180000Y-59045000D02*
X154180000Y-60315000D01*
X154180000Y-59165000D02*
X155533333Y-59165000D01*
X154180000Y-59285000D02*
X155533333Y-59285000D01*
X154180000Y-59405000D02*
X155533333Y-59405000D01*
X154180000Y-59525000D02*
X155533333Y-59525000D01*
X154180000Y-59645000D02*
X155533333Y-59645000D01*
X154180000Y-59765000D02*
X155533333Y-59765000D01*
X154180000Y-59885000D02*
X155533333Y-59885000D01*
X154180000Y-60005000D02*
X155533333Y-60005000D01*
X154180000Y-60125000D02*
X155533333Y-60125000D01*
X154180000Y-60245000D02*
X155533333Y-60245000D01*
X154180000Y-60315000D02*
X158240000Y-60315000D01*
X154180000Y-61585000D02*
X154180000Y-62855000D01*
X154180000Y-61705000D02*
X155533333Y-61705000D01*
X154180000Y-61825000D02*
X155533333Y-61825000D01*
X154180000Y-61945000D02*
X155533333Y-61945000D01*
X154180000Y-62065000D02*
X155533333Y-62065000D01*
X154180000Y-62185000D02*
X155533333Y-62185000D01*
X154180000Y-62305000D02*
X155533333Y-62305000D01*
X154180000Y-62425000D02*
X155533333Y-62425000D01*
X154180000Y-62545000D02*
X155533333Y-62545000D01*
X154180000Y-62665000D02*
X155533333Y-62665000D01*
X154180000Y-62785000D02*
X155533333Y-62785000D01*
X154180000Y-62855000D02*
X158240000Y-62855000D01*
X155533333Y-43805000D02*
X155533333Y-45075000D01*
X155533333Y-46345000D02*
X155533333Y-47615000D01*
X155533333Y-48885000D02*
X155533333Y-50155000D01*
X155533333Y-51425000D02*
X155533333Y-52695000D01*
X155533333Y-53965000D02*
X155533333Y-55235000D01*
X155533333Y-56505000D02*
X155533333Y-57775000D01*
X155533333Y-59045000D02*
X155533333Y-60315000D01*
X155533333Y-61585000D02*
X155533333Y-62855000D01*
X158240000Y-43805000D02*
X154180000Y-43805000D01*
X158240000Y-45075000D02*
X158240000Y-43805000D01*
X158240000Y-46345000D02*
X154180000Y-46345000D01*
X158240000Y-47615000D02*
X158240000Y-46345000D01*
X158240000Y-48885000D02*
X154180000Y-48885000D01*
X158240000Y-50155000D02*
X158240000Y-48885000D01*
X158240000Y-51425000D02*
X154180000Y-51425000D01*
X158240000Y-52695000D02*
X158240000Y-51425000D01*
X158240000Y-53965000D02*
X154180000Y-53965000D01*
X158240000Y-55235000D02*
X158240000Y-53965000D01*
X158240000Y-56505000D02*
X154180000Y-56505000D01*
X158240000Y-57775000D02*
X158240000Y-56505000D01*
X158240000Y-59045000D02*
X154180000Y-59045000D01*
X158240000Y-60315000D02*
X158240000Y-59045000D01*
X158240000Y-61585000D02*
X154180000Y-61585000D01*
X158240000Y-62855000D02*
X158240000Y-61585000D01*
X161160000Y-42020000D02*
X161160000Y-64641000D01*
%TO.C,R2*%
X152900000Y-99990000D02*
X152900000Y-100320000D01*
X152900000Y-102730000D02*
X152900000Y-102400000D01*
X159440000Y-99990000D02*
X152900000Y-99990000D01*
X159440000Y-100320000D02*
X159440000Y-99990000D01*
X159440000Y-102400000D02*
X159440000Y-102730000D01*
X159440000Y-102730000D02*
X152900000Y-102730000D01*
%TO.C,R1*%
X152900000Y-105070000D02*
X152900000Y-105400000D01*
X152900000Y-107810000D02*
X152900000Y-107480000D01*
X159440000Y-105070000D02*
X152900000Y-105070000D01*
X159440000Y-105400000D02*
X159440000Y-105070000D01*
X159440000Y-107480000D02*
X159440000Y-107810000D01*
X159440000Y-107810000D02*
X152900000Y-107810000D01*
%TO.C,J4*%
X135830000Y-123765000D02*
X137160000Y-123765000D01*
X135830000Y-125095000D02*
X135830000Y-123765000D01*
X135830000Y-126365000D02*
X135830000Y-134045000D01*
X135830000Y-126365000D02*
X138490000Y-126365000D01*
X135830000Y-134045000D02*
X138490000Y-134045000D01*
X138490000Y-126365000D02*
X138490000Y-134045000D01*
%TO.C,J5*%
X116145000Y-123765000D02*
X117475000Y-123765000D01*
X116145000Y-125095000D02*
X116145000Y-123765000D01*
X116145000Y-126365000D02*
X116145000Y-134045000D01*
X116145000Y-126365000D02*
X118805000Y-126365000D01*
X116145000Y-134045000D02*
X118805000Y-134045000D01*
X118805000Y-126365000D02*
X118805000Y-134045000D01*
%TO.C,R7*%
X152900000Y-74590000D02*
X152900000Y-74920000D01*
X152900000Y-77330000D02*
X152900000Y-77000000D01*
X159440000Y-74590000D02*
X152900000Y-74590000D01*
X159440000Y-74920000D02*
X159440000Y-74590000D01*
X159440000Y-77000000D02*
X159440000Y-77330000D01*
X159440000Y-77330000D02*
X152900000Y-77330000D01*
%TO.C,R5*%
X152900000Y-84760000D02*
X152900000Y-85090000D01*
X152900000Y-87500000D02*
X152900000Y-87170000D01*
X159440000Y-84760000D02*
X152900000Y-84760000D01*
X159440000Y-85090000D02*
X159440000Y-84760000D01*
X159440000Y-87170000D02*
X159440000Y-87500000D01*
X159440000Y-87500000D02*
X152900000Y-87500000D01*
%TO.C,SW4*%
X165705000Y-53150000D02*
X165705000Y-48450000D01*
X167280000Y-48350000D02*
X167830000Y-48350000D01*
X167280000Y-53250000D02*
X167830000Y-53250000D01*
X169405000Y-49375000D02*
X169405000Y-48450000D01*
X169405000Y-53150000D02*
X169405000Y-52225000D01*
%TO.C,R8*%
X152900000Y-69510000D02*
X152900000Y-69840000D01*
X152900000Y-72250000D02*
X152900000Y-71920000D01*
X159440000Y-69510000D02*
X152900000Y-69510000D01*
X159440000Y-69840000D02*
X159440000Y-69510000D01*
X159440000Y-71920000D02*
X159440000Y-72250000D01*
X159440000Y-72250000D02*
X152900000Y-72250000D01*
%TO.C,R3*%
X152900000Y-94910000D02*
X152900000Y-95240000D01*
X152900000Y-97650000D02*
X152900000Y-97320000D01*
X159440000Y-94910000D02*
X152900000Y-94910000D01*
X159440000Y-95240000D02*
X159440000Y-94910000D01*
X159440000Y-97320000D02*
X159440000Y-97650000D01*
X159440000Y-97650000D02*
X152900000Y-97650000D01*
%TO.C,J6*%
X109795000Y-114875000D02*
X111125000Y-114875000D01*
X109795000Y-116205000D02*
X109795000Y-114875000D01*
X109795000Y-117475000D02*
X109795000Y-125155000D01*
X109795000Y-117475000D02*
X112455000Y-117475000D01*
X109795000Y-125155000D02*
X112455000Y-125155000D01*
X112455000Y-117475000D02*
X112455000Y-125155000D01*
%TO.C,J8*%
X151705000Y-125790000D02*
X151705000Y-124460000D01*
X153035000Y-125790000D02*
X151705000Y-125790000D01*
X154305000Y-123130000D02*
X167065000Y-123130000D01*
X154305000Y-125790000D02*
X154305000Y-123130000D01*
X154305000Y-125790000D02*
X167065000Y-125790000D01*
X167065000Y-125790000D02*
X167065000Y-123130000D01*
%TO.C,C1*%
X172210000Y-116699420D02*
X172210000Y-116980580D01*
X173230000Y-116699420D02*
X173230000Y-116980580D01*
%TO.C,U4*%
X173930000Y-118000000D02*
X173930000Y-119650000D01*
X173930000Y-121650000D02*
X173930000Y-123300000D01*
X173930000Y-123300000D02*
X194370000Y-123300000D01*
X194370000Y-118000000D02*
X173930000Y-118000000D01*
X194370000Y-123300000D02*
X194370000Y-118000000D01*
X173930000Y-119650000D02*
G75*
G02*
X173930000Y-121650000I0J-1000000D01*
G01*
%TO.C,R4*%
X152900000Y-89830000D02*
X152900000Y-90160000D01*
X152900000Y-92570000D02*
X152900000Y-92240000D01*
X159440000Y-89830000D02*
X152900000Y-89830000D01*
X159440000Y-90160000D02*
X159440000Y-89830000D01*
X159440000Y-92240000D02*
X159440000Y-92570000D01*
X159440000Y-92570000D02*
X152900000Y-92570000D01*
%TO.C,J1*%
X109120000Y-50740000D02*
X110450000Y-50740000D01*
X109120000Y-52070000D02*
X109120000Y-50740000D01*
X109120000Y-53340000D02*
X109120000Y-111820000D01*
X109120000Y-53340000D02*
X111780000Y-53340000D01*
X109120000Y-111820000D02*
X111780000Y-111820000D01*
X111780000Y-53340000D02*
X111780000Y-111820000D01*
%TO.C,J7*%
X104715000Y-114875000D02*
X106045000Y-114875000D01*
X104715000Y-116205000D02*
X104715000Y-114875000D01*
X104715000Y-117475000D02*
X104715000Y-125155000D01*
X104715000Y-117475000D02*
X107375000Y-117475000D01*
X104715000Y-125155000D02*
X107375000Y-125155000D01*
X107375000Y-117475000D02*
X107375000Y-125155000D01*
%TO.C,U1*%
D10*
X113980000Y-49530000D02*
X139980000Y-49530000D01*
X139980000Y-119530000D01*
X113980000Y-119530000D01*
X113980000Y-49530000D01*
%TD*%
M02*
