%TF.GenerationSoftware,KiCad,Pcbnew,8.0.2*%
%TF.CreationDate,2024-08-26T11:56:40+09:00*%
%TF.ProjectId,FPGA_Board_v1,46504741-5f42-46f6-9172-645f76312e6b,rev?*%
%TF.SameCoordinates,Original*%
%TF.FileFunction,Drillmap*%
%TF.FilePolarity,Positive*%
%FSLAX45Y45*%
G04 Gerber Fmt 4.5, Leading zero omitted, Abs format (unit mm)*
G04 Created by KiCad (PCBNEW 8.0.2) date 2024-08-26 11:56:40*
%MOMM*%
%LPD*%
G01*
G04 APERTURE LIST*
%ADD10C,0.050000*%
%ADD11C,0.200000*%
%ADD12C,0.100000*%
%ADD13C,0.102000*%
G04 APERTURE END LIST*
D10*
X10179000Y-3739500D02*
X20179000Y-3739500D01*
X20179000Y-13739500D01*
X10179000Y-13739500D01*
X10179000Y-3739500D01*
D11*
D12*
X16622000Y-5065000D02*
X16652000Y-5095000D01*
X16652000Y-5065000D02*
X16622000Y-5095000D01*
X17130000Y-11732500D02*
X17160000Y-11762500D01*
X17160000Y-11732500D02*
X17130000Y-11762500D01*
X17638000Y-5065000D02*
X17668000Y-5095000D01*
X17668000Y-5065000D02*
X17638000Y-5095000D01*
X18654000Y-5065000D02*
X18684000Y-5095000D01*
X18684000Y-5065000D02*
X18654000Y-5095000D01*
X17365500Y-6812000D02*
G75*
G02*
X17310500Y-6812000I-27500J0D01*
G01*
X17310500Y-6812000D02*
G75*
G02*
X17365500Y-6812000I27500J0D01*
G01*
X17367500Y-9652000D02*
G75*
G02*
X17312500Y-9652000I-27500J0D01*
G01*
X17312500Y-9652000D02*
G75*
G02*
X17367500Y-9652000I27500J0D01*
G01*
X17619500Y-6812000D02*
G75*
G02*
X17564500Y-6812000I-27500J0D01*
G01*
X17564500Y-6812000D02*
G75*
G02*
X17619500Y-6812000I27500J0D01*
G01*
X17621500Y-9652000D02*
G75*
G02*
X17566500Y-9652000I-27500J0D01*
G01*
X17566500Y-9652000D02*
G75*
G02*
X17621500Y-9652000I27500J0D01*
G01*
X17873500Y-6812000D02*
G75*
G02*
X17818500Y-6812000I-27500J0D01*
G01*
X17818500Y-6812000D02*
G75*
G02*
X17873500Y-6812000I27500J0D01*
G01*
X17875500Y-9652000D02*
G75*
G02*
X17820500Y-9652000I-27500J0D01*
G01*
X17820500Y-9652000D02*
G75*
G02*
X17875500Y-9652000I27500J0D01*
G01*
X18127500Y-6812000D02*
G75*
G02*
X18072500Y-6812000I-27500J0D01*
G01*
X18072500Y-6812000D02*
G75*
G02*
X18127500Y-6812000I27500J0D01*
G01*
X18129500Y-9652000D02*
G75*
G02*
X18074500Y-9652000I-27500J0D01*
G01*
X18074500Y-9652000D02*
G75*
G02*
X18129500Y-9652000I27500J0D01*
G01*
X18381500Y-6812000D02*
G75*
G02*
X18326500Y-6812000I-27500J0D01*
G01*
X18326500Y-6812000D02*
G75*
G02*
X18381500Y-6812000I27500J0D01*
G01*
X18383500Y-9652000D02*
G75*
G02*
X18328500Y-9652000I-27500J0D01*
G01*
X18328500Y-9652000D02*
G75*
G02*
X18383500Y-9652000I27500J0D01*
G01*
X18635500Y-6812000D02*
G75*
G02*
X18580500Y-6812000I-27500J0D01*
G01*
X18580500Y-6812000D02*
G75*
G02*
X18635500Y-6812000I27500J0D01*
G01*
X18637500Y-9652000D02*
G75*
G02*
X18582500Y-9652000I-27500J0D01*
G01*
X18582500Y-9652000D02*
G75*
G02*
X18637500Y-9652000I27500J0D01*
G01*
X18889500Y-6812000D02*
G75*
G02*
X18834500Y-6812000I-27500J0D01*
G01*
X18834500Y-6812000D02*
G75*
G02*
X18889500Y-6812000I27500J0D01*
G01*
X18891500Y-9652000D02*
G75*
G02*
X18836500Y-9652000I-27500J0D01*
G01*
X18836500Y-9652000D02*
G75*
G02*
X18891500Y-9652000I27500J0D01*
G01*
X19143500Y-6812000D02*
G75*
G02*
X19088500Y-6812000I-27500J0D01*
G01*
X19088500Y-6812000D02*
G75*
G02*
X19143500Y-6812000I27500J0D01*
G01*
X19145500Y-9652000D02*
G75*
G02*
X19090500Y-9652000I-27500J0D01*
G01*
X19090500Y-9652000D02*
G75*
G02*
X19145500Y-9652000I27500J0D01*
G01*
X15236000Y-7048000D02*
X15236000Y-7128000D01*
X15196000Y-7088000D02*
X15276000Y-7088000D01*
X15236000Y-7556000D02*
X15236000Y-7636000D01*
X15196000Y-7596000D02*
X15276000Y-7596000D01*
X15236000Y-8064000D02*
X15236000Y-8144000D01*
X15196000Y-8104000D02*
X15276000Y-8104000D01*
X15236000Y-8573000D02*
X15236000Y-8653000D01*
X15196000Y-8613000D02*
X15276000Y-8613000D01*
X15236000Y-9080000D02*
X15236000Y-9160000D01*
X15196000Y-9120000D02*
X15276000Y-9120000D01*
X15236000Y-9588000D02*
X15236000Y-9668000D01*
X15196000Y-9628000D02*
X15276000Y-9628000D01*
X15236000Y-10096000D02*
X15236000Y-10176000D01*
X15196000Y-10136000D02*
X15276000Y-10136000D01*
X15236000Y-10604000D02*
X15236000Y-10684000D01*
X15196000Y-10644000D02*
X15276000Y-10644000D01*
X15240000Y-4404000D02*
X15240000Y-4484000D01*
X15200000Y-4444000D02*
X15280000Y-4444000D01*
X15240000Y-4658000D02*
X15240000Y-4738000D01*
X15200000Y-4698000D02*
X15280000Y-4698000D01*
X15240000Y-4912000D02*
X15240000Y-4992000D01*
X15200000Y-4952000D02*
X15280000Y-4952000D01*
X15240000Y-5166000D02*
X15240000Y-5246000D01*
X15200000Y-5206000D02*
X15280000Y-5206000D01*
X15240000Y-5420000D02*
X15240000Y-5500000D01*
X15200000Y-5460000D02*
X15280000Y-5460000D01*
X15240000Y-5674000D02*
X15240000Y-5754000D01*
X15200000Y-5714000D02*
X15280000Y-5714000D01*
X15240000Y-5928000D02*
X15240000Y-6008000D01*
X15200000Y-5968000D02*
X15280000Y-5968000D01*
X15240000Y-6182000D02*
X15240000Y-6262000D01*
X15200000Y-6222000D02*
X15280000Y-6222000D01*
X15998000Y-7048000D02*
X15998000Y-7128000D01*
X15958000Y-7088000D02*
X16038000Y-7088000D01*
X15998000Y-7556000D02*
X15998000Y-7636000D01*
X15958000Y-7596000D02*
X16038000Y-7596000D01*
X15998000Y-8064000D02*
X15998000Y-8144000D01*
X15958000Y-8104000D02*
X16038000Y-8104000D01*
X15998000Y-8573000D02*
X15998000Y-8653000D01*
X15958000Y-8613000D02*
X16038000Y-8613000D01*
X15998000Y-9080000D02*
X15998000Y-9160000D01*
X15958000Y-9120000D02*
X16038000Y-9120000D01*
X15998000Y-9588000D02*
X15998000Y-9668000D01*
X15958000Y-9628000D02*
X16038000Y-9628000D01*
X15998000Y-10096000D02*
X15998000Y-10176000D01*
X15958000Y-10136000D02*
X16038000Y-10136000D01*
X15998000Y-10604000D02*
X15998000Y-10684000D01*
X15958000Y-10644000D02*
X16038000Y-10644000D01*
X16002000Y-4404000D02*
X16002000Y-4484000D01*
X15962000Y-4444000D02*
X16042000Y-4444000D01*
X16002000Y-4658000D02*
X16002000Y-4738000D01*
X15962000Y-4698000D02*
X16042000Y-4698000D01*
X16002000Y-4912000D02*
X16002000Y-4992000D01*
X15962000Y-4952000D02*
X16042000Y-4952000D01*
X16002000Y-5166000D02*
X16002000Y-5246000D01*
X15962000Y-5206000D02*
X16042000Y-5206000D01*
X16002000Y-5420000D02*
X16002000Y-5500000D01*
X15962000Y-5460000D02*
X16042000Y-5460000D01*
X16002000Y-5674000D02*
X16002000Y-5754000D01*
X15962000Y-5714000D02*
X16042000Y-5714000D01*
X16002000Y-5928000D02*
X16002000Y-6008000D01*
X15962000Y-5968000D02*
X16042000Y-5968000D01*
X16002000Y-6182000D02*
X16002000Y-6262000D01*
X15962000Y-6222000D02*
X16042000Y-6222000D01*
X17526000Y-11644000D02*
X17526000Y-11724000D01*
X17486000Y-11684000D02*
X17566000Y-11684000D01*
X17526000Y-12406000D02*
X17526000Y-12486000D01*
X17486000Y-12446000D02*
X17566000Y-12446000D01*
X17780000Y-11644000D02*
X17780000Y-11724000D01*
X17740000Y-11684000D02*
X17820000Y-11684000D01*
X17780000Y-12406000D02*
X17780000Y-12486000D01*
X17740000Y-12446000D02*
X17820000Y-12446000D01*
X17781000Y-10374000D02*
X17781000Y-10454000D01*
X17741000Y-10414000D02*
X17821000Y-10414000D01*
X17781000Y-11136000D02*
X17781000Y-11216000D01*
X17741000Y-11176000D02*
X17821000Y-11176000D01*
X18034000Y-11644000D02*
X18034000Y-11724000D01*
X17994000Y-11684000D02*
X18074000Y-11684000D01*
X18034000Y-12406000D02*
X18034000Y-12486000D01*
X17994000Y-12446000D02*
X18074000Y-12446000D01*
X18035000Y-10374000D02*
X18035000Y-10454000D01*
X17995000Y-10414000D02*
X18075000Y-10414000D01*
X18035000Y-11136000D02*
X18035000Y-11216000D01*
X17995000Y-11176000D02*
X18075000Y-11176000D01*
X18288000Y-11644000D02*
X18288000Y-11724000D01*
X18248000Y-11684000D02*
X18328000Y-11684000D01*
X18288000Y-12406000D02*
X18288000Y-12486000D01*
X18248000Y-12446000D02*
X18328000Y-12446000D01*
X18289000Y-10374000D02*
X18289000Y-10454000D01*
X18249000Y-10414000D02*
X18329000Y-10414000D01*
X18289000Y-11136000D02*
X18289000Y-11216000D01*
X18249000Y-11176000D02*
X18329000Y-11176000D01*
X18542000Y-11644000D02*
X18542000Y-11724000D01*
X18502000Y-11684000D02*
X18582000Y-11684000D01*
X18542000Y-12406000D02*
X18542000Y-12486000D01*
X18502000Y-12446000D02*
X18582000Y-12446000D01*
X18543000Y-10374000D02*
X18543000Y-10454000D01*
X18503000Y-10414000D02*
X18583000Y-10414000D01*
X18543000Y-11136000D02*
X18543000Y-11216000D01*
X18503000Y-11176000D02*
X18583000Y-11176000D01*
X18796000Y-11644000D02*
X18796000Y-11724000D01*
X18756000Y-11684000D02*
X18836000Y-11684000D01*
X18796000Y-12406000D02*
X18796000Y-12486000D01*
X18756000Y-12446000D02*
X18836000Y-12446000D01*
X18797000Y-10374000D02*
X18797000Y-10454000D01*
X18757000Y-10414000D02*
X18837000Y-10414000D01*
X18797000Y-11136000D02*
X18797000Y-11216000D01*
X18757000Y-11176000D02*
X18837000Y-11176000D01*
X19050000Y-11644000D02*
X19050000Y-11724000D01*
X19010000Y-11684000D02*
X19090000Y-11684000D01*
X19050000Y-12406000D02*
X19050000Y-12486000D01*
X19010000Y-12446000D02*
X19090000Y-12446000D01*
X19051000Y-10374000D02*
X19051000Y-10454000D01*
X19011000Y-10414000D02*
X19091000Y-10414000D01*
X19051000Y-11136000D02*
X19051000Y-11216000D01*
X19011000Y-11176000D02*
X19091000Y-11176000D01*
X19304000Y-11644000D02*
X19304000Y-11724000D01*
X19264000Y-11684000D02*
X19344000Y-11684000D01*
X19304000Y-12406000D02*
X19304000Y-12486000D01*
X19264000Y-12446000D02*
X19344000Y-12446000D01*
X19305000Y-10374000D02*
X19305000Y-10454000D01*
X19265000Y-10414000D02*
X19345000Y-10414000D01*
X19305000Y-11136000D02*
X19305000Y-11216000D01*
X19265000Y-11176000D02*
X19345000Y-11176000D01*
X19559000Y-10374000D02*
X19559000Y-10454000D01*
X19519000Y-10414000D02*
X19599000Y-10414000D01*
X19559000Y-11136000D02*
X19559000Y-11216000D01*
X19519000Y-11176000D02*
X19599000Y-11176000D01*
X19813000Y-10374000D02*
X19813000Y-10454000D01*
X19773000Y-10414000D02*
X19853000Y-10414000D01*
X19813000Y-11136000D02*
X19813000Y-11216000D01*
X19773000Y-11176000D02*
X19853000Y-11176000D01*
X10639856Y-11655856D02*
X10639856Y-11585144D01*
X10569144Y-11585144D01*
X10569144Y-11655856D01*
X10639856Y-11655856D01*
X10639856Y-11909856D02*
X10639856Y-11839144D01*
X10569144Y-11839144D01*
X10569144Y-11909856D01*
X10639856Y-11909856D01*
X10639856Y-12163856D02*
X10639856Y-12093144D01*
X10569144Y-12093144D01*
X10569144Y-12163856D01*
X10639856Y-12163856D01*
X10639856Y-12417856D02*
X10639856Y-12347144D01*
X10569144Y-12347144D01*
X10569144Y-12417856D01*
X10639856Y-12417856D01*
X11080356Y-5242356D02*
X11080356Y-5171644D01*
X11009644Y-5171644D01*
X11009644Y-5242356D01*
X11080356Y-5242356D01*
X11080356Y-5496356D02*
X11080356Y-5425644D01*
X11009644Y-5425644D01*
X11009644Y-5496356D01*
X11080356Y-5496356D01*
X11080356Y-5750356D02*
X11080356Y-5679644D01*
X11009644Y-5679644D01*
X11009644Y-5750356D01*
X11080356Y-5750356D01*
X11080356Y-6004356D02*
X11080356Y-5933644D01*
X11009644Y-5933644D01*
X11009644Y-6004356D01*
X11080356Y-6004356D01*
X11080356Y-6258356D02*
X11080356Y-6187644D01*
X11009644Y-6187644D01*
X11009644Y-6258356D01*
X11080356Y-6258356D01*
X11080356Y-6512356D02*
X11080356Y-6441644D01*
X11009644Y-6441644D01*
X11009644Y-6512356D01*
X11080356Y-6512356D01*
X11080356Y-6766356D02*
X11080356Y-6695644D01*
X11009644Y-6695644D01*
X11009644Y-6766356D01*
X11080356Y-6766356D01*
X11080356Y-7020356D02*
X11080356Y-6949644D01*
X11009644Y-6949644D01*
X11009644Y-7020356D01*
X11080356Y-7020356D01*
X11080356Y-7274356D02*
X11080356Y-7203644D01*
X11009644Y-7203644D01*
X11009644Y-7274356D01*
X11080356Y-7274356D01*
X11080356Y-7528356D02*
X11080356Y-7457644D01*
X11009644Y-7457644D01*
X11009644Y-7528356D01*
X11080356Y-7528356D01*
X11080356Y-7782356D02*
X11080356Y-7711644D01*
X11009644Y-7711644D01*
X11009644Y-7782356D01*
X11080356Y-7782356D01*
X11080356Y-8036356D02*
X11080356Y-7965644D01*
X11009644Y-7965644D01*
X11009644Y-8036356D01*
X11080356Y-8036356D01*
X11080356Y-8290356D02*
X11080356Y-8219644D01*
X11009644Y-8219644D01*
X11009644Y-8290356D01*
X11080356Y-8290356D01*
X11080356Y-8544356D02*
X11080356Y-8473644D01*
X11009644Y-8473644D01*
X11009644Y-8544356D01*
X11080356Y-8544356D01*
X11080356Y-8798356D02*
X11080356Y-8727644D01*
X11009644Y-8727644D01*
X11009644Y-8798356D01*
X11080356Y-8798356D01*
X11080356Y-9052356D02*
X11080356Y-8981644D01*
X11009644Y-8981644D01*
X11009644Y-9052356D01*
X11080356Y-9052356D01*
X11080356Y-9306356D02*
X11080356Y-9235644D01*
X11009644Y-9235644D01*
X11009644Y-9306356D01*
X11080356Y-9306356D01*
X11080356Y-9560356D02*
X11080356Y-9489644D01*
X11009644Y-9489644D01*
X11009644Y-9560356D01*
X11080356Y-9560356D01*
X11080356Y-9814356D02*
X11080356Y-9743644D01*
X11009644Y-9743644D01*
X11009644Y-9814356D01*
X11080356Y-9814356D01*
X11080356Y-10068356D02*
X11080356Y-9997644D01*
X11009644Y-9997644D01*
X11009644Y-10068356D01*
X11080356Y-10068356D01*
X11080356Y-10322356D02*
X11080356Y-10251644D01*
X11009644Y-10251644D01*
X11009644Y-10322356D01*
X11080356Y-10322356D01*
X11080356Y-10576356D02*
X11080356Y-10505644D01*
X11009644Y-10505644D01*
X11009644Y-10576356D01*
X11080356Y-10576356D01*
X11080356Y-10830356D02*
X11080356Y-10759644D01*
X11009644Y-10759644D01*
X11009644Y-10830356D01*
X11080356Y-10830356D01*
X11080356Y-11084356D02*
X11080356Y-11013644D01*
X11009644Y-11013644D01*
X11009644Y-11084356D01*
X11080356Y-11084356D01*
X11147856Y-11655856D02*
X11147856Y-11585144D01*
X11077144Y-11585144D01*
X11077144Y-11655856D01*
X11147856Y-11655856D01*
X11147856Y-11909856D02*
X11147856Y-11839144D01*
X11077144Y-11839144D01*
X11077144Y-11909856D01*
X11147856Y-11909856D01*
X11147856Y-12163856D02*
X11147856Y-12093144D01*
X11077144Y-12093144D01*
X11077144Y-12163856D01*
X11147856Y-12163856D01*
X11147856Y-12417856D02*
X11147856Y-12347144D01*
X11077144Y-12347144D01*
X11077144Y-12417856D01*
X11147856Y-12417856D01*
X11782856Y-12544856D02*
X11782856Y-12474144D01*
X11712144Y-12474144D01*
X11712144Y-12544856D01*
X11782856Y-12544856D01*
X11782856Y-12798856D02*
X11782856Y-12728144D01*
X11712144Y-12728144D01*
X11712144Y-12798856D01*
X11782856Y-12798856D01*
X11782856Y-13052856D02*
X11782856Y-12982144D01*
X11712144Y-12982144D01*
X11712144Y-13052856D01*
X11782856Y-13052856D01*
X11782856Y-13306856D02*
X11782856Y-13236144D01*
X11712144Y-13236144D01*
X11712144Y-13306856D01*
X11782856Y-13306856D01*
X13751356Y-12544856D02*
X13751356Y-12474144D01*
X13680644Y-12474144D01*
X13680644Y-12544856D01*
X13751356Y-12544856D01*
X13751356Y-12798856D02*
X13751356Y-12728144D01*
X13680644Y-12728144D01*
X13680644Y-12798856D01*
X13751356Y-12798856D01*
X13751356Y-13052856D02*
X13751356Y-12982144D01*
X13680644Y-12982144D01*
X13680644Y-13052856D01*
X13751356Y-13052856D01*
X13751356Y-13306856D02*
X13751356Y-13236144D01*
X13680644Y-13236144D01*
X13680644Y-13306856D01*
X13751356Y-13306856D01*
X14316856Y-5242356D02*
X14316856Y-5171644D01*
X14246144Y-5171644D01*
X14246144Y-5242356D01*
X14316856Y-5242356D01*
X14316856Y-5496356D02*
X14316856Y-5425644D01*
X14246144Y-5425644D01*
X14246144Y-5496356D01*
X14316856Y-5496356D01*
X14316856Y-5750356D02*
X14316856Y-5679644D01*
X14246144Y-5679644D01*
X14246144Y-5750356D01*
X14316856Y-5750356D01*
X14316856Y-6004356D02*
X14316856Y-5933644D01*
X14246144Y-5933644D01*
X14246144Y-6004356D01*
X14316856Y-6004356D01*
X14316856Y-6258356D02*
X14316856Y-6187644D01*
X14246144Y-6187644D01*
X14246144Y-6258356D01*
X14316856Y-6258356D01*
X14316856Y-6512356D02*
X14316856Y-6441644D01*
X14246144Y-6441644D01*
X14246144Y-6512356D01*
X14316856Y-6512356D01*
X14316856Y-6766356D02*
X14316856Y-6695644D01*
X14246144Y-6695644D01*
X14246144Y-6766356D01*
X14316856Y-6766356D01*
X14316856Y-7020356D02*
X14316856Y-6949644D01*
X14246144Y-6949644D01*
X14246144Y-7020356D01*
X14316856Y-7020356D01*
X14316856Y-7274356D02*
X14316856Y-7203644D01*
X14246144Y-7203644D01*
X14246144Y-7274356D01*
X14316856Y-7274356D01*
X14316856Y-7528356D02*
X14316856Y-7457644D01*
X14246144Y-7457644D01*
X14246144Y-7528356D01*
X14316856Y-7528356D01*
X14316856Y-7782356D02*
X14316856Y-7711644D01*
X14246144Y-7711644D01*
X14246144Y-7782356D01*
X14316856Y-7782356D01*
X14316856Y-8036356D02*
X14316856Y-7965644D01*
X14246144Y-7965644D01*
X14246144Y-8036356D01*
X14316856Y-8036356D01*
X14316856Y-8290356D02*
X14316856Y-8219644D01*
X14246144Y-8219644D01*
X14246144Y-8290356D01*
X14316856Y-8290356D01*
X14316856Y-8544356D02*
X14316856Y-8473644D01*
X14246144Y-8473644D01*
X14246144Y-8544356D01*
X14316856Y-8544356D01*
X14316856Y-8798356D02*
X14316856Y-8727644D01*
X14246144Y-8727644D01*
X14246144Y-8798356D01*
X14316856Y-8798356D01*
X14316856Y-9052356D02*
X14316856Y-8981644D01*
X14246144Y-8981644D01*
X14246144Y-9052356D01*
X14316856Y-9052356D01*
X14316856Y-9306356D02*
X14316856Y-9235644D01*
X14246144Y-9235644D01*
X14246144Y-9306356D01*
X14316856Y-9306356D01*
X14316856Y-9560356D02*
X14316856Y-9489644D01*
X14246144Y-9489644D01*
X14246144Y-9560356D01*
X14316856Y-9560356D01*
X14316856Y-9814356D02*
X14316856Y-9743644D01*
X14246144Y-9743644D01*
X14246144Y-9814356D01*
X14316856Y-9814356D01*
X14316856Y-10068356D02*
X14316856Y-9997644D01*
X14246144Y-9997644D01*
X14246144Y-10068356D01*
X14316856Y-10068356D01*
X14316856Y-10322356D02*
X14316856Y-10251644D01*
X14246144Y-10251644D01*
X14246144Y-10322356D01*
X14316856Y-10322356D01*
X14316856Y-10576356D02*
X14316856Y-10505644D01*
X14246144Y-10505644D01*
X14246144Y-10576356D01*
X14316856Y-10576356D01*
X14316856Y-10830356D02*
X14316856Y-10759644D01*
X14246144Y-10759644D01*
X14246144Y-10830356D01*
X14316856Y-10830356D01*
X14316856Y-11084356D02*
X14316856Y-11013644D01*
X14246144Y-11013644D01*
X14246144Y-11084356D01*
X14316856Y-11084356D01*
X14832356Y-11655856D02*
X14832356Y-11585144D01*
X14761644Y-11585144D01*
X14761644Y-11655856D01*
X14832356Y-11655856D01*
X15086356Y-11655856D02*
X15086356Y-11585144D01*
X15015644Y-11585144D01*
X15015644Y-11655856D01*
X15086356Y-11655856D01*
X15338856Y-12481356D02*
X15338856Y-12410644D01*
X15268144Y-12410644D01*
X15268144Y-12481356D01*
X15338856Y-12481356D01*
X15340356Y-11655856D02*
X15340356Y-11585144D01*
X15269644Y-11585144D01*
X15269644Y-11655856D01*
X15340356Y-11655856D01*
X15592856Y-12481356D02*
X15592856Y-12410644D01*
X15522144Y-12410644D01*
X15522144Y-12481356D01*
X15592856Y-12481356D01*
X15594356Y-11655856D02*
X15594356Y-11585144D01*
X15523644Y-11585144D01*
X15523644Y-11655856D01*
X15594356Y-11655856D01*
X15846856Y-12481356D02*
X15846856Y-12410644D01*
X15776144Y-12410644D01*
X15776144Y-12481356D01*
X15846856Y-12481356D01*
X15848356Y-11655856D02*
X15848356Y-11585144D01*
X15777644Y-11585144D01*
X15777644Y-11655856D01*
X15848356Y-11655856D01*
X16100856Y-12481356D02*
X16100856Y-12410644D01*
X16030144Y-12410644D01*
X16030144Y-12481356D01*
X16100856Y-12481356D01*
X16102356Y-11655856D02*
X16102356Y-11585144D01*
X16031644Y-11585144D01*
X16031644Y-11655856D01*
X16102356Y-11655856D01*
X16354856Y-12481356D02*
X16354856Y-12410644D01*
X16284144Y-12410644D01*
X16284144Y-12481356D01*
X16354856Y-12481356D01*
X16356356Y-11655856D02*
X16356356Y-11585144D01*
X16285644Y-11585144D01*
X16285644Y-11655856D01*
X16356356Y-11655856D01*
X16608856Y-12481356D02*
X16608856Y-12410644D01*
X16538144Y-12410644D01*
X16538144Y-12481356D01*
X16608856Y-12481356D01*
X16610356Y-11655856D02*
X16610356Y-11585144D01*
X16539644Y-11585144D01*
X16539644Y-11655856D01*
X16610356Y-11655856D01*
D13*
X11557000Y-5258000D02*
X11608000Y-5207000D01*
X11557000Y-5156000D01*
X11506000Y-5207000D01*
X11557000Y-5258000D01*
X11557000Y-5512000D02*
X11608000Y-5461000D01*
X11557000Y-5410000D01*
X11506000Y-5461000D01*
X11557000Y-5512000D01*
X11557000Y-5766000D02*
X11608000Y-5715000D01*
X11557000Y-5664000D01*
X11506000Y-5715000D01*
X11557000Y-5766000D01*
X11557000Y-6020000D02*
X11608000Y-5969000D01*
X11557000Y-5918000D01*
X11506000Y-5969000D01*
X11557000Y-6020000D01*
X11557000Y-6274000D02*
X11608000Y-6223000D01*
X11557000Y-6172000D01*
X11506000Y-6223000D01*
X11557000Y-6274000D01*
X11557000Y-6528000D02*
X11608000Y-6477000D01*
X11557000Y-6426000D01*
X11506000Y-6477000D01*
X11557000Y-6528000D01*
X11557000Y-6782000D02*
X11608000Y-6731000D01*
X11557000Y-6680000D01*
X11506000Y-6731000D01*
X11557000Y-6782000D01*
X11557000Y-7036000D02*
X11608000Y-6985000D01*
X11557000Y-6934000D01*
X11506000Y-6985000D01*
X11557000Y-7036000D01*
X11557000Y-7290000D02*
X11608000Y-7239000D01*
X11557000Y-7188000D01*
X11506000Y-7239000D01*
X11557000Y-7290000D01*
X11557000Y-7544000D02*
X11608000Y-7493000D01*
X11557000Y-7442000D01*
X11506000Y-7493000D01*
X11557000Y-7544000D01*
X11557000Y-7798000D02*
X11608000Y-7747000D01*
X11557000Y-7696000D01*
X11506000Y-7747000D01*
X11557000Y-7798000D01*
X11557000Y-8052000D02*
X11608000Y-8001000D01*
X11557000Y-7950000D01*
X11506000Y-8001000D01*
X11557000Y-8052000D01*
X11557000Y-8306000D02*
X11608000Y-8255000D01*
X11557000Y-8204000D01*
X11506000Y-8255000D01*
X11557000Y-8306000D01*
X11557000Y-8560000D02*
X11608000Y-8509000D01*
X11557000Y-8458000D01*
X11506000Y-8509000D01*
X11557000Y-8560000D01*
X11557000Y-8814000D02*
X11608000Y-8763000D01*
X11557000Y-8712000D01*
X11506000Y-8763000D01*
X11557000Y-8814000D01*
X11557000Y-9068000D02*
X11608000Y-9017000D01*
X11557000Y-8966000D01*
X11506000Y-9017000D01*
X11557000Y-9068000D01*
X11557000Y-9322000D02*
X11608000Y-9271000D01*
X11557000Y-9220000D01*
X11506000Y-9271000D01*
X11557000Y-9322000D01*
X11557000Y-9576000D02*
X11608000Y-9525000D01*
X11557000Y-9474000D01*
X11506000Y-9525000D01*
X11557000Y-9576000D01*
X11557000Y-9830000D02*
X11608000Y-9779000D01*
X11557000Y-9728000D01*
X11506000Y-9779000D01*
X11557000Y-9830000D01*
X11557000Y-10084000D02*
X11608000Y-10033000D01*
X11557000Y-9982000D01*
X11506000Y-10033000D01*
X11557000Y-10084000D01*
X11557000Y-10338000D02*
X11608000Y-10287000D01*
X11557000Y-10236000D01*
X11506000Y-10287000D01*
X11557000Y-10338000D01*
X11557000Y-10592000D02*
X11608000Y-10541000D01*
X11557000Y-10490000D01*
X11506000Y-10541000D01*
X11557000Y-10592000D01*
X11557000Y-10846000D02*
X11608000Y-10795000D01*
X11557000Y-10744000D01*
X11506000Y-10795000D01*
X11557000Y-10846000D01*
X11557000Y-11100000D02*
X11608000Y-11049000D01*
X11557000Y-10998000D01*
X11506000Y-11049000D01*
X11557000Y-11100000D01*
X13839000Y-5258000D02*
X13890000Y-5207000D01*
X13839000Y-5156000D01*
X13788000Y-5207000D01*
X13839000Y-5258000D01*
X13839000Y-5512000D02*
X13890000Y-5461000D01*
X13839000Y-5410000D01*
X13788000Y-5461000D01*
X13839000Y-5512000D01*
X13839000Y-5766000D02*
X13890000Y-5715000D01*
X13839000Y-5664000D01*
X13788000Y-5715000D01*
X13839000Y-5766000D01*
X13839000Y-6020000D02*
X13890000Y-5969000D01*
X13839000Y-5918000D01*
X13788000Y-5969000D01*
X13839000Y-6020000D01*
X13839000Y-6274000D02*
X13890000Y-6223000D01*
X13839000Y-6172000D01*
X13788000Y-6223000D01*
X13839000Y-6274000D01*
X13839000Y-6528000D02*
X13890000Y-6477000D01*
X13839000Y-6426000D01*
X13788000Y-6477000D01*
X13839000Y-6528000D01*
X13839000Y-6782000D02*
X13890000Y-6731000D01*
X13839000Y-6680000D01*
X13788000Y-6731000D01*
X13839000Y-6782000D01*
X13839000Y-7036000D02*
X13890000Y-6985000D01*
X13839000Y-6934000D01*
X13788000Y-6985000D01*
X13839000Y-7036000D01*
X13839000Y-7290000D02*
X13890000Y-7239000D01*
X13839000Y-7188000D01*
X13788000Y-7239000D01*
X13839000Y-7290000D01*
X13839000Y-7544000D02*
X13890000Y-7493000D01*
X13839000Y-7442000D01*
X13788000Y-7493000D01*
X13839000Y-7544000D01*
X13839000Y-7798000D02*
X13890000Y-7747000D01*
X13839000Y-7696000D01*
X13788000Y-7747000D01*
X13839000Y-7798000D01*
X13839000Y-8052000D02*
X13890000Y-8001000D01*
X13839000Y-7950000D01*
X13788000Y-8001000D01*
X13839000Y-8052000D01*
X13839000Y-8306000D02*
X13890000Y-8255000D01*
X13839000Y-8204000D01*
X13788000Y-8255000D01*
X13839000Y-8306000D01*
X13839000Y-8560000D02*
X13890000Y-8509000D01*
X13839000Y-8458000D01*
X13788000Y-8509000D01*
X13839000Y-8560000D01*
X13839000Y-8814000D02*
X13890000Y-8763000D01*
X13839000Y-8712000D01*
X13788000Y-8763000D01*
X13839000Y-8814000D01*
X13839000Y-9068000D02*
X13890000Y-9017000D01*
X13839000Y-8966000D01*
X13788000Y-9017000D01*
X13839000Y-9068000D01*
X13839000Y-9322000D02*
X13890000Y-9271000D01*
X13839000Y-9220000D01*
X13788000Y-9271000D01*
X13839000Y-9322000D01*
X13839000Y-9576000D02*
X13890000Y-9525000D01*
X13839000Y-9474000D01*
X13788000Y-9525000D01*
X13839000Y-9576000D01*
X13839000Y-9830000D02*
X13890000Y-9779000D01*
X13839000Y-9728000D01*
X13788000Y-9779000D01*
X13839000Y-9830000D01*
X13839000Y-10084000D02*
X13890000Y-10033000D01*
X13839000Y-9982000D01*
X13788000Y-10033000D01*
X13839000Y-10084000D01*
X13839000Y-10338000D02*
X13890000Y-10287000D01*
X13839000Y-10236000D01*
X13788000Y-10287000D01*
X13839000Y-10338000D01*
X13839000Y-10592000D02*
X13890000Y-10541000D01*
X13839000Y-10490000D01*
X13788000Y-10541000D01*
X13839000Y-10592000D01*
X13839000Y-10846000D02*
X13890000Y-10795000D01*
X13839000Y-10744000D01*
X13788000Y-10795000D01*
X13839000Y-10846000D01*
X13839000Y-11100000D02*
X13890000Y-11049000D01*
X13839000Y-10998000D01*
X13788000Y-11049000D01*
X13839000Y-11100000D01*
D11*
X10437277Y-14053484D02*
X10437277Y-13853484D01*
X10437277Y-13853484D02*
X10484896Y-13853484D01*
X10484896Y-13853484D02*
X10513467Y-13863008D01*
X10513467Y-13863008D02*
X10532515Y-13882055D01*
X10532515Y-13882055D02*
X10542039Y-13901103D01*
X10542039Y-13901103D02*
X10551563Y-13939198D01*
X10551563Y-13939198D02*
X10551563Y-13967769D01*
X10551563Y-13967769D02*
X10542039Y-14005865D01*
X10542039Y-14005865D02*
X10532515Y-14024912D01*
X10532515Y-14024912D02*
X10513467Y-14043960D01*
X10513467Y-14043960D02*
X10484896Y-14053484D01*
X10484896Y-14053484D02*
X10437277Y-14053484D01*
X10637277Y-14053484D02*
X10637277Y-13920150D01*
X10637277Y-13958246D02*
X10646801Y-13939198D01*
X10646801Y-13939198D02*
X10656324Y-13929674D01*
X10656324Y-13929674D02*
X10675372Y-13920150D01*
X10675372Y-13920150D02*
X10694420Y-13920150D01*
X10761086Y-14053484D02*
X10761086Y-13920150D01*
X10761086Y-13853484D02*
X10751563Y-13863008D01*
X10751563Y-13863008D02*
X10761086Y-13872531D01*
X10761086Y-13872531D02*
X10770610Y-13863008D01*
X10770610Y-13863008D02*
X10761086Y-13853484D01*
X10761086Y-13853484D02*
X10761086Y-13872531D01*
X10884896Y-14053484D02*
X10865848Y-14043960D01*
X10865848Y-14043960D02*
X10856324Y-14024912D01*
X10856324Y-14024912D02*
X10856324Y-13853484D01*
X10989658Y-14053484D02*
X10970610Y-14043960D01*
X10970610Y-14043960D02*
X10961086Y-14024912D01*
X10961086Y-14024912D02*
X10961086Y-13853484D01*
X11218229Y-14053484D02*
X11218229Y-13853484D01*
X11218229Y-13853484D02*
X11284896Y-13996341D01*
X11284896Y-13996341D02*
X11351562Y-13853484D01*
X11351562Y-13853484D02*
X11351562Y-14053484D01*
X11532515Y-14053484D02*
X11532515Y-13948722D01*
X11532515Y-13948722D02*
X11522991Y-13929674D01*
X11522991Y-13929674D02*
X11503943Y-13920150D01*
X11503943Y-13920150D02*
X11465848Y-13920150D01*
X11465848Y-13920150D02*
X11446801Y-13929674D01*
X11532515Y-14043960D02*
X11513467Y-14053484D01*
X11513467Y-14053484D02*
X11465848Y-14053484D01*
X11465848Y-14053484D02*
X11446801Y-14043960D01*
X11446801Y-14043960D02*
X11437277Y-14024912D01*
X11437277Y-14024912D02*
X11437277Y-14005865D01*
X11437277Y-14005865D02*
X11446801Y-13986817D01*
X11446801Y-13986817D02*
X11465848Y-13977293D01*
X11465848Y-13977293D02*
X11513467Y-13977293D01*
X11513467Y-13977293D02*
X11532515Y-13967769D01*
X11627753Y-13920150D02*
X11627753Y-14120150D01*
X11627753Y-13929674D02*
X11646801Y-13920150D01*
X11646801Y-13920150D02*
X11684896Y-13920150D01*
X11684896Y-13920150D02*
X11703943Y-13929674D01*
X11703943Y-13929674D02*
X11713467Y-13939198D01*
X11713467Y-13939198D02*
X11722991Y-13958246D01*
X11722991Y-13958246D02*
X11722991Y-14015388D01*
X11722991Y-14015388D02*
X11713467Y-14034436D01*
X11713467Y-14034436D02*
X11703943Y-14043960D01*
X11703943Y-14043960D02*
X11684896Y-14053484D01*
X11684896Y-14053484D02*
X11646801Y-14053484D01*
X11646801Y-14053484D02*
X11627753Y-14043960D01*
X11808705Y-14034436D02*
X11818229Y-14043960D01*
X11818229Y-14043960D02*
X11808705Y-14053484D01*
X11808705Y-14053484D02*
X11799182Y-14043960D01*
X11799182Y-14043960D02*
X11808705Y-14034436D01*
X11808705Y-14034436D02*
X11808705Y-14053484D01*
X11808705Y-13929674D02*
X11818229Y-13939198D01*
X11818229Y-13939198D02*
X11808705Y-13948722D01*
X11808705Y-13948722D02*
X11799182Y-13939198D01*
X11799182Y-13939198D02*
X11808705Y-13929674D01*
X11808705Y-13929674D02*
X11808705Y-13948722D01*
D12*
X10146500Y-14367000D02*
X10176500Y-14397000D01*
X10176500Y-14367000D02*
X10146500Y-14397000D01*
D11*
X10475372Y-14273484D02*
X10494420Y-14273484D01*
X10494420Y-14273484D02*
X10513467Y-14283008D01*
X10513467Y-14283008D02*
X10522991Y-14292531D01*
X10522991Y-14292531D02*
X10532515Y-14311579D01*
X10532515Y-14311579D02*
X10542039Y-14349674D01*
X10542039Y-14349674D02*
X10542039Y-14397293D01*
X10542039Y-14397293D02*
X10532515Y-14435388D01*
X10532515Y-14435388D02*
X10522991Y-14454436D01*
X10522991Y-14454436D02*
X10513467Y-14463960D01*
X10513467Y-14463960D02*
X10494420Y-14473484D01*
X10494420Y-14473484D02*
X10475372Y-14473484D01*
X10475372Y-14473484D02*
X10456324Y-14463960D01*
X10456324Y-14463960D02*
X10446801Y-14454436D01*
X10446801Y-14454436D02*
X10437277Y-14435388D01*
X10437277Y-14435388D02*
X10427753Y-14397293D01*
X10427753Y-14397293D02*
X10427753Y-14349674D01*
X10427753Y-14349674D02*
X10437277Y-14311579D01*
X10437277Y-14311579D02*
X10446801Y-14292531D01*
X10446801Y-14292531D02*
X10456324Y-14283008D01*
X10456324Y-14283008D02*
X10475372Y-14273484D01*
X10627753Y-14454436D02*
X10637277Y-14463960D01*
X10637277Y-14463960D02*
X10627753Y-14473484D01*
X10627753Y-14473484D02*
X10618229Y-14463960D01*
X10618229Y-14463960D02*
X10627753Y-14454436D01*
X10627753Y-14454436D02*
X10627753Y-14473484D01*
X10703944Y-14273484D02*
X10827753Y-14273484D01*
X10827753Y-14273484D02*
X10761086Y-14349674D01*
X10761086Y-14349674D02*
X10789658Y-14349674D01*
X10789658Y-14349674D02*
X10808705Y-14359198D01*
X10808705Y-14359198D02*
X10818229Y-14368722D01*
X10818229Y-14368722D02*
X10827753Y-14387769D01*
X10827753Y-14387769D02*
X10827753Y-14435388D01*
X10827753Y-14435388D02*
X10818229Y-14454436D01*
X10818229Y-14454436D02*
X10808705Y-14463960D01*
X10808705Y-14463960D02*
X10789658Y-14473484D01*
X10789658Y-14473484D02*
X10732515Y-14473484D01*
X10732515Y-14473484D02*
X10713467Y-14463960D01*
X10713467Y-14463960D02*
X10703944Y-14454436D01*
X10951563Y-14273484D02*
X10970610Y-14273484D01*
X10970610Y-14273484D02*
X10989658Y-14283008D01*
X10989658Y-14283008D02*
X10999182Y-14292531D01*
X10999182Y-14292531D02*
X11008705Y-14311579D01*
X11008705Y-14311579D02*
X11018229Y-14349674D01*
X11018229Y-14349674D02*
X11018229Y-14397293D01*
X11018229Y-14397293D02*
X11008705Y-14435388D01*
X11008705Y-14435388D02*
X10999182Y-14454436D01*
X10999182Y-14454436D02*
X10989658Y-14463960D01*
X10989658Y-14463960D02*
X10970610Y-14473484D01*
X10970610Y-14473484D02*
X10951563Y-14473484D01*
X10951563Y-14473484D02*
X10932515Y-14463960D01*
X10932515Y-14463960D02*
X10922991Y-14454436D01*
X10922991Y-14454436D02*
X10913467Y-14435388D01*
X10913467Y-14435388D02*
X10903944Y-14397293D01*
X10903944Y-14397293D02*
X10903944Y-14349674D01*
X10903944Y-14349674D02*
X10913467Y-14311579D01*
X10913467Y-14311579D02*
X10922991Y-14292531D01*
X10922991Y-14292531D02*
X10932515Y-14283008D01*
X10932515Y-14283008D02*
X10951563Y-14273484D01*
X11142039Y-14273484D02*
X11161086Y-14273484D01*
X11161086Y-14273484D02*
X11180134Y-14283008D01*
X11180134Y-14283008D02*
X11189658Y-14292531D01*
X11189658Y-14292531D02*
X11199182Y-14311579D01*
X11199182Y-14311579D02*
X11208705Y-14349674D01*
X11208705Y-14349674D02*
X11208705Y-14397293D01*
X11208705Y-14397293D02*
X11199182Y-14435388D01*
X11199182Y-14435388D02*
X11189658Y-14454436D01*
X11189658Y-14454436D02*
X11180134Y-14463960D01*
X11180134Y-14463960D02*
X11161086Y-14473484D01*
X11161086Y-14473484D02*
X11142039Y-14473484D01*
X11142039Y-14473484D02*
X11122991Y-14463960D01*
X11122991Y-14463960D02*
X11113467Y-14454436D01*
X11113467Y-14454436D02*
X11103944Y-14435388D01*
X11103944Y-14435388D02*
X11094420Y-14397293D01*
X11094420Y-14397293D02*
X11094420Y-14349674D01*
X11094420Y-14349674D02*
X11103944Y-14311579D01*
X11103944Y-14311579D02*
X11113467Y-14292531D01*
X11113467Y-14292531D02*
X11122991Y-14283008D01*
X11122991Y-14283008D02*
X11142039Y-14273484D01*
X11294420Y-14473484D02*
X11294420Y-14340150D01*
X11294420Y-14359198D02*
X11303943Y-14349674D01*
X11303943Y-14349674D02*
X11322991Y-14340150D01*
X11322991Y-14340150D02*
X11351563Y-14340150D01*
X11351563Y-14340150D02*
X11370610Y-14349674D01*
X11370610Y-14349674D02*
X11380134Y-14368722D01*
X11380134Y-14368722D02*
X11380134Y-14473484D01*
X11380134Y-14368722D02*
X11389658Y-14349674D01*
X11389658Y-14349674D02*
X11408705Y-14340150D01*
X11408705Y-14340150D02*
X11437277Y-14340150D01*
X11437277Y-14340150D02*
X11456324Y-14349674D01*
X11456324Y-14349674D02*
X11465848Y-14368722D01*
X11465848Y-14368722D02*
X11465848Y-14473484D01*
X11561086Y-14473484D02*
X11561086Y-14340150D01*
X11561086Y-14359198D02*
X11570610Y-14349674D01*
X11570610Y-14349674D02*
X11589658Y-14340150D01*
X11589658Y-14340150D02*
X11618229Y-14340150D01*
X11618229Y-14340150D02*
X11637277Y-14349674D01*
X11637277Y-14349674D02*
X11646801Y-14368722D01*
X11646801Y-14368722D02*
X11646801Y-14473484D01*
X11646801Y-14368722D02*
X11656324Y-14349674D01*
X11656324Y-14349674D02*
X11675372Y-14340150D01*
X11675372Y-14340150D02*
X11703943Y-14340150D01*
X11703943Y-14340150D02*
X11722991Y-14349674D01*
X11722991Y-14349674D02*
X11732515Y-14368722D01*
X11732515Y-14368722D02*
X11732515Y-14473484D01*
X12122991Y-14263960D02*
X11951563Y-14521103D01*
X12380134Y-14273484D02*
X12399182Y-14273484D01*
X12399182Y-14273484D02*
X12418229Y-14283008D01*
X12418229Y-14283008D02*
X12427753Y-14292531D01*
X12427753Y-14292531D02*
X12437277Y-14311579D01*
X12437277Y-14311579D02*
X12446801Y-14349674D01*
X12446801Y-14349674D02*
X12446801Y-14397293D01*
X12446801Y-14397293D02*
X12437277Y-14435388D01*
X12437277Y-14435388D02*
X12427753Y-14454436D01*
X12427753Y-14454436D02*
X12418229Y-14463960D01*
X12418229Y-14463960D02*
X12399182Y-14473484D01*
X12399182Y-14473484D02*
X12380134Y-14473484D01*
X12380134Y-14473484D02*
X12361086Y-14463960D01*
X12361086Y-14463960D02*
X12351563Y-14454436D01*
X12351563Y-14454436D02*
X12342039Y-14435388D01*
X12342039Y-14435388D02*
X12332515Y-14397293D01*
X12332515Y-14397293D02*
X12332515Y-14349674D01*
X12332515Y-14349674D02*
X12342039Y-14311579D01*
X12342039Y-14311579D02*
X12351563Y-14292531D01*
X12351563Y-14292531D02*
X12361086Y-14283008D01*
X12361086Y-14283008D02*
X12380134Y-14273484D01*
X12532515Y-14454436D02*
X12542039Y-14463960D01*
X12542039Y-14463960D02*
X12532515Y-14473484D01*
X12532515Y-14473484D02*
X12522991Y-14463960D01*
X12522991Y-14463960D02*
X12532515Y-14454436D01*
X12532515Y-14454436D02*
X12532515Y-14473484D01*
X12665848Y-14273484D02*
X12684896Y-14273484D01*
X12684896Y-14273484D02*
X12703944Y-14283008D01*
X12703944Y-14283008D02*
X12713467Y-14292531D01*
X12713467Y-14292531D02*
X12722991Y-14311579D01*
X12722991Y-14311579D02*
X12732515Y-14349674D01*
X12732515Y-14349674D02*
X12732515Y-14397293D01*
X12732515Y-14397293D02*
X12722991Y-14435388D01*
X12722991Y-14435388D02*
X12713467Y-14454436D01*
X12713467Y-14454436D02*
X12703944Y-14463960D01*
X12703944Y-14463960D02*
X12684896Y-14473484D01*
X12684896Y-14473484D02*
X12665848Y-14473484D01*
X12665848Y-14473484D02*
X12646801Y-14463960D01*
X12646801Y-14463960D02*
X12637277Y-14454436D01*
X12637277Y-14454436D02*
X12627753Y-14435388D01*
X12627753Y-14435388D02*
X12618229Y-14397293D01*
X12618229Y-14397293D02*
X12618229Y-14349674D01*
X12618229Y-14349674D02*
X12627753Y-14311579D01*
X12627753Y-14311579D02*
X12637277Y-14292531D01*
X12637277Y-14292531D02*
X12646801Y-14283008D01*
X12646801Y-14283008D02*
X12665848Y-14273484D01*
X12922991Y-14473484D02*
X12808706Y-14473484D01*
X12865848Y-14473484D02*
X12865848Y-14273484D01*
X12865848Y-14273484D02*
X12846801Y-14302055D01*
X12846801Y-14302055D02*
X12827753Y-14321103D01*
X12827753Y-14321103D02*
X12808706Y-14330627D01*
X13113467Y-14473484D02*
X12999182Y-14473484D01*
X13056325Y-14473484D02*
X13056325Y-14273484D01*
X13056325Y-14273484D02*
X13037277Y-14302055D01*
X13037277Y-14302055D02*
X13018229Y-14321103D01*
X13018229Y-14321103D02*
X12999182Y-14330627D01*
X13227753Y-14359198D02*
X13208706Y-14349674D01*
X13208706Y-14349674D02*
X13199182Y-14340150D01*
X13199182Y-14340150D02*
X13189658Y-14321103D01*
X13189658Y-14321103D02*
X13189658Y-14311579D01*
X13189658Y-14311579D02*
X13199182Y-14292531D01*
X13199182Y-14292531D02*
X13208706Y-14283008D01*
X13208706Y-14283008D02*
X13227753Y-14273484D01*
X13227753Y-14273484D02*
X13265848Y-14273484D01*
X13265848Y-14273484D02*
X13284896Y-14283008D01*
X13284896Y-14283008D02*
X13294420Y-14292531D01*
X13294420Y-14292531D02*
X13303944Y-14311579D01*
X13303944Y-14311579D02*
X13303944Y-14321103D01*
X13303944Y-14321103D02*
X13294420Y-14340150D01*
X13294420Y-14340150D02*
X13284896Y-14349674D01*
X13284896Y-14349674D02*
X13265848Y-14359198D01*
X13265848Y-14359198D02*
X13227753Y-14359198D01*
X13227753Y-14359198D02*
X13208706Y-14368722D01*
X13208706Y-14368722D02*
X13199182Y-14378246D01*
X13199182Y-14378246D02*
X13189658Y-14397293D01*
X13189658Y-14397293D02*
X13189658Y-14435388D01*
X13189658Y-14435388D02*
X13199182Y-14454436D01*
X13199182Y-14454436D02*
X13208706Y-14463960D01*
X13208706Y-14463960D02*
X13227753Y-14473484D01*
X13227753Y-14473484D02*
X13265848Y-14473484D01*
X13265848Y-14473484D02*
X13284896Y-14463960D01*
X13284896Y-14463960D02*
X13294420Y-14454436D01*
X13294420Y-14454436D02*
X13303944Y-14435388D01*
X13303944Y-14435388D02*
X13303944Y-14397293D01*
X13303944Y-14397293D02*
X13294420Y-14378246D01*
X13294420Y-14378246D02*
X13284896Y-14368722D01*
X13284896Y-14368722D02*
X13265848Y-14359198D01*
X13380134Y-14273484D02*
X13380134Y-14311579D01*
X13456325Y-14273484D02*
X13456325Y-14311579D01*
X13751563Y-14549674D02*
X13742039Y-14540150D01*
X13742039Y-14540150D02*
X13722991Y-14511579D01*
X13722991Y-14511579D02*
X13713468Y-14492531D01*
X13713468Y-14492531D02*
X13703944Y-14463960D01*
X13703944Y-14463960D02*
X13694420Y-14416341D01*
X13694420Y-14416341D02*
X13694420Y-14378246D01*
X13694420Y-14378246D02*
X13703944Y-14330627D01*
X13703944Y-14330627D02*
X13713468Y-14302055D01*
X13713468Y-14302055D02*
X13722991Y-14283008D01*
X13722991Y-14283008D02*
X13742039Y-14254436D01*
X13742039Y-14254436D02*
X13751563Y-14244912D01*
X13913468Y-14340150D02*
X13913468Y-14473484D01*
X13865848Y-14263960D02*
X13818229Y-14406817D01*
X13818229Y-14406817D02*
X13942039Y-14406817D01*
X14170610Y-14473484D02*
X14170610Y-14273484D01*
X14256325Y-14473484D02*
X14256325Y-14368722D01*
X14256325Y-14368722D02*
X14246801Y-14349674D01*
X14246801Y-14349674D02*
X14227753Y-14340150D01*
X14227753Y-14340150D02*
X14199182Y-14340150D01*
X14199182Y-14340150D02*
X14180134Y-14349674D01*
X14180134Y-14349674D02*
X14170610Y-14359198D01*
X14380134Y-14473484D02*
X14361087Y-14463960D01*
X14361087Y-14463960D02*
X14351563Y-14454436D01*
X14351563Y-14454436D02*
X14342039Y-14435388D01*
X14342039Y-14435388D02*
X14342039Y-14378246D01*
X14342039Y-14378246D02*
X14351563Y-14359198D01*
X14351563Y-14359198D02*
X14361087Y-14349674D01*
X14361087Y-14349674D02*
X14380134Y-14340150D01*
X14380134Y-14340150D02*
X14408706Y-14340150D01*
X14408706Y-14340150D02*
X14427753Y-14349674D01*
X14427753Y-14349674D02*
X14437277Y-14359198D01*
X14437277Y-14359198D02*
X14446801Y-14378246D01*
X14446801Y-14378246D02*
X14446801Y-14435388D01*
X14446801Y-14435388D02*
X14437277Y-14454436D01*
X14437277Y-14454436D02*
X14427753Y-14463960D01*
X14427753Y-14463960D02*
X14408706Y-14473484D01*
X14408706Y-14473484D02*
X14380134Y-14473484D01*
X14561087Y-14473484D02*
X14542039Y-14463960D01*
X14542039Y-14463960D02*
X14532515Y-14444912D01*
X14532515Y-14444912D02*
X14532515Y-14273484D01*
X14713468Y-14463960D02*
X14694420Y-14473484D01*
X14694420Y-14473484D02*
X14656325Y-14473484D01*
X14656325Y-14473484D02*
X14637277Y-14463960D01*
X14637277Y-14463960D02*
X14627753Y-14444912D01*
X14627753Y-14444912D02*
X14627753Y-14368722D01*
X14627753Y-14368722D02*
X14637277Y-14349674D01*
X14637277Y-14349674D02*
X14656325Y-14340150D01*
X14656325Y-14340150D02*
X14694420Y-14340150D01*
X14694420Y-14340150D02*
X14713468Y-14349674D01*
X14713468Y-14349674D02*
X14722991Y-14368722D01*
X14722991Y-14368722D02*
X14722991Y-14387769D01*
X14722991Y-14387769D02*
X14627753Y-14406817D01*
X14799182Y-14463960D02*
X14818230Y-14473484D01*
X14818230Y-14473484D02*
X14856325Y-14473484D01*
X14856325Y-14473484D02*
X14875372Y-14463960D01*
X14875372Y-14463960D02*
X14884896Y-14444912D01*
X14884896Y-14444912D02*
X14884896Y-14435388D01*
X14884896Y-14435388D02*
X14875372Y-14416341D01*
X14875372Y-14416341D02*
X14856325Y-14406817D01*
X14856325Y-14406817D02*
X14827753Y-14406817D01*
X14827753Y-14406817D02*
X14808706Y-14397293D01*
X14808706Y-14397293D02*
X14799182Y-14378246D01*
X14799182Y-14378246D02*
X14799182Y-14368722D01*
X14799182Y-14368722D02*
X14808706Y-14349674D01*
X14808706Y-14349674D02*
X14827753Y-14340150D01*
X14827753Y-14340150D02*
X14856325Y-14340150D01*
X14856325Y-14340150D02*
X14875372Y-14349674D01*
X14951563Y-14549674D02*
X14961087Y-14540150D01*
X14961087Y-14540150D02*
X14980134Y-14511579D01*
X14980134Y-14511579D02*
X14989658Y-14492531D01*
X14989658Y-14492531D02*
X14999182Y-14463960D01*
X14999182Y-14463960D02*
X15008706Y-14416341D01*
X15008706Y-14416341D02*
X15008706Y-14378246D01*
X15008706Y-14378246D02*
X14999182Y-14330627D01*
X14999182Y-14330627D02*
X14989658Y-14302055D01*
X14989658Y-14302055D02*
X14980134Y-14283008D01*
X14980134Y-14283008D02*
X14961087Y-14254436D01*
X14961087Y-14254436D02*
X14951563Y-14244912D01*
D12*
X10176500Y-14646000D02*
G75*
G02*
X10121500Y-14646000I-27500J0D01*
G01*
X10121500Y-14646000D02*
G75*
G02*
X10176500Y-14646000I27500J0D01*
G01*
D11*
X10475372Y-14537484D02*
X10494420Y-14537484D01*
X10494420Y-14537484D02*
X10513467Y-14547008D01*
X10513467Y-14547008D02*
X10522991Y-14556531D01*
X10522991Y-14556531D02*
X10532515Y-14575579D01*
X10532515Y-14575579D02*
X10542039Y-14613674D01*
X10542039Y-14613674D02*
X10542039Y-14661293D01*
X10542039Y-14661293D02*
X10532515Y-14699388D01*
X10532515Y-14699388D02*
X10522991Y-14718436D01*
X10522991Y-14718436D02*
X10513467Y-14727960D01*
X10513467Y-14727960D02*
X10494420Y-14737484D01*
X10494420Y-14737484D02*
X10475372Y-14737484D01*
X10475372Y-14737484D02*
X10456324Y-14727960D01*
X10456324Y-14727960D02*
X10446801Y-14718436D01*
X10446801Y-14718436D02*
X10437277Y-14699388D01*
X10437277Y-14699388D02*
X10427753Y-14661293D01*
X10427753Y-14661293D02*
X10427753Y-14613674D01*
X10427753Y-14613674D02*
X10437277Y-14575579D01*
X10437277Y-14575579D02*
X10446801Y-14556531D01*
X10446801Y-14556531D02*
X10456324Y-14547008D01*
X10456324Y-14547008D02*
X10475372Y-14537484D01*
X10627753Y-14718436D02*
X10637277Y-14727960D01*
X10637277Y-14727960D02*
X10627753Y-14737484D01*
X10627753Y-14737484D02*
X10618229Y-14727960D01*
X10618229Y-14727960D02*
X10627753Y-14718436D01*
X10627753Y-14718436D02*
X10627753Y-14737484D01*
X10818229Y-14537484D02*
X10722991Y-14537484D01*
X10722991Y-14537484D02*
X10713467Y-14632722D01*
X10713467Y-14632722D02*
X10722991Y-14623198D01*
X10722991Y-14623198D02*
X10742039Y-14613674D01*
X10742039Y-14613674D02*
X10789658Y-14613674D01*
X10789658Y-14613674D02*
X10808705Y-14623198D01*
X10808705Y-14623198D02*
X10818229Y-14632722D01*
X10818229Y-14632722D02*
X10827753Y-14651769D01*
X10827753Y-14651769D02*
X10827753Y-14699388D01*
X10827753Y-14699388D02*
X10818229Y-14718436D01*
X10818229Y-14718436D02*
X10808705Y-14727960D01*
X10808705Y-14727960D02*
X10789658Y-14737484D01*
X10789658Y-14737484D02*
X10742039Y-14737484D01*
X10742039Y-14737484D02*
X10722991Y-14727960D01*
X10722991Y-14727960D02*
X10713467Y-14718436D01*
X11008705Y-14537484D02*
X10913467Y-14537484D01*
X10913467Y-14537484D02*
X10903944Y-14632722D01*
X10903944Y-14632722D02*
X10913467Y-14623198D01*
X10913467Y-14623198D02*
X10932515Y-14613674D01*
X10932515Y-14613674D02*
X10980134Y-14613674D01*
X10980134Y-14613674D02*
X10999182Y-14623198D01*
X10999182Y-14623198D02*
X11008705Y-14632722D01*
X11008705Y-14632722D02*
X11018229Y-14651769D01*
X11018229Y-14651769D02*
X11018229Y-14699388D01*
X11018229Y-14699388D02*
X11008705Y-14718436D01*
X11008705Y-14718436D02*
X10999182Y-14727960D01*
X10999182Y-14727960D02*
X10980134Y-14737484D01*
X10980134Y-14737484D02*
X10932515Y-14737484D01*
X10932515Y-14737484D02*
X10913467Y-14727960D01*
X10913467Y-14727960D02*
X10903944Y-14718436D01*
X11142039Y-14537484D02*
X11161086Y-14537484D01*
X11161086Y-14537484D02*
X11180134Y-14547008D01*
X11180134Y-14547008D02*
X11189658Y-14556531D01*
X11189658Y-14556531D02*
X11199182Y-14575579D01*
X11199182Y-14575579D02*
X11208705Y-14613674D01*
X11208705Y-14613674D02*
X11208705Y-14661293D01*
X11208705Y-14661293D02*
X11199182Y-14699388D01*
X11199182Y-14699388D02*
X11189658Y-14718436D01*
X11189658Y-14718436D02*
X11180134Y-14727960D01*
X11180134Y-14727960D02*
X11161086Y-14737484D01*
X11161086Y-14737484D02*
X11142039Y-14737484D01*
X11142039Y-14737484D02*
X11122991Y-14727960D01*
X11122991Y-14727960D02*
X11113467Y-14718436D01*
X11113467Y-14718436D02*
X11103944Y-14699388D01*
X11103944Y-14699388D02*
X11094420Y-14661293D01*
X11094420Y-14661293D02*
X11094420Y-14613674D01*
X11094420Y-14613674D02*
X11103944Y-14575579D01*
X11103944Y-14575579D02*
X11113467Y-14556531D01*
X11113467Y-14556531D02*
X11122991Y-14547008D01*
X11122991Y-14547008D02*
X11142039Y-14537484D01*
X11294420Y-14737484D02*
X11294420Y-14604150D01*
X11294420Y-14623198D02*
X11303943Y-14613674D01*
X11303943Y-14613674D02*
X11322991Y-14604150D01*
X11322991Y-14604150D02*
X11351563Y-14604150D01*
X11351563Y-14604150D02*
X11370610Y-14613674D01*
X11370610Y-14613674D02*
X11380134Y-14632722D01*
X11380134Y-14632722D02*
X11380134Y-14737484D01*
X11380134Y-14632722D02*
X11389658Y-14613674D01*
X11389658Y-14613674D02*
X11408705Y-14604150D01*
X11408705Y-14604150D02*
X11437277Y-14604150D01*
X11437277Y-14604150D02*
X11456324Y-14613674D01*
X11456324Y-14613674D02*
X11465848Y-14632722D01*
X11465848Y-14632722D02*
X11465848Y-14737484D01*
X11561086Y-14737484D02*
X11561086Y-14604150D01*
X11561086Y-14623198D02*
X11570610Y-14613674D01*
X11570610Y-14613674D02*
X11589658Y-14604150D01*
X11589658Y-14604150D02*
X11618229Y-14604150D01*
X11618229Y-14604150D02*
X11637277Y-14613674D01*
X11637277Y-14613674D02*
X11646801Y-14632722D01*
X11646801Y-14632722D02*
X11646801Y-14737484D01*
X11646801Y-14632722D02*
X11656324Y-14613674D01*
X11656324Y-14613674D02*
X11675372Y-14604150D01*
X11675372Y-14604150D02*
X11703943Y-14604150D01*
X11703943Y-14604150D02*
X11722991Y-14613674D01*
X11722991Y-14613674D02*
X11732515Y-14632722D01*
X11732515Y-14632722D02*
X11732515Y-14737484D01*
X12122991Y-14527960D02*
X11951563Y-14785103D01*
X12380134Y-14537484D02*
X12399182Y-14537484D01*
X12399182Y-14537484D02*
X12418229Y-14547008D01*
X12418229Y-14547008D02*
X12427753Y-14556531D01*
X12427753Y-14556531D02*
X12437277Y-14575579D01*
X12437277Y-14575579D02*
X12446801Y-14613674D01*
X12446801Y-14613674D02*
X12446801Y-14661293D01*
X12446801Y-14661293D02*
X12437277Y-14699388D01*
X12437277Y-14699388D02*
X12427753Y-14718436D01*
X12427753Y-14718436D02*
X12418229Y-14727960D01*
X12418229Y-14727960D02*
X12399182Y-14737484D01*
X12399182Y-14737484D02*
X12380134Y-14737484D01*
X12380134Y-14737484D02*
X12361086Y-14727960D01*
X12361086Y-14727960D02*
X12351563Y-14718436D01*
X12351563Y-14718436D02*
X12342039Y-14699388D01*
X12342039Y-14699388D02*
X12332515Y-14661293D01*
X12332515Y-14661293D02*
X12332515Y-14613674D01*
X12332515Y-14613674D02*
X12342039Y-14575579D01*
X12342039Y-14575579D02*
X12351563Y-14556531D01*
X12351563Y-14556531D02*
X12361086Y-14547008D01*
X12361086Y-14547008D02*
X12380134Y-14537484D01*
X12532515Y-14718436D02*
X12542039Y-14727960D01*
X12542039Y-14727960D02*
X12532515Y-14737484D01*
X12532515Y-14737484D02*
X12522991Y-14727960D01*
X12522991Y-14727960D02*
X12532515Y-14718436D01*
X12532515Y-14718436D02*
X12532515Y-14737484D01*
X12665848Y-14537484D02*
X12684896Y-14537484D01*
X12684896Y-14537484D02*
X12703944Y-14547008D01*
X12703944Y-14547008D02*
X12713467Y-14556531D01*
X12713467Y-14556531D02*
X12722991Y-14575579D01*
X12722991Y-14575579D02*
X12732515Y-14613674D01*
X12732515Y-14613674D02*
X12732515Y-14661293D01*
X12732515Y-14661293D02*
X12722991Y-14699388D01*
X12722991Y-14699388D02*
X12713467Y-14718436D01*
X12713467Y-14718436D02*
X12703944Y-14727960D01*
X12703944Y-14727960D02*
X12684896Y-14737484D01*
X12684896Y-14737484D02*
X12665848Y-14737484D01*
X12665848Y-14737484D02*
X12646801Y-14727960D01*
X12646801Y-14727960D02*
X12637277Y-14718436D01*
X12637277Y-14718436D02*
X12627753Y-14699388D01*
X12627753Y-14699388D02*
X12618229Y-14661293D01*
X12618229Y-14661293D02*
X12618229Y-14613674D01*
X12618229Y-14613674D02*
X12627753Y-14575579D01*
X12627753Y-14575579D02*
X12637277Y-14556531D01*
X12637277Y-14556531D02*
X12646801Y-14547008D01*
X12646801Y-14547008D02*
X12665848Y-14537484D01*
X12808706Y-14556531D02*
X12818229Y-14547008D01*
X12818229Y-14547008D02*
X12837277Y-14537484D01*
X12837277Y-14537484D02*
X12884896Y-14537484D01*
X12884896Y-14537484D02*
X12903944Y-14547008D01*
X12903944Y-14547008D02*
X12913467Y-14556531D01*
X12913467Y-14556531D02*
X12922991Y-14575579D01*
X12922991Y-14575579D02*
X12922991Y-14594627D01*
X12922991Y-14594627D02*
X12913467Y-14623198D01*
X12913467Y-14623198D02*
X12799182Y-14737484D01*
X12799182Y-14737484D02*
X12922991Y-14737484D01*
X13113467Y-14737484D02*
X12999182Y-14737484D01*
X13056325Y-14737484D02*
X13056325Y-14537484D01*
X13056325Y-14537484D02*
X13037277Y-14566055D01*
X13037277Y-14566055D02*
X13018229Y-14585103D01*
X13018229Y-14585103D02*
X12999182Y-14594627D01*
X13180134Y-14537484D02*
X13313467Y-14537484D01*
X13313467Y-14537484D02*
X13227753Y-14737484D01*
X13380134Y-14537484D02*
X13380134Y-14575579D01*
X13456325Y-14537484D02*
X13456325Y-14575579D01*
X13751563Y-14813674D02*
X13742039Y-14804150D01*
X13742039Y-14804150D02*
X13722991Y-14775579D01*
X13722991Y-14775579D02*
X13713468Y-14756531D01*
X13713468Y-14756531D02*
X13703944Y-14727960D01*
X13703944Y-14727960D02*
X13694420Y-14680341D01*
X13694420Y-14680341D02*
X13694420Y-14642246D01*
X13694420Y-14642246D02*
X13703944Y-14594627D01*
X13703944Y-14594627D02*
X13713468Y-14566055D01*
X13713468Y-14566055D02*
X13722991Y-14547008D01*
X13722991Y-14547008D02*
X13742039Y-14518436D01*
X13742039Y-14518436D02*
X13751563Y-14508912D01*
X13932515Y-14737484D02*
X13818229Y-14737484D01*
X13875372Y-14737484D02*
X13875372Y-14537484D01*
X13875372Y-14537484D02*
X13856325Y-14566055D01*
X13856325Y-14566055D02*
X13837277Y-14585103D01*
X13837277Y-14585103D02*
X13818229Y-14594627D01*
X14103944Y-14537484D02*
X14065848Y-14537484D01*
X14065848Y-14537484D02*
X14046801Y-14547008D01*
X14046801Y-14547008D02*
X14037277Y-14556531D01*
X14037277Y-14556531D02*
X14018229Y-14585103D01*
X14018229Y-14585103D02*
X14008706Y-14623198D01*
X14008706Y-14623198D02*
X14008706Y-14699388D01*
X14008706Y-14699388D02*
X14018229Y-14718436D01*
X14018229Y-14718436D02*
X14027753Y-14727960D01*
X14027753Y-14727960D02*
X14046801Y-14737484D01*
X14046801Y-14737484D02*
X14084896Y-14737484D01*
X14084896Y-14737484D02*
X14103944Y-14727960D01*
X14103944Y-14727960D02*
X14113468Y-14718436D01*
X14113468Y-14718436D02*
X14122991Y-14699388D01*
X14122991Y-14699388D02*
X14122991Y-14651769D01*
X14122991Y-14651769D02*
X14113468Y-14632722D01*
X14113468Y-14632722D02*
X14103944Y-14623198D01*
X14103944Y-14623198D02*
X14084896Y-14613674D01*
X14084896Y-14613674D02*
X14046801Y-14613674D01*
X14046801Y-14613674D02*
X14027753Y-14623198D01*
X14027753Y-14623198D02*
X14018229Y-14632722D01*
X14018229Y-14632722D02*
X14008706Y-14651769D01*
X14361087Y-14737484D02*
X14361087Y-14537484D01*
X14446801Y-14737484D02*
X14446801Y-14632722D01*
X14446801Y-14632722D02*
X14437277Y-14613674D01*
X14437277Y-14613674D02*
X14418230Y-14604150D01*
X14418230Y-14604150D02*
X14389658Y-14604150D01*
X14389658Y-14604150D02*
X14370610Y-14613674D01*
X14370610Y-14613674D02*
X14361087Y-14623198D01*
X14570610Y-14737484D02*
X14551563Y-14727960D01*
X14551563Y-14727960D02*
X14542039Y-14718436D01*
X14542039Y-14718436D02*
X14532515Y-14699388D01*
X14532515Y-14699388D02*
X14532515Y-14642246D01*
X14532515Y-14642246D02*
X14542039Y-14623198D01*
X14542039Y-14623198D02*
X14551563Y-14613674D01*
X14551563Y-14613674D02*
X14570610Y-14604150D01*
X14570610Y-14604150D02*
X14599182Y-14604150D01*
X14599182Y-14604150D02*
X14618230Y-14613674D01*
X14618230Y-14613674D02*
X14627753Y-14623198D01*
X14627753Y-14623198D02*
X14637277Y-14642246D01*
X14637277Y-14642246D02*
X14637277Y-14699388D01*
X14637277Y-14699388D02*
X14627753Y-14718436D01*
X14627753Y-14718436D02*
X14618230Y-14727960D01*
X14618230Y-14727960D02*
X14599182Y-14737484D01*
X14599182Y-14737484D02*
X14570610Y-14737484D01*
X14751563Y-14737484D02*
X14732515Y-14727960D01*
X14732515Y-14727960D02*
X14722991Y-14708912D01*
X14722991Y-14708912D02*
X14722991Y-14537484D01*
X14903944Y-14727960D02*
X14884896Y-14737484D01*
X14884896Y-14737484D02*
X14846801Y-14737484D01*
X14846801Y-14737484D02*
X14827753Y-14727960D01*
X14827753Y-14727960D02*
X14818230Y-14708912D01*
X14818230Y-14708912D02*
X14818230Y-14632722D01*
X14818230Y-14632722D02*
X14827753Y-14613674D01*
X14827753Y-14613674D02*
X14846801Y-14604150D01*
X14846801Y-14604150D02*
X14884896Y-14604150D01*
X14884896Y-14604150D02*
X14903944Y-14613674D01*
X14903944Y-14613674D02*
X14913468Y-14632722D01*
X14913468Y-14632722D02*
X14913468Y-14651769D01*
X14913468Y-14651769D02*
X14818230Y-14670817D01*
X14989658Y-14727960D02*
X15008706Y-14737484D01*
X15008706Y-14737484D02*
X15046801Y-14737484D01*
X15046801Y-14737484D02*
X15065849Y-14727960D01*
X15065849Y-14727960D02*
X15075372Y-14708912D01*
X15075372Y-14708912D02*
X15075372Y-14699388D01*
X15075372Y-14699388D02*
X15065849Y-14680341D01*
X15065849Y-14680341D02*
X15046801Y-14670817D01*
X15046801Y-14670817D02*
X15018230Y-14670817D01*
X15018230Y-14670817D02*
X14999182Y-14661293D01*
X14999182Y-14661293D02*
X14989658Y-14642246D01*
X14989658Y-14642246D02*
X14989658Y-14632722D01*
X14989658Y-14632722D02*
X14999182Y-14613674D01*
X14999182Y-14613674D02*
X15018230Y-14604150D01*
X15018230Y-14604150D02*
X15046801Y-14604150D01*
X15046801Y-14604150D02*
X15065849Y-14613674D01*
X15142039Y-14813674D02*
X15151563Y-14804150D01*
X15151563Y-14804150D02*
X15170611Y-14775579D01*
X15170611Y-14775579D02*
X15180134Y-14756531D01*
X15180134Y-14756531D02*
X15189658Y-14727960D01*
X15189658Y-14727960D02*
X15199182Y-14680341D01*
X15199182Y-14680341D02*
X15199182Y-14642246D01*
X15199182Y-14642246D02*
X15189658Y-14594627D01*
X15189658Y-14594627D02*
X15180134Y-14566055D01*
X15180134Y-14566055D02*
X15170611Y-14547008D01*
X15170611Y-14547008D02*
X15151563Y-14518436D01*
X15151563Y-14518436D02*
X15142039Y-14508912D01*
D12*
X10136500Y-14870000D02*
X10136500Y-14950000D01*
X10096500Y-14910000D02*
X10176500Y-14910000D01*
D11*
X10475372Y-14801484D02*
X10494420Y-14801484D01*
X10494420Y-14801484D02*
X10513467Y-14811008D01*
X10513467Y-14811008D02*
X10522991Y-14820531D01*
X10522991Y-14820531D02*
X10532515Y-14839579D01*
X10532515Y-14839579D02*
X10542039Y-14877674D01*
X10542039Y-14877674D02*
X10542039Y-14925293D01*
X10542039Y-14925293D02*
X10532515Y-14963388D01*
X10532515Y-14963388D02*
X10522991Y-14982436D01*
X10522991Y-14982436D02*
X10513467Y-14991960D01*
X10513467Y-14991960D02*
X10494420Y-15001484D01*
X10494420Y-15001484D02*
X10475372Y-15001484D01*
X10475372Y-15001484D02*
X10456324Y-14991960D01*
X10456324Y-14991960D02*
X10446801Y-14982436D01*
X10446801Y-14982436D02*
X10437277Y-14963388D01*
X10437277Y-14963388D02*
X10427753Y-14925293D01*
X10427753Y-14925293D02*
X10427753Y-14877674D01*
X10427753Y-14877674D02*
X10437277Y-14839579D01*
X10437277Y-14839579D02*
X10446801Y-14820531D01*
X10446801Y-14820531D02*
X10456324Y-14811008D01*
X10456324Y-14811008D02*
X10475372Y-14801484D01*
X10627753Y-14982436D02*
X10637277Y-14991960D01*
X10637277Y-14991960D02*
X10627753Y-15001484D01*
X10627753Y-15001484D02*
X10618229Y-14991960D01*
X10618229Y-14991960D02*
X10627753Y-14982436D01*
X10627753Y-14982436D02*
X10627753Y-15001484D01*
X10751563Y-14887198D02*
X10732515Y-14877674D01*
X10732515Y-14877674D02*
X10722991Y-14868150D01*
X10722991Y-14868150D02*
X10713467Y-14849103D01*
X10713467Y-14849103D02*
X10713467Y-14839579D01*
X10713467Y-14839579D02*
X10722991Y-14820531D01*
X10722991Y-14820531D02*
X10732515Y-14811008D01*
X10732515Y-14811008D02*
X10751563Y-14801484D01*
X10751563Y-14801484D02*
X10789658Y-14801484D01*
X10789658Y-14801484D02*
X10808705Y-14811008D01*
X10808705Y-14811008D02*
X10818229Y-14820531D01*
X10818229Y-14820531D02*
X10827753Y-14839579D01*
X10827753Y-14839579D02*
X10827753Y-14849103D01*
X10827753Y-14849103D02*
X10818229Y-14868150D01*
X10818229Y-14868150D02*
X10808705Y-14877674D01*
X10808705Y-14877674D02*
X10789658Y-14887198D01*
X10789658Y-14887198D02*
X10751563Y-14887198D01*
X10751563Y-14887198D02*
X10732515Y-14896722D01*
X10732515Y-14896722D02*
X10722991Y-14906246D01*
X10722991Y-14906246D02*
X10713467Y-14925293D01*
X10713467Y-14925293D02*
X10713467Y-14963388D01*
X10713467Y-14963388D02*
X10722991Y-14982436D01*
X10722991Y-14982436D02*
X10732515Y-14991960D01*
X10732515Y-14991960D02*
X10751563Y-15001484D01*
X10751563Y-15001484D02*
X10789658Y-15001484D01*
X10789658Y-15001484D02*
X10808705Y-14991960D01*
X10808705Y-14991960D02*
X10818229Y-14982436D01*
X10818229Y-14982436D02*
X10827753Y-14963388D01*
X10827753Y-14963388D02*
X10827753Y-14925293D01*
X10827753Y-14925293D02*
X10818229Y-14906246D01*
X10818229Y-14906246D02*
X10808705Y-14896722D01*
X10808705Y-14896722D02*
X10789658Y-14887198D01*
X10951563Y-14801484D02*
X10970610Y-14801484D01*
X10970610Y-14801484D02*
X10989658Y-14811008D01*
X10989658Y-14811008D02*
X10999182Y-14820531D01*
X10999182Y-14820531D02*
X11008705Y-14839579D01*
X11008705Y-14839579D02*
X11018229Y-14877674D01*
X11018229Y-14877674D02*
X11018229Y-14925293D01*
X11018229Y-14925293D02*
X11008705Y-14963388D01*
X11008705Y-14963388D02*
X10999182Y-14982436D01*
X10999182Y-14982436D02*
X10989658Y-14991960D01*
X10989658Y-14991960D02*
X10970610Y-15001484D01*
X10970610Y-15001484D02*
X10951563Y-15001484D01*
X10951563Y-15001484D02*
X10932515Y-14991960D01*
X10932515Y-14991960D02*
X10922991Y-14982436D01*
X10922991Y-14982436D02*
X10913467Y-14963388D01*
X10913467Y-14963388D02*
X10903944Y-14925293D01*
X10903944Y-14925293D02*
X10903944Y-14877674D01*
X10903944Y-14877674D02*
X10913467Y-14839579D01*
X10913467Y-14839579D02*
X10922991Y-14820531D01*
X10922991Y-14820531D02*
X10932515Y-14811008D01*
X10932515Y-14811008D02*
X10951563Y-14801484D01*
X11142039Y-14801484D02*
X11161086Y-14801484D01*
X11161086Y-14801484D02*
X11180134Y-14811008D01*
X11180134Y-14811008D02*
X11189658Y-14820531D01*
X11189658Y-14820531D02*
X11199182Y-14839579D01*
X11199182Y-14839579D02*
X11208705Y-14877674D01*
X11208705Y-14877674D02*
X11208705Y-14925293D01*
X11208705Y-14925293D02*
X11199182Y-14963388D01*
X11199182Y-14963388D02*
X11189658Y-14982436D01*
X11189658Y-14982436D02*
X11180134Y-14991960D01*
X11180134Y-14991960D02*
X11161086Y-15001484D01*
X11161086Y-15001484D02*
X11142039Y-15001484D01*
X11142039Y-15001484D02*
X11122991Y-14991960D01*
X11122991Y-14991960D02*
X11113467Y-14982436D01*
X11113467Y-14982436D02*
X11103944Y-14963388D01*
X11103944Y-14963388D02*
X11094420Y-14925293D01*
X11094420Y-14925293D02*
X11094420Y-14877674D01*
X11094420Y-14877674D02*
X11103944Y-14839579D01*
X11103944Y-14839579D02*
X11113467Y-14820531D01*
X11113467Y-14820531D02*
X11122991Y-14811008D01*
X11122991Y-14811008D02*
X11142039Y-14801484D01*
X11294420Y-15001484D02*
X11294420Y-14868150D01*
X11294420Y-14887198D02*
X11303943Y-14877674D01*
X11303943Y-14877674D02*
X11322991Y-14868150D01*
X11322991Y-14868150D02*
X11351563Y-14868150D01*
X11351563Y-14868150D02*
X11370610Y-14877674D01*
X11370610Y-14877674D02*
X11380134Y-14896722D01*
X11380134Y-14896722D02*
X11380134Y-15001484D01*
X11380134Y-14896722D02*
X11389658Y-14877674D01*
X11389658Y-14877674D02*
X11408705Y-14868150D01*
X11408705Y-14868150D02*
X11437277Y-14868150D01*
X11437277Y-14868150D02*
X11456324Y-14877674D01*
X11456324Y-14877674D02*
X11465848Y-14896722D01*
X11465848Y-14896722D02*
X11465848Y-15001484D01*
X11561086Y-15001484D02*
X11561086Y-14868150D01*
X11561086Y-14887198D02*
X11570610Y-14877674D01*
X11570610Y-14877674D02*
X11589658Y-14868150D01*
X11589658Y-14868150D02*
X11618229Y-14868150D01*
X11618229Y-14868150D02*
X11637277Y-14877674D01*
X11637277Y-14877674D02*
X11646801Y-14896722D01*
X11646801Y-14896722D02*
X11646801Y-15001484D01*
X11646801Y-14896722D02*
X11656324Y-14877674D01*
X11656324Y-14877674D02*
X11675372Y-14868150D01*
X11675372Y-14868150D02*
X11703943Y-14868150D01*
X11703943Y-14868150D02*
X11722991Y-14877674D01*
X11722991Y-14877674D02*
X11732515Y-14896722D01*
X11732515Y-14896722D02*
X11732515Y-15001484D01*
X12122991Y-14791960D02*
X11951563Y-15049103D01*
X12380134Y-14801484D02*
X12399182Y-14801484D01*
X12399182Y-14801484D02*
X12418229Y-14811008D01*
X12418229Y-14811008D02*
X12427753Y-14820531D01*
X12427753Y-14820531D02*
X12437277Y-14839579D01*
X12437277Y-14839579D02*
X12446801Y-14877674D01*
X12446801Y-14877674D02*
X12446801Y-14925293D01*
X12446801Y-14925293D02*
X12437277Y-14963388D01*
X12437277Y-14963388D02*
X12427753Y-14982436D01*
X12427753Y-14982436D02*
X12418229Y-14991960D01*
X12418229Y-14991960D02*
X12399182Y-15001484D01*
X12399182Y-15001484D02*
X12380134Y-15001484D01*
X12380134Y-15001484D02*
X12361086Y-14991960D01*
X12361086Y-14991960D02*
X12351563Y-14982436D01*
X12351563Y-14982436D02*
X12342039Y-14963388D01*
X12342039Y-14963388D02*
X12332515Y-14925293D01*
X12332515Y-14925293D02*
X12332515Y-14877674D01*
X12332515Y-14877674D02*
X12342039Y-14839579D01*
X12342039Y-14839579D02*
X12351563Y-14820531D01*
X12351563Y-14820531D02*
X12361086Y-14811008D01*
X12361086Y-14811008D02*
X12380134Y-14801484D01*
X12532515Y-14982436D02*
X12542039Y-14991960D01*
X12542039Y-14991960D02*
X12532515Y-15001484D01*
X12532515Y-15001484D02*
X12522991Y-14991960D01*
X12522991Y-14991960D02*
X12532515Y-14982436D01*
X12532515Y-14982436D02*
X12532515Y-15001484D01*
X12665848Y-14801484D02*
X12684896Y-14801484D01*
X12684896Y-14801484D02*
X12703944Y-14811008D01*
X12703944Y-14811008D02*
X12713467Y-14820531D01*
X12713467Y-14820531D02*
X12722991Y-14839579D01*
X12722991Y-14839579D02*
X12732515Y-14877674D01*
X12732515Y-14877674D02*
X12732515Y-14925293D01*
X12732515Y-14925293D02*
X12722991Y-14963388D01*
X12722991Y-14963388D02*
X12713467Y-14982436D01*
X12713467Y-14982436D02*
X12703944Y-14991960D01*
X12703944Y-14991960D02*
X12684896Y-15001484D01*
X12684896Y-15001484D02*
X12665848Y-15001484D01*
X12665848Y-15001484D02*
X12646801Y-14991960D01*
X12646801Y-14991960D02*
X12637277Y-14982436D01*
X12637277Y-14982436D02*
X12627753Y-14963388D01*
X12627753Y-14963388D02*
X12618229Y-14925293D01*
X12618229Y-14925293D02*
X12618229Y-14877674D01*
X12618229Y-14877674D02*
X12627753Y-14839579D01*
X12627753Y-14839579D02*
X12637277Y-14820531D01*
X12637277Y-14820531D02*
X12646801Y-14811008D01*
X12646801Y-14811008D02*
X12665848Y-14801484D01*
X12799182Y-14801484D02*
X12922991Y-14801484D01*
X12922991Y-14801484D02*
X12856325Y-14877674D01*
X12856325Y-14877674D02*
X12884896Y-14877674D01*
X12884896Y-14877674D02*
X12903944Y-14887198D01*
X12903944Y-14887198D02*
X12913467Y-14896722D01*
X12913467Y-14896722D02*
X12922991Y-14915769D01*
X12922991Y-14915769D02*
X12922991Y-14963388D01*
X12922991Y-14963388D02*
X12913467Y-14982436D01*
X12913467Y-14982436D02*
X12903944Y-14991960D01*
X12903944Y-14991960D02*
X12884896Y-15001484D01*
X12884896Y-15001484D02*
X12827753Y-15001484D01*
X12827753Y-15001484D02*
X12808706Y-14991960D01*
X12808706Y-14991960D02*
X12799182Y-14982436D01*
X13113467Y-15001484D02*
X12999182Y-15001484D01*
X13056325Y-15001484D02*
X13056325Y-14801484D01*
X13056325Y-14801484D02*
X13037277Y-14830055D01*
X13037277Y-14830055D02*
X13018229Y-14849103D01*
X13018229Y-14849103D02*
X12999182Y-14858627D01*
X13294420Y-14801484D02*
X13199182Y-14801484D01*
X13199182Y-14801484D02*
X13189658Y-14896722D01*
X13189658Y-14896722D02*
X13199182Y-14887198D01*
X13199182Y-14887198D02*
X13218229Y-14877674D01*
X13218229Y-14877674D02*
X13265848Y-14877674D01*
X13265848Y-14877674D02*
X13284896Y-14887198D01*
X13284896Y-14887198D02*
X13294420Y-14896722D01*
X13294420Y-14896722D02*
X13303944Y-14915769D01*
X13303944Y-14915769D02*
X13303944Y-14963388D01*
X13303944Y-14963388D02*
X13294420Y-14982436D01*
X13294420Y-14982436D02*
X13284896Y-14991960D01*
X13284896Y-14991960D02*
X13265848Y-15001484D01*
X13265848Y-15001484D02*
X13218229Y-15001484D01*
X13218229Y-15001484D02*
X13199182Y-14991960D01*
X13199182Y-14991960D02*
X13189658Y-14982436D01*
X13380134Y-14801484D02*
X13380134Y-14839579D01*
X13456325Y-14801484D02*
X13456325Y-14839579D01*
X13751563Y-15077674D02*
X13742039Y-15068150D01*
X13742039Y-15068150D02*
X13722991Y-15039579D01*
X13722991Y-15039579D02*
X13713468Y-15020531D01*
X13713468Y-15020531D02*
X13703944Y-14991960D01*
X13703944Y-14991960D02*
X13694420Y-14944341D01*
X13694420Y-14944341D02*
X13694420Y-14906246D01*
X13694420Y-14906246D02*
X13703944Y-14858627D01*
X13703944Y-14858627D02*
X13713468Y-14830055D01*
X13713468Y-14830055D02*
X13722991Y-14811008D01*
X13722991Y-14811008D02*
X13742039Y-14782436D01*
X13742039Y-14782436D02*
X13751563Y-14772912D01*
X13913468Y-14801484D02*
X13875372Y-14801484D01*
X13875372Y-14801484D02*
X13856325Y-14811008D01*
X13856325Y-14811008D02*
X13846801Y-14820531D01*
X13846801Y-14820531D02*
X13827753Y-14849103D01*
X13827753Y-14849103D02*
X13818229Y-14887198D01*
X13818229Y-14887198D02*
X13818229Y-14963388D01*
X13818229Y-14963388D02*
X13827753Y-14982436D01*
X13827753Y-14982436D02*
X13837277Y-14991960D01*
X13837277Y-14991960D02*
X13856325Y-15001484D01*
X13856325Y-15001484D02*
X13894420Y-15001484D01*
X13894420Y-15001484D02*
X13913468Y-14991960D01*
X13913468Y-14991960D02*
X13922991Y-14982436D01*
X13922991Y-14982436D02*
X13932515Y-14963388D01*
X13932515Y-14963388D02*
X13932515Y-14915769D01*
X13932515Y-14915769D02*
X13922991Y-14896722D01*
X13922991Y-14896722D02*
X13913468Y-14887198D01*
X13913468Y-14887198D02*
X13894420Y-14877674D01*
X13894420Y-14877674D02*
X13856325Y-14877674D01*
X13856325Y-14877674D02*
X13837277Y-14887198D01*
X13837277Y-14887198D02*
X13827753Y-14896722D01*
X13827753Y-14896722D02*
X13818229Y-14915769D01*
X14103944Y-14801484D02*
X14065848Y-14801484D01*
X14065848Y-14801484D02*
X14046801Y-14811008D01*
X14046801Y-14811008D02*
X14037277Y-14820531D01*
X14037277Y-14820531D02*
X14018229Y-14849103D01*
X14018229Y-14849103D02*
X14008706Y-14887198D01*
X14008706Y-14887198D02*
X14008706Y-14963388D01*
X14008706Y-14963388D02*
X14018229Y-14982436D01*
X14018229Y-14982436D02*
X14027753Y-14991960D01*
X14027753Y-14991960D02*
X14046801Y-15001484D01*
X14046801Y-15001484D02*
X14084896Y-15001484D01*
X14084896Y-15001484D02*
X14103944Y-14991960D01*
X14103944Y-14991960D02*
X14113468Y-14982436D01*
X14113468Y-14982436D02*
X14122991Y-14963388D01*
X14122991Y-14963388D02*
X14122991Y-14915769D01*
X14122991Y-14915769D02*
X14113468Y-14896722D01*
X14113468Y-14896722D02*
X14103944Y-14887198D01*
X14103944Y-14887198D02*
X14084896Y-14877674D01*
X14084896Y-14877674D02*
X14046801Y-14877674D01*
X14046801Y-14877674D02*
X14027753Y-14887198D01*
X14027753Y-14887198D02*
X14018229Y-14896722D01*
X14018229Y-14896722D02*
X14008706Y-14915769D01*
X14361087Y-15001484D02*
X14361087Y-14801484D01*
X14446801Y-15001484D02*
X14446801Y-14896722D01*
X14446801Y-14896722D02*
X14437277Y-14877674D01*
X14437277Y-14877674D02*
X14418230Y-14868150D01*
X14418230Y-14868150D02*
X14389658Y-14868150D01*
X14389658Y-14868150D02*
X14370610Y-14877674D01*
X14370610Y-14877674D02*
X14361087Y-14887198D01*
X14570610Y-15001484D02*
X14551563Y-14991960D01*
X14551563Y-14991960D02*
X14542039Y-14982436D01*
X14542039Y-14982436D02*
X14532515Y-14963388D01*
X14532515Y-14963388D02*
X14532515Y-14906246D01*
X14532515Y-14906246D02*
X14542039Y-14887198D01*
X14542039Y-14887198D02*
X14551563Y-14877674D01*
X14551563Y-14877674D02*
X14570610Y-14868150D01*
X14570610Y-14868150D02*
X14599182Y-14868150D01*
X14599182Y-14868150D02*
X14618230Y-14877674D01*
X14618230Y-14877674D02*
X14627753Y-14887198D01*
X14627753Y-14887198D02*
X14637277Y-14906246D01*
X14637277Y-14906246D02*
X14637277Y-14963388D01*
X14637277Y-14963388D02*
X14627753Y-14982436D01*
X14627753Y-14982436D02*
X14618230Y-14991960D01*
X14618230Y-14991960D02*
X14599182Y-15001484D01*
X14599182Y-15001484D02*
X14570610Y-15001484D01*
X14751563Y-15001484D02*
X14732515Y-14991960D01*
X14732515Y-14991960D02*
X14722991Y-14972912D01*
X14722991Y-14972912D02*
X14722991Y-14801484D01*
X14903944Y-14991960D02*
X14884896Y-15001484D01*
X14884896Y-15001484D02*
X14846801Y-15001484D01*
X14846801Y-15001484D02*
X14827753Y-14991960D01*
X14827753Y-14991960D02*
X14818230Y-14972912D01*
X14818230Y-14972912D02*
X14818230Y-14896722D01*
X14818230Y-14896722D02*
X14827753Y-14877674D01*
X14827753Y-14877674D02*
X14846801Y-14868150D01*
X14846801Y-14868150D02*
X14884896Y-14868150D01*
X14884896Y-14868150D02*
X14903944Y-14877674D01*
X14903944Y-14877674D02*
X14913468Y-14896722D01*
X14913468Y-14896722D02*
X14913468Y-14915769D01*
X14913468Y-14915769D02*
X14818230Y-14934817D01*
X14989658Y-14991960D02*
X15008706Y-15001484D01*
X15008706Y-15001484D02*
X15046801Y-15001484D01*
X15046801Y-15001484D02*
X15065849Y-14991960D01*
X15065849Y-14991960D02*
X15075372Y-14972912D01*
X15075372Y-14972912D02*
X15075372Y-14963388D01*
X15075372Y-14963388D02*
X15065849Y-14944341D01*
X15065849Y-14944341D02*
X15046801Y-14934817D01*
X15046801Y-14934817D02*
X15018230Y-14934817D01*
X15018230Y-14934817D02*
X14999182Y-14925293D01*
X14999182Y-14925293D02*
X14989658Y-14906246D01*
X14989658Y-14906246D02*
X14989658Y-14896722D01*
X14989658Y-14896722D02*
X14999182Y-14877674D01*
X14999182Y-14877674D02*
X15018230Y-14868150D01*
X15018230Y-14868150D02*
X15046801Y-14868150D01*
X15046801Y-14868150D02*
X15065849Y-14877674D01*
X15142039Y-15077674D02*
X15151563Y-15068150D01*
X15151563Y-15068150D02*
X15170611Y-15039579D01*
X15170611Y-15039579D02*
X15180134Y-15020531D01*
X15180134Y-15020531D02*
X15189658Y-14991960D01*
X15189658Y-14991960D02*
X15199182Y-14944341D01*
X15199182Y-14944341D02*
X15199182Y-14906246D01*
X15199182Y-14906246D02*
X15189658Y-14858627D01*
X15189658Y-14858627D02*
X15180134Y-14830055D01*
X15180134Y-14830055D02*
X15170611Y-14811008D01*
X15170611Y-14811008D02*
X15151563Y-14782436D01*
X15151563Y-14782436D02*
X15142039Y-14772912D01*
D12*
X10161856Y-15209356D02*
X10161856Y-15138644D01*
X10091144Y-15138644D01*
X10091144Y-15209356D01*
X10161856Y-15209356D01*
D11*
X10542039Y-15265484D02*
X10427753Y-15265484D01*
X10484896Y-15265484D02*
X10484896Y-15065484D01*
X10484896Y-15065484D02*
X10465848Y-15094055D01*
X10465848Y-15094055D02*
X10446801Y-15113103D01*
X10446801Y-15113103D02*
X10427753Y-15122627D01*
X10627753Y-15246436D02*
X10637277Y-15255960D01*
X10637277Y-15255960D02*
X10627753Y-15265484D01*
X10627753Y-15265484D02*
X10618229Y-15255960D01*
X10618229Y-15255960D02*
X10627753Y-15246436D01*
X10627753Y-15246436D02*
X10627753Y-15265484D01*
X10761086Y-15065484D02*
X10780134Y-15065484D01*
X10780134Y-15065484D02*
X10799182Y-15075008D01*
X10799182Y-15075008D02*
X10808705Y-15084531D01*
X10808705Y-15084531D02*
X10818229Y-15103579D01*
X10818229Y-15103579D02*
X10827753Y-15141674D01*
X10827753Y-15141674D02*
X10827753Y-15189293D01*
X10827753Y-15189293D02*
X10818229Y-15227388D01*
X10818229Y-15227388D02*
X10808705Y-15246436D01*
X10808705Y-15246436D02*
X10799182Y-15255960D01*
X10799182Y-15255960D02*
X10780134Y-15265484D01*
X10780134Y-15265484D02*
X10761086Y-15265484D01*
X10761086Y-15265484D02*
X10742039Y-15255960D01*
X10742039Y-15255960D02*
X10732515Y-15246436D01*
X10732515Y-15246436D02*
X10722991Y-15227388D01*
X10722991Y-15227388D02*
X10713467Y-15189293D01*
X10713467Y-15189293D02*
X10713467Y-15141674D01*
X10713467Y-15141674D02*
X10722991Y-15103579D01*
X10722991Y-15103579D02*
X10732515Y-15084531D01*
X10732515Y-15084531D02*
X10742039Y-15075008D01*
X10742039Y-15075008D02*
X10761086Y-15065484D01*
X10951563Y-15065484D02*
X10970610Y-15065484D01*
X10970610Y-15065484D02*
X10989658Y-15075008D01*
X10989658Y-15075008D02*
X10999182Y-15084531D01*
X10999182Y-15084531D02*
X11008705Y-15103579D01*
X11008705Y-15103579D02*
X11018229Y-15141674D01*
X11018229Y-15141674D02*
X11018229Y-15189293D01*
X11018229Y-15189293D02*
X11008705Y-15227388D01*
X11008705Y-15227388D02*
X10999182Y-15246436D01*
X10999182Y-15246436D02*
X10989658Y-15255960D01*
X10989658Y-15255960D02*
X10970610Y-15265484D01*
X10970610Y-15265484D02*
X10951563Y-15265484D01*
X10951563Y-15265484D02*
X10932515Y-15255960D01*
X10932515Y-15255960D02*
X10922991Y-15246436D01*
X10922991Y-15246436D02*
X10913467Y-15227388D01*
X10913467Y-15227388D02*
X10903944Y-15189293D01*
X10903944Y-15189293D02*
X10903944Y-15141674D01*
X10903944Y-15141674D02*
X10913467Y-15103579D01*
X10913467Y-15103579D02*
X10922991Y-15084531D01*
X10922991Y-15084531D02*
X10932515Y-15075008D01*
X10932515Y-15075008D02*
X10951563Y-15065484D01*
X11142039Y-15065484D02*
X11161086Y-15065484D01*
X11161086Y-15065484D02*
X11180134Y-15075008D01*
X11180134Y-15075008D02*
X11189658Y-15084531D01*
X11189658Y-15084531D02*
X11199182Y-15103579D01*
X11199182Y-15103579D02*
X11208705Y-15141674D01*
X11208705Y-15141674D02*
X11208705Y-15189293D01*
X11208705Y-15189293D02*
X11199182Y-15227388D01*
X11199182Y-15227388D02*
X11189658Y-15246436D01*
X11189658Y-15246436D02*
X11180134Y-15255960D01*
X11180134Y-15255960D02*
X11161086Y-15265484D01*
X11161086Y-15265484D02*
X11142039Y-15265484D01*
X11142039Y-15265484D02*
X11122991Y-15255960D01*
X11122991Y-15255960D02*
X11113467Y-15246436D01*
X11113467Y-15246436D02*
X11103944Y-15227388D01*
X11103944Y-15227388D02*
X11094420Y-15189293D01*
X11094420Y-15189293D02*
X11094420Y-15141674D01*
X11094420Y-15141674D02*
X11103944Y-15103579D01*
X11103944Y-15103579D02*
X11113467Y-15084531D01*
X11113467Y-15084531D02*
X11122991Y-15075008D01*
X11122991Y-15075008D02*
X11142039Y-15065484D01*
X11294420Y-15265484D02*
X11294420Y-15132150D01*
X11294420Y-15151198D02*
X11303943Y-15141674D01*
X11303943Y-15141674D02*
X11322991Y-15132150D01*
X11322991Y-15132150D02*
X11351563Y-15132150D01*
X11351563Y-15132150D02*
X11370610Y-15141674D01*
X11370610Y-15141674D02*
X11380134Y-15160722D01*
X11380134Y-15160722D02*
X11380134Y-15265484D01*
X11380134Y-15160722D02*
X11389658Y-15141674D01*
X11389658Y-15141674D02*
X11408705Y-15132150D01*
X11408705Y-15132150D02*
X11437277Y-15132150D01*
X11437277Y-15132150D02*
X11456324Y-15141674D01*
X11456324Y-15141674D02*
X11465848Y-15160722D01*
X11465848Y-15160722D02*
X11465848Y-15265484D01*
X11561086Y-15265484D02*
X11561086Y-15132150D01*
X11561086Y-15151198D02*
X11570610Y-15141674D01*
X11570610Y-15141674D02*
X11589658Y-15132150D01*
X11589658Y-15132150D02*
X11618229Y-15132150D01*
X11618229Y-15132150D02*
X11637277Y-15141674D01*
X11637277Y-15141674D02*
X11646801Y-15160722D01*
X11646801Y-15160722D02*
X11646801Y-15265484D01*
X11646801Y-15160722D02*
X11656324Y-15141674D01*
X11656324Y-15141674D02*
X11675372Y-15132150D01*
X11675372Y-15132150D02*
X11703943Y-15132150D01*
X11703943Y-15132150D02*
X11722991Y-15141674D01*
X11722991Y-15141674D02*
X11732515Y-15160722D01*
X11732515Y-15160722D02*
X11732515Y-15265484D01*
X12122991Y-15055960D02*
X11951563Y-15313103D01*
X12380134Y-15065484D02*
X12399182Y-15065484D01*
X12399182Y-15065484D02*
X12418229Y-15075008D01*
X12418229Y-15075008D02*
X12427753Y-15084531D01*
X12427753Y-15084531D02*
X12437277Y-15103579D01*
X12437277Y-15103579D02*
X12446801Y-15141674D01*
X12446801Y-15141674D02*
X12446801Y-15189293D01*
X12446801Y-15189293D02*
X12437277Y-15227388D01*
X12437277Y-15227388D02*
X12427753Y-15246436D01*
X12427753Y-15246436D02*
X12418229Y-15255960D01*
X12418229Y-15255960D02*
X12399182Y-15265484D01*
X12399182Y-15265484D02*
X12380134Y-15265484D01*
X12380134Y-15265484D02*
X12361086Y-15255960D01*
X12361086Y-15255960D02*
X12351563Y-15246436D01*
X12351563Y-15246436D02*
X12342039Y-15227388D01*
X12342039Y-15227388D02*
X12332515Y-15189293D01*
X12332515Y-15189293D02*
X12332515Y-15141674D01*
X12332515Y-15141674D02*
X12342039Y-15103579D01*
X12342039Y-15103579D02*
X12351563Y-15084531D01*
X12351563Y-15084531D02*
X12361086Y-15075008D01*
X12361086Y-15075008D02*
X12380134Y-15065484D01*
X12532515Y-15246436D02*
X12542039Y-15255960D01*
X12542039Y-15255960D02*
X12532515Y-15265484D01*
X12532515Y-15265484D02*
X12522991Y-15255960D01*
X12522991Y-15255960D02*
X12532515Y-15246436D01*
X12532515Y-15246436D02*
X12532515Y-15265484D01*
X12665848Y-15065484D02*
X12684896Y-15065484D01*
X12684896Y-15065484D02*
X12703944Y-15075008D01*
X12703944Y-15075008D02*
X12713467Y-15084531D01*
X12713467Y-15084531D02*
X12722991Y-15103579D01*
X12722991Y-15103579D02*
X12732515Y-15141674D01*
X12732515Y-15141674D02*
X12732515Y-15189293D01*
X12732515Y-15189293D02*
X12722991Y-15227388D01*
X12722991Y-15227388D02*
X12713467Y-15246436D01*
X12713467Y-15246436D02*
X12703944Y-15255960D01*
X12703944Y-15255960D02*
X12684896Y-15265484D01*
X12684896Y-15265484D02*
X12665848Y-15265484D01*
X12665848Y-15265484D02*
X12646801Y-15255960D01*
X12646801Y-15255960D02*
X12637277Y-15246436D01*
X12637277Y-15246436D02*
X12627753Y-15227388D01*
X12627753Y-15227388D02*
X12618229Y-15189293D01*
X12618229Y-15189293D02*
X12618229Y-15141674D01*
X12618229Y-15141674D02*
X12627753Y-15103579D01*
X12627753Y-15103579D02*
X12637277Y-15084531D01*
X12637277Y-15084531D02*
X12646801Y-15075008D01*
X12646801Y-15075008D02*
X12665848Y-15065484D01*
X12799182Y-15065484D02*
X12922991Y-15065484D01*
X12922991Y-15065484D02*
X12856325Y-15141674D01*
X12856325Y-15141674D02*
X12884896Y-15141674D01*
X12884896Y-15141674D02*
X12903944Y-15151198D01*
X12903944Y-15151198D02*
X12913467Y-15160722D01*
X12913467Y-15160722D02*
X12922991Y-15179769D01*
X12922991Y-15179769D02*
X12922991Y-15227388D01*
X12922991Y-15227388D02*
X12913467Y-15246436D01*
X12913467Y-15246436D02*
X12903944Y-15255960D01*
X12903944Y-15255960D02*
X12884896Y-15265484D01*
X12884896Y-15265484D02*
X12827753Y-15265484D01*
X12827753Y-15265484D02*
X12808706Y-15255960D01*
X12808706Y-15255960D02*
X12799182Y-15246436D01*
X13018229Y-15265484D02*
X13056325Y-15265484D01*
X13056325Y-15265484D02*
X13075372Y-15255960D01*
X13075372Y-15255960D02*
X13084896Y-15246436D01*
X13084896Y-15246436D02*
X13103944Y-15217865D01*
X13103944Y-15217865D02*
X13113467Y-15179769D01*
X13113467Y-15179769D02*
X13113467Y-15103579D01*
X13113467Y-15103579D02*
X13103944Y-15084531D01*
X13103944Y-15084531D02*
X13094420Y-15075008D01*
X13094420Y-15075008D02*
X13075372Y-15065484D01*
X13075372Y-15065484D02*
X13037277Y-15065484D01*
X13037277Y-15065484D02*
X13018229Y-15075008D01*
X13018229Y-15075008D02*
X13008706Y-15084531D01*
X13008706Y-15084531D02*
X12999182Y-15103579D01*
X12999182Y-15103579D02*
X12999182Y-15151198D01*
X12999182Y-15151198D02*
X13008706Y-15170246D01*
X13008706Y-15170246D02*
X13018229Y-15179769D01*
X13018229Y-15179769D02*
X13037277Y-15189293D01*
X13037277Y-15189293D02*
X13075372Y-15189293D01*
X13075372Y-15189293D02*
X13094420Y-15179769D01*
X13094420Y-15179769D02*
X13103944Y-15170246D01*
X13103944Y-15170246D02*
X13113467Y-15151198D01*
X13284896Y-15132150D02*
X13284896Y-15265484D01*
X13237277Y-15055960D02*
X13189658Y-15198817D01*
X13189658Y-15198817D02*
X13313467Y-15198817D01*
X13380134Y-15065484D02*
X13380134Y-15103579D01*
X13456325Y-15065484D02*
X13456325Y-15103579D01*
X13751563Y-15341674D02*
X13742039Y-15332150D01*
X13742039Y-15332150D02*
X13722991Y-15303579D01*
X13722991Y-15303579D02*
X13713468Y-15284531D01*
X13713468Y-15284531D02*
X13703944Y-15255960D01*
X13703944Y-15255960D02*
X13694420Y-15208341D01*
X13694420Y-15208341D02*
X13694420Y-15170246D01*
X13694420Y-15170246D02*
X13703944Y-15122627D01*
X13703944Y-15122627D02*
X13713468Y-15094055D01*
X13713468Y-15094055D02*
X13722991Y-15075008D01*
X13722991Y-15075008D02*
X13742039Y-15046436D01*
X13742039Y-15046436D02*
X13751563Y-15036912D01*
X13808706Y-15065484D02*
X13942039Y-15065484D01*
X13942039Y-15065484D02*
X13856325Y-15265484D01*
X14046801Y-15151198D02*
X14027753Y-15141674D01*
X14027753Y-15141674D02*
X14018229Y-15132150D01*
X14018229Y-15132150D02*
X14008706Y-15113103D01*
X14008706Y-15113103D02*
X14008706Y-15103579D01*
X14008706Y-15103579D02*
X14018229Y-15084531D01*
X14018229Y-15084531D02*
X14027753Y-15075008D01*
X14027753Y-15075008D02*
X14046801Y-15065484D01*
X14046801Y-15065484D02*
X14084896Y-15065484D01*
X14084896Y-15065484D02*
X14103944Y-15075008D01*
X14103944Y-15075008D02*
X14113468Y-15084531D01*
X14113468Y-15084531D02*
X14122991Y-15103579D01*
X14122991Y-15103579D02*
X14122991Y-15113103D01*
X14122991Y-15113103D02*
X14113468Y-15132150D01*
X14113468Y-15132150D02*
X14103944Y-15141674D01*
X14103944Y-15141674D02*
X14084896Y-15151198D01*
X14084896Y-15151198D02*
X14046801Y-15151198D01*
X14046801Y-15151198D02*
X14027753Y-15160722D01*
X14027753Y-15160722D02*
X14018229Y-15170246D01*
X14018229Y-15170246D02*
X14008706Y-15189293D01*
X14008706Y-15189293D02*
X14008706Y-15227388D01*
X14008706Y-15227388D02*
X14018229Y-15246436D01*
X14018229Y-15246436D02*
X14027753Y-15255960D01*
X14027753Y-15255960D02*
X14046801Y-15265484D01*
X14046801Y-15265484D02*
X14084896Y-15265484D01*
X14084896Y-15265484D02*
X14103944Y-15255960D01*
X14103944Y-15255960D02*
X14113468Y-15246436D01*
X14113468Y-15246436D02*
X14122991Y-15227388D01*
X14122991Y-15227388D02*
X14122991Y-15189293D01*
X14122991Y-15189293D02*
X14113468Y-15170246D01*
X14113468Y-15170246D02*
X14103944Y-15160722D01*
X14103944Y-15160722D02*
X14084896Y-15151198D01*
X14361087Y-15265484D02*
X14361087Y-15065484D01*
X14446801Y-15265484D02*
X14446801Y-15160722D01*
X14446801Y-15160722D02*
X14437277Y-15141674D01*
X14437277Y-15141674D02*
X14418230Y-15132150D01*
X14418230Y-15132150D02*
X14389658Y-15132150D01*
X14389658Y-15132150D02*
X14370610Y-15141674D01*
X14370610Y-15141674D02*
X14361087Y-15151198D01*
X14570610Y-15265484D02*
X14551563Y-15255960D01*
X14551563Y-15255960D02*
X14542039Y-15246436D01*
X14542039Y-15246436D02*
X14532515Y-15227388D01*
X14532515Y-15227388D02*
X14532515Y-15170246D01*
X14532515Y-15170246D02*
X14542039Y-15151198D01*
X14542039Y-15151198D02*
X14551563Y-15141674D01*
X14551563Y-15141674D02*
X14570610Y-15132150D01*
X14570610Y-15132150D02*
X14599182Y-15132150D01*
X14599182Y-15132150D02*
X14618230Y-15141674D01*
X14618230Y-15141674D02*
X14627753Y-15151198D01*
X14627753Y-15151198D02*
X14637277Y-15170246D01*
X14637277Y-15170246D02*
X14637277Y-15227388D01*
X14637277Y-15227388D02*
X14627753Y-15246436D01*
X14627753Y-15246436D02*
X14618230Y-15255960D01*
X14618230Y-15255960D02*
X14599182Y-15265484D01*
X14599182Y-15265484D02*
X14570610Y-15265484D01*
X14751563Y-15265484D02*
X14732515Y-15255960D01*
X14732515Y-15255960D02*
X14722991Y-15236912D01*
X14722991Y-15236912D02*
X14722991Y-15065484D01*
X14903944Y-15255960D02*
X14884896Y-15265484D01*
X14884896Y-15265484D02*
X14846801Y-15265484D01*
X14846801Y-15265484D02*
X14827753Y-15255960D01*
X14827753Y-15255960D02*
X14818230Y-15236912D01*
X14818230Y-15236912D02*
X14818230Y-15160722D01*
X14818230Y-15160722D02*
X14827753Y-15141674D01*
X14827753Y-15141674D02*
X14846801Y-15132150D01*
X14846801Y-15132150D02*
X14884896Y-15132150D01*
X14884896Y-15132150D02*
X14903944Y-15141674D01*
X14903944Y-15141674D02*
X14913468Y-15160722D01*
X14913468Y-15160722D02*
X14913468Y-15179769D01*
X14913468Y-15179769D02*
X14818230Y-15198817D01*
X14989658Y-15255960D02*
X15008706Y-15265484D01*
X15008706Y-15265484D02*
X15046801Y-15265484D01*
X15046801Y-15265484D02*
X15065849Y-15255960D01*
X15065849Y-15255960D02*
X15075372Y-15236912D01*
X15075372Y-15236912D02*
X15075372Y-15227388D01*
X15075372Y-15227388D02*
X15065849Y-15208341D01*
X15065849Y-15208341D02*
X15046801Y-15198817D01*
X15046801Y-15198817D02*
X15018230Y-15198817D01*
X15018230Y-15198817D02*
X14999182Y-15189293D01*
X14999182Y-15189293D02*
X14989658Y-15170246D01*
X14989658Y-15170246D02*
X14989658Y-15160722D01*
X14989658Y-15160722D02*
X14999182Y-15141674D01*
X14999182Y-15141674D02*
X15018230Y-15132150D01*
X15018230Y-15132150D02*
X15046801Y-15132150D01*
X15046801Y-15132150D02*
X15065849Y-15141674D01*
X15142039Y-15341674D02*
X15151563Y-15332150D01*
X15151563Y-15332150D02*
X15170611Y-15303579D01*
X15170611Y-15303579D02*
X15180134Y-15284531D01*
X15180134Y-15284531D02*
X15189658Y-15255960D01*
X15189658Y-15255960D02*
X15199182Y-15208341D01*
X15199182Y-15208341D02*
X15199182Y-15170246D01*
X15199182Y-15170246D02*
X15189658Y-15122627D01*
X15189658Y-15122627D02*
X15180134Y-15094055D01*
X15180134Y-15094055D02*
X15170611Y-15075008D01*
X15170611Y-15075008D02*
X15151563Y-15046436D01*
X15151563Y-15046436D02*
X15142039Y-15036912D01*
D13*
X10125500Y-15489000D02*
X10176500Y-15438000D01*
X10125500Y-15387000D01*
X10074500Y-15438000D01*
X10125500Y-15489000D01*
D11*
X10542039Y-15529484D02*
X10427753Y-15529484D01*
X10484896Y-15529484D02*
X10484896Y-15329484D01*
X10484896Y-15329484D02*
X10465848Y-15358055D01*
X10465848Y-15358055D02*
X10446801Y-15377103D01*
X10446801Y-15377103D02*
X10427753Y-15386627D01*
X10627753Y-15510436D02*
X10637277Y-15519960D01*
X10637277Y-15519960D02*
X10627753Y-15529484D01*
X10627753Y-15529484D02*
X10618229Y-15519960D01*
X10618229Y-15519960D02*
X10627753Y-15510436D01*
X10627753Y-15510436D02*
X10627753Y-15529484D01*
X10761086Y-15329484D02*
X10780134Y-15329484D01*
X10780134Y-15329484D02*
X10799182Y-15339008D01*
X10799182Y-15339008D02*
X10808705Y-15348531D01*
X10808705Y-15348531D02*
X10818229Y-15367579D01*
X10818229Y-15367579D02*
X10827753Y-15405674D01*
X10827753Y-15405674D02*
X10827753Y-15453293D01*
X10827753Y-15453293D02*
X10818229Y-15491388D01*
X10818229Y-15491388D02*
X10808705Y-15510436D01*
X10808705Y-15510436D02*
X10799182Y-15519960D01*
X10799182Y-15519960D02*
X10780134Y-15529484D01*
X10780134Y-15529484D02*
X10761086Y-15529484D01*
X10761086Y-15529484D02*
X10742039Y-15519960D01*
X10742039Y-15519960D02*
X10732515Y-15510436D01*
X10732515Y-15510436D02*
X10722991Y-15491388D01*
X10722991Y-15491388D02*
X10713467Y-15453293D01*
X10713467Y-15453293D02*
X10713467Y-15405674D01*
X10713467Y-15405674D02*
X10722991Y-15367579D01*
X10722991Y-15367579D02*
X10732515Y-15348531D01*
X10732515Y-15348531D02*
X10742039Y-15339008D01*
X10742039Y-15339008D02*
X10761086Y-15329484D01*
X10903944Y-15348531D02*
X10913467Y-15339008D01*
X10913467Y-15339008D02*
X10932515Y-15329484D01*
X10932515Y-15329484D02*
X10980134Y-15329484D01*
X10980134Y-15329484D02*
X10999182Y-15339008D01*
X10999182Y-15339008D02*
X11008705Y-15348531D01*
X11008705Y-15348531D02*
X11018229Y-15367579D01*
X11018229Y-15367579D02*
X11018229Y-15386627D01*
X11018229Y-15386627D02*
X11008705Y-15415198D01*
X11008705Y-15415198D02*
X10894420Y-15529484D01*
X10894420Y-15529484D02*
X11018229Y-15529484D01*
X11142039Y-15329484D02*
X11161086Y-15329484D01*
X11161086Y-15329484D02*
X11180134Y-15339008D01*
X11180134Y-15339008D02*
X11189658Y-15348531D01*
X11189658Y-15348531D02*
X11199182Y-15367579D01*
X11199182Y-15367579D02*
X11208705Y-15405674D01*
X11208705Y-15405674D02*
X11208705Y-15453293D01*
X11208705Y-15453293D02*
X11199182Y-15491388D01*
X11199182Y-15491388D02*
X11189658Y-15510436D01*
X11189658Y-15510436D02*
X11180134Y-15519960D01*
X11180134Y-15519960D02*
X11161086Y-15529484D01*
X11161086Y-15529484D02*
X11142039Y-15529484D01*
X11142039Y-15529484D02*
X11122991Y-15519960D01*
X11122991Y-15519960D02*
X11113467Y-15510436D01*
X11113467Y-15510436D02*
X11103944Y-15491388D01*
X11103944Y-15491388D02*
X11094420Y-15453293D01*
X11094420Y-15453293D02*
X11094420Y-15405674D01*
X11094420Y-15405674D02*
X11103944Y-15367579D01*
X11103944Y-15367579D02*
X11113467Y-15348531D01*
X11113467Y-15348531D02*
X11122991Y-15339008D01*
X11122991Y-15339008D02*
X11142039Y-15329484D01*
X11294420Y-15529484D02*
X11294420Y-15396150D01*
X11294420Y-15415198D02*
X11303943Y-15405674D01*
X11303943Y-15405674D02*
X11322991Y-15396150D01*
X11322991Y-15396150D02*
X11351563Y-15396150D01*
X11351563Y-15396150D02*
X11370610Y-15405674D01*
X11370610Y-15405674D02*
X11380134Y-15424722D01*
X11380134Y-15424722D02*
X11380134Y-15529484D01*
X11380134Y-15424722D02*
X11389658Y-15405674D01*
X11389658Y-15405674D02*
X11408705Y-15396150D01*
X11408705Y-15396150D02*
X11437277Y-15396150D01*
X11437277Y-15396150D02*
X11456324Y-15405674D01*
X11456324Y-15405674D02*
X11465848Y-15424722D01*
X11465848Y-15424722D02*
X11465848Y-15529484D01*
X11561086Y-15529484D02*
X11561086Y-15396150D01*
X11561086Y-15415198D02*
X11570610Y-15405674D01*
X11570610Y-15405674D02*
X11589658Y-15396150D01*
X11589658Y-15396150D02*
X11618229Y-15396150D01*
X11618229Y-15396150D02*
X11637277Y-15405674D01*
X11637277Y-15405674D02*
X11646801Y-15424722D01*
X11646801Y-15424722D02*
X11646801Y-15529484D01*
X11646801Y-15424722D02*
X11656324Y-15405674D01*
X11656324Y-15405674D02*
X11675372Y-15396150D01*
X11675372Y-15396150D02*
X11703943Y-15396150D01*
X11703943Y-15396150D02*
X11722991Y-15405674D01*
X11722991Y-15405674D02*
X11732515Y-15424722D01*
X11732515Y-15424722D02*
X11732515Y-15529484D01*
X12122991Y-15319960D02*
X11951563Y-15577103D01*
X12380134Y-15329484D02*
X12399182Y-15329484D01*
X12399182Y-15329484D02*
X12418229Y-15339008D01*
X12418229Y-15339008D02*
X12427753Y-15348531D01*
X12427753Y-15348531D02*
X12437277Y-15367579D01*
X12437277Y-15367579D02*
X12446801Y-15405674D01*
X12446801Y-15405674D02*
X12446801Y-15453293D01*
X12446801Y-15453293D02*
X12437277Y-15491388D01*
X12437277Y-15491388D02*
X12427753Y-15510436D01*
X12427753Y-15510436D02*
X12418229Y-15519960D01*
X12418229Y-15519960D02*
X12399182Y-15529484D01*
X12399182Y-15529484D02*
X12380134Y-15529484D01*
X12380134Y-15529484D02*
X12361086Y-15519960D01*
X12361086Y-15519960D02*
X12351563Y-15510436D01*
X12351563Y-15510436D02*
X12342039Y-15491388D01*
X12342039Y-15491388D02*
X12332515Y-15453293D01*
X12332515Y-15453293D02*
X12332515Y-15405674D01*
X12332515Y-15405674D02*
X12342039Y-15367579D01*
X12342039Y-15367579D02*
X12351563Y-15348531D01*
X12351563Y-15348531D02*
X12361086Y-15339008D01*
X12361086Y-15339008D02*
X12380134Y-15329484D01*
X12532515Y-15510436D02*
X12542039Y-15519960D01*
X12542039Y-15519960D02*
X12532515Y-15529484D01*
X12532515Y-15529484D02*
X12522991Y-15519960D01*
X12522991Y-15519960D02*
X12532515Y-15510436D01*
X12532515Y-15510436D02*
X12532515Y-15529484D01*
X12665848Y-15329484D02*
X12684896Y-15329484D01*
X12684896Y-15329484D02*
X12703944Y-15339008D01*
X12703944Y-15339008D02*
X12713467Y-15348531D01*
X12713467Y-15348531D02*
X12722991Y-15367579D01*
X12722991Y-15367579D02*
X12732515Y-15405674D01*
X12732515Y-15405674D02*
X12732515Y-15453293D01*
X12732515Y-15453293D02*
X12722991Y-15491388D01*
X12722991Y-15491388D02*
X12713467Y-15510436D01*
X12713467Y-15510436D02*
X12703944Y-15519960D01*
X12703944Y-15519960D02*
X12684896Y-15529484D01*
X12684896Y-15529484D02*
X12665848Y-15529484D01*
X12665848Y-15529484D02*
X12646801Y-15519960D01*
X12646801Y-15519960D02*
X12637277Y-15510436D01*
X12637277Y-15510436D02*
X12627753Y-15491388D01*
X12627753Y-15491388D02*
X12618229Y-15453293D01*
X12618229Y-15453293D02*
X12618229Y-15405674D01*
X12618229Y-15405674D02*
X12627753Y-15367579D01*
X12627753Y-15367579D02*
X12637277Y-15348531D01*
X12637277Y-15348531D02*
X12646801Y-15339008D01*
X12646801Y-15339008D02*
X12665848Y-15329484D01*
X12903944Y-15396150D02*
X12903944Y-15529484D01*
X12856325Y-15319960D02*
X12808706Y-15462817D01*
X12808706Y-15462817D02*
X12932515Y-15462817D01*
X13046801Y-15329484D02*
X13065848Y-15329484D01*
X13065848Y-15329484D02*
X13084896Y-15339008D01*
X13084896Y-15339008D02*
X13094420Y-15348531D01*
X13094420Y-15348531D02*
X13103944Y-15367579D01*
X13103944Y-15367579D02*
X13113467Y-15405674D01*
X13113467Y-15405674D02*
X13113467Y-15453293D01*
X13113467Y-15453293D02*
X13103944Y-15491388D01*
X13103944Y-15491388D02*
X13094420Y-15510436D01*
X13094420Y-15510436D02*
X13084896Y-15519960D01*
X13084896Y-15519960D02*
X13065848Y-15529484D01*
X13065848Y-15529484D02*
X13046801Y-15529484D01*
X13046801Y-15529484D02*
X13027753Y-15519960D01*
X13027753Y-15519960D02*
X13018229Y-15510436D01*
X13018229Y-15510436D02*
X13008706Y-15491388D01*
X13008706Y-15491388D02*
X12999182Y-15453293D01*
X12999182Y-15453293D02*
X12999182Y-15405674D01*
X12999182Y-15405674D02*
X13008706Y-15367579D01*
X13008706Y-15367579D02*
X13018229Y-15348531D01*
X13018229Y-15348531D02*
X13027753Y-15339008D01*
X13027753Y-15339008D02*
X13046801Y-15329484D01*
X13189658Y-15348531D02*
X13199182Y-15339008D01*
X13199182Y-15339008D02*
X13218229Y-15329484D01*
X13218229Y-15329484D02*
X13265848Y-15329484D01*
X13265848Y-15329484D02*
X13284896Y-15339008D01*
X13284896Y-15339008D02*
X13294420Y-15348531D01*
X13294420Y-15348531D02*
X13303944Y-15367579D01*
X13303944Y-15367579D02*
X13303944Y-15386627D01*
X13303944Y-15386627D02*
X13294420Y-15415198D01*
X13294420Y-15415198D02*
X13180134Y-15529484D01*
X13180134Y-15529484D02*
X13303944Y-15529484D01*
X13380134Y-15329484D02*
X13380134Y-15367579D01*
X13456325Y-15329484D02*
X13456325Y-15367579D01*
X13751563Y-15605674D02*
X13742039Y-15596150D01*
X13742039Y-15596150D02*
X13722991Y-15567579D01*
X13722991Y-15567579D02*
X13713468Y-15548531D01*
X13713468Y-15548531D02*
X13703944Y-15519960D01*
X13703944Y-15519960D02*
X13694420Y-15472341D01*
X13694420Y-15472341D02*
X13694420Y-15434246D01*
X13694420Y-15434246D02*
X13703944Y-15386627D01*
X13703944Y-15386627D02*
X13713468Y-15358055D01*
X13713468Y-15358055D02*
X13722991Y-15339008D01*
X13722991Y-15339008D02*
X13742039Y-15310436D01*
X13742039Y-15310436D02*
X13751563Y-15300912D01*
X13913468Y-15396150D02*
X13913468Y-15529484D01*
X13865848Y-15319960D02*
X13818229Y-15462817D01*
X13818229Y-15462817D02*
X13942039Y-15462817D01*
X14046801Y-15415198D02*
X14027753Y-15405674D01*
X14027753Y-15405674D02*
X14018229Y-15396150D01*
X14018229Y-15396150D02*
X14008706Y-15377103D01*
X14008706Y-15377103D02*
X14008706Y-15367579D01*
X14008706Y-15367579D02*
X14018229Y-15348531D01*
X14018229Y-15348531D02*
X14027753Y-15339008D01*
X14027753Y-15339008D02*
X14046801Y-15329484D01*
X14046801Y-15329484D02*
X14084896Y-15329484D01*
X14084896Y-15329484D02*
X14103944Y-15339008D01*
X14103944Y-15339008D02*
X14113468Y-15348531D01*
X14113468Y-15348531D02*
X14122991Y-15367579D01*
X14122991Y-15367579D02*
X14122991Y-15377103D01*
X14122991Y-15377103D02*
X14113468Y-15396150D01*
X14113468Y-15396150D02*
X14103944Y-15405674D01*
X14103944Y-15405674D02*
X14084896Y-15415198D01*
X14084896Y-15415198D02*
X14046801Y-15415198D01*
X14046801Y-15415198D02*
X14027753Y-15424722D01*
X14027753Y-15424722D02*
X14018229Y-15434246D01*
X14018229Y-15434246D02*
X14008706Y-15453293D01*
X14008706Y-15453293D02*
X14008706Y-15491388D01*
X14008706Y-15491388D02*
X14018229Y-15510436D01*
X14018229Y-15510436D02*
X14027753Y-15519960D01*
X14027753Y-15519960D02*
X14046801Y-15529484D01*
X14046801Y-15529484D02*
X14084896Y-15529484D01*
X14084896Y-15529484D02*
X14103944Y-15519960D01*
X14103944Y-15519960D02*
X14113468Y-15510436D01*
X14113468Y-15510436D02*
X14122991Y-15491388D01*
X14122991Y-15491388D02*
X14122991Y-15453293D01*
X14122991Y-15453293D02*
X14113468Y-15434246D01*
X14113468Y-15434246D02*
X14103944Y-15424722D01*
X14103944Y-15424722D02*
X14084896Y-15415198D01*
X14361087Y-15529484D02*
X14361087Y-15329484D01*
X14446801Y-15529484D02*
X14446801Y-15424722D01*
X14446801Y-15424722D02*
X14437277Y-15405674D01*
X14437277Y-15405674D02*
X14418230Y-15396150D01*
X14418230Y-15396150D02*
X14389658Y-15396150D01*
X14389658Y-15396150D02*
X14370610Y-15405674D01*
X14370610Y-15405674D02*
X14361087Y-15415198D01*
X14570610Y-15529484D02*
X14551563Y-15519960D01*
X14551563Y-15519960D02*
X14542039Y-15510436D01*
X14542039Y-15510436D02*
X14532515Y-15491388D01*
X14532515Y-15491388D02*
X14532515Y-15434246D01*
X14532515Y-15434246D02*
X14542039Y-15415198D01*
X14542039Y-15415198D02*
X14551563Y-15405674D01*
X14551563Y-15405674D02*
X14570610Y-15396150D01*
X14570610Y-15396150D02*
X14599182Y-15396150D01*
X14599182Y-15396150D02*
X14618230Y-15405674D01*
X14618230Y-15405674D02*
X14627753Y-15415198D01*
X14627753Y-15415198D02*
X14637277Y-15434246D01*
X14637277Y-15434246D02*
X14637277Y-15491388D01*
X14637277Y-15491388D02*
X14627753Y-15510436D01*
X14627753Y-15510436D02*
X14618230Y-15519960D01*
X14618230Y-15519960D02*
X14599182Y-15529484D01*
X14599182Y-15529484D02*
X14570610Y-15529484D01*
X14751563Y-15529484D02*
X14732515Y-15519960D01*
X14732515Y-15519960D02*
X14722991Y-15500912D01*
X14722991Y-15500912D02*
X14722991Y-15329484D01*
X14903944Y-15519960D02*
X14884896Y-15529484D01*
X14884896Y-15529484D02*
X14846801Y-15529484D01*
X14846801Y-15529484D02*
X14827753Y-15519960D01*
X14827753Y-15519960D02*
X14818230Y-15500912D01*
X14818230Y-15500912D02*
X14818230Y-15424722D01*
X14818230Y-15424722D02*
X14827753Y-15405674D01*
X14827753Y-15405674D02*
X14846801Y-15396150D01*
X14846801Y-15396150D02*
X14884896Y-15396150D01*
X14884896Y-15396150D02*
X14903944Y-15405674D01*
X14903944Y-15405674D02*
X14913468Y-15424722D01*
X14913468Y-15424722D02*
X14913468Y-15443769D01*
X14913468Y-15443769D02*
X14818230Y-15462817D01*
X14989658Y-15519960D02*
X15008706Y-15529484D01*
X15008706Y-15529484D02*
X15046801Y-15529484D01*
X15046801Y-15529484D02*
X15065849Y-15519960D01*
X15065849Y-15519960D02*
X15075372Y-15500912D01*
X15075372Y-15500912D02*
X15075372Y-15491388D01*
X15075372Y-15491388D02*
X15065849Y-15472341D01*
X15065849Y-15472341D02*
X15046801Y-15462817D01*
X15046801Y-15462817D02*
X15018230Y-15462817D01*
X15018230Y-15462817D02*
X14999182Y-15453293D01*
X14999182Y-15453293D02*
X14989658Y-15434246D01*
X14989658Y-15434246D02*
X14989658Y-15424722D01*
X14989658Y-15424722D02*
X14999182Y-15405674D01*
X14999182Y-15405674D02*
X15018230Y-15396150D01*
X15018230Y-15396150D02*
X15046801Y-15396150D01*
X15046801Y-15396150D02*
X15065849Y-15405674D01*
X15142039Y-15605674D02*
X15151563Y-15596150D01*
X15151563Y-15596150D02*
X15170611Y-15567579D01*
X15170611Y-15567579D02*
X15180134Y-15548531D01*
X15180134Y-15548531D02*
X15189658Y-15519960D01*
X15189658Y-15519960D02*
X15199182Y-15472341D01*
X15199182Y-15472341D02*
X15199182Y-15434246D01*
X15199182Y-15434246D02*
X15189658Y-15386627D01*
X15189658Y-15386627D02*
X15180134Y-15358055D01*
X15180134Y-15358055D02*
X15170611Y-15339008D01*
X15170611Y-15339008D02*
X15151563Y-15310436D01*
X15151563Y-15310436D02*
X15142039Y-15300912D01*
M02*
