M48
; DRILL file {KiCad 8.0.2} date 2024-08-26T11:56:35+0900
; FORMAT={-:-/ absolute / inch / decimal}
; #@! TF.CreationDate,2024-08-26T11:56:35+09:00
; #@! TF.GenerationSoftware,Kicad,Pcbnew,8.0.2
; #@! TF.FileFunction,Plated,1,2,PTH
FMAT,2
INCH
; #@! TA.AperFunction,Plated,PTH,ViaDrill
T1C0.0118
; #@! TA.AperFunction,Plated,PTH,ComponentDrill
T2C0.0217
; #@! TA.AperFunction,Plated,PTH,ComponentDrill
T3C0.0315
; #@! TA.AperFunction,Plated,PTH,ComponentDrill
T4C0.0394
; #@! TA.AperFunction,Plated,PTH,ComponentDrill
T5C0.0402
%
G90
G05
T1
X6.55Y-2.0
X6.75Y-4.625
X6.95Y-2.0
X7.35Y-2.0
T2
X6.826Y-2.6819
X6.8268Y-3.8
X6.926Y-2.6819
X6.9268Y-3.8
X7.026Y-2.6819
X7.0268Y-3.8
X7.126Y-2.6819
X7.1268Y-3.8
X7.226Y-2.6819
X7.2268Y-3.8
X7.326Y-2.6819
X7.3268Y-3.8
X7.426Y-2.6819
X7.4268Y-3.8
X7.526Y-2.6819
X7.5268Y-3.8
T3
X5.9984Y-2.7906
X5.9984Y-2.9906
X5.9984Y-3.1906
X5.9984Y-3.3909
X5.9984Y-3.5906
X5.9984Y-3.7906
X5.9984Y-3.9906
X5.9984Y-4.1906
X6.0Y-1.7496
X6.0Y-1.8496
X6.0Y-1.9496
X6.0Y-2.0496
X6.0Y-2.1496
X6.0Y-2.2496
X6.0Y-2.3496
X6.0Y-2.4496
X6.2984Y-2.7906
X6.2984Y-2.9906
X6.2984Y-3.1906
X6.2984Y-3.3909
X6.2984Y-3.5906
X6.2984Y-3.7906
X6.2984Y-3.9906
X6.2984Y-4.1906
X6.3Y-1.7496
X6.3Y-1.8496
X6.3Y-1.9496
X6.3Y-2.0496
X6.3Y-2.1496
X6.3Y-2.2496
X6.3Y-2.3496
X6.3Y-2.4496
X6.9Y-4.6
X6.9Y-4.9
X7.0Y-4.6
X7.0Y-4.9
X7.0004Y-4.1
X7.0004Y-4.4
X7.1Y-4.6
X7.1Y-4.9
X7.1004Y-4.1
X7.1004Y-4.4
X7.2Y-4.6
X7.2Y-4.9
X7.2004Y-4.1
X7.2004Y-4.4
X7.3Y-4.6
X7.3Y-4.9
X7.3004Y-4.1
X7.3004Y-4.4
X7.4Y-4.6
X7.4Y-4.9
X7.4004Y-4.1
X7.4004Y-4.4
X7.5Y-4.6
X7.5Y-4.9
X7.5004Y-4.1
X7.5004Y-4.4
X7.6Y-4.6
X7.6Y-4.9
X7.6004Y-4.1
X7.6004Y-4.4
X7.7004Y-4.1
X7.7004Y-4.4
X7.8004Y-4.1
X7.8004Y-4.4
T4
X4.175Y-4.575
X4.175Y-4.675
X4.175Y-4.775
X4.175Y-4.875
X4.3484Y-2.05
X4.3484Y-2.15
X4.3484Y-2.25
X4.3484Y-2.35
X4.3484Y-2.45
X4.3484Y-2.55
X4.3484Y-2.65
X4.3484Y-2.75
X4.3484Y-2.85
X4.3484Y-2.95
X4.3484Y-3.05
X4.3484Y-3.15
X4.3484Y-3.25
X4.3484Y-3.35
X4.3484Y-3.45
X4.3484Y-3.55
X4.3484Y-3.65
X4.3484Y-3.75
X4.3484Y-3.85
X4.3484Y-3.95
X4.3484Y-4.05
X4.3484Y-4.15
X4.3484Y-4.25
X4.3484Y-4.35
X4.375Y-4.575
X4.375Y-4.675
X4.375Y-4.775
X4.375Y-4.875
X4.625Y-4.925
X4.625Y-5.025
X4.625Y-5.125
X4.625Y-5.225
X5.4Y-4.925
X5.4Y-5.025
X5.4Y-5.125
X5.4Y-5.225
X5.6226Y-2.05
X5.6226Y-2.15
X5.6226Y-2.25
X5.6226Y-2.35
X5.6226Y-2.45
X5.6226Y-2.55
X5.6226Y-2.65
X5.6226Y-2.75
X5.6226Y-2.85
X5.6226Y-2.95
X5.6226Y-3.05
X5.6226Y-3.15
X5.6226Y-3.25
X5.6226Y-3.35
X5.6226Y-3.45
X5.6226Y-3.55
X5.6226Y-3.65
X5.6226Y-3.75
X5.6226Y-3.85
X5.6226Y-3.95
X5.6226Y-4.05
X5.6226Y-4.15
X5.6226Y-4.25
X5.6226Y-4.35
X5.8256Y-4.575
X5.9256Y-4.575
X6.025Y-4.9
X6.0256Y-4.575
X6.125Y-4.9
X6.1256Y-4.575
X6.225Y-4.9
X6.2256Y-4.575
X6.325Y-4.9
X6.3256Y-4.575
X6.425Y-4.9
X6.4256Y-4.575
X6.525Y-4.9
X6.5256Y-4.575
T5
X4.55Y-2.05
X4.55Y-2.15
X4.55Y-2.25
X4.55Y-2.35
X4.55Y-2.45
X4.55Y-2.55
X4.55Y-2.65
X4.55Y-2.75
X4.55Y-2.85
X4.55Y-2.95
X4.55Y-3.05
X4.55Y-3.15
X4.55Y-3.25
X4.55Y-3.35
X4.55Y-3.45
X4.55Y-3.55
X4.55Y-3.65
X4.55Y-3.75
X4.55Y-3.85
X4.55Y-3.95
X4.55Y-4.05
X4.55Y-4.15
X4.55Y-4.25
X4.55Y-4.35
X5.4484Y-2.05
X5.4484Y-2.15
X5.4484Y-2.25
X5.4484Y-2.35
X5.4484Y-2.45
X5.4484Y-2.55
X5.4484Y-2.65
X5.4484Y-2.75
X5.4484Y-2.85
X5.4484Y-2.95
X5.4484Y-3.05
X5.4484Y-3.15
X5.4484Y-3.25
X5.4484Y-3.35
X5.4484Y-3.45
X5.4484Y-3.55
X5.4484Y-3.65
X5.4484Y-3.75
X5.4484Y-3.85
X5.4484Y-3.95
X5.4484Y-4.05
X5.4484Y-4.15
X5.4484Y-4.25
X5.4484Y-4.35
M30
