%TF.GenerationSoftware,KiCad,Pcbnew,8.0.2*%
%TF.CreationDate,2024-08-26T11:56:40+09:00*%
%TF.ProjectId,FPGA_Board_v1,46504741-5f42-46f6-9172-645f76312e6b,rev?*%
%TF.SameCoordinates,Original*%
%TF.FileFunction,Drillmap*%
%TF.FilePolarity,Positive*%
%FSLAX45Y45*%
G04 Gerber Fmt 4.5, Leading zero omitted, Abs format (unit mm)*
G04 Created by KiCad (PCBNEW 8.0.2) date 2024-08-26 11:56:40*
%MOMM*%
%LPD*%
G01*
G04 APERTURE LIST*
%ADD10C,0.050000*%
%ADD11C,0.200000*%
%ADD12C,0.320000*%
G04 APERTURE END LIST*
D10*
X10179000Y-3739500D02*
X20179000Y-3739500D01*
X20179000Y-13739500D01*
X10179000Y-13739500D01*
X10179000Y-3739500D01*
D11*
D12*
X10569500Y-4094500D02*
X10889500Y-4414500D01*
X10889500Y-4094500D02*
X10569500Y-4414500D01*
X10569500Y-13048000D02*
X10889500Y-13368000D01*
X10889500Y-13048000D02*
X10569500Y-13368000D01*
X19459500Y-4094500D02*
X19779500Y-4414500D01*
X19779500Y-4094500D02*
X19459500Y-4414500D01*
X19459500Y-13048000D02*
X19779500Y-13368000D01*
X19779500Y-13048000D02*
X19459500Y-13368000D01*
D11*
X10437277Y-14053484D02*
X10437277Y-13853484D01*
X10437277Y-13853484D02*
X10484896Y-13853484D01*
X10484896Y-13853484D02*
X10513467Y-13863008D01*
X10513467Y-13863008D02*
X10532515Y-13882055D01*
X10532515Y-13882055D02*
X10542039Y-13901103D01*
X10542039Y-13901103D02*
X10551563Y-13939198D01*
X10551563Y-13939198D02*
X10551563Y-13967769D01*
X10551563Y-13967769D02*
X10542039Y-14005865D01*
X10542039Y-14005865D02*
X10532515Y-14024912D01*
X10532515Y-14024912D02*
X10513467Y-14043960D01*
X10513467Y-14043960D02*
X10484896Y-14053484D01*
X10484896Y-14053484D02*
X10437277Y-14053484D01*
X10637277Y-14053484D02*
X10637277Y-13920150D01*
X10637277Y-13958246D02*
X10646801Y-13939198D01*
X10646801Y-13939198D02*
X10656324Y-13929674D01*
X10656324Y-13929674D02*
X10675372Y-13920150D01*
X10675372Y-13920150D02*
X10694420Y-13920150D01*
X10761086Y-14053484D02*
X10761086Y-13920150D01*
X10761086Y-13853484D02*
X10751563Y-13863008D01*
X10751563Y-13863008D02*
X10761086Y-13872531D01*
X10761086Y-13872531D02*
X10770610Y-13863008D01*
X10770610Y-13863008D02*
X10761086Y-13853484D01*
X10761086Y-13853484D02*
X10761086Y-13872531D01*
X10884896Y-14053484D02*
X10865848Y-14043960D01*
X10865848Y-14043960D02*
X10856324Y-14024912D01*
X10856324Y-14024912D02*
X10856324Y-13853484D01*
X10989658Y-14053484D02*
X10970610Y-14043960D01*
X10970610Y-14043960D02*
X10961086Y-14024912D01*
X10961086Y-14024912D02*
X10961086Y-13853484D01*
X11218229Y-14053484D02*
X11218229Y-13853484D01*
X11218229Y-13853484D02*
X11284896Y-13996341D01*
X11284896Y-13996341D02*
X11351562Y-13853484D01*
X11351562Y-13853484D02*
X11351562Y-14053484D01*
X11532515Y-14053484D02*
X11532515Y-13948722D01*
X11532515Y-13948722D02*
X11522991Y-13929674D01*
X11522991Y-13929674D02*
X11503943Y-13920150D01*
X11503943Y-13920150D02*
X11465848Y-13920150D01*
X11465848Y-13920150D02*
X11446801Y-13929674D01*
X11532515Y-14043960D02*
X11513467Y-14053484D01*
X11513467Y-14053484D02*
X11465848Y-14053484D01*
X11465848Y-14053484D02*
X11446801Y-14043960D01*
X11446801Y-14043960D02*
X11437277Y-14024912D01*
X11437277Y-14024912D02*
X11437277Y-14005865D01*
X11437277Y-14005865D02*
X11446801Y-13986817D01*
X11446801Y-13986817D02*
X11465848Y-13977293D01*
X11465848Y-13977293D02*
X11513467Y-13977293D01*
X11513467Y-13977293D02*
X11532515Y-13967769D01*
X11627753Y-13920150D02*
X11627753Y-14120150D01*
X11627753Y-13929674D02*
X11646801Y-13920150D01*
X11646801Y-13920150D02*
X11684896Y-13920150D01*
X11684896Y-13920150D02*
X11703943Y-13929674D01*
X11703943Y-13929674D02*
X11713467Y-13939198D01*
X11713467Y-13939198D02*
X11722991Y-13958246D01*
X11722991Y-13958246D02*
X11722991Y-14015388D01*
X11722991Y-14015388D02*
X11713467Y-14034436D01*
X11713467Y-14034436D02*
X11703943Y-14043960D01*
X11703943Y-14043960D02*
X11684896Y-14053484D01*
X11684896Y-14053484D02*
X11646801Y-14053484D01*
X11646801Y-14053484D02*
X11627753Y-14043960D01*
X11808705Y-14034436D02*
X11818229Y-14043960D01*
X11818229Y-14043960D02*
X11808705Y-14053484D01*
X11808705Y-14053484D02*
X11799182Y-14043960D01*
X11799182Y-14043960D02*
X11808705Y-14034436D01*
X11808705Y-14034436D02*
X11808705Y-14053484D01*
X11808705Y-13929674D02*
X11818229Y-13939198D01*
X11818229Y-13939198D02*
X11808705Y-13948722D01*
X11808705Y-13948722D02*
X11799182Y-13939198D01*
X11799182Y-13939198D02*
X11808705Y-13929674D01*
X11808705Y-13929674D02*
X11808705Y-13948722D01*
X9976500Y-14282000D02*
X10176500Y-14482000D01*
X10176500Y-14282000D02*
X9976500Y-14482000D01*
X10418229Y-14273484D02*
X10542039Y-14273484D01*
X10542039Y-14273484D02*
X10475372Y-14349674D01*
X10475372Y-14349674D02*
X10503944Y-14349674D01*
X10503944Y-14349674D02*
X10522991Y-14359198D01*
X10522991Y-14359198D02*
X10532515Y-14368722D01*
X10532515Y-14368722D02*
X10542039Y-14387769D01*
X10542039Y-14387769D02*
X10542039Y-14435388D01*
X10542039Y-14435388D02*
X10532515Y-14454436D01*
X10532515Y-14454436D02*
X10522991Y-14463960D01*
X10522991Y-14463960D02*
X10503944Y-14473484D01*
X10503944Y-14473484D02*
X10446801Y-14473484D01*
X10446801Y-14473484D02*
X10427753Y-14463960D01*
X10427753Y-14463960D02*
X10418229Y-14454436D01*
X10627753Y-14454436D02*
X10637277Y-14463960D01*
X10637277Y-14463960D02*
X10627753Y-14473484D01*
X10627753Y-14473484D02*
X10618229Y-14463960D01*
X10618229Y-14463960D02*
X10627753Y-14454436D01*
X10627753Y-14454436D02*
X10627753Y-14473484D01*
X10713467Y-14292531D02*
X10722991Y-14283008D01*
X10722991Y-14283008D02*
X10742039Y-14273484D01*
X10742039Y-14273484D02*
X10789658Y-14273484D01*
X10789658Y-14273484D02*
X10808705Y-14283008D01*
X10808705Y-14283008D02*
X10818229Y-14292531D01*
X10818229Y-14292531D02*
X10827753Y-14311579D01*
X10827753Y-14311579D02*
X10827753Y-14330627D01*
X10827753Y-14330627D02*
X10818229Y-14359198D01*
X10818229Y-14359198D02*
X10703944Y-14473484D01*
X10703944Y-14473484D02*
X10827753Y-14473484D01*
X10951563Y-14273484D02*
X10970610Y-14273484D01*
X10970610Y-14273484D02*
X10989658Y-14283008D01*
X10989658Y-14283008D02*
X10999182Y-14292531D01*
X10999182Y-14292531D02*
X11008705Y-14311579D01*
X11008705Y-14311579D02*
X11018229Y-14349674D01*
X11018229Y-14349674D02*
X11018229Y-14397293D01*
X11018229Y-14397293D02*
X11008705Y-14435388D01*
X11008705Y-14435388D02*
X10999182Y-14454436D01*
X10999182Y-14454436D02*
X10989658Y-14463960D01*
X10989658Y-14463960D02*
X10970610Y-14473484D01*
X10970610Y-14473484D02*
X10951563Y-14473484D01*
X10951563Y-14473484D02*
X10932515Y-14463960D01*
X10932515Y-14463960D02*
X10922991Y-14454436D01*
X10922991Y-14454436D02*
X10913467Y-14435388D01*
X10913467Y-14435388D02*
X10903944Y-14397293D01*
X10903944Y-14397293D02*
X10903944Y-14349674D01*
X10903944Y-14349674D02*
X10913467Y-14311579D01*
X10913467Y-14311579D02*
X10922991Y-14292531D01*
X10922991Y-14292531D02*
X10932515Y-14283008D01*
X10932515Y-14283008D02*
X10951563Y-14273484D01*
X11142039Y-14273484D02*
X11161086Y-14273484D01*
X11161086Y-14273484D02*
X11180134Y-14283008D01*
X11180134Y-14283008D02*
X11189658Y-14292531D01*
X11189658Y-14292531D02*
X11199182Y-14311579D01*
X11199182Y-14311579D02*
X11208705Y-14349674D01*
X11208705Y-14349674D02*
X11208705Y-14397293D01*
X11208705Y-14397293D02*
X11199182Y-14435388D01*
X11199182Y-14435388D02*
X11189658Y-14454436D01*
X11189658Y-14454436D02*
X11180134Y-14463960D01*
X11180134Y-14463960D02*
X11161086Y-14473484D01*
X11161086Y-14473484D02*
X11142039Y-14473484D01*
X11142039Y-14473484D02*
X11122991Y-14463960D01*
X11122991Y-14463960D02*
X11113467Y-14454436D01*
X11113467Y-14454436D02*
X11103944Y-14435388D01*
X11103944Y-14435388D02*
X11094420Y-14397293D01*
X11094420Y-14397293D02*
X11094420Y-14349674D01*
X11094420Y-14349674D02*
X11103944Y-14311579D01*
X11103944Y-14311579D02*
X11113467Y-14292531D01*
X11113467Y-14292531D02*
X11122991Y-14283008D01*
X11122991Y-14283008D02*
X11142039Y-14273484D01*
X11294420Y-14473484D02*
X11294420Y-14340150D01*
X11294420Y-14359198D02*
X11303943Y-14349674D01*
X11303943Y-14349674D02*
X11322991Y-14340150D01*
X11322991Y-14340150D02*
X11351563Y-14340150D01*
X11351563Y-14340150D02*
X11370610Y-14349674D01*
X11370610Y-14349674D02*
X11380134Y-14368722D01*
X11380134Y-14368722D02*
X11380134Y-14473484D01*
X11380134Y-14368722D02*
X11389658Y-14349674D01*
X11389658Y-14349674D02*
X11408705Y-14340150D01*
X11408705Y-14340150D02*
X11437277Y-14340150D01*
X11437277Y-14340150D02*
X11456324Y-14349674D01*
X11456324Y-14349674D02*
X11465848Y-14368722D01*
X11465848Y-14368722D02*
X11465848Y-14473484D01*
X11561086Y-14473484D02*
X11561086Y-14340150D01*
X11561086Y-14359198D02*
X11570610Y-14349674D01*
X11570610Y-14349674D02*
X11589658Y-14340150D01*
X11589658Y-14340150D02*
X11618229Y-14340150D01*
X11618229Y-14340150D02*
X11637277Y-14349674D01*
X11637277Y-14349674D02*
X11646801Y-14368722D01*
X11646801Y-14368722D02*
X11646801Y-14473484D01*
X11646801Y-14368722D02*
X11656324Y-14349674D01*
X11656324Y-14349674D02*
X11675372Y-14340150D01*
X11675372Y-14340150D02*
X11703943Y-14340150D01*
X11703943Y-14340150D02*
X11722991Y-14349674D01*
X11722991Y-14349674D02*
X11732515Y-14368722D01*
X11732515Y-14368722D02*
X11732515Y-14473484D01*
X12122991Y-14263960D02*
X11951563Y-14521103D01*
X12380134Y-14273484D02*
X12399182Y-14273484D01*
X12399182Y-14273484D02*
X12418229Y-14283008D01*
X12418229Y-14283008D02*
X12427753Y-14292531D01*
X12427753Y-14292531D02*
X12437277Y-14311579D01*
X12437277Y-14311579D02*
X12446801Y-14349674D01*
X12446801Y-14349674D02*
X12446801Y-14397293D01*
X12446801Y-14397293D02*
X12437277Y-14435388D01*
X12437277Y-14435388D02*
X12427753Y-14454436D01*
X12427753Y-14454436D02*
X12418229Y-14463960D01*
X12418229Y-14463960D02*
X12399182Y-14473484D01*
X12399182Y-14473484D02*
X12380134Y-14473484D01*
X12380134Y-14473484D02*
X12361086Y-14463960D01*
X12361086Y-14463960D02*
X12351563Y-14454436D01*
X12351563Y-14454436D02*
X12342039Y-14435388D01*
X12342039Y-14435388D02*
X12332515Y-14397293D01*
X12332515Y-14397293D02*
X12332515Y-14349674D01*
X12332515Y-14349674D02*
X12342039Y-14311579D01*
X12342039Y-14311579D02*
X12351563Y-14292531D01*
X12351563Y-14292531D02*
X12361086Y-14283008D01*
X12361086Y-14283008D02*
X12380134Y-14273484D01*
X12532515Y-14454436D02*
X12542039Y-14463960D01*
X12542039Y-14463960D02*
X12532515Y-14473484D01*
X12532515Y-14473484D02*
X12522991Y-14463960D01*
X12522991Y-14463960D02*
X12532515Y-14454436D01*
X12532515Y-14454436D02*
X12532515Y-14473484D01*
X12732515Y-14473484D02*
X12618229Y-14473484D01*
X12675372Y-14473484D02*
X12675372Y-14273484D01*
X12675372Y-14273484D02*
X12656325Y-14302055D01*
X12656325Y-14302055D02*
X12637277Y-14321103D01*
X12637277Y-14321103D02*
X12618229Y-14330627D01*
X12808706Y-14292531D02*
X12818229Y-14283008D01*
X12818229Y-14283008D02*
X12837277Y-14273484D01*
X12837277Y-14273484D02*
X12884896Y-14273484D01*
X12884896Y-14273484D02*
X12903944Y-14283008D01*
X12903944Y-14283008D02*
X12913467Y-14292531D01*
X12913467Y-14292531D02*
X12922991Y-14311579D01*
X12922991Y-14311579D02*
X12922991Y-14330627D01*
X12922991Y-14330627D02*
X12913467Y-14359198D01*
X12913467Y-14359198D02*
X12799182Y-14473484D01*
X12799182Y-14473484D02*
X12922991Y-14473484D01*
X13094420Y-14273484D02*
X13056325Y-14273484D01*
X13056325Y-14273484D02*
X13037277Y-14283008D01*
X13037277Y-14283008D02*
X13027753Y-14292531D01*
X13027753Y-14292531D02*
X13008706Y-14321103D01*
X13008706Y-14321103D02*
X12999182Y-14359198D01*
X12999182Y-14359198D02*
X12999182Y-14435388D01*
X12999182Y-14435388D02*
X13008706Y-14454436D01*
X13008706Y-14454436D02*
X13018229Y-14463960D01*
X13018229Y-14463960D02*
X13037277Y-14473484D01*
X13037277Y-14473484D02*
X13075372Y-14473484D01*
X13075372Y-14473484D02*
X13094420Y-14463960D01*
X13094420Y-14463960D02*
X13103944Y-14454436D01*
X13103944Y-14454436D02*
X13113467Y-14435388D01*
X13113467Y-14435388D02*
X13113467Y-14387769D01*
X13113467Y-14387769D02*
X13103944Y-14368722D01*
X13103944Y-14368722D02*
X13094420Y-14359198D01*
X13094420Y-14359198D02*
X13075372Y-14349674D01*
X13075372Y-14349674D02*
X13037277Y-14349674D01*
X13037277Y-14349674D02*
X13018229Y-14359198D01*
X13018229Y-14359198D02*
X13008706Y-14368722D01*
X13008706Y-14368722D02*
X12999182Y-14387769D01*
X13237277Y-14273484D02*
X13256325Y-14273484D01*
X13256325Y-14273484D02*
X13275372Y-14283008D01*
X13275372Y-14283008D02*
X13284896Y-14292531D01*
X13284896Y-14292531D02*
X13294420Y-14311579D01*
X13294420Y-14311579D02*
X13303944Y-14349674D01*
X13303944Y-14349674D02*
X13303944Y-14397293D01*
X13303944Y-14397293D02*
X13294420Y-14435388D01*
X13294420Y-14435388D02*
X13284896Y-14454436D01*
X13284896Y-14454436D02*
X13275372Y-14463960D01*
X13275372Y-14463960D02*
X13256325Y-14473484D01*
X13256325Y-14473484D02*
X13237277Y-14473484D01*
X13237277Y-14473484D02*
X13218229Y-14463960D01*
X13218229Y-14463960D02*
X13208706Y-14454436D01*
X13208706Y-14454436D02*
X13199182Y-14435388D01*
X13199182Y-14435388D02*
X13189658Y-14397293D01*
X13189658Y-14397293D02*
X13189658Y-14349674D01*
X13189658Y-14349674D02*
X13199182Y-14311579D01*
X13199182Y-14311579D02*
X13208706Y-14292531D01*
X13208706Y-14292531D02*
X13218229Y-14283008D01*
X13218229Y-14283008D02*
X13237277Y-14273484D01*
X13380134Y-14273484D02*
X13380134Y-14311579D01*
X13456325Y-14273484D02*
X13456325Y-14311579D01*
X13751563Y-14549674D02*
X13742039Y-14540150D01*
X13742039Y-14540150D02*
X13722991Y-14511579D01*
X13722991Y-14511579D02*
X13713468Y-14492531D01*
X13713468Y-14492531D02*
X13703944Y-14463960D01*
X13703944Y-14463960D02*
X13694420Y-14416341D01*
X13694420Y-14416341D02*
X13694420Y-14378246D01*
X13694420Y-14378246D02*
X13703944Y-14330627D01*
X13703944Y-14330627D02*
X13713468Y-14302055D01*
X13713468Y-14302055D02*
X13722991Y-14283008D01*
X13722991Y-14283008D02*
X13742039Y-14254436D01*
X13742039Y-14254436D02*
X13751563Y-14244912D01*
X13913468Y-14340150D02*
X13913468Y-14473484D01*
X13865848Y-14263960D02*
X13818229Y-14406817D01*
X13818229Y-14406817D02*
X13942039Y-14406817D01*
X14170610Y-14473484D02*
X14170610Y-14273484D01*
X14256325Y-14473484D02*
X14256325Y-14368722D01*
X14256325Y-14368722D02*
X14246801Y-14349674D01*
X14246801Y-14349674D02*
X14227753Y-14340150D01*
X14227753Y-14340150D02*
X14199182Y-14340150D01*
X14199182Y-14340150D02*
X14180134Y-14349674D01*
X14180134Y-14349674D02*
X14170610Y-14359198D01*
X14380134Y-14473484D02*
X14361087Y-14463960D01*
X14361087Y-14463960D02*
X14351563Y-14454436D01*
X14351563Y-14454436D02*
X14342039Y-14435388D01*
X14342039Y-14435388D02*
X14342039Y-14378246D01*
X14342039Y-14378246D02*
X14351563Y-14359198D01*
X14351563Y-14359198D02*
X14361087Y-14349674D01*
X14361087Y-14349674D02*
X14380134Y-14340150D01*
X14380134Y-14340150D02*
X14408706Y-14340150D01*
X14408706Y-14340150D02*
X14427753Y-14349674D01*
X14427753Y-14349674D02*
X14437277Y-14359198D01*
X14437277Y-14359198D02*
X14446801Y-14378246D01*
X14446801Y-14378246D02*
X14446801Y-14435388D01*
X14446801Y-14435388D02*
X14437277Y-14454436D01*
X14437277Y-14454436D02*
X14427753Y-14463960D01*
X14427753Y-14463960D02*
X14408706Y-14473484D01*
X14408706Y-14473484D02*
X14380134Y-14473484D01*
X14561087Y-14473484D02*
X14542039Y-14463960D01*
X14542039Y-14463960D02*
X14532515Y-14444912D01*
X14532515Y-14444912D02*
X14532515Y-14273484D01*
X14713468Y-14463960D02*
X14694420Y-14473484D01*
X14694420Y-14473484D02*
X14656325Y-14473484D01*
X14656325Y-14473484D02*
X14637277Y-14463960D01*
X14637277Y-14463960D02*
X14627753Y-14444912D01*
X14627753Y-14444912D02*
X14627753Y-14368722D01*
X14627753Y-14368722D02*
X14637277Y-14349674D01*
X14637277Y-14349674D02*
X14656325Y-14340150D01*
X14656325Y-14340150D02*
X14694420Y-14340150D01*
X14694420Y-14340150D02*
X14713468Y-14349674D01*
X14713468Y-14349674D02*
X14722991Y-14368722D01*
X14722991Y-14368722D02*
X14722991Y-14387769D01*
X14722991Y-14387769D02*
X14627753Y-14406817D01*
X14799182Y-14463960D02*
X14818230Y-14473484D01*
X14818230Y-14473484D02*
X14856325Y-14473484D01*
X14856325Y-14473484D02*
X14875372Y-14463960D01*
X14875372Y-14463960D02*
X14884896Y-14444912D01*
X14884896Y-14444912D02*
X14884896Y-14435388D01*
X14884896Y-14435388D02*
X14875372Y-14416341D01*
X14875372Y-14416341D02*
X14856325Y-14406817D01*
X14856325Y-14406817D02*
X14827753Y-14406817D01*
X14827753Y-14406817D02*
X14808706Y-14397293D01*
X14808706Y-14397293D02*
X14799182Y-14378246D01*
X14799182Y-14378246D02*
X14799182Y-14368722D01*
X14799182Y-14368722D02*
X14808706Y-14349674D01*
X14808706Y-14349674D02*
X14827753Y-14340150D01*
X14827753Y-14340150D02*
X14856325Y-14340150D01*
X14856325Y-14340150D02*
X14875372Y-14349674D01*
X14951563Y-14549674D02*
X14961087Y-14540150D01*
X14961087Y-14540150D02*
X14980134Y-14511579D01*
X14980134Y-14511579D02*
X14989658Y-14492531D01*
X14989658Y-14492531D02*
X14999182Y-14463960D01*
X14999182Y-14463960D02*
X15008706Y-14416341D01*
X15008706Y-14416341D02*
X15008706Y-14378246D01*
X15008706Y-14378246D02*
X14999182Y-14330627D01*
X14999182Y-14330627D02*
X14989658Y-14302055D01*
X14989658Y-14302055D02*
X14980134Y-14283008D01*
X14980134Y-14283008D02*
X14961087Y-14254436D01*
X14961087Y-14254436D02*
X14951563Y-14244912D01*
X15313468Y-14549674D02*
X15303944Y-14540150D01*
X15303944Y-14540150D02*
X15284896Y-14511579D01*
X15284896Y-14511579D02*
X15275372Y-14492531D01*
X15275372Y-14492531D02*
X15265849Y-14463960D01*
X15265849Y-14463960D02*
X15256325Y-14416341D01*
X15256325Y-14416341D02*
X15256325Y-14378246D01*
X15256325Y-14378246D02*
X15265849Y-14330627D01*
X15265849Y-14330627D02*
X15275372Y-14302055D01*
X15275372Y-14302055D02*
X15284896Y-14283008D01*
X15284896Y-14283008D02*
X15303944Y-14254436D01*
X15303944Y-14254436D02*
X15313468Y-14244912D01*
X15389658Y-14340150D02*
X15389658Y-14473484D01*
X15389658Y-14359198D02*
X15399182Y-14349674D01*
X15399182Y-14349674D02*
X15418230Y-14340150D01*
X15418230Y-14340150D02*
X15446801Y-14340150D01*
X15446801Y-14340150D02*
X15465849Y-14349674D01*
X15465849Y-14349674D02*
X15475372Y-14368722D01*
X15475372Y-14368722D02*
X15475372Y-14473484D01*
X15599182Y-14473484D02*
X15580134Y-14463960D01*
X15580134Y-14463960D02*
X15570611Y-14454436D01*
X15570611Y-14454436D02*
X15561087Y-14435388D01*
X15561087Y-14435388D02*
X15561087Y-14378246D01*
X15561087Y-14378246D02*
X15570611Y-14359198D01*
X15570611Y-14359198D02*
X15580134Y-14349674D01*
X15580134Y-14349674D02*
X15599182Y-14340150D01*
X15599182Y-14340150D02*
X15627753Y-14340150D01*
X15627753Y-14340150D02*
X15646801Y-14349674D01*
X15646801Y-14349674D02*
X15656325Y-14359198D01*
X15656325Y-14359198D02*
X15665849Y-14378246D01*
X15665849Y-14378246D02*
X15665849Y-14435388D01*
X15665849Y-14435388D02*
X15656325Y-14454436D01*
X15656325Y-14454436D02*
X15646801Y-14463960D01*
X15646801Y-14463960D02*
X15627753Y-14473484D01*
X15627753Y-14473484D02*
X15599182Y-14473484D01*
X15722992Y-14340150D02*
X15799182Y-14340150D01*
X15751563Y-14273484D02*
X15751563Y-14444912D01*
X15751563Y-14444912D02*
X15761087Y-14463960D01*
X15761087Y-14463960D02*
X15780134Y-14473484D01*
X15780134Y-14473484D02*
X15799182Y-14473484D01*
X16018230Y-14340150D02*
X16018230Y-14540150D01*
X16018230Y-14349674D02*
X16037277Y-14340150D01*
X16037277Y-14340150D02*
X16075373Y-14340150D01*
X16075373Y-14340150D02*
X16094420Y-14349674D01*
X16094420Y-14349674D02*
X16103944Y-14359198D01*
X16103944Y-14359198D02*
X16113468Y-14378246D01*
X16113468Y-14378246D02*
X16113468Y-14435388D01*
X16113468Y-14435388D02*
X16103944Y-14454436D01*
X16103944Y-14454436D02*
X16094420Y-14463960D01*
X16094420Y-14463960D02*
X16075373Y-14473484D01*
X16075373Y-14473484D02*
X16037277Y-14473484D01*
X16037277Y-14473484D02*
X16018230Y-14463960D01*
X16227753Y-14473484D02*
X16208706Y-14463960D01*
X16208706Y-14463960D02*
X16199182Y-14444912D01*
X16199182Y-14444912D02*
X16199182Y-14273484D01*
X16389658Y-14473484D02*
X16389658Y-14368722D01*
X16389658Y-14368722D02*
X16380134Y-14349674D01*
X16380134Y-14349674D02*
X16361087Y-14340150D01*
X16361087Y-14340150D02*
X16322992Y-14340150D01*
X16322992Y-14340150D02*
X16303944Y-14349674D01*
X16389658Y-14463960D02*
X16370611Y-14473484D01*
X16370611Y-14473484D02*
X16322992Y-14473484D01*
X16322992Y-14473484D02*
X16303944Y-14463960D01*
X16303944Y-14463960D02*
X16294420Y-14444912D01*
X16294420Y-14444912D02*
X16294420Y-14425865D01*
X16294420Y-14425865D02*
X16303944Y-14406817D01*
X16303944Y-14406817D02*
X16322992Y-14397293D01*
X16322992Y-14397293D02*
X16370611Y-14397293D01*
X16370611Y-14397293D02*
X16389658Y-14387769D01*
X16456325Y-14340150D02*
X16532515Y-14340150D01*
X16484896Y-14273484D02*
X16484896Y-14444912D01*
X16484896Y-14444912D02*
X16494420Y-14463960D01*
X16494420Y-14463960D02*
X16513468Y-14473484D01*
X16513468Y-14473484D02*
X16532515Y-14473484D01*
X16675373Y-14463960D02*
X16656325Y-14473484D01*
X16656325Y-14473484D02*
X16618230Y-14473484D01*
X16618230Y-14473484D02*
X16599182Y-14463960D01*
X16599182Y-14463960D02*
X16589658Y-14444912D01*
X16589658Y-14444912D02*
X16589658Y-14368722D01*
X16589658Y-14368722D02*
X16599182Y-14349674D01*
X16599182Y-14349674D02*
X16618230Y-14340150D01*
X16618230Y-14340150D02*
X16656325Y-14340150D01*
X16656325Y-14340150D02*
X16675373Y-14349674D01*
X16675373Y-14349674D02*
X16684896Y-14368722D01*
X16684896Y-14368722D02*
X16684896Y-14387769D01*
X16684896Y-14387769D02*
X16589658Y-14406817D01*
X16856325Y-14473484D02*
X16856325Y-14273484D01*
X16856325Y-14463960D02*
X16837277Y-14473484D01*
X16837277Y-14473484D02*
X16799182Y-14473484D01*
X16799182Y-14473484D02*
X16780135Y-14463960D01*
X16780135Y-14463960D02*
X16770611Y-14454436D01*
X16770611Y-14454436D02*
X16761087Y-14435388D01*
X16761087Y-14435388D02*
X16761087Y-14378246D01*
X16761087Y-14378246D02*
X16770611Y-14359198D01*
X16770611Y-14359198D02*
X16780135Y-14349674D01*
X16780135Y-14349674D02*
X16799182Y-14340150D01*
X16799182Y-14340150D02*
X16837277Y-14340150D01*
X16837277Y-14340150D02*
X16856325Y-14349674D01*
X16932516Y-14549674D02*
X16942039Y-14540150D01*
X16942039Y-14540150D02*
X16961087Y-14511579D01*
X16961087Y-14511579D02*
X16970611Y-14492531D01*
X16970611Y-14492531D02*
X16980135Y-14463960D01*
X16980135Y-14463960D02*
X16989658Y-14416341D01*
X16989658Y-14416341D02*
X16989658Y-14378246D01*
X16989658Y-14378246D02*
X16980135Y-14330627D01*
X16980135Y-14330627D02*
X16970611Y-14302055D01*
X16970611Y-14302055D02*
X16961087Y-14283008D01*
X16961087Y-14283008D02*
X16942039Y-14254436D01*
X16942039Y-14254436D02*
X16932516Y-14244912D01*
M02*
