%TF.GenerationSoftware,KiCad,Pcbnew,8.0.2*%
%TF.CreationDate,2024-08-26T11:56:27+09:00*%
%TF.ProjectId,FPGA_Board_v1,46504741-5f42-46f6-9172-645f76312e6b,rev?*%
%TF.SameCoordinates,Original*%
%TF.FileFunction,Soldermask,Top*%
%TF.FilePolarity,Negative*%
%FSLAX46Y46*%
G04 Gerber Fmt 4.6, Leading zero omitted, Abs format (unit mm)*
G04 Created by KiCad (PCBNEW 8.0.2) date 2024-08-26 11:56:27*
%MOMM*%
%LPD*%
G01*
G04 APERTURE LIST*
G04 Aperture macros list*
%AMRoundRect*
0 Rectangle with rounded corners*
0 $1 Rounding radius*
0 $2 $3 $4 $5 $6 $7 $8 $9 X,Y pos of 4 corners*
0 Add a 4 corners polygon primitive as box body*
4,1,4,$2,$3,$4,$5,$6,$7,$8,$9,$2,$3,0*
0 Add four circle primitives for the rounded corners*
1,1,$1+$1,$2,$3*
1,1,$1+$1,$4,$5*
1,1,$1+$1,$6,$7*
1,1,$1+$1,$8,$9*
0 Add four rect primitives between the rounded corners*
20,1,$1+$1,$2,$3,$4,$5,0*
20,1,$1+$1,$4,$5,$6,$7,0*
20,1,$1+$1,$6,$7,$8,$9,0*
20,1,$1+$1,$8,$9,$2,$3,0*%
G04 Aperture macros list end*
%ADD10R,1.700000X1.700000*%
%ADD11O,1.700000X1.700000*%
%ADD12C,1.600000*%
%ADD13O,1.600000X1.600000*%
%ADD14R,1.000000X1.550000*%
%ADD15C,3.200000*%
%ADD16R,1.600000X1.600000*%
%ADD17C,1.500000*%
%ADD18RoundRect,0.225000X-0.250000X0.225000X-0.250000X-0.225000X0.250000X-0.225000X0.250000X0.225000X0*%
%ADD19C,1.700000*%
G04 APERTURE END LIST*
D10*
%TO.C,J3*%
X147970000Y-116205000D03*
D11*
X150510000Y-116205000D03*
X153050000Y-116205000D03*
X155590000Y-116205000D03*
X158130000Y-116205000D03*
X160670000Y-116205000D03*
X163210000Y-116205000D03*
X165750000Y-116205000D03*
%TD*%
D12*
%TO.C,R6*%
X159980000Y-81040000D03*
D13*
X152360000Y-81040000D03*
%TD*%
D14*
%TO.C,SW3*%
X178650000Y-48175000D03*
X178650000Y-53425000D03*
X176950000Y-48175000D03*
X176950000Y-53425000D03*
%TD*%
D15*
%TO.C,H2*%
X196195000Y-42545000D03*
%TD*%
D16*
%TO.C,U3*%
X177810000Y-111760000D03*
D13*
X180350000Y-111760000D03*
X182890000Y-111760000D03*
X185430000Y-111760000D03*
X187970000Y-111760000D03*
X190510000Y-111760000D03*
X193050000Y-111760000D03*
X195590000Y-111760000D03*
X198130000Y-111760000D03*
X198130000Y-104140000D03*
X195590000Y-104140000D03*
X193050000Y-104140000D03*
X190510000Y-104140000D03*
X187970000Y-104140000D03*
X185430000Y-104140000D03*
X182890000Y-104140000D03*
X180350000Y-104140000D03*
X177810000Y-104140000D03*
%TD*%
D14*
%TO.C,SW2*%
X188810000Y-48175000D03*
X188810000Y-53425000D03*
X187110000Y-48175000D03*
X187110000Y-53425000D03*
%TD*%
D15*
%TO.C,H4*%
X107295000Y-132080000D03*
%TD*%
D17*
%TO.C,U2*%
X173400000Y-96520000D03*
X175940000Y-96520000D03*
X178480000Y-96520000D03*
X181020000Y-96520000D03*
X183560000Y-96520000D03*
X186100000Y-96520000D03*
X188640000Y-96520000D03*
X191180000Y-96520000D03*
X191160000Y-68120000D03*
X188620000Y-68120000D03*
X186080000Y-68120000D03*
X183540000Y-68120000D03*
X181000000Y-68120000D03*
X178460000Y-68120000D03*
X175920000Y-68120000D03*
X173380000Y-68120000D03*
%TD*%
D10*
%TO.C,J2*%
X142815000Y-52070000D03*
D11*
X142815000Y-54610000D03*
X142815000Y-57150000D03*
X142815000Y-59690000D03*
X142815000Y-62230000D03*
X142815000Y-64770000D03*
X142815000Y-67310000D03*
X142815000Y-69850000D03*
X142815000Y-72390000D03*
X142815000Y-74930000D03*
X142815000Y-77470000D03*
X142815000Y-80010000D03*
X142815000Y-82550000D03*
X142815000Y-85090000D03*
X142815000Y-87630000D03*
X142815000Y-90170000D03*
X142815000Y-92710000D03*
X142815000Y-95250000D03*
X142815000Y-97790000D03*
X142815000Y-100330000D03*
X142815000Y-102870000D03*
X142815000Y-105410000D03*
X142815000Y-107950000D03*
X142815000Y-110490000D03*
%TD*%
D16*
%TO.C,SW1*%
X152400000Y-44440000D03*
D13*
X152400000Y-46980000D03*
X152400000Y-49520000D03*
X152400000Y-52060000D03*
X152400000Y-54600000D03*
X152400000Y-57140000D03*
X152400000Y-59680000D03*
X152400000Y-62220000D03*
X160020000Y-62220000D03*
X160020000Y-59680000D03*
X160020000Y-57140000D03*
X160020000Y-54600000D03*
X160020000Y-52060000D03*
X160020000Y-49520000D03*
X160020000Y-46980000D03*
X160020000Y-44440000D03*
%TD*%
D15*
%TO.C,H3*%
X196195000Y-132080000D03*
%TD*%
D12*
%TO.C,R2*%
X159980000Y-101360000D03*
D13*
X152360000Y-101360000D03*
%TD*%
D12*
%TO.C,R1*%
X159980000Y-106440000D03*
D13*
X152360000Y-106440000D03*
%TD*%
D10*
%TO.C,J4*%
X137160000Y-125095000D03*
D11*
X137160000Y-127635000D03*
X137160000Y-130175000D03*
X137160000Y-132715000D03*
%TD*%
D10*
%TO.C,J5*%
X117475000Y-125095000D03*
D11*
X117475000Y-127635000D03*
X117475000Y-130175000D03*
X117475000Y-132715000D03*
%TD*%
D12*
%TO.C,R7*%
X159980000Y-75960000D03*
D13*
X152360000Y-75960000D03*
%TD*%
D12*
%TO.C,R5*%
X159980000Y-86130000D03*
D13*
X152360000Y-86130000D03*
%TD*%
D14*
%TO.C,SW4*%
X168405000Y-48175000D03*
X168405000Y-53425000D03*
X166705000Y-48175000D03*
X166705000Y-53425000D03*
%TD*%
D12*
%TO.C,R8*%
X159980000Y-70880000D03*
D13*
X152360000Y-70880000D03*
%TD*%
D12*
%TO.C,R3*%
X159980000Y-96280000D03*
D13*
X152360000Y-96280000D03*
%TD*%
D10*
%TO.C,J6*%
X111125000Y-116205000D03*
D11*
X111125000Y-118745000D03*
X111125000Y-121285000D03*
X111125000Y-123825000D03*
%TD*%
D10*
%TO.C,J8*%
X153035000Y-124460000D03*
D11*
X155575000Y-124460000D03*
X158115000Y-124460000D03*
X160655000Y-124460000D03*
X163195000Y-124460000D03*
X165735000Y-124460000D03*
%TD*%
D15*
%TO.C,H1*%
X107295000Y-42545000D03*
%TD*%
D18*
%TO.C,C1*%
X172720000Y-116065000D03*
X172720000Y-117615000D03*
%TD*%
D16*
%TO.C,U4*%
X175260000Y-124460000D03*
D12*
X177800000Y-124460000D03*
X180340000Y-124460000D03*
X182880000Y-124460000D03*
X185420000Y-124460000D03*
X187960000Y-124460000D03*
X190500000Y-124460000D03*
X193040000Y-124460000D03*
X193040000Y-116840000D03*
X190500000Y-116840000D03*
X187960000Y-116840000D03*
X185420000Y-116840000D03*
X182880000Y-116840000D03*
X180340000Y-116840000D03*
X177800000Y-116840000D03*
X175260000Y-116840000D03*
%TD*%
%TO.C,R4*%
X159980000Y-91200000D03*
D13*
X152360000Y-91200000D03*
%TD*%
D10*
%TO.C,J1*%
X110450000Y-52070000D03*
D11*
X110450000Y-54610000D03*
X110450000Y-57150000D03*
X110450000Y-59690000D03*
X110450000Y-62230000D03*
X110450000Y-64770000D03*
X110450000Y-67310000D03*
X110450000Y-69850000D03*
X110450000Y-72390000D03*
X110450000Y-74930000D03*
X110450000Y-77470000D03*
X110450000Y-80010000D03*
X110450000Y-82550000D03*
X110450000Y-85090000D03*
X110450000Y-87630000D03*
X110450000Y-90170000D03*
X110450000Y-92710000D03*
X110450000Y-95250000D03*
X110450000Y-97790000D03*
X110450000Y-100330000D03*
X110450000Y-102870000D03*
X110450000Y-105410000D03*
X110450000Y-107950000D03*
X110450000Y-110490000D03*
%TD*%
D10*
%TO.C,J7*%
X106045000Y-116205000D03*
D11*
X106045000Y-118745000D03*
X106045000Y-121285000D03*
X106045000Y-123825000D03*
%TD*%
D19*
%TO.C,U1*%
X115570000Y-52070000D03*
X115570000Y-54610000D03*
X115570000Y-57150000D03*
X115570000Y-59690000D03*
X115570000Y-62230000D03*
X115570000Y-64770000D03*
X115570000Y-67310000D03*
X115570000Y-69850000D03*
X115570000Y-72390000D03*
X115570000Y-74930000D03*
X115570000Y-77470000D03*
X115570000Y-80010000D03*
X115570000Y-82550000D03*
X115570000Y-85090000D03*
X115570000Y-87630000D03*
X115570000Y-90170000D03*
X115570000Y-92710000D03*
X115570000Y-95250000D03*
X115570000Y-97790000D03*
X115570000Y-100330000D03*
X115570000Y-102870000D03*
X115570000Y-105410000D03*
X115570000Y-107950000D03*
X115570000Y-110490000D03*
X138390000Y-110490000D03*
X138390000Y-107950000D03*
X138390000Y-105410000D03*
X138390000Y-102870000D03*
X138390000Y-100330000D03*
X138390000Y-97790000D03*
X138390000Y-95250000D03*
X138390000Y-92710000D03*
X138390000Y-90170000D03*
X138390000Y-87630000D03*
X138390000Y-85090000D03*
X138390000Y-82550000D03*
X138390000Y-80010000D03*
X138390000Y-77470000D03*
X138390000Y-74930000D03*
X138390000Y-72390000D03*
X138390000Y-69850000D03*
X138390000Y-67310000D03*
X138390000Y-64770000D03*
X138390000Y-62230000D03*
X138390000Y-59690000D03*
X138390000Y-57150000D03*
X138390000Y-54610000D03*
X138390000Y-52070000D03*
%TD*%
M02*
